<svg width="1122" height="1814" viewBox="0 0 1122 1814" fill="none" xmlns="http://www.w3.org/2000/svg">
    <g id="OuterContent">
        <g id="Group 36">
            <g id="Group 30">
                <path id="Vector"
                      d="M559.164 189.813C482.778 189.24 366.804 224.772 366.804 224.772L377.841 236.425C377.841 236.425 485.596 206.389 559.164 206.904C632.957 207.42 737.333 239.532 737.333 239.532C741.275 236.425 750.893 227.677 751.524 227.879C751.524 227.879 635.783 190.387 559.164 189.813Z"
                      fill="#974533"/>
                <path id="Vector_2" fill-rule="evenodd" clip-rule="evenodd"
                      d="M362.862 219.334C394.922 203.537 479.54 182.044 559.952 182.044C640.365 182.821 724.982 203.537 757.042 219.334C760.984 219.334 789.365 175.829 850.069 134.655C844.024 136.208 823.58 140.714 790.153 140.093C772.809 144.754 791.099 163.088 782.27 164.953C779.905 158.479 771.548 146.463 757.042 150.192C740.487 225.549 662.439 147.084 746.005 131.547C745.217 127.922 738.594 121.137 718.412 123.001V100.472L712.106 98.1416C709.741 99.9543 703.118 108.086 698.703 116.787L698.491 116.647C692.863 112.948 680.286 104.683 670.323 105.91C670.323 105.91 684.595 126.886 681.36 140.093C670.323 185.151 624.598 143.977 640.365 132.324L626.963 127.663C628.539 140.093 617.818 149.415 603.312 149.415C588.806 149.415 590.437 144.754 589.91 136.208C588.663 116.01 601.735 103.58 626.963 98.1416C626.963 93.2215 623.021 84.1579 599.37 84.1579C582.815 84.1579 571.778 68.6205 571.778 61.6287H548.127C548.127 68.6205 537.09 84.1579 520.534 84.1579C496.883 84.1579 492.942 93.2215 492.942 98.1416C518.169 103.58 531.241 116.01 529.995 136.208C529.467 144.754 531.098 149.415 516.592 149.415C502.087 149.415 491.365 140.093 492.942 127.663L479.54 132.324C495.307 143.977 449.582 185.151 438.545 140.093C435.31 126.886 449.582 105.91 449.582 105.91C439.618 104.683 427.041 112.948 421.413 116.647L421.201 116.787C416.786 108.086 410.164 99.9543 407.799 98.1416L401.492 100.472V123.001C381.31 121.137 374.688 127.922 373.899 131.547C457.465 147.084 379.418 225.549 362.862 150.192C348.357 146.463 340 158.479 337.635 164.953C328.805 163.088 347.095 144.754 329.751 140.093C296.325 140.714 275.88 136.208 269.836 134.655C330.54 175.829 358.921 219.334 362.862 219.334ZM436.968 182.821C441.758 182.821 445.64 178.995 445.64 174.275C445.64 169.555 441.758 165.73 436.968 165.73C432.179 165.73 428.296 169.555 428.296 174.275C428.296 178.995 432.179 182.821 436.968 182.821ZM495.307 175.052C500.096 175.052 503.979 171.226 503.979 166.506C503.979 161.787 500.096 157.961 495.307 157.961C490.517 157.961 486.635 161.787 486.635 166.506C486.635 171.226 490.517 175.052 495.307 175.052ZM682.936 182.821C678.147 182.821 674.264 178.995 674.264 174.275C674.264 169.555 678.147 165.73 682.936 165.73C687.726 165.73 691.608 169.555 691.608 174.275C691.608 178.995 687.726 182.821 682.936 182.821ZM624.598 175.052C619.808 175.052 615.926 171.226 615.926 166.506C615.926 161.787 619.808 157.961 624.598 157.961C629.387 157.961 633.27 161.787 633.27 166.506C633.27 171.226 629.387 175.052 624.598 175.052Z"
                      fill="#974533"/>
                <g id="Group 31">
                    <path id="Ellipse 21"
                          d="M577.161 48.4218C577.161 57.733 569.491 65.3436 559.952 65.3436C550.413 65.3436 542.743 57.733 542.743 48.4218C542.743 39.1106 550.413 31.5 559.952 31.5C569.491 31.5 577.161 39.1106 577.161 48.4218Z"
                          stroke="#974533" stroke-width="5"/>
                    <path id="Ellipse 20"
                          d="M413.683 88.8192C413.683 95.8391 407.899 101.58 400.704 101.58C393.508 101.58 387.725 95.8391 387.725 88.8192C387.725 81.7993 393.508 76.0586 400.704 76.0586C407.899 76.0586 413.683 81.7993 413.683 88.8192Z"
                          stroke="#974533" stroke-width="4"/>
                    <ellipse id="Ellipse 22" cx="483.481" cy="123.778" rx="12.6138" ry="12.43" fill="#974533"/>
                </g>
                <g id="Group 32">
                    <path id="Ellipse 20_2"
                          d="M706.222 88.8192C706.222 95.8391 712.005 101.58 719.201 101.58C726.397 101.58 732.18 95.8391 732.18 88.8192C732.18 81.7993 726.397 76.0586 719.201 76.0586C712.005 76.0586 706.222 81.7993 706.222 88.8192Z"
                          stroke="#974533" stroke-width="4"/>
                    <ellipse id="Ellipse 22_2" cx="12.6137" cy="12.43" rx="12.6137" ry="12.43"
                             transform="matrix(-1 0 0 1 649.037 111.348)" fill="#974533"/>
                </g>
            </g>
            <g id="Group 27">
                <g id="Group 23">
                    <path id="Vector_3"
                          d="M226.2 244.654C219.965 239.796 211.97 228.579 210.13 229.476C208.291 230.374 211.806 243.645 211.309 251.921C211.103 255.345 202.053 262.759 202.817 264.279C203.581 265.799 214.749 262.153 217.296 263.834C223.483 267.917 232.75 279.957 234.959 278.88C237.167 277.802 231.422 264.516 232.187 256.567C232.58 252.489 242.682 246.653 241.926 245.192C241.17 243.732 228.948 246.794 226.2 244.654Z"
                          fill="#BB8147"/>
                    <path id="Vector_4"
                          d="M254.857 232.759C264.012 223.354 294.529 207.681 311.619 207.681V220.22C295.14 220.22 271.336 235.893 262.792 243.417L254.857 232.759Z"
                          fill="#BB8147"/>
                </g>
                <g id="Group 30_2">
                    <path id="Vector_5"
                          d="M890.55 250.869C896.786 246.011 904.781 234.794 906.621 235.691C908.46 236.589 904.945 249.86 905.442 258.136C905.648 261.56 914.698 268.974 913.934 270.494C913.17 272.014 902.002 268.368 899.455 270.049C893.268 274.132 884.001 286.173 881.792 285.095C879.584 284.017 885.329 270.731 884.563 262.782C884.171 258.704 874.069 252.868 874.825 251.407C875.581 249.947 887.803 253.009 890.55 250.869Z"
                          fill="#BB8147"/>
                    <path id="Vector_6"
                          d="M861.894 238.974C852.739 229.569 822.222 213.896 805.132 213.896V226.435C821.611 226.435 845.415 242.108 853.959 249.632L861.894 238.974Z"
                          fill="#BB8147"/>
                </g>
                <g id="Group 29">
                    <path id="Vector_7"
                          d="M755.91 1665.73C758.61 1658.37 759.177 1644.85 761.326 1644.59C763.474 1644.33 768.063 1657.11 773.304 1663.63C775.472 1666.33 787.782 1667.52 787.988 1669.18C788.194 1670.84 776.196 1673.89 774.917 1676.64C771.811 1683.34 770.595 1698.23 768.016 1698.54C765.436 1698.85 762.812 1684.84 757.523 1678.74C754.81 1675.61 742.484 1676.28 742.306 1674.68C742.128 1673.07 754.721 1668.97 755.91 1665.73Z"
                          fill="#BB8147"/>
                    <path id="Vector_8"
                          d="M1016.8 1520.73C1022.47 1517.21 1037.43 1504.93 1042.89 1497.62L1032.95 1493.88C1028.73 1500.76 1015.02 1512.01 1009.35 1515.53L1016.8 1520.73Z"
                          fill="#BB8147"/>
                    <g id="Group 35">
                        <path id="Vector_9"
                              d="M907.736 1588.37C941.516 1567.93 982.579 1520.79 982.579 1520.79L974.448 1518.62C974.448 1518.62 935.459 1561.1 902.935 1580.8C870.312 1600.56 815.353 1614.61 815.353 1614.61C814.491 1617.06 812.715 1623.53 812.381 1623.62C812.381 1623.62 873.853 1608.87 907.736 1588.37Z"
                              fill="#974533"/>
                        <path id="Vector_10" fill-rule="evenodd" clip-rule="evenodd"
                              d="M985.687 1522.03C976.019 1537.7 944.828 1570.1 909.453 1591.86C873.859 1613.28 830.818 1627.01 812.279 1628.7C810.545 1629.77 810.274 1656.69 795.129 1691.33C797.351 1689.01 805.08 1681.48 819.96 1672.71C826.281 1665.96 813.088 1662.8 816.448 1659.58C819.307 1661.81 826.356 1664.86 831.691 1659.29C817.817 1621.47 874.181 1635.06 841.781 1664.55C843.146 1665.94 847.964 1667.14 856.319 1660.86L862.644 1670.82L866.073 1670.15C866.605 1668.71 867.235 1663.32 866.734 1658.27L866.867 1658.28C870.381 1658.39 878.235 1658.64 882.273 1655.4C882.273 1655.4 870.106 1649.99 867.821 1643.27C860.026 1620.36 891.701 1626.19 888.036 1635.61L895.241 1634.05C891.058 1628.98 893.157 1621.95 899.538 1618.03C905.92 1614.1 906.511 1616.61 909.142 1620.24C915.362 1628.84 913.101 1637.88 903.529 1647.11C904.911 1649.28 909.19 1652.23 919.594 1645.83C926.877 1641.35 936.095 1645.23 938.058 1648.32L948.463 1641.92C946.5 1638.83 946.993 1628.97 954.276 1624.49C964.68 1618.09 963.87 1613.02 962.488 1610.84C949.863 1615.26 940.623 1613.3 935.5 1604.03C933.333 1600.11 931.307 1598.49 937.688 1594.56C944.07 1590.64 951.404 1591.86 954.2 1597.78L958.787 1592.09C948.579 1591.21 957.135 1560.62 974.641 1577.56C979.772 1582.53 979.382 1595.67 979.382 1595.67C984.11 1593.52 987.322 1586.46 988.76 1583.3L988.814 1583.18C993.199 1585.83 998.395 1587.64 999.945 1587.8L1002.06 1585.06L995.74 1575.1C1005.14 1570.46 1006.15 1565.67 1005.48 1563.85C964.354 1579.59 976.659 1523.77 1005.1 1552.62C1012.53 1550.34 1012.83 1542.76 1012.05 1539.26C1016.46 1537.7 1013.56 1550.75 1022.5 1548.12C1037.03 1538.8 1047.29 1535.26 1050.39 1534.31C1012.12 1532.53 987.422 1520.97 985.687 1522.03ZM963.338 1558.24C961.231 1559.53 960.597 1562.28 961.922 1564.36C963.247 1566.45 966.029 1567.09 968.136 1565.8C970.243 1564.5 970.877 1561.76 969.552 1559.67C968.227 1557.58 965.445 1556.94 963.338 1558.24ZM939.855 1577.46C937.748 1578.76 937.114 1581.5 938.439 1583.59C939.764 1585.68 942.546 1586.32 944.653 1585.02C946.76 1583.73 947.394 1580.98 946.069 1578.89C944.744 1576.81 941.962 1576.17 939.855 1577.46ZM855.131 1624.8C857.238 1623.5 860.02 1624.15 861.345 1626.23C862.67 1628.32 862.036 1631.06 859.929 1632.36C857.822 1633.66 855.04 1633.01 853.715 1630.93C852.39 1628.84 853.024 1626.1 855.131 1624.8ZM882.976 1612.45C885.083 1611.15 887.866 1611.79 889.191 1613.88C890.516 1615.97 889.882 1618.71 887.775 1620.01C885.668 1621.3 882.886 1620.66 881.561 1618.58C880.236 1616.49 880.87 1613.75 882.976 1612.45Z"
                              fill="#974533"/>
                        <g id="Group 31_2">
                            <path id="Ellipse 21_2"
                                  d="M940.302 1654.8C938.034 1651.22 939.117 1646.53 942.721 1644.32C946.325 1642.1 951.085 1643.2 953.352 1646.77C955.62 1650.34 954.537 1655.03 950.933 1657.25C947.329 1659.46 942.569 1658.37 940.302 1654.8Z"
                                  stroke="#974533" stroke-width="5"/>
                            <path id="Ellipse 20_3"
                                  d="M1000.8 1592.81C999.103 1590.15 999.912 1586.64 1002.6 1584.99C1005.3 1583.33 1008.85 1584.15 1010.54 1586.82C1012.24 1589.49 1011.43 1592.99 1008.74 1594.65C1006.05 1596.3 1002.49 1595.48 1000.8 1592.81Z"
                                  stroke="#974533" stroke-width="4"/>
                            <ellipse id="Ellipse 22_3" cx="6.50228" cy="6.50158" rx="6.50228" ry="6.50158"
                                     transform="matrix(-0.851901 0.523721 -0.536144 -0.844138 968.484 1598.95)"
                                     fill="#974533"/>
                        </g>
                        <g id="Group 32_2">
                            <path id="Ellipse 20_4"
                                  d="M870.298 1673.18C868.604 1670.51 865.048 1669.69 862.356 1671.35C859.664 1673 858.855 1676.5 860.549 1679.17C862.243 1681.84 865.798 1682.66 868.49 1681C871.183 1679.35 871.991 1675.85 870.298 1673.18Z"
                                  stroke="#974533" stroke-width="4"/>
                            <ellipse id="Ellipse 22_4" cx="6.50229" cy="6.5016" rx="6.50229" ry="6.5016"
                                     transform="matrix(0.851902 -0.523719 -0.536145 -0.844137 890.059 1647.23)"
                                     fill="#974533"/>
                        </g>
                    </g>
                </g>
                <g id="Group 31_3">
                    <path id="Vector_11"
                          d="M366.09 1665.73C363.391 1658.37 362.823 1644.85 360.674 1644.59C358.526 1644.33 353.937 1657.11 348.696 1663.63C346.528 1666.33 334.218 1667.52 334.012 1669.18C333.806 1670.84 345.804 1673.89 347.083 1676.64C350.189 1683.34 351.405 1698.23 353.984 1698.54C356.564 1698.85 359.188 1684.84 364.477 1678.74C367.19 1675.61 379.516 1676.28 379.694 1674.68C379.872 1673.07 367.279 1668.97 366.09 1665.73Z"
                          fill="#BB8147"/>
                    <path id="Vector_12"
                          d="M105.197 1520.73C99.5288 1517.21 84.5731 1504.93 79.1149 1497.62L89.0511 1493.88C93.2749 1500.76 106.984 1512.01 112.653 1515.53L105.197 1520.73Z"
                          fill="#BB8147"/>
                    <g id="Group 35_2">
                        <path id="Vector_13"
                              d="M214.264 1588.37C180.484 1567.93 139.421 1520.79 139.421 1520.79L147.552 1518.62C147.552 1518.62 186.541 1561.1 219.065 1580.8C251.688 1600.56 306.647 1614.61 306.647 1614.61C307.509 1617.06 309.285 1623.53 309.619 1623.62C309.619 1623.62 248.147 1608.86 214.264 1588.37Z"
                              fill="#974533"/>
                        <path id="Vector_14" fill-rule="evenodd" clip-rule="evenodd"
                              d="M136.313 1522.03C145.981 1537.7 177.172 1570.1 212.547 1591.86C248.141 1613.28 291.182 1627.01 309.721 1628.7C311.455 1629.77 311.727 1656.69 326.871 1691.33C324.649 1689.01 316.92 1681.48 302.04 1672.71C295.719 1665.96 308.912 1662.8 305.552 1659.58C302.693 1661.81 295.644 1664.86 290.309 1659.29C304.183 1621.47 247.819 1635.06 280.219 1664.55C278.854 1665.94 274.036 1667.14 265.681 1660.86L259.356 1670.82L255.927 1670.15C255.395 1668.71 254.765 1663.32 255.266 1658.27L255.133 1658.28C251.619 1658.39 243.765 1658.64 239.727 1655.4C239.727 1655.4 251.894 1649.99 254.179 1643.27C261.974 1620.36 230.299 1626.19 233.964 1635.61L226.759 1634.05C230.942 1628.98 228.843 1621.95 222.462 1618.03C216.08 1614.1 215.489 1616.61 212.858 1620.24C206.638 1628.84 208.899 1637.87 218.471 1647.11C217.089 1649.28 212.81 1652.23 202.406 1645.83C195.123 1641.34 185.905 1645.23 183.942 1648.32L173.537 1641.92C175.501 1638.83 175.007 1628.97 167.724 1624.49C157.32 1618.09 158.13 1613.02 159.512 1610.84C172.137 1615.26 181.377 1613.3 186.5 1604.03C188.667 1600.11 190.693 1598.49 184.312 1594.56C177.93 1590.64 170.596 1591.86 167.8 1597.78L163.213 1592.09C173.421 1591.21 164.866 1560.62 147.359 1577.56C142.228 1582.53 142.618 1595.67 142.618 1595.67C137.89 1593.52 134.678 1586.46 133.24 1583.3L133.186 1583.18C128.801 1585.83 123.605 1587.64 122.055 1587.8L119.935 1585.06L126.26 1575.1C116.858 1570.46 115.85 1565.67 116.521 1563.85C157.646 1579.59 145.341 1523.77 116.9 1552.62C109.472 1550.34 109.169 1542.76 109.946 1539.26C105.539 1537.7 108.437 1550.75 99.4985 1548.12C84.968 1538.8 74.7088 1535.26 71.6136 1534.31C109.879 1532.53 134.578 1520.97 136.313 1522.03ZM158.662 1558.24C160.769 1559.53 161.403 1562.28 160.078 1564.36C158.753 1566.45 155.971 1567.09 153.864 1565.8C151.757 1564.5 151.123 1561.76 152.448 1559.67C153.773 1557.58 156.555 1556.94 158.662 1558.24ZM182.145 1577.46C184.252 1578.76 184.886 1581.5 183.561 1583.59C182.236 1585.68 179.454 1586.32 177.347 1585.02C175.24 1583.72 174.606 1580.98 175.931 1578.89C177.256 1576.81 180.038 1576.16 182.145 1577.46ZM266.869 1624.8C264.762 1623.5 261.98 1624.15 260.655 1626.23C259.33 1628.32 259.964 1631.06 262.071 1632.36C264.178 1633.66 266.96 1633.01 268.285 1630.93C269.61 1628.84 268.976 1626.1 266.869 1624.8ZM239.024 1612.45C236.917 1611.15 234.134 1611.79 232.809 1613.88C231.484 1615.97 232.118 1618.71 234.225 1620.01C236.332 1621.3 239.114 1620.66 240.439 1618.58C241.764 1616.49 241.131 1613.74 239.024 1612.45Z"
                              fill="#974533"/>
                        <g id="Group 31_4">
                            <path id="Ellipse 21_3"
                                  d="M181.698 1654.79C183.966 1651.22 182.883 1646.53 179.279 1644.32C175.675 1642.1 170.915 1643.2 168.648 1646.77C166.38 1650.34 167.463 1655.03 171.067 1657.25C174.671 1659.46 179.431 1658.37 181.698 1654.79Z"
                                  stroke="#974533" stroke-width="5"/>
                            <path id="Ellipse 20_5"
                                  d="M121.203 1592.81C122.897 1590.15 122.089 1586.64 119.396 1584.99C116.704 1583.33 113.149 1584.15 111.455 1586.82C109.761 1589.49 110.57 1592.99 113.262 1594.64C115.954 1596.3 119.51 1595.48 121.203 1592.81Z"
                                  stroke="#974533" stroke-width="4"/>
                            <ellipse id="Ellipse 22_5" cx="6.50227" cy="6.50155" rx="6.50227" ry="6.50155"
                                     transform="matrix(0.851903 0.523718 0.536147 -0.844137 153.516 1598.95)"
                                     fill="#974533"/>
                        </g>
                        <g id="Group 32_3">
                            <path id="Ellipse 20_6"
                                  d="M251.703 1673.18C253.397 1670.51 256.952 1669.69 259.644 1671.35C262.336 1673 263.145 1676.5 261.451 1679.17C259.757 1681.84 256.202 1682.66 253.51 1681C250.818 1679.35 250.009 1675.84 251.703 1673.18Z"
                                  stroke="#974533" stroke-width="4"/>
                            <ellipse id="Ellipse 22_6" cx="6.50226" cy="6.50156" rx="6.50226" ry="6.50156"
                                     transform="matrix(-0.851903 -0.523718 0.536147 -0.844136 231.941 1647.23)"
                                     fill="#974533"/>
                        </g>
                    </g>
                </g>
            </g>
        </g>
    </g>
</svg>
