<svg width="1122" height="1814" viewBox="0 0 1122 1814" fill="none" xmlns="http://www.w3.org/2000/svg">
    <g id="OuterContent">
        <g id="Group 33">
            <g id="Group 26">
                <g id="Group 23">
                    <path id="Vector"
                          d="M236.129 214.714C229.075 209.142 220.03 196.276 217.949 197.306C215.868 198.336 219.844 213.557 219.282 223.05C219.05 226.977 208.811 235.48 209.675 237.223C210.54 238.967 223.174 234.786 226.055 236.714C233.054 241.396 243.538 255.207 246.037 253.97C248.536 252.734 242.036 237.495 242.902 228.378C243.347 223.701 254.775 217.007 253.92 215.332C253.064 213.657 239.237 217.169 236.129 214.714Z"
                          fill="#BB8147"/>
                    <path id="Vector_2"
                          d="M299.438 194.32C311.082 182.686 349.896 163.297 371.632 163.297V178.808C350.672 178.808 320.397 198.198 309.529 207.504L299.438 194.32Z"
                          fill="#BB8147"/>
                </g>
                <g id="Group 24">
                    <path id="Vector_3"
                          d="M877.423 214.714C884.477 209.142 893.522 196.276 895.603 197.306C897.684 198.336 893.708 213.557 894.27 223.05C894.503 226.977 904.741 235.48 903.877 237.223C903.013 238.967 890.379 234.786 887.497 236.714C880.498 241.396 870.014 255.207 867.515 253.97C865.017 252.734 871.516 237.495 870.65 228.378C870.206 223.701 858.777 217.007 859.633 215.332C860.488 213.657 874.315 217.169 877.423 214.714Z"
                          fill="#BB8147"/>
                    <path id="Vector_4"
                          d="M814.115 194.32C802.47 182.686 763.656 163.297 741.92 163.297V178.808C762.88 178.808 793.155 198.198 804.023 207.504L814.115 194.32Z"
                          fill="#BB8147"/>
                </g>
                <g id="Group 28">
                    <path id="Vector_5"
                          d="M364.053 1655.07C360.748 1647.99 358.984 1634.6 356.854 1634.53C354.723 1634.46 351.365 1647.58 346.807 1654.52C344.921 1657.39 332.954 1659.65 332.9 1661.32C332.846 1662.99 344.886 1664.97 346.386 1667.6C350.03 1673.98 352.552 1688.68 355.109 1688.76C357.667 1688.84 358.99 1674.69 363.632 1668.15C366.013 1664.8 378.162 1664.39 378.194 1662.77C378.225 1661.16 365.509 1658.19 364.053 1655.07Z"
                          fill="#BB8147"/>
                    <path id="Vector_6"
                          d="M113.906 1511.25C106.919 1505.82 88.2885 1487.2 81.3019 1476.35L92.8929 1471.62C98.3802 1481.77 115.459 1498.84 122.445 1504.27L113.906 1511.25Z"
                          fill="#BB8147"/>
                    <g id="Group 27">
                        <g id="Vector_7">
                            <path fill-rule="evenodd" clip-rule="evenodd"
                                  d="M280.619 1675.21L288.647 1662.67C277.997 1653.25 291.092 1655.72 300.011 1641.79C305.958 1632.5 298.72 1606.28 295.395 1609.39C295.02 1608.94 295.044 1606.81 298.136 1601.98C283.841 1597.21 253.774 1584.76 221.569 1564.19C189.365 1543.61 165.442 1521.57 155.111 1510.6C152.019 1515.43 150.101 1516.35 149.528 1516.2C150.959 1511.88 124.098 1516.31 118.152 1525.6C109.232 1539.53 116.975 1550.37 103.946 1544.66L95.9179 1557.2C98.3482 1557.23 104.629 1558.19 110.313 1561.82L116.127 1552.74C116.166 1552.66 116.21 1552.59 116.259 1552.53L116.127 1552.74C115.167 1554.58 117.364 1560.13 133.474 1569.42C132.16 1574.25 130.524 1586.12 134.489 1594.93C133.3 1596.79 131.516 1599.58 124.765 1596.57L124.083 1611.19L136.473 1610.6C139.556 1609.95 137.602 1603.21 140.404 1601.33C142.761 1608.07 161.286 1621.87 174.976 1623.42L171.408 1628.99L183.722 1636.86L187.289 1631.29C194.438 1643.05 214.747 1654.06 221.862 1653.38C221.333 1656.7 214.384 1657.76 215.089 1660.83L219.749 1672.31L232.744 1665.56C227.182 1660.7 228.966 1657.91 230.155 1656.06C239.829 1655.95 249.927 1649.49 253.767 1646.27C268.963 1656.99 274.93 1656.65 276.201 1655.01L276.334 1654.8C276.297 1654.87 276.253 1654.94 276.201 1655.01L270.387 1664.09C276.07 1667.72 279.577 1673.02 280.619 1675.21ZM226.046 1636.42C215.395 1639.3 202.608 1633.65 193.709 1622.3L197.575 1616.26L217.784 1618.05L213.62 1596.41L218.971 1588.05C258.367 1599.48 246.179 1630.97 226.046 1636.42ZM291.771 1612.97C290.202 1611.97 288.131 1612.4 287.146 1613.94C286.161 1615.48 286.634 1617.54 288.204 1618.54C289.773 1619.54 291.844 1619.11 292.829 1617.57C293.814 1616.03 293.341 1613.97 291.771 1612.97ZM258.246 1600.71C256.154 1599.37 253.392 1599.95 252.079 1602C250.765 1604.06 251.396 1606.8 253.489 1608.14C255.581 1609.48 258.343 1608.9 259.656 1606.85C260.97 1604.79 260.339 1602.05 258.246 1600.71ZM269.536 1616.43C270.309 1620.85 269.217 1627.35 266.541 1631.53C261.784 1638.96 276.666 1648.86 285.088 1634.87C293.666 1614.18 268.376 1609.8 269.536 1616.43ZM154.059 1590.42C155.907 1601.29 166.407 1610.52 180.449 1613.83L184.314 1607.79L174.214 1590.21L195.623 1584.91L200.975 1576.55C174.068 1545.62 150.568 1569.88 154.059 1590.42ZM147.799 1520.98C149.368 1521.99 149.842 1524.05 148.857 1525.58C147.871 1527.12 145.8 1527.56 144.231 1526.56C142.662 1525.55 142.188 1523.49 143.174 1521.95C144.159 1520.41 146.23 1519.98 147.799 1520.98ZM172.999 1546.25C175.092 1547.58 175.723 1550.33 174.409 1552.38C173.096 1554.43 170.335 1555.01 168.242 1553.68C166.15 1552.34 165.518 1549.59 166.832 1547.54C168.146 1545.49 170.907 1544.91 172.999 1546.25ZM153.979 1542.6C149.638 1543.75 144.189 1547.47 141.513 1551.65C136.755 1559.08 121.516 1549.74 130.696 1536.23C145.904 1519.77 160.491 1540.87 153.979 1542.6ZM215.028 1574.41C212.412 1572.74 208.961 1573.46 207.319 1576.03C205.677 1578.59 206.466 1582.02 209.081 1583.7C211.697 1585.37 215.149 1584.64 216.791 1582.08C218.433 1579.51 217.644 1576.08 215.028 1574.41Z"
                                  fill="#BB8147"/>
                            <path d="M300.215 1596.54C285.919 1591.77 256.628 1580.1 224.424 1559.52C192.22 1538.95 168.297 1516.9 157.966 1505.94L165.157 1496.51C175.488 1507.47 197.376 1529.44 229.58 1550.02C261.785 1570.59 290.005 1582.34 304.301 1587.11L300.215 1596.54Z"
                                  fill="#BB8147"/>
                        </g>
                        <rect id="Rectangle 8" width="14.6119" height="8.82333"
                              transform="matrix(-0.84269 -0.5384 0.53916 -0.842203 183.134 1637.78)" fill="#BB8147"/>
                        <path id="Subtract" fill-rule="evenodd" clip-rule="evenodd"
                              d="M161.192 1631.97L165.68 1651.49L185.306 1647.37L180.819 1627.85L161.192 1631.97ZM168.951 1646.38L173.466 1641.42L178.796 1643.51L174.655 1639.56L177.276 1633.38L172.761 1638.35L167.431 1636.25L171.572 1640.21L168.951 1646.38Z"
                              fill="#BB8147"/>
                        <g id="Rectangle 10">
                            <mask id="path-10-inside-1_115_268" fill="white">
                                <rect width="12.8816" height="12.8861" rx="1"
                                      transform="matrix(-0.22394 -0.974177 0.97908 -0.205504 186.354 1658.81)"/>
                            </mask>
                            <rect width="12.8816" height="12.8861" rx="1"
                                  transform="matrix(-0.22394 -0.974177 0.97908 -0.205504 186.354 1658.81)"
                                  stroke="#BB8147" stroke-width="4" mask="url(#path-10-inside-1_115_268)"/>
                        </g>
                        <g id="Rectangle 11">
                            <mask id="path-11-inside-2_115_268" fill="white">
                                <rect width="12.8817" height="12.8861" rx="1"
                                      transform="matrix(-0.223938 -0.974177 0.97908 -0.205506 150.358 1635.81)"/>
                            </mask>
                            <rect width="12.8817" height="12.8861" rx="1"
                                  transform="matrix(-0.223938 -0.974177 0.97908 -0.205506 150.358 1635.81)"
                                  stroke="#BB8147" stroke-width="4" mask="url(#path-11-inside-2_115_268)"/>
                        </g>
                        <g id="Rectangle 12">
                            <mask id="path-12-inside-3_115_268" fill="white">
                                <rect width="12.8816" height="12.8861" rx="1"
                                      transform="matrix(-0.22394 -0.974177 0.97908 -0.205504 157.358 1664.49)"/>
                            </mask>
                            <rect width="12.8816" height="12.8861" rx="1"
                                  transform="matrix(-0.22394 -0.974177 0.97908 -0.205504 157.358 1664.49)"
                                  stroke="#BB8147" stroke-width="6" mask="url(#path-12-inside-3_115_268)"/>
                        </g>
                        <rect id="Rectangle 13" width="4.4957" height="5.51423"
                              transform="matrix(-0.842691 -0.538398 0.539161 -0.842202 184.534 1650.19)"
                              fill="#BB8147"/>
                        <rect id="Rectangle 14" width="4.4957" height="5.51423"
                              transform="matrix(-0.842691 -0.538398 0.539161 -0.842202 162.747 1636.27)"
                              fill="#BB8147"/>
                        <rect id="Rectangle 15" width="6.74369" height="6.61723"
                              transform="matrix(-0.84269 -0.5384 0.53916 -0.842203 167.929 1654.24)" fill="#BB8147"/>
                    </g>
                </g>
                <g id="Group 29">
                    <path id="Vector_8"
                          d="M756.947 1659.57C760.252 1652.49 762.016 1639.09 764.146 1639.02C766.277 1638.95 769.636 1652.07 774.194 1659.01C776.079 1661.88 788.046 1664.14 788.1 1665.81C788.154 1667.48 776.115 1669.46 774.614 1672.09C770.97 1678.47 768.449 1693.17 765.891 1693.25C763.333 1693.33 762.01 1679.18 757.368 1672.64C754.987 1669.29 742.838 1668.88 742.807 1667.27C742.775 1665.65 755.492 1662.68 756.947 1659.57Z"
                          fill="#BB8147"/>
                    <path id="Vector_9"
                          d="M1007.09 1515.74C1014.08 1510.31 1032.71 1491.7 1039.7 1480.84L1028.11 1476.11C1022.62 1486.27 1005.54 1503.33 998.555 1508.76L1007.09 1515.74Z"
                          fill="#BB8147"/>
                    <g id="Group 27_2">
                        <g id="Vector_10">
                            <path fill-rule="evenodd" clip-rule="evenodd"
                                  d="M840.381 1679.7L832.353 1667.16C843.004 1657.74 829.909 1660.22 820.989 1646.28C815.042 1636.99 822.28 1610.78 825.606 1613.89C825.98 1613.43 825.956 1611.31 822.864 1606.48C837.159 1601.7 867.227 1589.26 899.431 1568.68C931.635 1548.11 955.558 1526.06 965.889 1515.1C968.981 1519.93 970.9 1520.84 971.472 1520.69C970.041 1516.37 996.902 1520.8 1002.85 1530.09C1011.77 1544.03 1004.03 1554.86 1017.05 1549.16L1025.08 1561.7C1022.65 1561.72 1016.37 1562.68 1010.69 1566.31L1004.87 1557.23C1004.83 1557.15 1004.79 1557.09 1004.74 1557.02L1004.87 1557.23C1005.83 1559.07 1003.64 1564.62 987.526 1573.91C988.84 1578.74 990.477 1590.61 986.511 1599.43C987.7 1601.28 989.484 1604.07 996.236 1601.07L996.918 1615.68L984.528 1615.09C981.444 1614.44 983.398 1607.7 980.597 1605.82C978.239 1612.56 959.714 1626.36 946.024 1627.91L949.592 1633.49L937.279 1641.35L933.711 1635.78C926.562 1647.54 906.253 1658.56 899.138 1657.87C899.667 1661.19 906.616 1662.25 905.911 1665.32L901.252 1676.8L888.256 1670.06C893.818 1665.19 892.035 1662.41 890.845 1660.55C881.171 1660.45 871.073 1653.99 867.233 1650.77C852.037 1661.48 846.07 1661.15 844.799 1659.5L844.667 1659.3C844.703 1659.37 844.747 1659.44 844.799 1659.5L850.613 1668.58C844.93 1672.22 841.424 1677.51 840.381 1679.7ZM894.955 1640.91C905.606 1643.79 918.393 1638.14 927.291 1626.79L923.425 1620.76L903.216 1622.54L907.38 1600.9L902.029 1592.54C862.633 1603.97 874.821 1635.46 894.955 1640.91ZM829.229 1617.46C830.798 1616.46 832.869 1616.89 833.854 1618.43C834.84 1619.97 834.366 1622.03 832.797 1623.03C831.227 1624.04 829.156 1623.6 828.171 1622.06C827.186 1620.52 827.659 1618.46 829.229 1617.46ZM862.754 1605.2C864.847 1603.87 867.608 1604.45 868.922 1606.5C870.235 1608.55 869.604 1611.3 867.511 1612.63C865.419 1613.97 862.658 1613.39 861.344 1611.34C860.03 1609.29 860.662 1606.54 862.754 1605.2ZM851.464 1620.92C850.691 1625.34 851.783 1631.84 854.459 1636.02C859.216 1643.46 844.335 1653.36 835.913 1639.37C827.335 1618.67 852.625 1614.29 851.464 1620.92ZM966.941 1594.92C965.094 1605.78 954.593 1615.01 940.552 1618.32L936.686 1612.28L946.786 1594.7L925.377 1589.41L920.026 1581.05C946.933 1550.11 970.432 1574.37 966.941 1594.92ZM973.201 1525.48C971.632 1526.48 971.158 1528.54 972.144 1530.08C973.129 1531.62 975.2 1532.05 976.769 1531.05C978.338 1530.05 978.812 1527.99 977.827 1526.45C976.841 1524.91 974.771 1524.47 973.201 1525.48ZM948.001 1550.74C945.909 1552.07 945.277 1554.82 946.591 1556.87C947.905 1558.93 950.666 1559.51 952.758 1558.17C954.851 1556.83 955.482 1554.08 954.168 1552.03C952.855 1549.98 950.093 1549.4 948.001 1550.74ZM967.021 1547.09C971.363 1548.25 976.812 1551.96 979.488 1556.14C984.245 1563.57 999.484 1554.23 990.304 1540.73C975.096 1524.27 960.509 1545.36 967.021 1547.09ZM905.972 1578.9C908.588 1577.23 912.039 1577.95 913.681 1580.52C915.324 1583.08 914.534 1586.52 911.919 1588.19C909.303 1589.86 905.852 1589.13 904.21 1586.57C902.567 1584 903.357 1580.57 905.972 1578.9Z"
                                  fill="#BB8147"/>
                            <path d="M820.785 1601.04C835.081 1596.27 864.372 1584.59 896.576 1564.02C928.781 1543.44 952.703 1521.4 963.034 1510.43L955.843 1501C945.512 1511.96 923.624 1533.93 891.42 1554.51C859.216 1575.09 830.995 1586.83 816.699 1591.61L820.785 1601.04Z"
                                  fill="#BB8147"/>
                        </g>
                        <rect id="Rectangle 8_2" width="14.6119" height="8.82333"
                              transform="matrix(0.842689 -0.5384 -0.53916 -0.842204 937.866 1642.27)" fill="#BB8147"/>
                        <path id="Subtract_2" fill-rule="evenodd" clip-rule="evenodd"
                              d="M959.808 1636.46L955.321 1655.98L935.694 1651.86L940.181 1632.34L959.808 1636.46ZM952.049 1650.88L947.534 1645.91L942.204 1648.01L946.345 1644.05L943.724 1637.87L948.239 1642.84L953.569 1640.74L949.428 1644.7L952.049 1650.88Z"
                              fill="#BB8147"/>
                        <g id="Rectangle 10_2">
                            <mask id="path-21-inside-4_115_268" fill="white">
                                <rect width="12.8816" height="12.8861" rx="1"
                                      transform="matrix(0.22394 -0.974177 -0.97908 -0.205504 934.646 1663.31)"/>
                            </mask>
                            <rect width="12.8816" height="12.8861" rx="1"
                                  transform="matrix(0.22394 -0.974177 -0.97908 -0.205504 934.646 1663.31)"
                                  stroke="#BB8147" stroke-width="4" mask="url(#path-21-inside-4_115_268)"/>
                        </g>
                        <g id="Rectangle 11_2">
                            <mask id="path-22-inside-5_115_268" fill="white">
                                <rect width="12.8816" height="12.8861" rx="1"
                                      transform="matrix(0.22394 -0.974177 -0.97908 -0.205504 970.643 1640.31)"/>
                            </mask>
                            <rect width="12.8816" height="12.8861" rx="1"
                                  transform="matrix(0.22394 -0.974177 -0.97908 -0.205504 970.643 1640.31)"
                                  stroke="#BB8147" stroke-width="4" mask="url(#path-22-inside-5_115_268)"/>
                        </g>
                        <g id="Rectangle 12_2">
                            <mask id="path-23-inside-6_115_268" fill="white">
                                <rect width="12.8816" height="12.8861" rx="1"
                                      transform="matrix(0.22394 -0.974177 -0.97908 -0.205504 963.642 1668.99)"/>
                            </mask>
                            <rect width="12.8816" height="12.8861" rx="1"
                                  transform="matrix(0.22394 -0.974177 -0.97908 -0.205504 963.642 1668.99)"
                                  stroke="#BB8147" stroke-width="6" mask="url(#path-23-inside-6_115_268)"/>
                        </g>
                        <rect id="Rectangle 13_2" width="4.4957" height="5.51423"
                              transform="matrix(0.84269 -0.538399 -0.539161 -0.842203 936.466 1654.68)" fill="#BB8147"/>
                        <rect id="Rectangle 14_2" width="4.4957" height="5.51423"
                              transform="matrix(0.84269 -0.538399 -0.539161 -0.842203 958.254 1640.76)" fill="#BB8147"/>
                        <rect id="Rectangle 15_2" width="6.74368" height="6.61722"
                              transform="matrix(0.842689 -0.538401 -0.539158 -0.842204 953.071 1658.73)"
                              fill="#BB8147"/>
                    </g>
                </g>
            </g>
            <g id="Group 25">
                <path id="Vector_11" fill-rule="evenodd" clip-rule="evenodd"
                      d="M405.789 113.66V134.6C425.196 137.703 408.118 144.683 408.118 167.95C408.118 183.462 436.064 209.056 437.617 202.851C438.393 203.11 439.946 205.643 439.946 213.709C460.129 208.539 504.378 200.524 557.165 200.524C609.952 200.524 654.201 208.539 674.384 213.709C674.384 205.643 675.937 203.11 676.713 202.851C678.266 209.056 706.212 183.462 706.212 167.95C706.212 144.683 689.134 137.703 708.541 134.6V113.66C705.694 115.47 697.673 119.089 688.357 119.089V134.255C688.368 134.374 688.367 134.489 688.357 134.6V134.255C688.102 131.345 681.411 126.428 655.753 127.62C653.683 120.899 646.748 105.594 635.57 98.1483C635.57 95.046 635.57 90.3926 645.662 88.8414L635.57 71.0032L621.597 81.0857C618.492 84.188 625.789 90.7028 623.926 95.046C616.163 88.8414 584.335 86.5147 567.257 95.046V85.7391H547.073V95.046C529.995 86.5147 498.167 88.8414 490.404 95.046C488.541 90.7028 495.838 84.188 492.733 81.0857L478.76 71.0032L468.668 88.8414C478.76 90.3926 478.76 95.046 478.76 98.1483C467.582 105.594 460.647 120.899 458.577 127.62C432.919 126.428 426.228 131.345 425.973 134.255V134.6C425.963 134.489 425.962 134.374 425.973 134.255V119.089C416.657 119.089 408.636 115.47 405.789 113.66ZM498.167 118.313C508.41 106.831 527.496 103.848 546.297 110.556V120.64L521.456 133.825L542.415 156.316V170.276C488.076 186.564 478.805 140.018 498.167 118.313ZM439.17 195.871C441.742 195.871 443.827 193.787 443.827 191.217C443.827 188.647 441.742 186.564 439.17 186.564C436.597 186.564 434.512 188.647 434.512 191.217C434.512 193.787 436.597 195.871 439.17 195.871ZM487.299 185.013C490.729 185.013 493.51 182.235 493.51 178.808C493.51 175.381 490.729 172.604 487.299 172.604C483.869 172.604 481.089 175.381 481.089 178.808C481.089 182.235 483.869 185.013 487.299 185.013ZM462.458 174.93C458.266 170.277 454.695 161.745 454.695 154.765C454.695 142.356 430.009 141.89 430.63 164.847C436.064 195.87 468.746 181.91 462.458 174.93ZM616.163 118.313C605.92 106.831 586.834 103.848 568.033 110.556V120.64L592.874 133.825L571.915 156.316V170.276C626.254 186.564 635.525 140.018 616.163 118.313ZM675.16 195.871C672.588 195.871 670.503 193.787 670.503 191.217C670.503 188.647 672.588 186.564 675.16 186.564C677.733 186.564 679.818 188.647 679.818 191.217C679.818 193.787 677.733 195.871 675.16 195.871ZM627.031 185.013C623.601 185.013 620.82 182.235 620.82 178.808C620.82 175.381 623.601 172.604 627.031 172.604C630.461 172.604 633.241 175.381 633.241 178.808C633.241 182.235 630.461 185.013 627.031 185.013ZM651.872 174.93C656.064 170.277 659.635 161.745 659.635 154.765C659.635 142.356 684.321 141.89 683.7 164.847C678.266 195.87 645.584 181.91 651.872 174.93ZM557.165 183.462C561.452 183.462 564.928 179.989 564.928 175.706C564.928 171.422 561.452 167.95 557.165 167.95C552.878 167.95 549.402 171.422 549.402 175.706C549.402 179.989 552.878 183.462 557.165 183.462Z"
                      fill="#974533"/>
                <rect id="Rectangle 8_3" x="547.073" y="84.188" width="20.1834" height="12.4092" fill="#974533"/>
                <path id="Subtract_3" fill-rule="evenodd" clip-rule="evenodd"
                      d="M576.926 74.459L557.165 54.7161L537.404 74.459L557.165 94.2019L576.926 74.459ZM557.165 63.2474L555.612 72.5543L547.85 74.1055L555.612 75.6566L557.165 84.9635L558.718 75.6566L566.48 74.1055L558.718 72.5543L557.165 63.2474Z"
                      fill="#974533"/>
                <g id="Rectangle 10_3">
                    <mask id="path-30-inside-7_115_268" fill="white">
                        <rect width="17.9567" height="17.9567" rx="1"
                              transform="matrix(0.70743 0.706783 -0.70743 0.706783 527.666 61.6963)"/>
                    </mask>
                    <rect width="17.9567" height="17.9567" rx="1"
                          transform="matrix(0.70743 0.706783 -0.70743 0.706783 527.666 61.6963)" stroke="#974533"
                          stroke-width="4" mask="url(#path-30-inside-7_115_268)"/>
                </g>
                <g id="Rectangle 11_3">
                    <mask id="path-31-inside-8_115_268" fill="white">
                        <rect width="17.9567" height="17.9567" rx="1"
                              transform="matrix(0.70743 0.706783 -0.70743 0.706783 586.664 61.6963)"/>
                    </mask>
                    <rect width="17.9567" height="17.9567" rx="1"
                          transform="matrix(0.70743 0.706783 -0.70743 0.706783 586.664 61.6963)" stroke="#974533"
                          stroke-width="4" mask="url(#path-31-inside-8_115_268)"/>
                </g>
                <g id="Rectangle 12_3">
                    <mask id="path-32-inside-9_115_268" fill="white">
                        <rect width="17.9567" height="17.9567" rx="1"
                              transform="matrix(0.70743 0.706783 -0.70743 0.706783 557.165 33)"/>
                    </mask>
                    <rect width="17.9567" height="17.9567" rx="1"
                          transform="matrix(0.70743 0.706783 -0.70743 0.706783 557.165 33)" stroke="#974533"
                          stroke-width="6" mask="url(#path-32-inside-9_115_268)"/>
                </g>
                <rect id="Rectangle 13_3" x="536.205" y="70.5378" width="6.2103" height="7.75575" fill="#974533"/>
                <rect id="Rectangle 14_3" x="571.914" y="70.5378" width="6.2103" height="7.75575" fill="#974533"/>
                <rect id="Rectangle 15_3" x="552.507" y="53.165" width="9.31543" height="9.30691" fill="#974533"/>
            </g>
        </g>
    </g>
</svg>
