<svg width="1122" height="376" viewBox="0 0 1122 376" fill="none" xmlns="http://www.w3.org/2000/svg">
    <path d="M561.5 149.882C600.682 98.8761 672.136 103.382 699.882 146.016C714.399 168.32 716.131 199.973 696.471 237.367C676.876 274.637 635.912 317.991 564.238 364.903L561.5 366.695L558.762 364.903C487.087 317.991 446.124 274.637 426.529 237.367C406.869 199.973 408.601 168.32 423.118 146.016C450.865 103.382 522.318 98.8761 561.5 149.882Z"
          fill="#B75838" stroke="#974533" stroke-width="10"/>
    <path d="M564.877 173.792L561.5 179.108L558.124 173.792C529.743 129.107 474.912 133.034 454.853 165.385C444.864 181.496 442.859 205.502 458.02 235.772C473.022 265.723 504.746 301.533 561.5 340.888C618.254 301.533 649.978 265.723 664.98 235.772C680.141 205.502 678.136 181.496 668.147 165.385C648.089 133.034 593.258 129.107 564.877 173.792Z"
          stroke="white" stroke-width="8"/>
</svg>
