<svg width="1122" height="376" viewBox="0 0 1122 376" fill="none" xmlns="http://www.w3.org/2000/svg">
    <path d="M871.549 167.68C820.683 143.474 769.96 236.415 916.362 242.409C980.033 110.441 874.155 111.408 871.549 167.68Z"
          fill="white" stroke="white" stroke-width="19"/>
    <path d="M871.549 167.68C820.683 143.474 769.96 236.415 916.362 242.409C980.033 110.441 874.155 111.408 871.549 167.68Z"
          fill="white" stroke="white" stroke-width="4"/>
    <path d="M1025.85 53.9224C981.264 39.4625 949.485 121.634 1070.92 110.72C1109.15 -5.05114 1021.91 7.21584 1025.85 53.9224Z"
          fill="white" stroke="white" stroke-width="19"/>
    <path d="M1025.85 53.9224C981.264 39.4625 949.485 121.634 1070.92 110.72C1109.15 -5.05114 1021.91 7.21584 1025.85 53.9224Z"
          fill="white" stroke="white" stroke-width="4"/>
    <circle cx="978" cy="142.292" r="10" fill="black"/>
    <circle cx="791" cy="239.292" r="10" fill="black"/>
    <path d="M249.165 167.68C300.031 143.474 350.754 236.415 204.352 242.409C140.682 110.441 246.559 111.408 249.165 167.68Z"
          fill="white" stroke="white" stroke-width="19"/>
    <path d="M249.165 167.68C300.031 143.474 350.754 236.415 204.352 242.409C140.682 110.441 246.559 111.408 249.165 167.68Z"
          fill="white" stroke="white" stroke-width="4"/>
    <path d="M94.8633 53.9224C139.45 39.4625 171.229 121.634 49.7978 110.72C11.5643 -5.05114 98.8087 7.21584 94.8633 53.9224Z"
          fill="white" stroke="white" stroke-width="19"/>
    <path d="M94.8633 53.9224C139.45 39.4625 171.229 121.634 49.7978 110.72C11.5643 -5.05114 98.8087 7.21584 94.8633 53.9224Z"
          fill="white" stroke="white" stroke-width="4"/>
    <circle cx="10" cy="10" r="10" transform="matrix(-1 0 0 1 153.05 132.39)" fill="black"/>
    <circle cx="10" cy="10" r="10" transform="matrix(-1 0 0 1 340.05 229.39)" fill="black"/>
    <path d="M561.5 149.299C600.682 98.2931 672.136 102.799 699.882 145.433C714.399 167.737 716.131 199.39 696.471 236.784C676.876 274.054 635.912 317.408 564.238 364.32L561.5 366.112L558.762 364.32C487.087 317.408 446.124 274.054 426.529 236.784C406.869 199.39 408.601 167.737 423.118 145.433C450.865 102.799 522.318 98.2931 561.5 149.299Z"
          fill="white" stroke="black" stroke-width="10"/>
    <path d="M564.877 173.277L561.5 178.593L558.124 173.277C529.743 128.592 474.912 132.518 454.853 164.87C444.864 180.981 442.859 204.986 458.02 235.256C473.022 265.207 504.745 301.017 561.5 340.372C618.254 301.017 649.978 265.207 664.98 235.256C680.141 204.986 678.136 180.981 668.147 164.87C648.089 132.518 593.257 128.592 564.877 173.277Z"
          stroke="black" stroke-width="8"/>
</svg>
