<svg width="1122" height="376" viewBox="0 0 1122 376" fill="none" xmlns="http://www.w3.org/2000/svg">
    <path d="M871.549 167.582C820.683 143.377 769.96 236.318 916.362 242.311C980.033 110.343 874.155 111.311 871.549 167.582Z"
          fill="white" stroke="#974533" stroke-width="19"/>
    <path d="M871.549 167.582C820.683 143.377 769.96 236.318 916.362 242.311C980.033 110.343 874.155 111.311 871.549 167.582Z"
          fill="#974533" stroke="white" stroke-width="4"/>
    <path d="M1024.77 51.8109C976.468 36.1537 942.009 125.184 1073.59 113.336C1115.05 -12.0973 1020.51 1.20969 1024.77 51.8109Z"
          stroke="#974533" stroke-width="12"/>
    <circle cx="978" cy="142.195" r="10" fill="#974533"/>
    <circle cx="791" cy="239.195" r="10" fill="#974533"/>
    <path d="M249.165 167.582C300.031 143.377 350.754 236.318 204.352 242.311C140.682 110.343 246.559 111.311 249.165 167.582Z"
          fill="white" stroke="#974533" stroke-width="19"/>
    <path d="M249.165 167.582C300.031 143.377 350.754 236.318 204.352 242.311C140.682 110.343 246.559 111.311 249.165 167.582Z"
          fill="#974533" stroke="white" stroke-width="4"/>
    <path d="M96.2761 51.9083C144.582 36.2511 179.041 125.282 47.4645 113.434C6.0013 -11.9999 100.536 1.30711 96.2761 51.9083Z"
          stroke="#974533" stroke-width="12"/>
    <circle cx="10" cy="10" r="10" transform="matrix(-1 0 0 1 153.05 132.292)" fill="#974533"/>
    <circle cx="10" cy="10" r="10" transform="matrix(-1 0 0 1 340.05 229.292)" fill="#974533"/>
    <path d="M561.5 149.201C600.682 98.1957 672.136 102.702 699.882 145.335C714.399 167.64 716.131 199.292 696.471 236.687C676.876 273.957 635.912 317.31 564.238 364.222L561.5 366.015L558.762 364.222C487.087 317.31 446.124 273.957 426.529 236.687C406.869 199.292 408.601 167.64 423.118 145.335C450.865 102.702 522.318 98.1957 561.5 149.201Z"
          fill="#B75838" stroke="#974533" stroke-width="10"/>
    <path d="M564.877 173.179L561.5 178.495L558.124 173.179C529.743 128.494 474.912 132.421 454.853 164.772C444.864 180.883 442.859 204.889 458.02 235.159C473.022 265.109 504.745 300.92 561.5 340.275C618.254 300.92 649.978 265.109 664.98 235.159C680.141 204.889 678.136 180.883 668.147 164.772C648.089 132.421 593.257 128.494 564.877 173.179Z"
          stroke="white" stroke-width="8"/>
</svg>
