<svg width="1122" height="376" viewBox="0 0 1122 376" fill="none" xmlns="http://www.w3.org/2000/svg">
    <path d="M870.345 165.576C816.473 139.953 762.724 238.385 917.792 244.702C985.265 104.94 873.119 105.986 870.345 165.576Z"
          stroke="black" stroke-width="12"/>
    <path d="M1024.77 51.7138C976.468 36.0565 942.009 125.087 1073.59 113.239C1115.05 -12.1945 1020.51 1.11253 1024.77 51.7138Z"
          stroke="black" stroke-width="12"/>
    <circle cx="978" cy="142.097" r="10" fill="black"/>
    <circle cx="791" cy="239.097" r="10" fill="black"/>
    <path d="M250.706 165.673C304.577 140.051 358.326 238.482 203.258 244.799C135.786 105.037 247.931 106.083 250.706 165.673Z"
          stroke="black" stroke-width="12"/>
    <path d="M96.2761 51.8112C144.582 36.1539 179.041 125.185 47.4645 113.337C6.0013 -12.0971 100.536 1.20994 96.2761 51.8112Z"
          stroke="black" stroke-width="12"/>
    <circle cx="10" cy="10" r="10" transform="matrix(-1 0 0 1 153.05 132.195)" fill="black"/>
    <circle cx="10" cy="10" r="10" transform="matrix(-1 0 0 1 340.05 229.195)" fill="black"/>
    <path d="M561.5 149.104C600.682 98.0983 672.136 102.605 699.882 145.238C714.399 167.542 716.131 199.195 696.471 236.59C676.876 273.86 635.912 317.213 564.238 364.125L561.5 365.917L558.762 364.125C487.087 317.213 446.124 273.86 426.529 236.59C406.869 199.195 408.601 167.542 423.118 145.238C450.865 102.605 522.318 98.0983 561.5 149.104Z"
          fill="white" stroke="black" stroke-width="10"/>
    <path d="M564.877 173.082L561.5 178.398L558.124 173.082C529.743 128.397 474.912 132.324 454.853 164.675C444.864 180.786 442.859 204.791 458.02 235.061C473.022 265.012 504.745 300.822 561.5 340.177C618.254 300.822 649.978 265.012 664.98 235.061C680.141 204.791 678.136 180.786 668.147 164.675C648.089 132.324 593.257 128.397 564.877 173.082Z"
          stroke="black" stroke-width="8"/>
</svg>
