<svg width="752" height="185" viewBox="0 0 752 185" fill="none" xmlns="http://www.w3.org/2000/svg">
    <path d="M375.5 23.5839C405.396 -20.6964 492.951 29.9095 375.5 105.818C258.049 29.9096 345.604 -20.6964 375.5 23.5839Z"
          stroke="black" stroke-width="10"/>
    <circle cx="9" cy="9" r="9" transform="matrix(-1 0 0 1 479.999 61.8813)" fill="black"/>
    <circle cx="8" cy="8" r="8" transform="matrix(-1 0 0 1 639.999 104.881)" fill="black"/>
    <path d="M708.706 112.37C740.838 96.0817 776.071 154.582 681.854 160.811C637.21 77.61 705.492 76.4892 708.706 112.37Z"
          stroke="black" stroke-width="10"/>
    <path d="M565.78 43.6884C603.593 12.1027 668.53 79.2331 544.887 116.502C459.815 19.3457 550.466 -3.14113 565.78 43.6884Z"
          stroke="black" stroke-width="10"/>
    <circle cx="280.273" cy="66.3523" r="9" fill="black"/>
    <circle cx="119.273" cy="108.352" r="8" fill="black"/>
    <path d="M42.5663 107.84C10.4347 91.5527 -24.7983 150.052 69.4181 156.282C114.062 73.0809 45.7805 71.9602 42.5663 107.84Z"
          stroke="black" stroke-width="10"/>
    <path d="M185.493 39.1593C147.679 7.57369 82.7424 74.7041 206.386 111.973C291.457 14.8166 200.806 -7.67018 185.493 39.1593Z"
          stroke="black" stroke-width="10"/>
</svg>
