<svg width="752" height="185" viewBox="0 0 752 185" fill="none" xmlns="http://www.w3.org/2000/svg">
    <path d="M375.5 26.2347C346.609 -17.2477 261.997 32.4464 375.5 106.988C489.003 32.4464 404.391 -17.2477 375.5 26.2347Z"
          fill="white" stroke="#974533" stroke-width="19"/>
    <path d="M375.5 26.2347C346.609 -17.2477 261.997 32.4464 375.5 106.988C489.003 32.4464 404.391 -17.2477 375.5 26.2347Z"
          fill="#974533" stroke="white" stroke-width="4"/>
    <circle cx="9" cy="9" r="9" transform="matrix(-1 0 0 1 479.999 61.9399)" fill="#974533"/>
    <circle cx="8" cy="8" r="8" transform="matrix(-1 0 0 1 639.999 104.94)" fill="#974533"/>
    <path d="M708.706 112.428C740.838 96.1405 776.071 154.64 681.854 160.87C637.21 77.6688 705.492 76.548 708.706 112.428Z"
          stroke="#974533" stroke-width="10"/>
    <path d="M565.78 43.7471C603.593 12.1615 668.53 79.2918 544.887 116.561C459.815 19.4044 550.466 -3.08241 565.78 43.7471Z"
          stroke="#974533" stroke-width="10"/>
    <circle cx="280.273" cy="66.411" r="9" fill="#974533"/>
    <circle cx="119.273" cy="108.411" r="8" fill="#974533"/>
    <path d="M42.5662 107.899C10.4347 91.6115 -24.7984 150.111 69.418 156.341C114.062 73.1398 45.7805 72.019 42.5662 107.899Z"
          stroke="#974533" stroke-width="10"/>
    <path d="M185.492 39.2182C147.679 7.63253 82.7423 74.7629 206.385 112.032C291.457 14.8754 200.806 -7.61134 185.492 39.2182Z"
          stroke="#974533" stroke-width="10"/>
</svg>
