<svg width="752" height="184" viewBox="0 0 752 184" fill="none" xmlns="http://www.w3.org/2000/svg">
    <path d="M375.5 22.8309C405.396 -21.4493 492.951 29.1566 375.5 105.065C258.049 29.1566 345.604 -21.4493 375.5 22.8309Z"
          stroke="black" stroke-width="10"/>
    <circle cx="9" cy="9" r="9" transform="matrix(-1 0 0 1 479.999 61.1282)" fill="black"/>
    <circle cx="8" cy="8" r="8" transform="matrix(-1 0 0 1 639.999 104.128)" fill="black"/>
    <path d="M708.706 111.617C740.838 95.3288 776.071 153.829 681.854 160.058C637.21 76.857 705.492 75.7363 708.706 111.617Z"
          stroke="black" stroke-width="10"/>
    <path d="M564.498 46.6847C550.664 4.89066 469.324 24.7795 545.875 111.587C656.807 78.5748 598.387 18.5838 564.498 46.6847Z"
          fill="white" stroke="white" stroke-width="19"/>
    <path d="M564.498 46.6847C550.664 4.89066 469.324 24.7795 545.875 111.587C656.807 78.5748 598.387 18.5838 564.498 46.6847Z"
          fill="white" stroke="white" stroke-width="4"/>
    <circle cx="280.273" cy="65.5994" r="9" fill="black"/>
    <circle cx="119.273" cy="107.599" r="8" fill="black"/>
    <path d="M42.5663 107.088C10.4347 90.7997 -24.7983 149.3 69.4181 155.529C114.062 72.328 45.7805 71.2072 42.5663 107.088Z"
          stroke="black" stroke-width="10"/>
    <path d="M186.654 41.8223C200.409 -0.241671 281.835 19.9568 205.421 107.227C94.36 73.75 152.689 13.4509 186.654 41.8223Z"
          fill="white" stroke="white" stroke-width="19"/>
    <path d="M186.654 41.8223C200.409 -0.241671 281.835 19.9568 205.421 107.227C94.36 73.75 152.689 13.4509 186.654 41.8223Z"
          fill="white" stroke="white" stroke-width="4"/>
</svg>
