<svg width="752" height="185" viewBox="0 0 752 185" fill="none" xmlns="http://www.w3.org/2000/svg">
    <path d="M375.5 26.6112C346.609 -16.8712 261.997 32.8229 375.5 107.364C489.003 32.8229 404.391 -16.8712 375.5 26.6112Z"
          fill="white" stroke="#974533" stroke-width="19"/>
    <path d="M375.5 26.6112C346.609 -16.8712 261.997 32.8229 375.5 107.364C489.003 32.8229 404.391 -16.8712 375.5 26.6112Z"
          fill="#974533" stroke="white" stroke-width="4"/>
    <circle cx="9" cy="9" r="9" transform="matrix(-1 0 0 1 479.999 62.3164)" fill="#974533"/>
    <circle cx="8" cy="8" r="8" transform="matrix(-1 0 0 1 639.999 105.316)" fill="#974533"/>
    <path d="M708.706 112.805C740.838 96.517 776.071 155.017 681.854 161.247C637.21 78.0453 705.492 76.9245 708.706 112.805Z"
          stroke="#974533" stroke-width="10"/>
    <path d="M564.498 47.8729C550.664 6.07889 469.324 25.9678 545.875 112.775C656.807 79.7631 598.387 19.7721 564.498 47.8729Z"
          fill="white" stroke="#974533" stroke-width="19"/>
    <path d="M564.498 47.8729C550.664 6.07889 469.324 25.9678 545.875 112.775C656.807 79.7631 598.387 19.7721 564.498 47.8729Z"
          fill="#974533" stroke="white" stroke-width="4"/>
    <circle cx="280.273" cy="66.7876" r="9" fill="#974533"/>
    <circle cx="119.273" cy="108.788" r="8" fill="#974533"/>
    <path d="M42.5662 108.276C10.4347 91.988 -24.7984 150.488 69.418 156.717C114.062 73.5162 45.7805 72.3955 42.5662 108.276Z"
          stroke="#974533" stroke-width="10"/>
    <path d="M186.654 43.0106C200.409 0.946562 281.835 21.1451 205.421 108.415C94.3599 74.9382 152.689 14.6392 186.654 43.0106Z"
          fill="white" stroke="#974533" stroke-width="19"/>
    <path d="M186.654 43.0106C200.409 0.946562 281.835 21.1451 205.421 108.415C94.3599 74.9382 152.689 14.6392 186.654 43.0106Z"
          fill="#974533" stroke="white" stroke-width="4"/>
</svg>
