<svg width="750" height="184" viewBox="0 0 750 184" fill="none" xmlns="http://www.w3.org/2000/svg">
    <path d="M374.5 23.2074C404.396 -21.0728 491.951 29.5331 374.5 105.442C257.049 29.5331 344.604 -21.0728 374.5 23.2074Z"
          stroke="black" stroke-width="10"/>
    <circle cx="9" cy="9" r="9" transform="matrix(-1 0 0 1 478.999 61.5046)" fill="black"/>
    <circle cx="8" cy="8" r="8" transform="matrix(-1 0 0 1 638.999 104.505)" fill="black"/>
    <path d="M706.055 114.799C703.292 83.9448 644.577 84.9108 682.964 156.457C763.98 151.097 733.685 100.792 706.055 114.799Z"
          fill="white" stroke="white" stroke-width="19"/>
    <path d="M706.055 114.799C703.292 83.9448 644.577 84.9108 682.964 156.457C763.98 151.097 733.685 100.792 706.055 114.799Z"
          fill="white" stroke="white" stroke-width="4"/>
    <path d="M563.498 47.0612C549.664 5.26712 468.324 25.156 544.875 111.964C655.807 78.9513 597.387 18.9603 563.498 47.0612Z"
          fill="white" stroke="white" stroke-width="19"/>
    <path d="M563.498 47.0612C549.664 5.26712 468.324 25.156 544.875 111.964C655.807 78.9513 597.387 18.9603 563.498 47.0612Z"
          fill="white" stroke="white" stroke-width="4"/>
    <circle cx="279.273" cy="65.9758" r="9" fill="black"/>
    <circle cx="118.273" cy="107.976" r="8" fill="black"/>
    <path d="M42.6045 109.8C45.3685 78.9456 104.086 79.9095 65.6952 151.457C-15.3251 146.1 14.9733 95.794 42.6045 109.8Z"
          fill="white" stroke="white" stroke-width="19"/>
    <path d="M42.6045 109.8C45.3685 78.9456 104.086 79.9095 65.6952 151.457C-15.3251 146.1 14.9733 95.794 42.6045 109.8Z"
          fill="white" stroke="white" stroke-width="4"/>
    <path d="M185.654 42.1988C199.409 0.134794 280.835 20.3333 204.421 107.603C93.36 74.1264 151.689 13.8274 185.654 42.1988Z"
          fill="white" stroke="white" stroke-width="19"/>
    <path d="M185.654 42.1988C199.409 0.134794 280.835 20.3333 204.421 107.603C93.36 74.1264 151.689 13.8274 185.654 42.1988Z"
          fill="white" stroke="white" stroke-width="4"/>
</svg>
