<svg width="750" height="184" viewBox="0 0 750 184" fill="none" xmlns="http://www.w3.org/2000/svg">
    <path d="M374.5 25.9876C345.609 -17.4948 260.997 32.1993 374.5 106.74C488.003 32.1993 403.391 -17.4948 374.5 25.9876Z"
          fill="white" stroke="white" stroke-width="19"/>
    <path d="M374.5 25.9876C345.609 -17.4948 260.997 32.1993 374.5 106.74C488.003 32.1993 403.391 -17.4948 374.5 25.9876Z"
          fill="white" stroke="white" stroke-width="4"/>
    <circle cx="9" cy="9" r="9" transform="matrix(-1 0 0 1 478.999 61.6929)" fill="black"/>
    <circle cx="8" cy="8" r="8" transform="matrix(-1 0 0 1 638.999 104.693)" fill="black"/>
    <path d="M706.055 114.988C703.292 84.133 644.577 85.099 682.964 156.645C763.98 151.285 733.685 100.98 706.055 114.988Z"
          fill="white" stroke="white" stroke-width="19"/>
    <path d="M706.055 114.988C703.292 84.133 644.577 85.099 682.964 156.645C763.98 151.285 733.685 100.98 706.055 114.988Z"
          fill="white" stroke="white" stroke-width="4"/>
    <path d="M563.498 47.2494C549.664 5.45536 468.324 25.3442 544.875 112.152C655.807 79.1395 597.387 19.1485 563.498 47.2494Z"
          fill="white" stroke="white" stroke-width="19"/>
    <path d="M563.498 47.2494C549.664 5.45536 468.324 25.3442 544.875 112.152C655.807 79.1395 597.387 19.1485 563.498 47.2494Z"
          fill="white" stroke="white" stroke-width="4"/>
    <circle cx="279.273" cy="66.1641" r="9" fill="black"/>
    <circle cx="118.273" cy="108.164" r="8" fill="black"/>
    <path d="M42.6045 109.989C45.3685 79.1339 104.086 80.0977 65.6952 151.646C-15.3251 146.288 14.9733 95.9822 42.6045 109.989Z"
          fill="white" stroke="white" stroke-width="19"/>
    <path d="M42.6045 109.989C45.3685 79.1339 104.086 80.0977 65.6952 151.646C-15.3251 146.288 14.9733 95.9822 42.6045 109.989Z"
          fill="white" stroke="white" stroke-width="4"/>
    <path d="M185.654 42.387C199.409 0.323026 280.835 20.5215 204.421 107.791C93.36 74.3147 151.689 14.0156 185.654 42.387Z"
          fill="white" stroke="white" stroke-width="19"/>
    <path d="M185.654 42.387C199.409 0.323026 280.835 20.5215 204.421 107.791C93.36 74.3147 151.689 14.0156 185.654 42.387Z"
          fill="white" stroke="white" stroke-width="4"/>
</svg>
