<svg width="309" height="300" viewBox="0 0 309 300" fill="none" xmlns="http://www.w3.org/2000/svg">
    <path d="M297.844 166.403C287.026 106.642 184.251 56.3881 154.5 17C124.749 56.3881 21.9743 106.642 11.1559 166.403C8.20558 182.701 1.68999 283.209 126.102 234.313L119.34 290H189.66L182.898 234.313C307.31 283.209 300.794 182.701 297.844 166.403Z"
          fill="#BB8147"/>
    <path d="M150.51 13.9864L154.5 8.70419L158.49 13.9864C165.51 23.2804 177.058 33.4646 191.05 44.6519C197.053 49.4522 203.647 54.5427 210.447 59.7932C219.031 66.4205 227.946 73.3029 236.422 80.1786C251.882 92.72 266.958 106.067 278.883 120.156C290.785 134.219 299.84 149.359 302.764 165.512L297.846 166.403L302.764 165.512C303.575 169.992 304.563 179.77 303.606 191.184C302.651 202.572 299.723 216.039 292.336 227.513C284.834 239.166 272.878 248.51 254.58 251.554C238.025 254.309 216.589 251.859 188.856 241.897L194.623 289.397L195.304 295H189.66H119.34H113.696L114.377 289.397L120.144 241.897C92.4106 251.859 70.975 254.309 54.4198 251.554C36.1222 248.51 24.1663 239.166 16.664 227.513C9.27685 216.039 6.34854 202.572 5.39361 191.184C4.43661 179.77 5.42486 169.992 6.23584 165.512L11.1559 166.403L6.23587 165.512C9.16009 149.359 18.2146 134.219 30.1172 120.156C42.0417 106.067 57.1184 92.72 72.5784 80.1786C81.0542 73.3028 89.9685 66.4205 98.5526 59.7931C105.353 54.5426 111.947 49.4522 117.95 44.6519C131.942 33.4646 143.49 23.2804 150.51 13.9864Z"
          stroke="#975933" stroke-width="10"/>
    <path d="M135.185 225.524L130.156 269H178.844L173.815 225.524L173.035 218.776L179.314 221.367C204.456 231.739 222.44 233.95 235.212 231.72C247.793 229.523 255.666 222.96 260.678 214.789C265.778 206.474 267.977 196.358 268.704 187.26C269.429 178.186 268.662 170.484 268.11 167.287C266.053 155.359 259.567 143.632 250.259 132.088C240.963 120.56 229.057 109.461 216.505 98.7725C210.238 93.4362 203.843 88.2294 197.558 83.1354C196.862 82.571 196.166 82.0079 195.473 81.446C189.919 76.9472 184.469 72.5323 179.341 68.2285C169.647 60.0925 160.864 52.1611 154.5 44.5132C148.136 52.1611 139.353 60.0925 129.659 68.2285C124.531 72.5322 119.081 76.947 113.528 81.4457C112.834 82.0076 112.139 82.5709 111.442 83.1354C105.157 88.2294 98.7618 93.4362 92.4951 98.7725C79.9432 109.461 68.0368 120.56 58.7412 132.088C49.433 143.632 42.9469 155.359 40.8897 167.287C40.3383 170.484 39.5709 178.186 40.2957 187.26C41.0225 196.358 43.2219 206.474 48.3223 214.789C53.3335 222.96 61.2075 229.523 73.7883 231.72C86.5602 233.95 104.544 231.739 129.686 221.367L135.965 218.776L135.185 225.524Z"
          stroke="white" stroke-width="8"/>
</svg>
