<svg width="1122" height="385" viewBox="0 0 1122 385" fill="none" xmlns="http://www.w3.org/2000/svg">
    <path d="M859.149 147.644C859.18 147.371 859.461 147.203 859.717 147.304L927.854 174.213C928.031 174.283 928.138 174.463 928.117 174.651L919.761 247.432C919.73 247.705 919.448 247.873 919.193 247.773L851.055 220.863C850.879 220.793 850.771 220.614 850.793 220.425L859.149 147.644Z"
          fill="white" stroke="#974533" stroke-width="19" stroke-linejoin="round"/>
    <path d="M859.149 147.644C859.18 147.371 859.461 147.203 859.717 147.304L927.854 174.213C928.031 174.283 928.138 174.463 928.117 174.651L919.761 247.432C919.73 247.705 919.448 247.873 919.193 247.773L851.055 220.863C850.879 220.793 850.771 220.614 850.793 220.425L859.149 147.644Z"
          fill="#974533" stroke="white" stroke-width="4" stroke-linejoin="round"/>
    <path d="M1013.45 38.7365C1013.45 38.5079 1013.66 38.3383 1013.88 38.3939L1073.01 53.2139C1073.16 53.2522 1073.27 53.3887 1073.27 53.5464L1074.26 114.496C1074.27 114.725 1074.05 114.894 1073.83 114.839L1014.7 100.019C1014.55 99.9803 1014.44 99.8438 1014.44 99.6861L1013.45 38.7365Z"
          fill="white" stroke="#974533" stroke-width="19" stroke-linejoin="round"/>
    <path d="M1013.45 38.7365C1013.45 38.5079 1013.66 38.3383 1013.88 38.3939L1073.01 53.2139C1073.16 53.2522 1073.27 53.3887 1073.27 53.5464L1074.26 114.496C1074.27 114.725 1074.05 114.894 1073.83 114.839L1014.7 100.019C1014.55 99.9803 1014.44 99.8438 1014.44 99.6861L1013.45 38.7365Z"
          fill="#974533" stroke="white" stroke-width="4" stroke-linejoin="round"/>
    <circle cx="978" cy="142.292" r="10" fill="#974533"/>
    <circle cx="791" cy="239.292" r="10" fill="#974533"/>
    <path d="M261.566 147.644C261.534 147.371 261.253 147.203 260.998 147.304L192.86 174.213C192.684 174.283 192.576 174.463 192.598 174.651L200.953 247.432C200.985 247.705 201.266 247.873 201.521 247.773L269.659 220.863C269.835 220.793 269.943 220.614 269.921 220.425L261.566 147.644Z"
          fill="white" stroke="#974533" stroke-width="19" stroke-linejoin="round"/>
    <path d="M261.566 147.644C261.534 147.371 261.253 147.203 260.998 147.304L192.86 174.213C192.684 174.283 192.576 174.463 192.598 174.651L200.953 247.432C200.985 247.705 201.266 247.873 201.521 247.773L269.659 220.863C269.835 220.793 269.943 220.614 269.921 220.425L261.566 147.644Z"
          fill="#974533" stroke="white" stroke-width="4" stroke-linejoin="round"/>
    <path d="M107.264 38.7365C107.268 38.5079 107.054 38.3383 106.833 38.3939L47.7039 53.2139C47.5509 53.2522 47.4426 53.3887 47.44 53.5464L46.4498 114.496C46.4461 114.725 46.6599 114.894 46.8817 114.839L106.01 100.019C106.163 99.9803 106.272 99.8438 106.274 99.6861L107.264 38.7365Z"
          fill="white" stroke="#974533" stroke-width="19" stroke-linejoin="round"/>
    <path d="M107.264 38.7365C107.268 38.5079 107.054 38.3383 106.833 38.3939L47.7039 53.2139C47.5509 53.2522 47.4426 53.3887 47.44 53.5464L46.4498 114.496C46.4461 114.725 46.6599 114.894 46.8817 114.839L106.01 100.019C106.163 99.9803 106.272 99.8438 106.274 99.6861L107.264 38.7365Z"
          fill="#974533" stroke="white" stroke-width="4" stroke-linejoin="round"/>
    <circle cx="10" cy="10" r="10" transform="matrix(-1 0 0 1 153.05 132.39)" fill="#974533"/>
    <circle cx="10" cy="10" r="10" transform="matrix(-1 0 0 1 340.05 229.39)" fill="#974533"/>
    <path d="M452.903 242.337L456.865 239.287L452.903 242.337C451.25 240.19 451.25 237.2 452.903 235.053L456.781 238.038L452.903 235.052L556.767 100.147C559.158 97.041 563.842 97.0409 566.233 100.147L670.097 235.052C671.75 237.199 671.75 240.19 670.097 242.337L566.233 377.243C563.842 380.348 559.158 380.349 556.767 377.243L452.903 242.337ZM564.69 371.142C564.689 371.141 564.687 371.139 564.686 371.137L564.69 371.142Z"
          fill="#B75838" stroke="#974533" stroke-width="10"/>
    <path d="M480.279 240.695L561.5 351.431L642.721 240.695L561.5 129.958L480.279 240.695Z" stroke="white"
          stroke-width="8"/>
</svg>
