<svg width="1122" height="385" viewBox="0 0 1122 385" fill="none" xmlns="http://www.w3.org/2000/svg">
    <path d="M857.215 144.361C857.248 144.072 857.546 143.894 857.817 144L929.981 172.483C930.168 172.557 930.282 172.747 930.259 172.946L921.391 250.02C921.357 250.309 921.059 250.488 920.789 250.381L848.624 221.899C848.437 221.825 848.323 221.635 848.346 221.435L857.215 144.361Z"
          stroke="black" stroke-width="12" stroke-linejoin="round"/>
    <path d="M1011.34 35.2635C1011.34 35.0159 1011.57 34.832 1011.81 34.8922L1075.87 50.9367C1076.04 50.9782 1076.16 51.1261 1076.16 51.2969L1077.21 117.33C1077.22 117.577 1076.98 117.761 1076.74 117.701L1012.68 101.656C1012.52 101.615 1012.4 101.467 1012.4 101.296L1011.34 35.2635Z"
          stroke="black" stroke-width="12" stroke-linejoin="round"/>
    <circle cx="978" cy="142.097" r="10" fill="black"/>
    <circle cx="791" cy="239.097" r="10" fill="black"/>
    <path d="M263.836 144.459C263.802 144.17 263.504 143.991 263.234 144.098L191.069 172.581C190.882 172.654 190.768 172.844 190.791 173.044L199.66 250.118C199.693 250.407 199.991 250.586 200.262 250.479L272.426 221.996C272.613 221.922 272.727 221.732 272.704 221.533L263.836 144.459Z"
          stroke="black" stroke-width="12" stroke-linejoin="round"/>
    <path d="M109.708 35.3609C109.712 35.1133 109.48 34.9294 109.24 34.9896L45.1776 51.0341C45.0118 51.0757 44.8945 51.2235 44.8918 51.3944L43.8381 117.427C43.8342 117.675 44.0659 117.859 44.3061 117.798L108.369 101.754C108.534 101.712 108.652 101.565 108.654 101.394L109.708 35.3609Z"
          stroke="black" stroke-width="12" stroke-linejoin="round"/>
    <circle cx="10" cy="10" r="10" transform="matrix(-1 0 0 1 153.05 132.195)" fill="black"/>
    <circle cx="10" cy="10" r="10" transform="matrix(-1 0 0 1 340.05 229.195)" fill="black"/>
    <path d="M452.903 242.142L456.865 239.092L452.903 242.142C451.25 239.995 451.25 237.005 452.903 234.858L456.781 237.843L452.903 234.858L556.767 99.9518C559.158 96.8462 563.842 96.8461 566.233 99.9518L670.097 234.858C671.75 237.005 671.75 239.995 670.097 242.142L566.233 377.048C563.842 380.153 559.158 380.154 556.767 377.048L452.903 242.142ZM564.69 370.948C564.689 370.946 564.687 370.944 564.686 370.942L564.69 370.948Z"
          fill="white" stroke="black" stroke-width="10"/>
    <path d="M480.279 240.5L561.5 351.237L642.721 240.5L561.5 129.763L480.279 240.5Z" stroke="black" stroke-width="8"/>
</svg>
