<svg width="1122" height="385" viewBox="0 0 1122 385" fill="none" xmlns="http://www.w3.org/2000/svg">
    <path d="M859.149 147.547C859.18 147.274 859.461 147.105 859.717 147.206L927.854 174.116C928.031 174.186 928.138 174.365 928.117 174.554L919.761 247.334C919.73 247.607 919.448 247.776 919.193 247.675L851.055 220.765C850.879 220.696 850.771 220.516 850.793 220.328L859.149 147.547Z"
          fill="white" stroke="#974533" stroke-width="19" stroke-linejoin="round"/>
    <path d="M859.149 147.547C859.18 147.274 859.461 147.105 859.717 147.206L927.854 174.116C928.031 174.186 928.138 174.365 928.117 174.554L919.761 247.334C919.73 247.607 919.448 247.776 919.193 247.675L851.055 220.765C850.879 220.696 850.771 220.516 850.793 220.328L859.149 147.547Z"
          fill="#974533" stroke="white" stroke-width="4" stroke-linejoin="round"/>
    <path d="M1011.34 35.3609C1011.34 35.1133 1011.57 34.9294 1011.81 34.9896L1075.87 51.0341C1076.04 51.0757 1076.16 51.2235 1076.16 51.3944L1077.21 117.427C1077.22 117.675 1076.98 117.859 1076.74 117.798L1012.68 101.754C1012.52 101.712 1012.4 101.565 1012.4 101.394L1011.34 35.3609Z"
          stroke="#974533" stroke-width="12" stroke-linejoin="round"/>
    <circle cx="978" cy="142.195" r="10" fill="#974533"/>
    <circle cx="791" cy="239.195" r="10" fill="#974533"/>
    <path d="M261.566 147.547C261.534 147.274 261.253 147.105 260.998 147.206L192.86 174.116C192.684 174.186 192.576 174.365 192.598 174.554L200.953 247.334C200.985 247.607 201.266 247.776 201.521 247.675L269.659 220.765C269.835 220.696 269.943 220.516 269.921 220.328L261.566 147.547Z"
          fill="white" stroke="#974533" stroke-width="19" stroke-linejoin="round"/>
    <path d="M261.566 147.547C261.534 147.274 261.253 147.105 260.998 147.206L192.86 174.116C192.684 174.186 192.576 174.365 192.598 174.554L200.953 247.334C200.985 247.607 201.266 247.776 201.521 247.675L269.659 220.765C269.835 220.696 269.943 220.516 269.921 220.328L261.566 147.547Z"
          fill="#974533" stroke="white" stroke-width="4" stroke-linejoin="round"/>
    <path d="M109.708 35.4583C109.712 35.2107 109.48 35.0268 109.24 35.087L45.1776 51.1315C45.0118 51.1731 44.8945 51.3209 44.8918 51.4918L43.8381 117.524C43.8342 117.772 44.0659 117.956 44.3061 117.896L108.369 101.851C108.534 101.81 108.652 101.662 108.654 101.491L109.708 35.4583Z"
          stroke="#974533" stroke-width="12" stroke-linejoin="round"/>
    <circle cx="10" cy="10" r="10" transform="matrix(-1 0 0 1 153.05 132.292)" fill="#974533"/>
    <circle cx="10" cy="10" r="10" transform="matrix(-1 0 0 1 340.05 229.292)" fill="#974533"/>
    <path d="M452.903 242.24L456.865 239.189L452.903 242.24C451.25 240.093 451.25 237.102 452.903 234.955L456.781 237.941L452.903 234.955L556.767 100.049C559.158 96.9436 563.842 96.9435 566.233 100.049L670.097 234.955C671.75 237.102 671.75 240.093 670.097 242.24L566.233 377.145C563.842 380.251 559.158 380.251 556.767 377.146L452.903 242.24ZM564.69 371.045C564.689 371.043 564.687 371.041 564.686 371.039L564.69 371.045Z"
          fill="#B75838" stroke="#974533" stroke-width="10"/>
    <path d="M480.279 240.597L561.5 351.334L642.721 240.597L561.5 129.861L480.279 240.597Z" stroke="white"
          stroke-width="8"/>
</svg>
