<svg width="752" height="189" viewBox="0 0 752 189" fill="none" xmlns="http://www.w3.org/2000/svg">
    <path d="M375.818 5.34862C375.657 5.14291 375.343 5.14291 375.182 5.34862L332.415 60.2004C332.304 60.3424 332.304 60.54 332.415 60.6819L375.182 115.534C375.343 115.739 375.657 115.739 375.818 115.534L418.585 60.6819C418.696 60.54 418.696 60.3424 418.585 60.2004L375.818 5.34862Z"
          stroke="#974533" stroke-width="10" stroke-linejoin="round"/>
    <circle cx="9" cy="9" r="9" transform="matrix(-1 0 0 1 479.999 65.8813)" fill="#974533"/>
    <circle cx="8" cy="8" r="8" transform="matrix(-1 0 0 1 639.999 108.881)" fill="#974533"/>
    <path d="M716.154 103.376C716.127 103.202 715.941 103.099 715.779 103.167L672.587 121.465C672.475 121.512 672.41 121.629 672.429 121.749L679.8 168.074C679.828 168.248 680.014 168.351 680.176 168.282L723.368 149.984C723.48 149.937 723.544 149.821 723.525 149.701L716.154 103.376Z"
          stroke="#974533" stroke-width="10" stroke-linejoin="round"/>
    <path d="M571.711 28.0812C571.621 27.8582 571.341 27.778 571.147 27.9192L519.211 65.584C519.077 65.6815 519.027 65.8564 519.089 66.0103L543.152 125.482C543.243 125.705 543.522 125.785 543.717 125.644L595.652 87.979C595.787 87.8816 595.837 87.7066 595.775 87.5527L571.711 28.0812Z"
          stroke="#974533" stroke-width="10" stroke-linejoin="round"/>
    <circle cx="280.273" cy="70.3523" r="9" fill="#974533"/>
    <circle cx="119.273" cy="112.352" r="8" fill="#974533"/>
    <path d="M35.1181 98.8466C35.1458 98.6728 35.3317 98.5698 35.4937 98.6384L78.6857 116.936C78.7975 116.983 78.862 117.1 78.8429 117.22L71.472 163.545C71.4443 163.719 71.2584 163.822 71.0964 163.753L27.9044 145.455C27.7926 145.408 27.7281 145.292 27.7472 145.172L35.1181 98.8466Z"
          stroke="#974533" stroke-width="10" stroke-linejoin="round"/>
    <path d="M179.561 23.5522C179.651 23.3291 179.931 23.2489 180.126 23.3902L232.061 61.055C232.195 61.1524 232.246 61.3274 232.183 61.4813L208.12 120.953C208.029 121.176 207.75 121.256 207.555 121.115L155.62 83.45C155.485 83.3525 155.435 83.1776 155.498 83.0237L179.561 23.5522Z"
          stroke="#974533" stroke-width="10" stroke-linejoin="round"/>
</svg>
