<svg width="752" height="191" viewBox="0 0 752 191" fill="none" xmlns="http://www.w3.org/2000/svg">
    <path d="M375.193 10.4C375.348 10.198 375.652 10.198 375.807 10.4L417.137 64.2635C417.244 64.4029 417.244 64.597 417.137 64.7363L375.807 118.6C375.652 118.802 375.348 118.802 375.193 118.6L333.863 64.7363C333.756 64.597 333.756 64.4029 333.863 64.2635L375.193 10.4Z"
          fill="white" stroke="white" stroke-width="19" stroke-linejoin="round"/>
    <path d="M375.193 10.4C375.348 10.198 375.652 10.198 375.807 10.4L417.137 64.2635C417.244 64.4029 417.244 64.597 417.137 64.7363L375.807 118.6C375.652 118.802 375.348 118.802 375.193 118.6L333.863 64.7363C333.756 64.597 333.756 64.4029 333.863 64.2635L375.193 10.4Z"
          fill="white" stroke="white" stroke-width="4" stroke-linejoin="round"/>
    <circle cx="9" cy="9" r="9" transform="matrix(-1 0 0 1 479.999 67.9399)" fill="black"/>
    <circle cx="8" cy="8" r="8" transform="matrix(-1 0 0 1 639.999 110.94)" fill="black"/>
    <path d="M716.154 105.434C716.126 105.261 715.941 105.158 715.779 105.226L672.587 123.524C672.475 123.571 672.41 123.688 672.429 123.808L679.8 170.133C679.828 170.307 680.014 170.41 680.176 170.341L723.368 152.043C723.48 151.996 723.544 151.88 723.525 151.76L716.154 105.434Z"
          stroke="black" stroke-width="10" stroke-linejoin="round"/>
    <path d="M571.711 30.1401C571.621 29.917 571.341 29.8368 571.147 29.9781L519.211 67.6429C519.077 67.7403 519.027 67.9153 519.089 68.0692L543.152 127.541C543.243 127.764 543.522 127.844 543.717 127.703L595.652 90.0379C595.787 89.9404 595.837 89.7655 595.775 89.6116L571.711 30.1401Z"
          stroke="black" stroke-width="10" stroke-linejoin="round"/>
    <circle cx="280.273" cy="72.411" r="9" fill="black"/>
    <circle cx="119.273" cy="114.411" r="8" fill="black"/>
    <path d="M35.1181 100.905C35.1458 100.732 35.3317 100.629 35.4937 100.697L78.6857 118.995C78.7975 119.042 78.862 119.159 78.8429 119.279L71.472 165.604C71.4443 165.777 71.2584 165.881 71.0964 165.812L27.9044 147.514C27.7926 147.467 27.7281 147.35 27.7472 147.231L35.1181 100.905Z"
          stroke="black" stroke-width="10" stroke-linejoin="round"/>
    <path d="M179.561 25.6111C179.651 25.3881 179.931 25.3079 180.126 25.4492L232.061 63.1139C232.196 63.2114 232.246 63.3863 232.183 63.5402L208.12 123.012C208.03 123.235 207.75 123.315 207.555 123.174L155.62 85.5089C155.486 85.4115 155.435 85.2365 155.498 85.0826L179.561 25.6111Z"
          stroke="black" stroke-width="10" stroke-linejoin="round"/>
</svg>
