<svg width="752" height="189" viewBox="0 0 752 189" fill="none" xmlns="http://www.w3.org/2000/svg">
    <path d="M375.818 5.59569C375.657 5.38998 375.343 5.38998 375.182 5.59569L332.415 60.4475C332.304 60.5895 332.304 60.787 332.415 60.929L375.182 115.781C375.343 115.987 375.657 115.987 375.818 115.781L418.585 60.929C418.696 60.787 418.696 60.5895 418.585 60.4475L375.818 5.59569Z"
          stroke="black" stroke-width="10" stroke-linejoin="round"/>
    <circle cx="9" cy="9" r="9" transform="matrix(-1 0 0 1 479.999 66.1282)" fill="black"/>
    <circle cx="8" cy="8" r="8" transform="matrix(-1 0 0 1 639.999 109.128)" fill="black"/>
    <path d="M716.154 103.623C716.126 103.449 715.941 103.346 715.779 103.414L672.587 121.712C672.475 121.76 672.41 121.876 672.429 121.996L679.8 168.321C679.828 168.495 680.014 168.598 680.176 168.529L723.368 150.232C723.48 150.184 723.544 150.068 723.525 149.948L716.154 103.623Z"
          stroke="black" stroke-width="10" stroke-linejoin="round"/>
    <path d="M569.28 34.0631C569.454 33.9375 569.706 34.0096 569.787 34.2086L591.499 87.2938C591.555 87.4312 591.511 87.5871 591.39 87.6738L544.835 121.171C544.66 121.296 544.409 121.224 544.328 121.025L522.615 67.9399C522.559 67.8025 522.604 67.6466 522.724 67.5599L569.28 34.0631Z"
          fill="white" stroke="white" stroke-width="19" stroke-linejoin="round"/>
    <path d="M569.28 34.0631C569.454 33.9375 569.706 34.0096 569.787 34.2086L591.499 87.2938C591.555 87.4312 591.511 87.5871 591.39 87.6738L544.835 121.171C544.66 121.296 544.409 121.224 544.328 121.025L522.615 67.9399C522.559 67.8025 522.604 67.6466 522.724 67.5599L569.28 34.0631Z"
          fill="white" stroke="white" stroke-width="4" stroke-linejoin="round"/>
    <circle cx="280.273" cy="70.5994" r="9" fill="black"/>
    <circle cx="119.273" cy="112.599" r="8" fill="black"/>
    <path d="M35.1181 99.0936C35.1458 98.9199 35.3317 98.8168 35.4937 98.8854L78.6857 117.183C78.7975 117.231 78.862 117.347 78.8429 117.467L71.472 163.792C71.4443 163.966 71.2584 164.069 71.0964 164L27.9044 145.702C27.7926 145.655 27.7281 145.539 27.7472 145.419L35.1181 99.0936Z"
          stroke="black" stroke-width="10" stroke-linejoin="round"/>
    <path d="M181.833 29.0652C181.658 28.9383 181.407 29.0103 181.326 29.2106L159.711 82.6301C159.656 82.7684 159.701 82.9255 159.821 83.0131L206.472 116.845C206.647 116.972 206.898 116.9 206.979 116.699L228.594 63.28C228.649 63.1417 228.604 62.9846 228.484 62.897L181.833 29.0652Z"
          fill="white" stroke="white" stroke-width="19" stroke-linejoin="round"/>
    <path d="M181.833 29.0652C181.658 28.9383 181.407 29.0103 181.326 29.2106L159.711 82.6301C159.656 82.7684 159.701 82.9255 159.821 83.0131L206.472 116.845C206.647 116.972 206.898 116.9 206.979 116.699L228.594 63.28C228.649 63.1417 228.604 62.9846 228.484 62.897L181.833 29.0652Z"
          fill="white" stroke="white" stroke-width="4" stroke-linejoin="round"/>
</svg>
