<svg width="752" height="190" viewBox="0 0 752 190" fill="none" xmlns="http://www.w3.org/2000/svg">
    <path d="M375.193 9.7765C375.348 9.5745 375.652 9.5745 375.807 9.7765L417.137 63.64C417.244 63.7794 417.244 63.9734 417.137 64.1128L375.807 117.976C375.652 118.178 375.348 118.178 375.193 117.976L333.863 64.1128C333.756 63.9734 333.756 63.7794 333.863 63.64L375.193 9.7765Z"
          fill="white" stroke="#974533" stroke-width="19" stroke-linejoin="round"/>
    <path d="M375.193 9.7765C375.348 9.5745 375.652 9.5745 375.807 9.7765L417.137 63.64C417.244 63.7794 417.244 63.9734 417.137 64.1128L375.807 117.976C375.652 118.178 375.348 118.178 375.193 117.976L333.863 64.1128C333.756 63.9734 333.756 63.7794 333.863 63.64L375.193 9.7765Z"
          fill="#974533" stroke="white" stroke-width="4" stroke-linejoin="round"/>
    <circle cx="9" cy="9" r="9" transform="matrix(-1 0 0 1 479.999 67.3164)" fill="#974533"/>
    <circle cx="8" cy="8" r="8" transform="matrix(-1 0 0 1 639.999 110.316)" fill="#974533"/>
    <path d="M716.154 104.811C716.127 104.637 715.941 104.534 715.779 104.603L672.587 122.9C672.475 122.948 672.41 123.064 672.429 123.184L679.8 169.509C679.828 169.683 680.014 169.786 680.176 169.717L723.368 151.42C723.48 151.372 723.544 151.256 723.525 151.136L716.154 104.811Z"
          stroke="#974533" stroke-width="10" stroke-linejoin="round"/>
    <path d="M569.28 35.2514C569.454 35.1258 569.705 35.1978 569.787 35.3969L591.499 88.482C591.555 88.6194 591.511 88.7753 591.39 88.862L544.834 122.359C544.66 122.484 544.409 122.412 544.327 122.213L522.615 69.1281C522.559 68.9907 522.604 68.8348 522.724 68.7481L569.28 35.2514Z"
          fill="white" stroke="#974533" stroke-width="19" stroke-linejoin="round"/>
    <path d="M569.28 35.2514C569.454 35.1258 569.705 35.1978 569.787 35.3969L591.499 88.482C591.555 88.6194 591.511 88.7753 591.39 88.862L544.834 122.359C544.66 122.484 544.409 122.412 544.327 122.213L522.615 69.1281C522.559 68.9907 522.604 68.8348 522.724 68.7481L569.28 35.2514Z"
          fill="#974533" stroke="white" stroke-width="4" stroke-linejoin="round"/>
    <circle cx="280.273" cy="71.7876" r="9" fill="#974533"/>
    <circle cx="119.273" cy="113.788" r="8" fill="#974533"/>
    <path d="M35.1181 100.282C35.1458 100.108 35.3317 100.005 35.4937 100.074L78.6857 118.371C78.7975 118.419 78.862 118.535 78.8429 118.655L71.472 164.98C71.4443 165.154 71.2584 165.257 71.0964 165.188L27.9044 146.891C27.7926 146.843 27.7281 146.727 27.7472 146.607L35.1181 100.282Z"
          stroke="#974533" stroke-width="10" stroke-linejoin="round"/>
    <path d="M181.833 30.2534C181.658 30.1265 181.407 30.1985 181.326 30.3989L159.711 83.8184C159.655 83.9566 159.701 84.1138 159.821 84.2013L206.472 118.033C206.647 118.16 206.898 118.088 206.979 117.888L228.593 64.4682C228.649 64.33 228.604 64.1728 228.484 64.0853L181.833 30.2534Z"
          fill="white" stroke="#974533" stroke-width="19" stroke-linejoin="round"/>
    <path d="M181.833 30.2534C181.658 30.1265 181.407 30.1985 181.326 30.3989L159.711 83.8184C159.655 83.9566 159.701 84.1138 159.821 84.2013L206.472 118.033C206.647 118.16 206.898 118.088 206.979 117.888L228.593 64.4682C228.649 64.33 228.604 64.1728 228.484 64.0853L181.833 30.2534Z"
          fill="#974533" stroke="white" stroke-width="4" stroke-linejoin="round"/>
</svg>
