<svg width="750" height="189" viewBox="0 0 750 189" fill="none" xmlns="http://www.w3.org/2000/svg">
    <path d="M374.818 5.97215C374.657 5.76645 374.343 5.76645 374.182 5.97215L331.415 60.824C331.304 60.9659 331.304 61.1635 331.415 61.3055L374.182 116.157C374.343 116.363 374.657 116.363 374.818 116.157L417.585 61.3055C417.696 61.1635 417.696 60.9659 417.585 60.824L374.818 5.97215Z"
          stroke="black" stroke-width="10" stroke-linejoin="round"/>
    <circle cx="9" cy="9" r="9" transform="matrix(-1 0 0 1 478.999 66.5046)" fill="black"/>
    <circle cx="8" cy="8" r="8" transform="matrix(-1 0 0 1 638.999 109.505)" fill="black"/>
    <path d="M712.137 108.446C712.276 108.387 712.436 108.476 712.46 108.625L718.797 148.462C718.813 148.565 718.758 148.665 718.661 148.706L681.52 164.442C681.381 164.501 681.221 164.412 681.197 164.263L674.86 124.426C674.844 124.323 674.9 124.223 674.996 124.183L712.137 108.446Z"
          fill="white" stroke="white" stroke-width="19" stroke-linejoin="round"/>
    <path d="M712.137 108.446C712.276 108.387 712.436 108.476 712.46 108.625L718.797 148.462C718.813 148.565 718.758 148.665 718.661 148.706L681.52 164.442C681.381 164.501 681.221 164.412 681.197 164.263L674.86 124.426C674.844 124.323 674.9 124.223 674.996 124.183L712.137 108.446Z"
          fill="white" stroke="white" stroke-width="4" stroke-linejoin="round"/>
    <path d="M568.28 34.4396C568.454 34.314 568.706 34.386 568.787 34.5851L590.499 87.6702C590.555 87.8076 590.511 87.9636 590.39 88.0502L543.835 121.547C543.66 121.673 543.409 121.601 543.328 121.401L521.615 68.3164C521.559 68.179 521.604 68.023 521.724 67.9364L568.28 34.4396Z"
          fill="white" stroke="white" stroke-width="19" stroke-linejoin="round"/>
    <path d="M568.28 34.4396C568.454 34.314 568.706 34.386 568.787 34.5851L590.499 87.6702C590.555 87.8076 590.511 87.9636 590.39 88.0502L543.835 121.547C543.66 121.673 543.409 121.601 543.328 121.401L521.615 68.3164C521.559 68.179 521.604 68.023 521.724 67.9364L568.28 34.4396Z"
          fill="white" stroke="white" stroke-width="4" stroke-linejoin="round"/>
    <circle cx="279.273" cy="70.9758" r="9" fill="black"/>
    <circle cx="118.273" cy="112.976" r="8" fill="black"/>
    <path d="M36.5224 103.447C36.3831 103.388 36.2232 103.477 36.1994 103.626L29.8608 143.463C29.8444 143.566 29.8999 143.666 29.996 143.707L67.1385 159.442C67.2778 159.501 67.4377 159.412 67.4615 159.263L73.8001 119.426C73.8165 119.323 73.761 119.223 73.6649 119.182L36.5224 103.447Z"
          fill="white" stroke="white" stroke-width="19" stroke-linejoin="round"/>
    <path d="M36.5224 103.447C36.3831 103.388 36.2232 103.477 36.1994 103.626L29.8608 143.463C29.8444 143.566 29.8999 143.666 29.996 143.707L67.1385 159.442C67.2778 159.501 67.4377 159.412 67.4615 159.263L73.8001 119.426C73.8165 119.323 73.761 119.223 73.6649 119.182L36.5224 103.447Z"
          fill="white" stroke="white" stroke-width="4" stroke-linejoin="round"/>
    <path d="M180.833 29.4416C180.658 29.3147 180.407 29.3868 180.326 29.5871L158.711 83.0066C158.656 83.1448 158.701 83.302 158.821 83.3895L205.472 117.221C205.647 117.348 205.898 117.276 205.979 117.076L227.594 63.6564C227.649 63.5182 227.604 63.3611 227.484 63.2735L180.833 29.4416Z"
          fill="white" stroke="white" stroke-width="19" stroke-linejoin="round"/>
    <path d="M180.833 29.4416C180.658 29.3147 180.407 29.3868 180.326 29.5871L158.711 83.0066C158.656 83.1448 158.701 83.302 158.821 83.3895L205.472 117.221C205.647 117.348 205.898 117.276 205.979 117.076L227.594 63.6564C227.649 63.5182 227.604 63.3611 227.484 63.2735L180.833 29.4416Z"
          fill="white" stroke="white" stroke-width="4" stroke-linejoin="round"/>
</svg>
