<svg width="750" height="190" viewBox="0 0 750 190" fill="none" xmlns="http://www.w3.org/2000/svg">
    <path d="M374.193 10.153C374.348 9.95096 374.652 9.95097 374.807 10.153L416.137 64.0165C416.244 64.1559 416.244 64.3499 416.137 64.4893L374.807 118.353C374.652 118.555 374.348 118.555 374.193 118.353L332.863 64.4893C332.756 64.3499 332.756 64.1559 332.863 64.0165L374.193 10.153Z"
          fill="white" stroke="#974533" stroke-width="19" stroke-linejoin="round"/>
    <path d="M374.193 10.153C374.348 9.95096 374.652 9.95097 374.807 10.153L416.137 64.0165C416.244 64.1559 416.244 64.3499 416.137 64.4893L374.807 118.353C374.652 118.555 374.348 118.555 374.193 118.353L332.863 64.4893C332.756 64.3499 332.756 64.1559 332.863 64.0165L374.193 10.153Z"
          fill="#974533" stroke="white" stroke-width="4" stroke-linejoin="round"/>
    <circle cx="9" cy="9" r="9" transform="matrix(-1 0 0 1 478.999 67.6929)" fill="#974533"/>
    <circle cx="8" cy="8" r="8" transform="matrix(-1 0 0 1 638.999 110.693)" fill="#974533"/>
    <path d="M712.137 109.635C712.276 109.576 712.436 109.664 712.46 109.814L718.797 149.65C718.813 149.753 718.758 149.853 718.661 149.894L681.52 165.63C681.381 165.689 681.221 165.6 681.197 165.451L674.86 125.615C674.844 125.512 674.9 125.411 674.996 125.371L712.137 109.635Z"
          fill="white" stroke="#974533" stroke-width="19" stroke-linejoin="round"/>
    <path d="M712.137 109.635C712.276 109.576 712.436 109.664 712.46 109.814L718.797 149.65C718.813 149.753 718.758 149.853 718.661 149.894L681.52 165.63C681.381 165.689 681.221 165.6 681.197 165.451L674.86 125.615C674.844 125.512 674.9 125.411 674.996 125.371L712.137 109.635Z"
          fill="#974533" stroke="white" stroke-width="4" stroke-linejoin="round"/>
    <path d="M568.28 35.6278C568.454 35.5022 568.705 35.5743 568.787 35.7733L590.499 88.8585C590.555 88.9959 590.511 89.1518 590.39 89.2385L543.834 122.735C543.66 122.861 543.409 122.789 543.327 122.59L521.615 69.5046C521.559 69.3672 521.604 69.2113 521.724 69.1246L568.28 35.6278Z"
          fill="white" stroke="#974533" stroke-width="19" stroke-linejoin="round"/>
    <path d="M568.28 35.6278C568.454 35.5022 568.705 35.5743 568.787 35.7733L590.499 88.8585C590.555 88.9959 590.511 89.1518 590.39 89.2385L543.834 122.735C543.66 122.861 543.409 122.789 543.327 122.59L521.615 69.5046C521.559 69.3672 521.604 69.2113 521.724 69.1246L568.28 35.6278Z"
          fill="#974533" stroke="white" stroke-width="4" stroke-linejoin="round"/>
    <circle cx="279.273" cy="72.1641" r="9" fill="#974533"/>
    <circle cx="118.273" cy="114.164" r="8" fill="#974533"/>
    <path d="M36.5223 104.636C36.383 104.577 36.2231 104.665 36.1994 104.815L29.8608 144.652C29.8444 144.755 29.8999 144.855 29.996 144.895L67.1385 160.63C67.2778 160.689 67.4377 160.601 67.4614 160.451L73.8 120.614C73.8164 120.511 73.7609 120.411 73.6648 120.371L36.5223 104.636Z"
          fill="white" stroke="#974533" stroke-width="19" stroke-linejoin="round"/>
    <path d="M36.5223 104.636C36.383 104.577 36.2231 104.665 36.1994 104.815L29.8608 144.652C29.8444 144.755 29.8999 144.855 29.996 144.895L67.1385 160.63C67.2778 160.689 67.4377 160.601 67.4614 160.451L73.8 120.614C73.8164 120.511 73.7609 120.411 73.6648 120.371L36.5223 104.636Z"
          fill="#974533" stroke="white" stroke-width="4" stroke-linejoin="round"/>
    <path d="M180.833 30.6299C180.658 30.503 180.407 30.575 180.326 30.7753L158.711 84.1948C158.655 84.3331 158.701 84.4902 158.821 84.5778L205.472 118.41C205.647 118.537 205.898 118.464 205.979 118.264L227.593 64.8447C227.649 64.7064 227.604 64.5493 227.484 64.4617L180.833 30.6299Z"
          fill="white" stroke="#974533" stroke-width="19" stroke-linejoin="round"/>
    <path d="M180.833 30.6299C180.658 30.503 180.407 30.575 180.326 30.7753L158.711 84.1948C158.655 84.3331 158.701 84.4902 158.821 84.5778L205.472 118.41C205.647 118.537 205.898 118.464 205.979 118.264L227.593 64.8447C227.649 64.7064 227.604 64.5493 227.484 64.4617L180.833 30.6299Z"
          fill="#974533" stroke="white" stroke-width="4" stroke-linejoin="round"/>
</svg>
