<svg width="1512" height="2102" viewBox="0 0 1512 2102" fill="none" xmlns="http://www.w3.org/2000/svg">
    <rect width="1512" height="2102" fill="#EEE1CE"/>
    <path fill-rule="evenodd" clip-rule="evenodd"
          d="M1405 1638.02C1257.42 1875.53 1022.27 2030 755.5 2030C488.733 2030 253.575 1875.53 106 1638.02V1607.16C250.102 1853.33 487.301 2014 755.5 2014C1023.7 2014 1260.9 1853.33 1405 1607.16V1638.02ZM1405 463.977C1257.42 226.469 1022.27 72 755.5 72C488.733 72 253.575 226.469 106 463.977V494.837C250.102 248.67 487.301 88 755.5 88C1023.7 88 1260.9 248.67 1405 494.837V463.977Z"
          fill="#D3C3A1"/>
    <line x1="113.5" y1="470" x2="113.5" y2="1631" stroke="#D3C3A1" stroke-width="15"/>
    <line x1="1397.5" y1="470" x2="1397.5" y2="1631" stroke="#D3C3A1" stroke-width="15"/>
    <line x1="56.9358" y1="849" x2="56.9358" y2="874.382" stroke="#D3C3A1" stroke-width="4"/>
    <line x1="56.9358" y1="1115.01" x2="56.9358" y2="1140.39" stroke="#D3C3A1" stroke-width="4"/>
    <circle cx="55.9512" cy="892.658" r="5.07646" fill="#D3C3A1"/>
    <circle cx="55.9512" cy="1098.76" r="5.07646" fill="#D3C3A1"/>
    <circle cx="55.951" cy="925.147" r="10.1529" fill="#D3C3A1"/>
    <circle cx="55.951" cy="1066.27" r="10.1529" fill="#D3C3A1"/>
    <path fill-rule="evenodd" clip-rule="evenodd"
          d="M56.4588 954.59C56.4588 966.774 39.7064 990.633 26 990.633C41.737 998.248 56.4588 1017.03 56.4588 1040.89C56.4588 1017.03 71.1805 998.248 86.9175 990.633C73.2111 990.633 56.4588 966.774 56.4588 954.59ZM41.2294 991.356C48.0826 991.356 56.4588 978.444 56.4588 971.85C56.4588 978.444 64.8349 991.356 71.6881 991.356C63.8196 995.477 56.4588 1008.69 56.4588 1021.6C56.4588 1008.69 49.0979 995.477 41.2294 991.356Z"
          fill="#D3C3A1"/>
    <path d="M171.953 810.984C139.151 791.719 131.861 650.615 207.88 611.043C195.801 618.541 180.284 647.49 177.68 661.028C200.07 648.011 198.507 662.205 196.945 662.59C164.872 670.504 161.192 713.443 164.663 733.402C171.745 719.24 187.053 713.617 197.987 713.617C214.649 713.617 215.69 739.897 190.177 733.402C163.629 726.645 164.528 787.553 179.242 800.57C185.717 806.298 178.159 814.628 171.953 810.984Z"
          fill="#D3C3A1"/>
    <path d="M182.887 518.362C187.053 508.99 181.846 479.311 172.994 462.649C200.07 478.27 197.987 558.975 172.474 615.729C175.598 555.851 159.276 530.225 148.522 507.948C141.233 492.849 164.143 477.957 182.887 518.362Z"
          fill="#D3C3A1"/>
    <path d="M145.398 564.182C162.581 566.039 173.515 606.877 163.622 649.052C161.123 612.397 149.39 595.943 137.588 587.092C126.48 578.761 133.423 562.887 145.398 564.182Z"
          fill="#D3C3A1"/>
    <path d="M201.632 892.21C201.632 860.969 158.415 827.645 155.812 806.818C148.002 831.811 187.053 859.407 184.97 887.523C183.339 896.493 179.487 897.937 172.994 897.937C166.226 897.937 162.581 894.813 162.581 890.647C162.581 886.482 164.143 886.482 164.143 883.879C164.143 881.275 162.581 880.234 159.977 880.234C151.065 880.234 148.002 904.706 165.705 912.516C144.878 907.83 150.605 921.005 155.812 922.409C192.884 932.406 201.632 907.309 201.632 892.21Z"
          fill="#D3C3A1"/>
    <circle cx="148.002" cy="870.341" r="7.28951" fill="#D3C3A1"/>
    <path d="M171.953 1122.71C139.151 1141.98 131.861 1283.08 207.88 1322.65C195.801 1315.16 180.284 1286.21 177.68 1272.67C200.07 1285.69 198.507 1271.49 196.945 1271.11C164.872 1263.19 161.192 1220.25 164.663 1200.29C171.745 1214.46 187.053 1220.08 197.987 1220.08C214.649 1220.08 215.69 1193.8 190.177 1200.29C163.629 1207.05 164.528 1146.14 179.242 1133.13C185.717 1127.4 178.159 1119.07 171.953 1122.71Z"
          fill="#D3C3A1"/>
    <path d="M182.887 1415.34C187.053 1424.71 181.846 1454.39 172.994 1471.05C200.07 1455.43 197.987 1374.72 172.474 1317.97C175.598 1377.85 159.276 1403.47 148.522 1425.75C141.233 1440.85 164.143 1455.74 182.887 1415.34Z"
          fill="#D3C3A1"/>
    <path d="M145.398 1369.52C162.581 1367.66 173.515 1326.82 163.622 1284.64C161.123 1321.3 149.39 1337.75 137.588 1346.61C126.48 1354.94 133.423 1370.81 145.398 1369.52Z"
          fill="#D3C3A1"/>
    <path d="M201.632 1041.49C201.632 1072.73 158.415 1106.05 155.812 1126.88C148.002 1101.89 187.053 1074.29 184.97 1046.17C183.339 1037.2 179.487 1035.76 172.994 1035.76C166.226 1035.76 162.581 1038.88 162.581 1043.05C162.581 1047.22 164.143 1047.22 164.143 1049.82C164.143 1052.42 162.581 1053.46 159.977 1053.46C151.065 1053.46 148.002 1028.99 165.705 1021.18C144.878 1025.87 150.605 1012.69 155.812 1011.29C192.884 1001.29 201.632 1026.39 201.632 1041.49Z"
          fill="#D3C3A1"/>
    <circle cx="7.28951" cy="7.28951" r="7.28951" transform="matrix(1 0 0 -1 140.712 1070.65)" fill="#D3C3A1"/>
    <path d="M175 967C166.707 956.889 141 953.249 141 967C141 980.751 166.707 977.111 175 967Z" fill="#D3C3A1"/>
    <line y1="-2" x2="25.3823" y2="-2" transform="matrix(4.37114e-08 1 1 -4.37114e-08 1457.06 849.351)" stroke="#D3C3A1"
          stroke-width="4"/>
    <line y1="-2" x2="25.3823" y2="-2" transform="matrix(4.37114e-08 1 1 -4.37114e-08 1457.06 1115.36)" stroke="#D3C3A1"
          stroke-width="4"/>
    <circle cx="5.07646" cy="5.07646" r="5.07646" transform="matrix(-1 0 0 1 1461.13 887.932)" fill="#D3C3A1"/>
    <circle cx="5.07646" cy="5.07646" r="5.07646" transform="matrix(-1 0 0 1 1461.13 1094.04)" fill="#D3C3A1"/>
    <circle cx="10.1529" cy="10.1529" r="10.1529" transform="matrix(-1 0 0 1 1466.2 915.345)" fill="#D3C3A1"/>
    <circle cx="10.1529" cy="10.1529" r="10.1529" transform="matrix(-1 0 0 1 1466.2 1056.47)" fill="#D3C3A1"/>
    <path fill-rule="evenodd" clip-rule="evenodd"
          d="M1455.54 954.941C1455.54 967.124 1472.29 990.984 1486 990.984C1470.26 998.598 1455.54 1017.38 1455.54 1041.24C1455.54 1017.38 1440.82 998.598 1425.08 990.984C1438.79 990.984 1455.54 967.124 1455.54 954.941ZM1470.77 991.706C1463.92 991.706 1455.54 978.794 1455.54 972.201C1455.54 978.794 1447.17 991.706 1440.31 991.706C1448.18 995.827 1455.54 1009.04 1455.54 1021.95C1455.54 1009.04 1462.9 995.827 1470.77 991.706Z"
          fill="#D3C3A1"/>
    <path d="M1340.05 811.334C1372.85 792.069 1380.14 650.965 1304.12 611.393C1316.2 618.891 1331.72 647.841 1334.32 661.379C1311.93 648.362 1313.49 662.555 1315.05 662.941C1347.13 670.855 1350.81 713.794 1347.34 733.753C1340.26 719.591 1324.95 713.967 1314.01 713.967C1297.35 713.967 1296.31 740.247 1321.82 733.753C1348.37 726.996 1347.47 787.904 1332.76 800.921C1326.28 806.648 1333.84 814.979 1340.05 811.334Z"
          fill="#D3C3A1"/>
    <path d="M1329.11 518.713C1324.95 509.34 1330.15 479.662 1339.01 463C1311.93 478.62 1314.01 559.326 1339.53 616.08C1336.4 556.202 1352.72 530.575 1363.48 508.299C1370.77 493.199 1347.86 478.308 1329.11 518.713Z"
          fill="#D3C3A1"/>
    <path d="M1366.6 564.532C1349.42 566.39 1338.49 607.228 1348.38 649.403C1350.88 612.747 1362.61 596.294 1374.41 587.442C1385.52 579.111 1378.58 563.238 1366.6 564.532Z"
          fill="#D3C3A1"/>
    <path d="M1310.37 892.56C1310.37 861.319 1353.58 827.996 1356.19 807.169C1364 832.161 1324.95 859.757 1327.03 887.874C1328.66 896.844 1332.51 898.288 1339.01 898.288C1345.77 898.288 1349.42 895.163 1349.42 890.998C1349.42 886.833 1347.86 886.833 1347.86 884.229C1347.86 881.626 1349.42 880.584 1352.02 880.584C1360.94 880.584 1364 905.056 1346.3 912.867C1367.12 908.18 1361.39 921.355 1356.19 922.759C1319.12 932.757 1310.37 907.66 1310.37 892.56Z"
          fill="#D3C3A1"/>
    <circle cx="7.28951" cy="7.28951" r="7.28951" transform="matrix(-1 0 0 1 1371.29 863.402)" fill="#D3C3A1"/>
    <path d="M1340.05 1123.06C1372.85 1142.33 1380.14 1283.43 1304.12 1323C1316.2 1315.51 1331.72 1286.56 1334.32 1273.02C1311.93 1286.04 1313.49 1271.84 1315.05 1271.46C1347.13 1263.54 1350.81 1220.6 1347.34 1200.65C1340.26 1214.81 1324.95 1220.43 1314.01 1220.43C1297.35 1220.43 1296.31 1194.15 1321.82 1200.65C1348.37 1207.4 1347.47 1146.49 1332.76 1133.48C1326.28 1127.75 1333.84 1119.42 1340.05 1123.06Z"
          fill="#D3C3A1"/>
    <path d="M1329.11 1415.69C1324.95 1425.06 1330.15 1454.74 1339.01 1471.4C1311.93 1455.78 1314.01 1375.07 1339.53 1318.32C1336.4 1378.2 1352.72 1403.82 1363.48 1426.1C1370.77 1441.2 1347.86 1456.09 1329.11 1415.69Z"
          fill="#D3C3A1"/>
    <path d="M1366.6 1369.87C1349.42 1368.01 1338.49 1327.17 1348.38 1285C1350.88 1321.65 1362.61 1338.1 1374.41 1346.96C1385.52 1355.29 1378.58 1371.16 1366.6 1369.87Z"
          fill="#D3C3A1"/>
    <path d="M1310.37 1041.84C1310.37 1073.08 1353.58 1106.4 1356.19 1127.23C1364 1102.24 1324.95 1074.64 1327.03 1046.52C1328.66 1037.55 1332.51 1036.11 1339.01 1036.11C1345.77 1036.11 1349.42 1039.24 1349.42 1043.4C1349.42 1047.57 1347.86 1047.57 1347.86 1050.17C1347.86 1052.77 1349.42 1053.81 1352.02 1053.81C1360.94 1053.81 1364 1029.34 1346.3 1021.53C1367.12 1026.22 1361.39 1013.04 1356.19 1011.64C1319.12 1001.64 1310.37 1026.74 1310.37 1041.84Z"
          fill="#D3C3A1"/>
    <circle cx="1364" cy="1063.71" r="7.28951" transform="rotate(180 1364 1063.71)" fill="#D3C3A1"/>
    <path d="M1337 967.351C1345.29 957.239 1371 953.599 1371 967.351C1371 981.102 1345.29 977.462 1337 967.351Z"
          fill="#D3C3A1"/>
    <path d="M755.5 1962.5C722.7 1961.3 688.667 1998.33 677.5 2016C677.5 2016 722.576 2021.28 755.5 2021.5C788.967 2021.72 835 2016 835 2016C823.833 1998.33 788.3 1961.3 755.5 1962.5Z"
          fill="#EEE1CE" stroke="#D3C3A1" stroke-width="19"/>
    <path d="M665.448 2024.19C682.314 2026.14 690.955 2013.91 697 2006L814 2005C827 2018.5 831 2025.5 851 2023.5C844.826 2025.35 804.726 2030.44 756 2030.66C727.091 2030.78 695.146 2029.19 665.448 2024.19C664.179 2024.04 662.864 2023.81 661.5 2023.5C662.811 2023.74 664.127 2023.97 665.448 2024.19Z"
          fill="#EEE1CE"/>
    <path d="M708.5 2072.53C712.833 2056.86 728.5 2026 755.5 2021C782.5 2026 799.667 2056.89 804 2072.56"
          stroke="#D3C3A1" stroke-width="19" stroke-linecap="round"/>
    <path d="M720 80.5L754.5 130L789 80.5" stroke="#D3C3A1" stroke-width="16" stroke-linejoin="round"/>
    <path d="M708.5 73.5C728 72.5 732 85 737 91L772 91C777 85 781 72.0566 800.5 73.0566C800.5 73.0566 772.474 71.4136 754.5 71.5C736.519 71.5864 708.5 73.5 708.5 73.5Z"
          fill="#EEE1CE"/>
    <path fill-rule="evenodd" clip-rule="evenodd"
          d="M959.584 0C1184.5 56.0648 1378.69 202.876 1512 404.266V450.708C1345.5 178.269 1068.75 0 755.5 0L959.584 0ZM551.416 0L755.5 0C442.874 0 166.609 177.557 0 449.075V402.759C133.277 202.144 327.059 55.9248 551.416 0ZM959.584 2102C1184.5 2045.94 1378.69 1899.12 1512 1697.73V1651.29C1345.5 1923.73 1068.75 2102 755.5 2102C442.874 2102 166.609 1924.44 0 1652.92L0 1699.24C133.277 1899.86 327.059 2046.08 551.416 2102H755.5H959.584Z"
          fill="#D3C3A1"/>
    <path fill-rule="evenodd" clip-rule="evenodd"
          d="M0 449.075C166.609 177.557 442.874 0 755.5 0C1068.75 0 1345.5 178.269 1512 450.708V585.107C1370.31 259.497 1084.72 37 755.5 37C427.05 37 142.035 258.454 0 582.816V449.075ZM755.5 2102C1068.75 2102 1345.5 1923.73 1512 1651.29V1516.89C1370.31 1842.5 1084.72 2065 755.5 2065C427.05 2065 142.035 1843.55 0 1519.18L0 1652.92C166.609 1924.44 442.874 2102 755.5 2102Z"
          fill="#F2F2F2"/>
    <path fill-rule="evenodd" clip-rule="evenodd"
          d="M1512 1562.32C1362.61 1873.12 1081.01 2084 755.5 2084C430.716 2084 149.647 1874.05 0 1564.39V1519.18C142.035 1843.55 427.05 2065 755.5 2065C1084.72 2065 1370.31 1842.5 1512 1516.89V1562.32ZM1512 539.683C1362.61 228.884 1081.01 18 755.5 18C430.716 18 149.647 227.946 0 537.608V582.816C142.035 258.454 427.05 37 755.5 37C1084.72 37 1370.31 259.497 1512 585.107V539.683Z"
          fill="#975933"/>
    <path d="M1240 1371.15C1129.31 1541.46 954.858 1651.98 757 1651.98C559.142 1651.98 384.69 1541.46 274 1371.15V1341.07C276.464 1345.17 278.964 1349.23 281.5 1353.27C389.361 1524.82 562.19 1635.98 757 1635.98C951.81 1635.98 1124.64 1524.82 1232.5 1353.27C1235.04 1349.23 1237.54 1345.17 1240 1341.07V1371.15Z"
          fill="#8C4A29"/>
    <path d="M1240 676.766C1161.07 555.362 973.87 470 755.5 470C539.85 470 354.597 553.248 274 672.245V683H281.5H286.05C311.078 645.381 347.464 611.028 393.244 581.744C485.219 522.912 613.252 486 755.5 486C897.748 486 1025.78 522.912 1117.76 581.744C1163.54 611.028 1199.92 645.381 1224.95 683H1232.5H1240V676.766Z"
          fill="#8C4A29"/>
    <path d="M281.5 1353.27C389.361 1524.82 562.19 1635.98 757 1635.98C951.81 1635.98 1124.64 1524.82 1232.5 1353.27V683H1224.95C1199.92 645.381 1163.54 611.028 1117.76 581.744C1025.78 522.912 897.748 486 755.5 486C613.252 486 485.219 522.912 393.244 581.744C347.464 611.028 311.078 645.381 286.05 683H281.5L281.5 1353.27Z"
          fill="#8C4A29"/>
    <path fill-rule="evenodd" clip-rule="evenodd"
          d="M1240 1371.15C1129.31 1541.46 954.858 1651.98 757 1651.98C559.142 1651.98 384.69 1541.46 274 1371.15V1341.07C381.246 1519.53 557.609 1635.98 757 1635.98C956.391 1635.98 1132.75 1519.53 1240 1341.07V1371.15Z"
          fill="#361408"/>
    <line x1="281.5" y1="671.983" x2="281.5" y2="1365.28" stroke="#361408" stroke-width="15"/>
    <line x1="1232.5" y1="677" x2="1232.5" y2="1365" stroke="#361408" stroke-width="15"/>
    <mask id="path-49-inside-1_383_626" fill="white">
        <path fill-rule="evenodd" clip-rule="evenodd"
              d="M1240 676.766C1161.07 555.362 973.87 470 755.5 470C539.85 470 354.597 553.248 274 672.245V683H286.05C311.078 645.381 347.464 611.028 393.244 581.744C485.219 522.912 613.252 486 755.5 486C897.748 486 1025.78 522.912 1117.76 581.744C1163.54 611.028 1199.92 645.381 1224.95 683H1240V676.766Z"/>
    </mask>
    <path fill-rule="evenodd" clip-rule="evenodd"
          d="M1240 676.766C1161.07 555.362 973.87 470 755.5 470C539.85 470 354.597 553.248 274 672.245V683H286.05C311.078 645.381 347.464 611.028 393.244 581.744C485.219 522.912 613.252 486 755.5 486C897.748 486 1025.78 522.912 1117.76 581.744C1163.54 611.028 1199.92 645.381 1224.95 683H1240V676.766Z"
          fill="#361408"/>
    <path d="M1240 676.766H1241V676.469L1240.84 676.221L1240 676.766ZM274 672.245L273.172 671.685L273 671.939V672.245H274ZM274 683H273V684H274V683ZM286.05 683V684H286.586L286.883 683.554L286.05 683ZM393.244 581.744L392.705 580.902L392.705 580.902L393.244 581.744ZM1117.76 581.744L1118.29 580.902L1118.29 580.902L1117.76 581.744ZM1224.95 683L1224.12 683.554L1224.41 684H1224.95V683ZM1240 683V684H1241V683H1240ZM1240.84 676.221C1161.66 554.432 974.066 469 755.5 469V471C973.674 471 1160.48 556.292 1239.16 677.311L1240.84 676.221ZM755.5 469C539.653 469 354.02 552.317 273.172 671.685L274.828 672.806C355.174 554.18 540.047 471 755.5 471V469ZM275 683V672.245H273V683H275ZM286.05 682H274V684H286.05V682ZM392.705 580.902C346.832 610.245 310.336 644.691 285.217 682.446L286.883 683.554C311.819 646.072 348.096 611.81 393.783 582.587L392.705 580.902ZM755.5 485C613.09 485 484.864 521.952 392.705 580.902L393.783 582.587C485.574 523.872 613.414 487 755.5 487V485ZM1118.29 580.902C1026.14 521.952 897.91 485 755.5 485V487C897.586 487 1025.43 523.872 1117.22 582.587L1118.29 580.902ZM1225.78 682.446C1200.66 644.691 1164.17 610.245 1118.29 580.902L1117.22 582.587C1162.9 611.81 1199.18 646.072 1224.12 683.554L1225.78 682.446ZM1240 682H1224.95V684H1240V682ZM1239 676.766V683H1241V676.766H1239Z"
          fill="#361408" mask="url(#path-49-inside-1_383_626)"/>
    <path d="M1170.5 1493.55C1169.02 1489.51 1166.2 1484.67 1163.84 1480.63C1163.58 1480.2 1163.34 1479.78 1163.1 1479.36C1162.09 1477.62 1161.22 1476.1 1160.58 1474.84C1161.94 1475.35 1163.62 1476.08 1165.54 1476.93C1165.81 1477.05 1166.08 1477.17 1166.36 1477.29C1170.84 1479.27 1176.35 1481.71 1181.01 1482.76C1181.95 1482.98 1182.93 1482.9 1183.76 1482.75C1184.62 1482.6 1185.53 1482.33 1186.41 1482.02C1188.18 1481.41 1190.12 1480.53 1191.87 1479.72C1192.13 1479.6 1192.4 1479.48 1192.65 1479.36C1193.34 1479.04 1193.98 1478.74 1194.58 1478.47C1194.29 1479.05 1193.97 1479.67 1193.63 1480.33C1193.53 1480.53 1193.43 1480.73 1193.32 1480.93C1192.46 1482.61 1191.53 1484.46 1190.87 1486.13C1190.55 1486.96 1190.26 1487.82 1190.09 1488.65C1189.93 1489.42 1189.82 1490.42 1190.09 1491.4C1191.17 1495.32 1193.85 1500.41 1196.14 1504.76C1196.41 1505.28 1196.68 1505.8 1196.95 1506.3C1198.08 1508.48 1199.06 1510.39 1199.69 1511.92C1198.39 1511.27 1196.8 1510.35 1194.94 1509.28L1194.76 1509.18L1194.75 1509.17C1190.36 1506.64 1184.57 1503.31 1179.55 1502.37C1177.58 1502 1175.47 1502.72 1173.79 1503.47C1172.01 1504.27 1170.14 1505.38 1168.5 1506.41C1167.99 1506.73 1167.51 1507.04 1167.05 1507.33C1166.99 1507.37 1166.92 1507.41 1166.86 1507.45C1167.01 1507.09 1167.17 1506.73 1167.34 1506.35C1167.52 1505.94 1167.71 1505.5 1167.9 1505.06C1168.71 1503.19 1169.56 1501.12 1170.13 1499.26C1170.41 1498.32 1170.65 1497.37 1170.75 1496.46C1170.85 1495.6 1170.86 1494.55 1170.5 1493.55ZM1159.57 1472.34C1159.58 1472.34 1159.58 1472.37 1159.58 1472.42C1159.57 1472.36 1159.57 1472.34 1159.57 1472.34ZM1158.07 1474.1C1158.02 1474.1 1157.99 1474.1 1157.99 1474.1C1157.99 1474.1 1158.01 1474.09 1158.07 1474.1ZM1200.41 1514.22C1200.41 1514.22 1200.41 1514.2 1200.41 1514.16C1200.41 1514.21 1200.41 1514.23 1200.41 1514.22ZM1201.9 1512.79C1201.92 1512.79 1201.93 1512.8 1201.94 1512.8C1201.94 1512.8 1201.92 1512.8 1201.9 1512.79ZM1105.8 1552.62C1104.84 1548.43 1102.66 1543.27 1100.84 1538.96C1100.64 1538.5 1100.45 1538.05 1100.26 1537.61C1099.48 1535.75 1098.81 1534.12 1098.34 1532.79C1099.63 1533.48 1101.2 1534.42 1103 1535.5C1103.25 1535.66 1103.5 1535.81 1103.76 1535.97C1107.95 1538.5 1113.11 1541.62 1117.59 1543.26C1118.5 1543.59 1119.48 1543.64 1120.33 1543.6C1121.2 1543.55 1122.13 1543.41 1123.05 1543.21C1124.88 1542.83 1126.91 1542.21 1128.75 1541.63C1129.03 1541.54 1129.31 1541.45 1129.58 1541.36C1130.3 1541.14 1130.97 1540.92 1131.6 1540.73C1131.24 1541.27 1130.84 1541.84 1130.43 1542.45C1130.3 1542.64 1130.17 1542.82 1130.04 1543.01C1128.98 1544.56 1127.82 1546.28 1126.95 1547.85C1126.52 1548.64 1126.12 1549.46 1125.85 1550.25C1125.59 1551 1125.36 1551.98 1125.5 1552.99C1126.08 1557.01 1128.08 1562.4 1129.8 1567C1130.01 1567.56 1130.21 1568.1 1130.41 1568.64C1131.26 1570.94 1131.98 1572.97 1132.42 1574.56C1131.21 1573.75 1129.74 1572.63 1128.03 1571.34L1127.87 1571.21L1127.86 1571.2C1123.83 1568.14 1118.51 1564.1 1113.66 1562.52C1111.75 1561.9 1109.56 1562.34 1107.8 1562.88C1105.93 1563.44 1103.94 1564.31 1102.18 1565.12C1101.63 1565.37 1101.11 1565.62 1100.62 1565.85C1100.55 1565.88 1100.49 1565.91 1100.42 1565.94C1100.62 1565.61 1100.82 1565.27 1101.03 1564.92C1101.26 1564.52 1101.51 1564.12 1101.75 1563.7C1102.79 1561.95 1103.91 1560.01 1104.7 1558.23C1105.1 1557.34 1105.46 1556.43 1105.68 1555.54C1105.88 1554.7 1106.03 1553.65 1105.8 1552.62ZM1097.66 1530.19C1097.67 1530.19 1097.67 1530.22 1097.66 1530.27C1097.66 1530.21 1097.66 1530.19 1097.66 1530.19ZM1095.95 1531.74C1095.9 1531.74 1095.87 1531.74 1095.87 1531.73C1095.87 1531.73 1095.89 1531.73 1095.95 1531.74ZM1132.83 1576.94C1132.83 1576.94 1132.83 1576.91 1132.84 1576.87C1132.84 1576.92 1132.83 1576.94 1132.83 1576.94ZM1134.49 1575.71C1134.51 1575.71 1134.53 1575.71 1134.53 1575.71C1134.53 1575.72 1134.51 1575.71 1134.49 1575.71ZM1028.19 1603.49C1027.94 1599.2 1026.62 1593.75 1025.52 1589.21C1025.4 1588.72 1025.29 1588.24 1025.18 1587.78C1024.71 1585.82 1024.31 1584.11 1024.07 1582.72C1025.22 1583.6 1026.62 1584.78 1028.22 1586.15C1028.44 1586.34 1028.67 1586.53 1028.9 1586.73C1032.62 1589.91 1037.2 1593.83 1041.35 1596.18C1042.2 1596.65 1043.16 1596.86 1044 1596.95C1044.87 1597.05 1045.81 1597.06 1046.75 1597.02C1048.62 1596.93 1050.72 1596.65 1052.63 1596.38C1052.93 1596.34 1053.21 1596.3 1053.49 1596.26C1054.24 1596.15 1054.94 1596.05 1055.59 1595.96C1055.15 1596.43 1054.66 1596.93 1054.15 1597.47C1053.99 1597.63 1053.84 1597.79 1053.68 1597.96C1052.38 1599.31 1050.95 1600.82 1049.84 1602.23C1049.29 1602.94 1048.76 1603.68 1048.37 1604.42C1047.99 1605.12 1047.6 1606.04 1047.58 1607.06C1047.49 1611.12 1048.59 1616.77 1049.53 1621.59C1049.65 1622.17 1049.76 1622.74 1049.87 1623.3C1050.33 1625.71 1050.71 1627.83 1050.89 1629.47C1049.83 1628.47 1048.56 1627.14 1047.09 1625.58L1046.95 1625.43L1046.94 1625.42C1043.46 1621.74 1038.87 1616.88 1034.34 1614.54C1032.56 1613.62 1030.32 1613.7 1028.5 1613.94C1026.56 1614.19 1024.46 1614.73 1022.59 1615.24C1022.01 1615.4 1021.46 1615.55 1020.94 1615.7C1020.86 1615.72 1020.79 1615.74 1020.72 1615.76C1020.97 1615.47 1021.23 1615.16 1021.49 1614.85C1021.78 1614.5 1022.09 1614.14 1022.4 1613.77C1023.71 1612.21 1025.13 1610.47 1026.2 1608.85C1026.74 1608.04 1027.24 1607.19 1027.6 1606.35C1027.94 1605.55 1028.26 1604.55 1028.19 1603.49ZM1023.82 1580.04C1023.82 1580.04 1023.82 1580.07 1023.8 1580.12C1023.81 1580.06 1023.82 1580.04 1023.82 1580.04ZM1021.88 1581.29C1021.83 1581.28 1021.8 1581.27 1021.79 1581.27C1021.79 1581.26 1021.82 1581.27 1021.88 1581.29ZM1050.91 1631.88C1050.91 1631.88 1050.92 1631.86 1050.93 1631.82C1050.92 1631.87 1050.91 1631.89 1050.91 1631.88ZM1052.75 1630.94C1052.77 1630.95 1052.78 1630.95 1052.78 1630.95C1052.78 1630.95 1052.77 1630.95 1052.75 1630.94ZM939.884 1642.41C940.322 1638.13 939.9 1632.55 939.548 1627.88C939.51 1627.38 939.473 1626.89 939.438 1626.42C939.29 1624.41 939.177 1622.66 939.155 1621.24C940.156 1622.31 941.345 1623.7 942.702 1625.3C942.891 1625.52 943.083 1625.75 943.278 1625.98C946.436 1629.72 950.33 1634.33 954.052 1637.31C954.81 1637.92 955.724 1638.27 956.535 1638.5C957.377 1638.74 958.307 1638.9 959.238 1639.01C961.095 1639.23 963.222 1639.29 965.15 1639.33C965.445 1639.33 965.735 1639.34 966.018 1639.34C966.77 1639.36 967.479 1639.37 968.134 1639.39C967.621 1639.78 967.062 1640.2 966.47 1640.65C966.292 1640.78 966.111 1640.92 965.928 1641.05C964.425 1642.18 962.775 1643.44 961.455 1644.65C960.794 1645.26 960.157 1645.91 959.644 1646.58C959.161 1647.2 958.624 1648.05 958.439 1649.05C957.699 1653.05 957.88 1658.8 958.034 1663.71C958.052 1664.3 958.071 1664.88 958.087 1665.45C958.157 1667.91 958.193 1670.05 958.1 1671.7C957.212 1670.55 956.18 1669.03 954.977 1667.25L954.86 1667.08L954.855 1667.07C952.013 1662.88 948.267 1657.35 944.17 1654.3C942.56 1653.11 940.34 1652.83 938.509 1652.77C936.551 1652.71 934.388 1652.9 932.461 1653.1C931.862 1653.17 931.293 1653.23 930.756 1653.29C930.682 1653.3 930.608 1653.31 930.535 1653.32C930.826 1653.07 931.128 1652.81 931.44 1652.54C931.786 1652.25 932.144 1651.94 932.511 1651.62C934.057 1650.29 935.733 1648.81 937.056 1647.38C937.719 1646.67 938.346 1645.91 938.836 1645.14C939.305 1644.41 939.776 1643.47 939.884 1642.41ZM939.343 1618.56C939.344 1618.56 939.336 1618.59 939.315 1618.64C939.331 1618.58 939.342 1618.56 939.343 1618.56ZM937.223 1619.49C937.174 1619.47 937.148 1619.45 937.147 1619.45C937.146 1619.45 937.17 1619.45 937.223 1619.49ZM957.737 1674.09C957.736 1674.09 957.744 1674.07 957.763 1674.03C957.747 1674.08 957.738 1674.09 957.737 1674.09ZM959.697 1673.45C959.716 1673.46 959.728 1673.47 959.73 1673.47C959.734 1673.48 959.723 1673.47 959.697 1673.45ZM349 1474.84C348.363 1476.1 347.492 1477.62 346.482 1479.36C346.242 1479.78 345.995 1480.2 345.742 1480.63C343.384 1484.67 340.561 1489.51 339.081 1493.55C338.718 1494.55 338.73 1495.6 338.83 1496.46C338.935 1497.37 339.167 1498.32 339.45 1499.26C340.016 1501.12 340.874 1503.19 341.681 1505.06C341.873 1505.5 342.061 1505.94 342.243 1506.35C342.407 1506.73 342.565 1507.1 342.717 1507.45C342.655 1507.41 342.593 1507.37 342.53 1507.33C342.073 1507.04 341.59 1506.73 341.079 1506.41C339.436 1505.38 337.573 1504.27 335.786 1503.47C334.114 1502.72 331.996 1502 330.025 1502.37C325.009 1503.31 319.222 1506.64 314.831 1509.17L314.822 1509.18L314.641 1509.28C312.783 1510.35 311.189 1511.27 309.885 1511.92C310.524 1510.39 311.495 1508.48 312.634 1506.3C312.896 1505.8 313.167 1505.28 313.445 1504.76C315.731 1500.41 318.408 1495.32 319.492 1491.4C319.763 1490.42 319.652 1489.42 319.492 1488.65C319.323 1487.82 319.034 1486.96 318.705 1486.13C318.049 1484.46 317.115 1482.61 316.258 1480.93C316.153 1480.73 316.05 1480.53 315.948 1480.33C315.61 1479.67 315.291 1479.05 315.002 1478.47C315.6 1478.74 316.243 1479.04 316.926 1479.36C317.183 1479.48 317.445 1479.6 317.713 1479.72C319.464 1480.53 321.402 1481.41 323.168 1482.02C324.054 1482.33 324.959 1482.6 325.82 1482.75C326.65 1482.9 327.627 1482.98 328.575 1482.76C333.226 1481.71 338.745 1479.27 343.22 1477.29C343.496 1477.17 343.768 1477.05 344.036 1476.93C345.958 1476.08 347.636 1475.35 349 1474.84ZM313.669 1475.33C313.67 1475.33 313.67 1475.34 313.671 1475.35C313.67 1475.34 313.669 1475.33 313.669 1475.33ZM311.823 1477.26C311.818 1477.26 311.816 1477.26 311.816 1477.26C311.816 1477.26 311.818 1477.26 311.823 1477.26ZM307.644 1512.8C307.645 1512.8 307.659 1512.79 307.684 1512.79C307.656 1512.8 307.643 1512.8 307.644 1512.8ZM309.168 1514.16C309.171 1514.2 309.169 1514.22 309.168 1514.22C309.166 1514.23 309.165 1514.21 309.168 1514.16ZM351.507 1474.1C351.568 1474.09 351.594 1474.1 351.591 1474.1C351.589 1474.1 351.559 1474.1 351.507 1474.1ZM349.997 1472.42C349.998 1472.37 350.003 1472.34 350.005 1472.34C350.007 1472.34 350.007 1472.36 349.997 1472.42ZM411.237 1532.79C410.765 1534.12 410.096 1535.75 409.316 1537.61C409.131 1538.05 408.939 1538.5 408.744 1538.96C406.919 1543.27 404.735 1548.43 403.783 1552.62C403.549 1553.65 403.695 1554.7 403.904 1555.54C404.123 1556.43 404.476 1557.34 404.876 1558.23C405.673 1560.01 406.788 1561.95 407.827 1563.7C408.074 1564.12 408.316 1564.53 408.549 1564.92C408.76 1565.27 408.963 1565.61 409.159 1565.94C409.092 1565.91 409.025 1565.88 408.958 1565.85C408.468 1565.62 407.949 1565.37 407.402 1565.12C405.641 1564.31 403.652 1563.44 401.777 1562.88C400.024 1562.34 397.831 1561.9 395.924 1562.52C391.069 1564.1 385.753 1568.14 381.72 1571.2L381.712 1571.21L381.545 1571.34C379.839 1572.63 378.374 1573.75 377.164 1574.56C377.604 1572.97 378.323 1570.94 379.175 1568.64C379.371 1568.1 379.574 1567.56 379.782 1567C381.496 1562.4 383.503 1557.01 384.079 1552.99C384.223 1551.98 383.986 1551 383.729 1550.25C383.456 1549.46 383.059 1548.64 382.627 1547.85C381.763 1546.28 380.601 1544.56 379.538 1543.01C379.408 1542.82 379.279 1542.64 379.153 1542.45C378.735 1541.84 378.339 1541.27 377.979 1540.73C378.606 1540.92 379.282 1541.14 379.999 1541.36C380.269 1541.45 380.545 1541.54 380.827 1541.63C382.666 1542.21 384.7 1542.83 386.531 1543.21C387.448 1543.41 388.379 1543.55 389.254 1543.6C390.096 1543.64 391.075 1543.59 391.987 1543.26C396.467 1541.62 401.63 1538.5 405.816 1535.97C406.075 1535.81 406.329 1535.66 406.58 1535.5C408.378 1534.42 409.949 1533.48 411.237 1532.79ZM376.257 1537.79C376.258 1537.79 376.259 1537.79 376.26 1537.8C376.258 1537.79 376.257 1537.79 376.257 1537.79ZM375.053 1575.71C375.054 1575.71 375.067 1575.71 375.092 1575.71C375.065 1575.71 375.052 1575.72 375.053 1575.71ZM376.739 1576.87C376.746 1576.91 376.748 1576.93 376.746 1576.94C376.745 1576.94 376.741 1576.92 376.739 1576.87ZM413.629 1531.74C413.689 1531.73 413.715 1531.73 413.713 1531.73C413.711 1531.74 413.681 1531.74 413.629 1531.74ZM411.918 1530.27C411.912 1530.22 411.914 1530.19 411.916 1530.19C411.918 1530.19 411.92 1530.21 411.918 1530.27ZM485.514 1582.72C485.266 1584.11 484.871 1585.82 484.402 1587.78C484.291 1588.24 484.176 1588.72 484.058 1589.21C482.959 1593.75 481.643 1599.2 481.386 1603.49C481.323 1604.55 481.637 1605.55 481.981 1606.35C482.341 1607.19 482.838 1608.04 483.377 1608.85C484.454 1610.47 485.869 1612.21 487.18 1613.77C487.492 1614.14 487.796 1614.5 488.09 1614.85C488.355 1615.16 488.611 1615.47 488.858 1615.76C488.787 1615.74 488.716 1615.72 488.645 1615.7C488.124 1615.55 487.573 1615.4 486.992 1615.24C485.122 1614.73 483.018 1614.19 481.076 1613.94C479.259 1613.7 477.023 1613.62 475.242 1614.54C470.709 1616.88 466.122 1621.74 462.641 1625.42L462.634 1625.43L462.49 1625.58C461.018 1627.13 459.754 1628.47 458.692 1629.47C458.866 1627.83 459.247 1625.71 459.712 1623.3C459.819 1622.74 459.931 1622.17 460.045 1621.59C460.988 1616.76 462.091 1611.12 462.005 1607.06C461.983 1606.04 461.59 1605.12 461.214 1604.42C460.815 1603.68 460.291 1602.94 459.736 1602.23C458.629 1600.82 457.202 1599.31 455.901 1597.96C455.742 1597.79 455.584 1597.63 455.43 1597.47C454.918 1596.93 454.434 1596.43 453.992 1595.96C454.642 1596.05 455.343 1596.15 456.087 1596.26C456.368 1596.3 456.654 1596.34 456.947 1596.38C458.856 1596.65 460.964 1596.93 462.833 1597.02C463.77 1597.06 464.712 1597.05 465.582 1596.95C466.42 1596.86 467.378 1596.65 468.225 1596.18C472.378 1593.83 476.964 1589.91 480.682 1586.73C480.912 1586.53 481.138 1586.34 481.36 1586.15C482.958 1584.78 484.355 1583.6 485.514 1582.72ZM451.814 1593.34C451.814 1593.34 451.815 1593.34 451.819 1593.35C451.816 1593.34 451.815 1593.34 451.814 1593.34ZM456.797 1630.95C456.798 1630.95 456.811 1630.95 456.834 1630.94C456.809 1630.95 456.797 1630.95 456.797 1630.95ZM458.649 1631.82C458.663 1631.86 458.668 1631.88 458.667 1631.88C458.666 1631.88 458.659 1631.87 458.649 1631.82ZM487.704 1581.29C487.761 1581.27 487.787 1581.26 487.785 1581.27C487.783 1581.27 487.755 1581.28 487.704 1581.29ZM485.776 1580.12C485.763 1580.07 485.759 1580.04 485.761 1580.04C485.762 1580.04 485.769 1580.06 485.776 1580.12ZM570.425 1621.24C570.403 1622.66 570.289 1624.41 570.142 1626.42C570.107 1626.89 570.07 1627.38 570.032 1627.88C569.679 1632.55 569.257 1638.13 569.696 1642.41C569.804 1643.47 570.275 1644.41 570.744 1645.14C571.234 1645.91 571.861 1646.67 572.524 1647.38C573.847 1648.81 575.523 1650.29 577.068 1651.62C577.436 1651.94 577.794 1652.25 578.14 1652.54C578.452 1652.81 578.754 1653.07 579.044 1653.32C578.972 1653.31 578.898 1653.3 578.824 1653.29C578.286 1653.23 577.718 1653.17 577.119 1653.1C575.191 1652.9 573.029 1652.71 571.071 1652.77C569.239 1652.83 567.019 1653.11 565.41 1654.3C561.313 1657.35 557.567 1662.88 554.725 1667.07L554.719 1667.08L554.602 1667.25C553.4 1669.03 552.367 1670.55 551.48 1671.7C551.387 1670.05 551.422 1667.91 551.493 1665.45C551.509 1664.88 551.527 1664.3 551.546 1663.71C551.7 1658.8 551.88 1653.05 551.141 1649.05C550.956 1648.05 550.419 1647.2 549.935 1646.58C549.423 1645.91 548.785 1645.26 548.124 1644.65C546.805 1643.44 545.154 1642.18 543.652 1641.05C543.468 1640.92 543.286 1640.78 543.108 1640.65C542.517 1640.2 541.958 1639.78 541.445 1639.39C542.101 1639.37 542.81 1639.36 543.562 1639.34C543.845 1639.34 544.134 1639.33 544.429 1639.33C546.358 1639.29 548.484 1639.23 550.342 1639.01C551.273 1638.9 552.202 1638.74 553.045 1638.5C553.856 1638.27 554.769 1637.92 555.528 1637.31C559.25 1634.33 563.144 1629.72 566.302 1625.98C566.496 1625.75 566.688 1625.52 566.877 1625.3C568.235 1623.7 569.424 1622.31 570.425 1621.24ZM538.875 1637.15C538.873 1637.15 538.876 1637.15 538.88 1637.16C538.877 1637.16 538.875 1637.15 538.875 1637.15ZM549.849 1673.47C549.849 1673.47 549.86 1673.47 549.883 1673.45C549.86 1673.47 549.849 1673.48 549.849 1673.47ZM551.816 1674.03C551.836 1674.07 551.844 1674.09 551.843 1674.09C551.842 1674.09 551.832 1674.08 551.816 1674.03ZM572.357 1619.49C572.409 1619.45 572.434 1619.45 572.432 1619.45C572.431 1619.45 572.405 1619.47 572.357 1619.49ZM570.265 1618.64C570.244 1618.59 570.235 1618.56 570.237 1618.56C570.238 1618.56 570.248 1618.58 570.265 1618.64Z"
          fill="white" stroke="#975933" stroke-width="5"/>
    <path fill-rule="evenodd" clip-rule="evenodd"
          d="M1272 1444.05C1153.93 1618.16 967.246 1731.04 756 1731.04C544.754 1731.04 358.074 1618.16 240 1444.05V1414.89C354.485 1596.5 542.929 1715.04 756 1715.04C969.071 1715.04 1157.51 1596.5 1272 1414.89V1444.05Z"
          fill="#974433"/>
    <line x1="254" y1="598" x2="254" y2="581" stroke="#974433" stroke-width="4"/>
    <line x1="1258" y1="597" x2="1258" y2="580" stroke="#974433" stroke-width="4"/>
    <line x1="248" y1="587" x2="248" y2="1443" stroke="#974433" stroke-width="16"/>
    <line x1="1264" y1="587" x2="1264" y2="1443" stroke="#974433" stroke-width="16"/>
    <mask id="path-57-inside-2_383_626" fill="white">
        <path fill-rule="evenodd" clip-rule="evenodd"
              d="M1272 605.874C1247.5 563.271 1201.26 524.241 1137.6 492.351C1040.46 443.69 905.555 413.304 756 413.304C606.445 413.304 471.542 443.69 374.398 492.351C310.736 524.241 264.5 563.271 240 605.874V587.166C305.617 492.375 472.395 421.265 675.628 406.246L836.372 406.246C1039.61 421.265 1206.38 492.375 1272 587.166V605.874Z"/>
    </mask>
    <path fill-rule="evenodd" clip-rule="evenodd"
          d="M1272 605.874C1247.5 563.271 1201.26 524.241 1137.6 492.351C1040.46 443.69 905.555 413.304 756 413.304C606.445 413.304 471.542 443.69 374.398 492.351C310.736 524.241 264.5 563.271 240 605.874V587.166C305.617 492.375 472.395 421.265 675.628 406.246L836.372 406.246C1039.61 421.265 1206.38 492.375 1272 587.166V605.874Z"
          fill="#BB8147"/>
    <path d="M1272 605.874L1271.13 606.373L1273 609.619V605.874H1272ZM1137.6 492.351L1138.05 491.457L1138.05 491.457L1137.6 492.351ZM374.398 492.351L373.951 491.457L373.951 491.457L374.398 492.351ZM240 605.874H239V609.619L240.867 606.373L240 605.874ZM240 587.166L239.178 586.597L239 586.853V587.166H240ZM675.628 406.246V405.246H675.591L675.554 405.249L675.628 406.246ZM836.372 406.246L836.446 405.249L836.409 405.246H836.372V406.246ZM1272 587.166H1273V586.853L1272.82 586.597L1272 587.166ZM1272.87 605.376C1248.23 562.542 1201.81 523.397 1138.05 491.457L1137.15 493.245C1200.72 525.085 1246.77 564.001 1271.13 606.373L1272.87 605.376ZM1138.05 491.457C1040.74 442.713 905.677 412.304 756 412.304V414.304C905.434 414.304 1040.18 444.668 1137.15 493.245L1138.05 491.457ZM756 412.304C606.323 412.304 471.261 442.713 373.951 491.457L374.846 493.245C471.824 444.668 606.566 414.304 756 414.304V412.304ZM373.951 491.457C310.187 523.397 263.766 562.542 239.133 605.376L240.867 606.373C265.234 564.001 311.284 525.085 374.846 493.245L373.951 491.457ZM241 605.874V587.166H239V605.874H241ZM675.554 405.249C573.847 412.765 481.236 434.318 405.822 465.869C330.423 497.414 272.135 538.987 239.178 586.597L240.822 587.735C273.482 540.554 331.391 499.177 406.594 467.714C481.781 436.258 574.175 414.746 675.701 407.243L675.554 405.249ZM675.628 407.246L836.372 407.246V405.246L675.628 405.246V407.246ZM1272.82 586.597C1239.87 538.987 1181.58 497.414 1106.18 465.869C1030.76 434.318 938.153 412.765 836.446 405.249L836.299 407.243C937.825 414.746 1030.22 436.258 1105.41 467.714C1180.61 499.177 1238.52 540.554 1271.18 587.735L1272.82 586.597ZM1271 587.166V605.874H1273V587.166H1271Z"
          fill="#BB8147" mask="url(#path-57-inside-2_383_626)"/>
    <path d="M321.084 552C321.084 540 320.677 521.422 323.753 513.966C326.829 506.51 322.579 486.164 290.129 460.172C250.102 428.112 250.898 367.56 305.515 378.724C307.325 374.27 314.039 367.067 332.826 367.493C343.334 367.732 394.5 382.5 426 364.051C443.5 353.802 458.176 331.807 459.319 323.285C460.462 314.763 483.336 310.5 485.472 314.763C489.742 323.285 497.641 332.34 518.563 325.949C516.962 298.785 556.457 249.348 650.927 267.36C725.114 281.505 756 257.772 756 237C756 257.772 786.956 281.505 861.144 267.36C955.613 249.348 995.109 298.785 993.508 325.949C1014.43 332.34 1022.33 323.285 1026.6 314.763C1028.73 310.5 1051.61 314.763 1052.75 323.285C1053.89 331.807 1068.57 353.802 1086.07 364.051C1117.57 382.5 1168.74 367.732 1179.24 367.493C1198.03 367.067 1204.75 374.27 1206.56 378.724C1261.17 367.56 1261.97 428.112 1221.94 460.172C1189.49 486.164 1185.24 506.51 1188.32 513.966C1191.39 521.422 1190.99 540 1190.99 552C861.144 314.763 412.752 462.4 321.084 552Z"
          fill="white"/>
    <path d="M308.083 501.576C305.652 499.324 301.856 499.468 299.604 501.899C297.352 504.33 297.497 508.126 299.928 510.378L308.083 501.576ZM290.129 460.172L286.378 464.855L290.129 460.172ZM352.04 429.138C348.727 429.138 346.04 431.824 346.04 435.138C346.04 438.451 348.727 441.138 352.04 441.138V429.138ZM332.826 367.493L332.69 373.492L332.826 367.493ZM445.976 403.18L440.522 405.68L440.522 405.68L445.976 403.18ZM391.955 455.282C391.02 452.103 387.685 450.284 384.506 451.219C381.327 452.154 379.508 455.49 380.443 458.669L391.955 455.282ZM419.767 456.857C420.585 453.646 418.644 450.38 415.432 449.563C412.221 448.746 408.955 450.686 408.138 453.898L419.767 456.857ZM369.395 422.321C368.199 425.411 369.736 428.886 372.826 430.081C375.917 431.277 379.391 429.74 380.587 426.649L369.395 422.321ZM325.202 336.498C322.792 334.224 318.994 334.334 316.72 336.744C314.446 339.155 314.557 342.952 316.967 345.226L325.202 336.498ZM459.319 323.285L465.266 324.083C465.605 321.555 464.309 319.089 462.034 317.935C459.76 316.781 457.004 317.191 455.164 318.957L459.319 323.285ZM404.599 314.941C407.639 313.622 409.034 310.089 407.715 307.049C406.396 304.009 402.862 302.614 399.822 303.933L404.599 314.941ZM490.836 312.076C489.352 309.113 485.747 307.915 482.784 309.399C479.821 310.884 478.623 314.489 480.107 317.451L490.836 312.076ZM518.563 325.949L520.316 331.687C522.965 330.878 524.715 328.36 524.552 325.596L518.563 325.949ZM650.926 267.36L652.05 261.466L650.926 267.36ZM762.07 238C762.07 234.686 759.384 232 756.07 232C752.757 232 750.07 234.686 750.07 238H762.07ZM1211.3 511.374C1213.73 509.12 1213.87 505.323 1211.62 502.895C1209.36 500.466 1205.57 500.325 1203.14 502.58L1211.3 511.374ZM1221.07 461.172L1224.82 465.851L1224.82 465.851L1221.07 461.172ZM1159.28 442.138C1162.6 442.138 1165.28 439.451 1165.28 436.138C1165.28 432.824 1162.6 430.138 1159.28 430.138V442.138ZM1178.46 368.493L1178.59 374.492L1178.46 368.493ZM1065.54 404.18L1070.99 406.676L1070.99 406.676L1065.54 404.18ZM1130.95 459.666C1131.88 456.486 1130.06 453.152 1126.88 452.218C1123.7 451.285 1120.37 453.106 1119.44 456.285L1130.95 459.666ZM1103.31 454.901C1102.5 451.689 1099.23 449.746 1096.02 450.562C1092.81 451.378 1090.86 454.643 1091.68 457.854L1103.31 454.901ZM1130.78 427.646C1131.97 430.737 1135.45 432.276 1138.54 431.083C1141.63 429.889 1143.17 426.416 1141.98 423.325L1130.78 427.646ZM1194.3 346.222C1196.71 343.945 1196.81 340.148 1194.54 337.74C1192.26 335.332 1188.46 335.226 1186.05 337.502L1194.3 346.222ZM1052.22 324.285L1056.38 319.961C1054.54 318.192 1051.79 317.78 1049.51 318.933C1047.23 320.086 1045.94 322.552 1046.27 325.081L1052.22 324.285ZM1111.61 304.935C1108.57 303.613 1105.03 305.006 1103.71 308.045C1102.39 311.084 1103.78 314.618 1106.82 315.939L1111.61 304.935ZM1031.49 318.447C1032.97 315.483 1031.77 311.879 1028.8 310.397C1025.84 308.915 1022.24 310.116 1020.75 313.08L1031.49 318.447ZM993.097 326.949L987.108 326.596C986.945 329.36 988.694 331.876 991.341 332.686L993.097 326.949ZM861.001 268.36L859.875 262.466L861.001 268.36ZM304.005 505.977C299.928 510.378 299.928 510.379 299.929 510.38C299.93 510.38 299.931 510.381 299.931 510.382C299.933 510.383 299.934 510.385 299.936 510.387C299.94 510.39 299.945 510.395 299.951 510.4C299.963 510.411 299.979 510.426 299.999 510.444C300.039 510.481 300.095 510.532 300.165 510.595C300.305 510.722 300.505 510.902 300.757 511.124C301.259 511.568 301.972 512.185 302.836 512.899C304.543 514.31 306.926 516.171 309.479 517.813C311.885 519.362 315.043 521.116 318.192 521.747C319.81 522.071 321.984 522.215 324.193 521.357C326.628 520.412 328.356 518.542 329.3 516.255L318.207 511.678C318.381 511.255 318.915 510.533 319.85 510.17C320.559 509.895 320.925 510.056 320.548 509.98C319.706 509.812 318.119 509.103 315.972 507.722C313.973 506.435 311.995 504.901 310.481 503.649C309.733 503.031 309.12 502.5 308.699 502.128C308.488 501.943 308.327 501.797 308.222 501.702C308.169 501.654 308.131 501.619 308.107 501.598C308.095 501.587 308.087 501.58 308.083 501.576C308.081 501.574 308.08 501.573 308.08 501.573C308.08 501.573 308.08 501.573 308.081 501.574C308.081 501.574 308.082 501.574 308.082 501.574C308.082 501.575 308.083 501.576 304.005 505.977ZM329.3 516.255C331.804 510.185 330.699 501.26 325.606 491.291C320.384 481.067 310.567 468.856 293.88 455.489L286.378 464.855C302.14 477.481 310.674 488.438 314.92 496.75C319.296 505.316 318.778 510.292 318.207 511.678L329.3 516.255ZM306.376 385.054C333.489 391.392 347.536 404.488 352.861 414.889C355.585 420.211 355.839 424.375 355.205 426.67C354.907 427.752 354.46 428.295 354.11 428.572C353.784 428.83 353.191 429.138 352.04 429.138V441.138C355.561 441.138 358.861 440.113 361.551 437.987C364.218 435.879 365.91 432.988 366.773 429.864C368.461 423.748 367.126 416.42 363.542 409.421C356.251 395.179 338.807 380.312 309.107 373.369L306.376 385.054ZM293.88 455.489C275.118 440.462 266.55 419.203 268.292 403.918C269.144 396.442 272.375 390.711 277.698 387.271C283.099 383.781 291.643 382.012 304.314 384.602L306.717 372.845C292.079 369.853 280.042 371.468 271.184 377.193C262.247 382.969 257.54 392.286 256.369 402.56C254.066 422.775 265.113 447.822 286.378 464.855L293.88 455.489ZM304.314 384.602C304.99 384.74 305.677 384.891 306.376 385.054L309.107 373.369C308.302 373.181 307.505 373.006 306.717 372.845L304.314 384.602ZM311.074 380.982C311.655 379.551 315.522 373.103 332.69 373.492L332.962 361.495C312.556 361.032 302.994 368.99 299.956 376.465L311.074 380.982ZM332.69 373.492C337.753 373.607 362.086 374.703 386.808 379.599C399.182 382.05 411.381 385.401 421.236 389.916C431.275 394.515 437.852 399.855 440.522 405.68L451.43 400.68C446.943 390.889 437.11 383.989 426.234 379.006C415.172 373.938 401.949 370.365 389.139 367.828C363.491 362.748 338.407 361.619 332.962 361.495L332.69 373.492ZM440.522 405.68C443.479 412.132 443.904 420.181 442.14 428.819C440.383 437.423 436.534 446.177 431.541 453.638L441.514 460.312C447.273 451.706 451.795 441.518 453.897 431.219C455.993 420.954 455.766 410.139 451.43 400.68L440.522 405.68ZM431.541 453.638C427.799 459.23 423.525 463.93 419.215 467.254L426.543 476.756C432.072 472.493 437.196 466.764 441.514 460.312L431.541 453.638ZM419.215 467.254C413.006 472.041 407.703 473.295 403.858 472.149C400.166 471.049 395.399 466.99 391.955 455.282L380.443 458.669C384.392 472.094 391.077 480.862 400.432 483.649C409.634 486.391 418.974 482.593 426.543 476.756L419.215 467.254ZM307.991 385.207C329.625 384.304 364.594 386.694 392.05 397.425C405.761 402.784 417.039 410.007 424.042 419.392C430.867 428.54 434.017 440.242 430.664 455.704L442.391 458.247C446.431 439.621 442.697 424.328 433.66 412.216C424.799 400.341 411.234 392.039 396.419 386.249C366.822 374.681 330.006 372.278 307.491 373.217L307.991 385.207ZM431.101 454.416C429.109 458.638 424.107 464.206 419.736 466.894L426.021 477.116C432.285 473.265 438.922 465.964 441.954 459.535L431.101 454.416ZM419.736 466.894C418.231 467.819 417.292 468.091 416.942 468.132C416.818 468.147 417.685 468.101 418.343 468.882C418.699 469.305 418.215 469.088 418.198 466.832C418.182 464.712 418.588 461.492 419.767 456.857L408.138 453.898C406.827 459.051 406.172 463.376 406.199 466.924C406.225 470.336 406.888 473.911 409.167 476.616C411.749 479.679 415.316 480.406 418.343 480.05C421.143 479.721 423.804 478.48 426.021 477.116L419.736 466.894ZM307.165 385.184C323.48 386.76 342.339 390.402 355.479 397.021C362.049 400.329 366.568 404.076 368.911 408.082C371.071 411.776 371.735 416.27 369.395 422.321L380.587 426.649C384.117 417.52 383.447 409.165 379.269 402.023C375.274 395.193 368.452 390.118 360.877 386.303C345.73 378.674 325.093 374.86 308.318 373.24L307.165 385.184ZM316.967 345.226C325.112 352.911 337.677 359.858 351.749 364.954C365.899 370.079 382.061 373.51 397.687 373.825C413.253 374.138 428.791 371.364 441.217 363.541C453.884 355.567 462.772 342.674 465.266 324.083L453.372 322.488C451.33 337.718 444.339 347.396 434.824 353.386C425.067 359.528 412.117 362.113 397.928 361.827C383.799 361.543 368.938 358.416 355.835 353.671C342.653 348.897 331.735 342.662 325.202 336.498L316.967 345.226ZM455.164 318.957C435.749 337.596 411.657 338.945 398.705 333.935C391.815 331.269 390.42 327.978 390.483 326.547C390.559 324.843 392.621 320.138 404.599 314.941L399.822 303.933C387.249 309.388 378.903 316.801 378.495 326.016C378.075 335.504 386.121 341.933 394.375 345.126C411.712 351.833 440.725 349.454 463.475 327.614L455.164 318.957ZM480.107 317.451C482.489 322.205 486.288 327.957 493.116 331.328C500.031 334.743 508.913 335.17 520.316 331.687L516.81 320.21C507.29 323.119 501.762 322.214 498.429 320.569C495.01 318.88 492.724 315.844 490.836 312.076L480.107 317.451ZM524.552 325.596C523.916 314.806 531.704 297.495 551.911 284.793C571.843 272.265 603.717 264.467 649.803 273.254L652.05 261.466C603.667 252.241 568.559 260.155 545.525 274.633C522.768 288.938 511.608 309.928 512.573 326.302L524.552 325.596ZM649.803 273.254C687.581 280.456 715.109 277.977 733.527 270.688C751.754 263.474 762.07 250.942 762.07 238H750.07C750.07 244.058 744.908 253.278 729.111 259.53C713.503 265.707 688.46 268.408 652.05 261.466L649.803 273.254ZM1207.22 506.977C1203.14 502.58 1203.14 502.579 1203.14 502.578C1203.14 502.578 1203.14 502.578 1203.14 502.578C1203.14 502.577 1203.14 502.577 1203.14 502.577C1203.14 502.577 1203.14 502.578 1203.14 502.58C1203.13 502.584 1203.13 502.591 1203.11 502.602C1203.09 502.623 1203.05 502.658 1203 502.706C1202.89 502.801 1202.73 502.947 1202.52 503.132C1202.1 503.504 1201.49 504.035 1200.75 504.653C1199.23 505.905 1197.26 507.439 1195.27 508.725C1193.12 510.106 1191.54 510.813 1190.71 510.981C1190.33 511.056 1190.7 510.895 1191.42 511.172C1192.35 511.537 1192.89 512.261 1193.06 512.682L1181.96 517.251C1182.91 519.536 1184.63 521.408 1187.07 522.356C1189.28 523.215 1191.45 523.071 1193.07 522.746C1196.21 522.115 1199.37 520.359 1201.77 518.81C1204.32 517.167 1206.7 515.306 1208.4 513.895C1209.26 513.181 1209.97 512.564 1210.47 512.12C1210.73 511.898 1210.93 511.718 1211.07 511.591C1211.14 511.527 1211.19 511.477 1211.23 511.44C1211.25 511.422 1211.27 511.407 1211.28 511.396C1211.28 511.391 1211.29 511.386 1211.29 511.382C1211.3 511.381 1211.3 511.379 1211.3 511.378C1211.3 511.377 1211.3 511.376 1211.3 511.376C1211.3 511.375 1211.3 511.374 1207.22 506.977ZM1193.06 512.682C1192.49 511.292 1191.97 506.312 1196.34 497.745C1200.58 489.433 1209.09 478.476 1224.82 465.851L1217.31 456.493C1200.66 469.86 1190.86 482.072 1185.65 492.295C1180.57 502.264 1179.47 511.185 1181.96 517.251L1193.06 512.682ZM1202.12 374.37C1172.48 381.314 1155.07 396.184 1147.79 410.425C1144.21 417.424 1142.88 424.749 1144.57 430.861C1145.43 433.983 1147.12 436.874 1149.78 438.983C1152.47 441.111 1155.76 442.138 1159.28 442.138V430.138C1158.14 430.138 1157.55 429.832 1157.23 429.576C1156.88 429.3 1156.43 428.757 1156.14 427.673C1155.5 425.374 1155.76 421.207 1158.48 415.885C1163.79 405.483 1177.81 392.39 1204.86 386.054L1202.12 374.37ZM1224.82 465.851C1246.05 448.816 1257.07 423.77 1254.77 403.561C1253.6 393.291 1248.91 383.974 1239.99 378.196C1231.14 372.468 1219.12 370.853 1204.51 373.846L1206.92 385.602C1219.56 383.013 1228.08 384.781 1233.46 388.268C1238.77 391.706 1242 397.437 1242.85 404.917C1244.59 420.208 1236.03 441.468 1217.31 456.493L1224.82 465.851ZM1204.51 373.846C1203.72 374.007 1202.93 374.182 1202.12 374.37L1204.86 386.054C1205.56 385.89 1206.24 385.74 1206.92 385.602L1204.51 373.846ZM1211.27 377.469C1208.24 369.995 1198.7 362.032 1178.32 362.495L1178.59 374.492C1195.72 374.103 1199.57 380.546 1200.15 381.978L1211.27 377.469ZM1178.32 362.495C1172.89 362.619 1147.85 363.748 1122.25 368.828C1109.47 371.365 1096.27 374.939 1085.23 380.008C1074.37 384.992 1064.56 391.893 1060.08 401.684L1070.99 406.676C1073.66 400.85 1080.22 395.512 1090.24 390.914C1100.07 386.4 1112.24 383.049 1124.59 380.599C1149.26 375.703 1173.54 374.607 1178.59 374.492L1178.32 362.495ZM1060.08 401.684C1055.75 411.141 1055.53 421.954 1057.62 432.217C1059.72 442.514 1064.23 452.702 1069.98 461.308L1079.96 454.643C1074.97 447.181 1071.13 438.427 1069.38 429.821C1067.62 421.181 1068.04 413.13 1070.99 406.676L1060.08 401.684ZM1069.98 461.308C1074.29 467.759 1079.4 473.488 1084.92 477.753L1092.26 468.257C1087.96 464.934 1083.69 460.235 1079.96 454.643L1069.98 461.308ZM1084.92 477.753C1092.47 483.589 1101.8 487.393 1111 484.649C1120.34 481.859 1127.01 473.087 1130.95 459.666L1119.44 456.285C1116 467.998 1111.24 472.052 1107.56 473.15C1103.74 474.292 1098.45 473.044 1092.26 468.257L1084.92 477.753ZM1203.74 374.217C1181.27 373.278 1144.53 375.681 1114.99 387.25C1100.2 393.042 1086.66 401.345 1077.82 413.221C1068.8 425.332 1065.07 440.622 1069.1 459.245L1080.83 456.706C1077.48 441.241 1080.63 429.536 1087.44 420.387C1094.43 411.003 1105.68 403.781 1119.36 398.424C1146.76 387.694 1181.65 385.304 1203.24 386.207L1203.74 374.217ZM1069.54 460.531C1072.56 466.958 1079.19 474.261 1085.44 478.113L1091.73 467.897C1087.37 465.211 1082.38 459.644 1080.4 455.42L1069.54 460.531ZM1085.44 478.113C1087.65 479.477 1090.31 480.72 1093.11 481.05C1096.14 481.407 1099.71 480.677 1102.28 477.611C1104.56 474.907 1105.22 471.334 1105.25 467.924C1105.27 464.377 1104.62 460.053 1103.31 454.901L1091.68 457.854C1092.86 462.49 1093.26 465.71 1093.25 467.832C1093.23 470.09 1092.75 470.309 1093.1 469.887C1093.76 469.103 1094.63 469.146 1094.52 469.132C1094.17 469.092 1093.24 468.822 1091.73 467.897L1085.44 478.113ZM1202.91 374.24C1186.17 375.86 1165.57 379.675 1150.45 387.306C1142.89 391.122 1136.08 396.198 1132.1 403.028C1127.93 410.168 1127.26 418.519 1130.78 427.646L1141.98 423.325C1139.64 417.271 1140.3 412.773 1142.46 409.077C1144.8 405.072 1149.31 401.326 1155.86 398.018C1168.97 391.402 1187.79 387.76 1204.07 386.184L1202.91 374.24ZM1186.05 337.502C1179.54 343.665 1168.64 349.899 1155.49 354.672C1142.41 359.417 1127.58 362.543 1113.49 362.827C1099.33 363.113 1086.41 360.529 1076.68 354.389C1067.19 348.401 1060.21 338.724 1058.17 323.489L1046.27 325.081C1048.76 343.668 1057.63 356.561 1070.28 364.538C1082.68 372.363 1098.19 375.139 1113.73 374.825C1129.33 374.51 1145.46 371.078 1159.58 365.953C1173.63 360.856 1186.17 353.908 1194.3 346.222L1186.05 337.502ZM1048.06 328.609C1070.77 350.453 1099.73 352.835 1117.04 346.125C1125.29 342.928 1133.31 336.497 1132.89 327.016C1132.49 317.807 1124.16 310.393 1111.61 304.935L1106.82 315.939C1118.77 321.134 1120.83 325.837 1120.91 327.546C1120.97 328.985 1119.57 332.274 1112.7 334.936C1099.79 339.943 1075.75 338.598 1056.38 319.961L1048.06 328.609ZM1020.75 313.08C1018.87 316.85 1016.59 319.884 1013.18 321.571C1009.86 323.213 1004.35 324.118 994.853 321.211L991.341 332.686C1002.72 336.17 1011.6 335.744 1018.5 332.326C1025.32 328.953 1029.11 323.199 1031.49 318.447L1020.75 313.08ZM999.087 327.301C1000.05 310.933 988.916 289.944 966.2 275.636C943.209 261.155 908.166 253.24 859.875 262.466L862.127 274.253C908.115 265.467 939.918 273.265 959.805 285.79C979.967 298.489 987.743 315.8 987.108 326.596L999.087 327.301ZM859.875 262.466C823.574 269.402 798.611 266.459 783.054 260.06C767.302 253.581 762.07 244.124 762.07 238H750.07C750.07 250.876 760.286 263.671 778.489 271.158C796.888 278.726 824.391 281.463 862.127 274.253L859.875 262.466Z"
          fill="#BB8147"/>
    <path fill-rule="evenodd" clip-rule="evenodd"
          d="M1272 676.586C1198.8 538.982 995.205 440 755.5 440C516.878 440 314.041 538.09 240 674.724V705.243H240.967C264.558 647.968 311.868 595.983 377.322 554.079C473.464 492.528 607.132 454 755.5 454C903.868 454 1037.54 492.528 1133.68 554.079C1199.13 595.983 1246.44 647.968 1270.03 705.243H1272V676.586Z"
          fill="#974433"/>
    <path fill-rule="evenodd" clip-rule="evenodd"
          d="M1272 630.184C1197.91 502.696 994.871 411.167 756 411.167C517.129 411.167 314.086 502.696 240 630.184V661.24C263.159 607.389 310.642 558.264 377.093 518.612C473.383 461.157 607.314 425.167 756 425.167C904.686 425.167 1038.62 461.157 1134.91 518.612C1201.36 558.264 1248.84 607.389 1272 661.24V630.184Z"
          fill="#974433"/>
    <circle cx="206.5" cy="206.5" r="153.5" fill="#DABC96" stroke="#975933" stroke-width="12"/>
    <path d="M328.5 206.5C328.5 275.05 273.812 330.5 206.5 330.5C139.188 330.5 84.5 275.05 84.5 206.5C84.5 137.95 139.188 82.5 206.5 82.5C273.812 82.5 328.5 137.95 328.5 206.5Z"
          stroke="#BB8147" stroke-width="9"/>
    <circle cx="1305.5" cy="1895.5" r="153.5" transform="rotate(-180 1305.5 1895.5)" fill="#DABC96" stroke="#975933"
            stroke-width="12"/>
    <path d="M1183.5 1895.5C1183.5 1826.95 1238.19 1771.5 1305.5 1771.5C1372.81 1771.5 1427.5 1826.95 1427.5 1895.5C1427.5 1964.05 1372.81 2019.5 1305.5 2019.5C1238.19 2019.5 1183.5 1964.05 1183.5 1895.5Z"
          stroke="#BB8147" stroke-width="9"/>
</svg>
