<svg width="1122" height="1814" viewBox="0 0 1122 1814" fill="none" xmlns="http://www.w3.org/2000/svg">
    <g id="OuterContent">
        <g id="Group 34">
            <g id="Sword1">
                <path id="Vector 2"
                      d="M265.887 1616.13L152.162 1530.74L141.803 1545.53L288.463 1648.23L265.887 1616.13Z"
                      fill="#BB8147"/>
                <path id="Vector 3"
                      d="M250.987 1637.08L283.216 1645.78L142.048 1546.92L132.856 1560.05L250.987 1637.08Z"
                      fill="#D9D9D9" stroke="#BB8147" stroke-width="2"/>
                <path id="Vector 1"
                      d="M165.993 1508.23L145.348 1508.34C145.024 1508.34 144.721 1508.5 144.535 1508.77L112.699 1554.24C112.513 1554.51 112.467 1554.84 112.577 1555.15L119.532 1574.59C119.806 1575.35 120.828 1575.49 121.293 1574.83L127.841 1565.47L160.27 1519.16L166.817 1509.8C167.283 1509.14 166.804 1508.23 165.993 1508.23Z"
                      fill="#BB8147"/>
                <path id="Ellipse 18"
                      d="M97.3898 1509.64C93.5459 1515.13 85.9794 1516.46 80.4895 1512.62C74.9996 1508.77 73.6653 1501.2 77.5092 1495.71C81.3531 1490.22 88.9196 1488.89 94.4095 1492.73C99.8994 1496.58 101.234 1504.15 97.3898 1509.64Z"
                      fill="#D9D9D9" stroke="#BB8147" stroke-width="4"/>
                <rect id="Rectangle 7" x="0.368383" y="2.08921" width="29.9823" height="15.8471"
                      transform="matrix(0.819121 0.573621 -0.573532 0.819183 101.838 1500.53)" fill="#D9D9D9"
                      stroke="#BB8147" stroke-width="3"/>
                <rect id="Rectangle 3" x="0.122794" y="0.696402" width="3.71182" height="11.5649"
                      transform="matrix(0.819121 0.573621 -0.573532 0.819183 106.912 1508.4)" fill="#BB8147"
                      stroke="#BB8147"/>
                <rect id="Rectangle 4" x="0.122794" y="0.696402" width="3.71182" height="11.5649"
                      transform="matrix(0.819121 0.573621 -0.573532 0.819183 114.631 1513.8)" fill="#BB8147"
                      stroke="#BB8147"/>
                <rect id="Rectangle 5" x="0.122794" y="0.696402" width="3.71182" height="11.5649"
                      transform="matrix(0.819121 0.573621 -0.573532 0.819183 99.1933 1502.99)" fill="#BB8147"
                      stroke="#BB8147"/>
                <rect id="Rectangle 6" width="12.5649" height="37.6947"
                      transform="matrix(0.819121 0.573621 -0.573532 0.819183 129.135 1508.86)" fill="#BB8147"/>
                <path id="Ellipse 19"
                      d="M141.131 1540.27C137.287 1545.76 129.72 1547.09 124.23 1543.25C118.74 1539.4 117.406 1531.84 121.25 1526.34C125.094 1520.85 132.66 1519.52 138.15 1523.36C143.64 1527.21 144.974 1534.78 141.131 1540.27Z"
                      fill="#D9D9D9" stroke="#BB8147" stroke-width="4"/>
            </g>
            <g id="Sword2">
                <path id="Vector"
                      d="M871.013 1638.65L838.784 1647.35L979.952 1548.49L989.144 1561.62L871.013 1638.65ZM978.804 1546.86L837.636 1645.71L856.84 1618.4L969.612 1533.73L978.804 1546.86Z"
                      fill="#D9D9D9" stroke="#BB8147" stroke-width="2"/>
                <path id="Vector 1_2"
                      d="M956.007 1509.8L976.651 1509.91C976.976 1509.91 977.279 1510.07 977.465 1510.34L1009.3 1555.81C1009.49 1556.08 1009.53 1556.42 1009.42 1556.72L1002.47 1576.16C1002.19 1576.92 1001.17 1577.06 1000.71 1576.4L994.159 1567.04L961.73 1520.73L955.183 1511.37C954.717 1510.71 955.196 1509.8 956.007 1509.8Z"
                      fill="#BB8147"/>
                <path id="Ellipse 18_2"
                      d="M1024.61 1511.21C1028.45 1516.7 1036.02 1518.03 1041.51 1514.19C1047 1510.34 1048.33 1502.78 1044.49 1497.28C1040.65 1491.79 1033.08 1490.46 1027.59 1494.3C1022.1 1498.15 1020.77 1505.72 1024.61 1511.21Z"
                      fill="#D9D9D9" stroke="#BB8147" stroke-width="4"/>
                <rect id="Rectangle 7_2" width="32.9823" height="18.8471"
                      transform="matrix(-0.819121 0.573621 0.573532 0.819183 1021.43 1501.93)" fill="#BB8147"/>
                <rect id="Rectangle 6_2" width="12.5649" height="37.6947"
                      transform="matrix(-0.819121 0.573621 0.573532 0.819183 992.865 1510.43)" fill="#BB8147"/>
                <path id="Ellipse 19_2"
                      d="M980.869 1541.84C984.713 1547.33 992.28 1548.66 997.77 1544.82C1003.26 1540.97 1004.59 1533.41 1000.75 1527.92C996.906 1522.43 989.34 1521.09 983.85 1524.94C978.36 1528.78 977.026 1536.35 980.869 1541.84Z"
                      fill="#D9D9D9" stroke="#BB8147" stroke-width="4"/>
            </g>
            <g id="Group 21">
                <g id="Group 19">
                    <path id="Vector_2"
                          d="M553.388 248.218L557.018 252.05L560.648 248.218C564.758 243.88 569.197 239.677 573.942 235.184C577.352 231.956 580.92 228.578 584.636 224.893C593.294 216.309 602.168 206.593 609.713 194.868C624.93 171.215 634.384 139.928 627.133 94.0001L626.765 91.6677L624.729 90.4704C611.53 82.7052 599.944 74.9757 589.162 66.5029L587.802 65.4343H586.073H557.018H528.749H527.02L525.66 66.5029C514.877 74.9757 503.291 82.7052 490.092 90.4704L488.057 91.6677L487.689 94.0001C480.441 139.907 489.686 171.186 504.7 194.841C512.144 206.57 520.92 216.289 529.508 224.878C533.324 228.694 536.972 232.168 540.457 235.487C545.047 239.858 549.354 243.96 553.388 248.218Z"
                          fill="#BB8147" stroke="#974533" stroke-width="10"/>
                    <path id="Vector_3"
                          d="M555.566 246.155L557.018 247.688L558.47 246.155C562.607 241.788 567.171 237.465 571.985 232.905C575.393 229.677 578.927 226.329 582.524 222.763C591.111 214.249 599.814 204.708 607.19 193.244C621.993 170.236 631.31 139.698 624.17 94.468L624.022 93.535L623.208 93.0561C609.919 85.238 598.217 77.4341 587.308 68.8618L586.764 68.4343H586.073H557.018H528.749H528.057L527.513 68.8618C516.604 77.4341 504.903 85.238 491.614 93.0561L490.8 93.535L490.652 94.468C483.513 139.69 492.629 170.225 507.233 193.234C514.51 204.699 523.115 214.241 531.629 222.757C535.317 226.444 538.935 229.892 542.424 233.216C547.087 237.659 551.517 241.88 555.566 246.155Z"
                          fill="#BB8147" stroke="#D9D9D9" stroke-width="4"/>
                    <path id="Vector_4"
                          d="M509.803 140.33C533.046 127.764 551.421 90.0678 557.703 72.7903C563.985 90.0678 582.36 127.764 605.604 140.33C589.637 157.869 557.703 202.057 557.703 235.356C557.703 202.057 525.77 157.869 509.803 140.33Z"
                          fill="#D9D9D9"/>
                </g>
                <g id="Sword1_2">
                    <g id="Group 20">
                        <path id="Vector 2_2"
                              d="M637.308 100.173L675.629 90.5014L493.42 195.712L485.787 182.489L637.308 100.173Z"
                              fill="#BB8147" stroke="#974533" stroke-width="2"/>
                        <path id="Vector 3_2"
                              d="M649.094 120.589L676.63 92.234L494.421 197.444L502.054 210.668L649.094 120.589Z"
                              fill="#974533" stroke="#974533" stroke-width="2"/>
                    </g>
                    <path id="Vector 1_3"
                          d="M470.442 161.062L462.228 178.931C462.092 179.226 462.108 179.568 462.27 179.849L488.822 225.843C488.984 226.124 489.273 226.309 489.596 226.339L509.176 228.159C509.984 228.234 510.54 227.366 510.134 226.663L504.71 217.266L477.641 170.376L472.217 160.98C471.811 160.277 470.781 160.324 470.442 161.062Z"
                          fill="#974533"/>
                    <path id="Ellipse 18_3"
                          d="M443.86 221.142C447.045 226.659 445.155 233.715 439.638 236.9C434.121 240.086 427.066 238.196 423.881 232.678C420.696 227.161 422.586 220.106 428.103 216.92C433.62 213.734 440.675 215.624 443.86 221.142Z"
                          fill="#D9D9D9" stroke="#974533" stroke-width="4"/>
                    <rect id="Rectangle 7_3" x="2.04893" y="0.549009" width="28.5823" height="15.0472"
                          transform="matrix(0.865999 -0.500046 0.499954 0.866052 437.173 215.681)" fill="#D9D9D9"
                          stroke="#974533" stroke-width="3"/>
                    <rect id="Rectangle 3_2" x="0.682977" y="0.183003" width="3.51185" height="11.0317"
                          transform="matrix(0.865999 -0.500045 0.499955 0.866051 446.491 213.042)" fill="#974533"
                          stroke="#974533"/>
                    <rect id="Rectangle 4_2" x="0.682977" y="0.183003" width="3.51185" height="11.0317"
                          transform="matrix(0.865999 -0.500045 0.499955 0.866051 454.306 208.53)" fill="#974533"
                          stroke="#974533"/>
                    <rect id="Rectangle 5_2" x="0.682976" y="0.183003" width="3.51184" height="11.0316"
                          transform="matrix(0.865999 -0.500046 0.499954 0.866052 438.677 217.554)" fill="#974533"
                          stroke="#974533"/>
                    <rect id="Rectangle 6_3" width="12.0316" height="36.095"
                          transform="matrix(0.865999 -0.500046 0.499954 0.866052 456.104 193.232)" fill="#974533"/>
                    <path id="Ellipse 19_3"
                          d="M488.141 195.574C491.326 201.091 489.436 208.146 483.918 211.332C478.401 214.518 471.347 212.628 468.162 207.11C464.977 201.593 466.867 194.537 472.384 191.351C477.901 188.166 484.956 190.056 488.141 195.574Z"
                          fill="#D9D9D9" stroke="#974533" stroke-width="4"/>
                </g>
                <g id="Sword2_2">
                    <path id="Vector_5"
                          d="M472.099 125.136L444.724 97.561L625.149 197.584L617.71 211.005L472.099 125.136ZM626.119 195.835L445.693 95.8117L483.582 104.418L633.557 182.414L626.119 195.835Z"
                          fill="#D9D9D9" stroke="#BB8147" stroke-width="2"/>
                    <path id="Vector 1_4"
                          d="M648.583 160.619L657.15 178.43C657.291 178.723 657.281 179.065 657.124 179.349L631.262 226.01C631.105 226.294 630.82 226.483 630.497 226.519L610.854 228.691C610.048 228.78 609.476 227.922 609.87 227.212L615.157 217.673L641.52 170.107L646.807 160.568C647.201 159.858 648.231 159.888 648.583 160.619Z"
                          fill="#BB8147"/>
                    <path id="Ellipse 18_4"
                          d="M676.327 220.494C673.223 226.095 675.247 233.153 680.848 236.258C686.448 239.363 693.505 237.339 696.61 231.738C699.714 226.137 697.691 219.079 692.09 215.974C686.489 212.869 679.432 214.892 676.327 220.494Z"
                          fill="#D9D9D9" stroke="#BB8147" stroke-width="4"/>
                    <rect id="Rectangle 7_4" width="31.7224" height="18.1273"
                          transform="matrix(-0.874594 -0.484856 -0.484763 0.874645 682.936 213.794)" fill="#BB8147"/>
                    <rect id="Rectangle 6_4" width="12.085" height="36.2552"
                          transform="matrix(-0.874594 -0.484855 -0.484764 0.874645 663.549 192.683)" fill="#BB8147"/>
                    <path id="Ellipse 19_4"
                          d="M631.409 195.592C628.304 201.194 630.328 208.251 635.929 211.356C641.53 214.461 648.587 212.438 651.691 206.837C654.796 201.235 652.772 194.178 647.171 191.072C641.57 187.967 634.513 189.991 631.409 195.592Z"
                          fill="#D9D9D9" stroke="#BB8147" stroke-width="4"/>
                </g>
            </g>
            <g id="Group 24">
                <g id="Group 23">
                    <path id="Vector_6"
                          d="M284.786 210.442C277.65 204.8 268.501 191.772 266.396 192.815C264.291 193.857 268.313 209.27 267.745 218.882C267.509 222.859 257.152 231.469 258.027 233.234C258.901 235 271.681 230.766 274.596 232.718C281.676 237.46 292.281 251.444 294.808 250.192C297.336 248.94 290.761 233.51 291.637 224.278C292.087 219.542 303.647 212.764 302.782 211.067C301.917 209.371 287.93 212.927 284.786 210.442Z"
                          fill="#BB8147"/>
                    <path id="Vector_7"
                          d="M323.698 194.503C335.477 182.723 374.74 163.089 396.727 163.089V178.796C375.525 178.796 344.9 198.429 333.906 207.854L323.698 194.503Z"
                          fill="#BB8147"/>
                </g>
                <path id="Vector_8"
                      d="M348.364 1667.85C346.882 1660.09 348.479 1646.5 346.407 1645.9C344.335 1645.3 337.783 1657.35 331.589 1663.03C329.026 1665.38 316.73 1664.63 316.263 1666.26C315.796 1667.88 327.11 1672.81 327.928 1675.76C329.917 1682.93 328.739 1697.99 331.227 1698.7C333.715 1699.42 338.528 1685.85 344.703 1680.59C347.871 1677.89 359.887 1680.5 360.318 1678.92C360.75 1677.35 349.017 1671.28 348.364 1667.85Z"
                      fill="#BB8147"/>
                <path id="Vector_9"
                      d="M753.262 1667.94C754.744 1660.17 753.146 1646.58 755.219 1645.98C757.291 1645.39 763.842 1657.43 770.037 1663.11C772.599 1665.46 784.896 1664.71 785.363 1666.34C785.83 1667.96 774.516 1672.89 773.697 1675.84C771.709 1683.02 772.887 1698.07 770.399 1698.78C767.911 1699.5 763.098 1685.93 756.922 1680.67C753.754 1677.97 741.739 1680.58 741.308 1679.01C740.876 1677.43 752.609 1671.36 753.262 1667.94Z"
                      fill="#BB8147"/>
                <g id="Group 22">
                    <path id="Vector_10"
                          d="M829.836 210.442C836.972 204.8 846.121 191.772 848.226 192.815C850.331 193.857 846.309 209.27 846.877 218.882C847.113 222.859 857.47 231.469 856.595 233.234C855.721 235 842.941 230.766 840.026 232.718C832.946 237.46 822.341 251.444 819.814 250.192C817.286 248.94 823.861 233.51 822.985 224.278C822.535 219.542 810.975 212.764 811.84 211.067C812.705 209.371 826.692 212.927 829.836 210.442Z"
                          fill="#BB8147"/>
                    <path id="Vector_11"
                          d="M790.924 194.503C779.145 182.723 739.883 163.089 717.895 163.089V178.796C739.097 178.796 769.722 198.429 780.716 207.854L790.924 194.503Z"
                          fill="#BB8147"/>
                </g>
            </g>
        </g>
    </g>
</svg>
