<svg width="1122" height="386" viewBox="0 0 1122 386" fill="none" xmlns="http://www.w3.org/2000/svg">
    <path d="M897.566 228.666C874.554 288.03 809.955 228.423 862.017 197.203C833.232 172.509 848.708 153.455 859.032 147.114C869.488 140.994 893.585 136.317 901.81 173.34C953.872 142.12 976.026 227.18 912.821 219.519L927.147 243.409L911.893 252.556L897.566 228.666Z"
          fill="white"/>
    <path d="M862.017 197.203L866.903 205.35L878.204 198.573L868.202 189.992L862.017 197.203ZM897.566 228.666L905.714 223.781L895.727 207.127L888.709 225.233L897.566 228.666ZM911.893 252.556L903.745 257.442L908.631 265.589L916.778 260.704L911.893 252.556ZM859.032 147.114L854.233 138.915C854.175 138.949 854.117 138.983 854.059 139.019L859.032 147.114ZM901.81 173.34L892.536 175.4L895.394 188.264L906.696 181.487L901.81 173.34ZM912.821 219.519L913.964 210.088L894.687 207.751L904.673 224.404L912.821 219.519ZM927.147 243.409L932.033 251.556L940.18 246.67L935.294 238.523L927.147 243.409ZM857.131 189.055C842.159 198.034 834.188 210.003 832.919 222.692C831.678 235.1 837.048 246.476 845.247 253.932C853.449 261.39 865.294 265.616 877.441 262.361C889.737 259.066 899.958 248.78 906.424 232.1L888.709 225.233C883.669 238.234 877.186 242.759 872.523 244.008C867.713 245.297 862.347 243.8 858.03 239.875C853.711 235.947 851.255 230.278 851.825 224.584C852.366 219.171 855.844 211.982 866.903 205.35L857.131 189.055ZM889.419 233.552L903.745 257.442L920.04 247.671L905.714 223.781L889.419 233.552ZM854.059 139.019C847.564 143.009 838.723 151.338 836.51 163.588C834.145 176.679 839.893 190.74 855.831 204.413L868.202 189.992C855.357 178.972 854.45 171.16 855.207 166.965C856.117 161.929 860.176 157.56 864.004 155.208L854.059 139.019ZM906.696 181.487C917.755 174.855 925.735 175.174 930.764 177.246C936.056 179.425 939.9 184.262 941.33 189.922C942.76 195.579 941.553 201.018 938.15 204.654C934.852 208.178 927.807 211.766 913.964 210.088L911.678 228.95C929.437 231.102 943.325 226.93 952.023 217.636C960.616 208.454 962.467 196.015 959.751 185.267C957.036 174.522 949.53 164.427 938.001 159.678C926.209 154.821 911.897 156.214 896.925 165.192L906.696 181.487ZM904.673 224.404L919 248.294L935.294 238.523L920.968 214.633L904.673 224.404ZM863.83 155.313C867.708 153.043 873.473 151.521 878.344 153.09C882.401 154.398 888.866 158.878 892.536 175.4L911.084 171.28C906.53 150.78 896.834 139.086 884.172 135.006C872.324 131.188 860.812 135.064 854.233 138.915L863.83 155.313ZM916.778 260.704L932.033 251.556L922.261 235.261L907.007 244.409L916.778 260.704Z"
          fill="#974533"/>
    <path d="M897.566 228.666C874.554 288.03 809.955 228.423 862.017 197.203C833.232 172.509 848.708 153.455 859.032 147.114C869.488 140.994 893.585 136.317 901.81 173.34C953.872 142.12 976.026 227.18 912.821 219.519L927.147 243.409L911.893 252.556L897.566 228.666Z"
          fill="#974533"/>
    <path d="M862.017 197.203L863.045 198.918L865.425 197.491L863.319 195.685L862.017 197.203ZM897.566 228.666L899.282 227.638L897.179 224.132L895.702 227.943L897.566 228.666ZM911.893 252.556L910.177 253.585L911.206 255.3L912.921 254.272L911.893 252.556ZM859.032 147.114L858.021 145.388C858.009 145.395 857.997 145.402 857.985 145.409L859.032 147.114ZM901.81 173.34L899.858 173.774L900.46 176.482L902.839 175.055L901.81 173.34ZM912.821 219.519L913.062 217.533L909.003 217.041L911.106 220.547L912.821 219.519ZM927.147 243.409L928.176 245.124L929.891 244.095L928.862 242.38L927.147 243.409ZM860.988 195.488C847.561 203.54 841.364 213.622 840.382 223.439C839.406 233.197 843.626 242.32 850.293 248.383C856.962 254.447 866.249 257.595 875.5 255.116C884.782 252.629 893.528 244.617 899.431 229.389L895.702 227.943C890.099 242.397 882.14 249.196 874.465 251.253C866.758 253.318 858.835 250.744 852.984 245.424C847.134 240.103 843.527 232.181 844.362 223.837C845.191 215.552 850.442 206.476 863.045 198.918L860.988 195.488ZM895.851 229.695L910.177 253.585L913.608 251.528L899.282 227.638L895.851 229.695ZM857.985 145.409C852.542 148.753 845.589 155.519 843.891 164.921C842.16 174.5 845.997 186.095 860.715 198.721L863.319 195.685C849.252 183.617 846.435 173.338 847.827 165.632C849.251 157.748 855.197 151.816 860.078 148.818L857.985 145.409ZM902.839 175.055C915.442 167.497 925.922 167.14 933.621 170.311C941.375 173.505 946.664 180.417 948.602 188.085C950.539 195.751 949.077 203.953 943.626 209.778C938.197 215.58 928.45 219.399 913.062 217.533L912.58 221.504C928.794 223.469 939.98 219.528 946.547 212.512C953.091 205.519 954.688 195.843 952.48 187.105C950.272 178.367 944.211 170.347 935.144 166.612C926.022 162.855 914.209 163.573 900.782 171.625L902.839 175.055ZM911.106 220.547L925.432 244.437L928.862 242.38L914.536 218.49L911.106 220.547ZM860.042 148.84C864.986 145.946 873.019 143.495 880.644 145.952C888.098 148.354 895.838 155.681 899.858 173.774L903.763 172.906C899.557 153.976 891.137 145.13 881.871 142.145C872.777 139.214 863.534 142.161 858.021 145.388L860.042 148.84ZM912.921 254.272L928.176 245.124L926.118 241.693L910.864 250.841L912.921 254.272Z"
          fill="white"/>
    <path d="M1019.72 79.4057L1023.45 84.1061L1029.97 78.9325L1023 74.3817L1019.72 79.4057ZM1055.19 103.35L1059.89 99.6207L1052.27 90.0159L1049.36 101.926L1055.19 103.35ZM1070.79 123.019L1066.09 126.748L1069.82 131.448L1074.52 127.719L1070.79 123.019ZM1011.19 34.9873L1007.51 30.2474C1007.47 30.2736 1007.44 30.3 1007.41 30.3269L1011.19 34.9873ZM1052.5 53.4008L1046.86 55.4523L1049.71 63.2749L1056.23 58.1012L1052.5 53.4008ZM1067.75 93.3811L1067.69 87.3814L1055.43 87.5053L1063.05 97.1102L1067.75 93.3811ZM1083.36 113.05L1087.08 117.751L1091.78 114.021L1088.06 109.321L1083.36 113.05ZM1015.99 74.7053C1004.14 84.1058 998.937 95.0207 999.258 105.525C999.574 115.851 1005.22 124.677 1012.84 129.974C1020.46 135.273 1030.63 137.406 1040.16 133.462C1049.78 129.481 1057.31 119.924 1061.01 104.773L1049.36 101.926C1046.25 114.657 1040.58 120.301 1035.57 122.374C1030.48 124.484 1024.59 123.525 1019.69 120.12C1014.79 116.714 1011.44 111.224 1011.25 105.158C1011.07 99.2708 1013.86 91.7168 1023.45 84.1061L1015.99 74.7053ZM1050.48 107.079L1066.09 126.748L1075.49 119.29L1059.89 99.6207L1050.48 107.079ZM1007.41 30.3269C1002.4 34.3895 996.041 42.2581 995.545 52.4783C995.023 63.2392 1001.05 74.3817 1016.44 84.4297L1023 74.3817C1009.77 65.7415 1007.29 58.1155 1007.53 53.0595C1007.8 47.4628 1011.49 42.4663 1014.97 39.6477L1007.41 30.3269ZM1056.23 58.1012C1065.82 50.4905 1073.81 49.497 1079.5 51.0113C1085.37 52.5715 1089.95 57.0813 1092.15 62.6288C1094.36 68.1743 1093.95 74.1252 1090.74 78.6097C1087.58 83.0159 1080.79 87.249 1067.69 87.3814L1067.81 99.3808C1083.41 99.2232 1094.43 94.061 1100.49 85.6005C1106.5 77.2183 1106.73 66.8312 1103.31 58.2014C1099.88 49.5735 1092.57 42.0706 1082.59 39.4146C1072.43 36.7129 1060.62 39.2999 1048.77 48.7004L1056.23 58.1012ZM1063.05 97.1102L1078.65 116.779L1088.06 109.321L1072.45 89.652L1063.05 97.1102ZM1014.87 39.7272C1018.4 36.9833 1024.11 34.529 1029.62 35.5376C1034.6 36.4488 1041.46 40.6004 1046.86 55.4523L1058.14 51.3493C1051.85 34.0775 1042.37 25.673 1031.78 23.7336C1021.71 21.8917 1012.6 26.2925 1007.51 30.2474L1014.87 39.7272ZM1074.52 127.719L1087.08 117.751L1079.63 108.35L1067.06 118.318L1074.52 127.719Z"
          fill="#974533"/>
    <circle cx="978" cy="142.195" r="10" fill="#974533"/>
    <circle cx="791" cy="239.195" r="10" fill="#974533"/>
    <path d="M223.148 228.666C246.16 288.03 310.759 228.423 258.697 197.203C287.482 172.509 272.007 153.455 261.683 147.114C251.226 140.994 227.129 136.317 218.904 173.34C166.842 142.12 144.688 227.18 207.894 219.519L193.567 243.409L208.822 252.556L223.148 228.666Z"
          fill="white"/>
    <path d="M258.697 197.203L253.812 205.35L242.51 198.573L252.512 189.992L258.697 197.203ZM223.148 228.666L215.001 223.781L224.987 207.127L232.006 225.233L223.148 228.666ZM208.822 252.556L216.969 257.442L212.083 265.589L203.936 260.704L208.822 252.556ZM261.683 147.114L266.481 138.915C266.54 138.949 266.598 138.983 266.655 139.019L261.683 147.114ZM218.904 173.34L228.178 175.4L225.32 188.264L214.018 181.487L218.904 173.34ZM207.894 219.519L206.75 210.088L226.027 207.751L216.041 224.404L207.894 219.519ZM193.567 243.409L188.682 251.556L180.534 246.67L185.42 238.523L193.567 243.409ZM263.583 189.055C278.555 198.034 286.526 210.003 287.795 222.692C289.037 235.1 283.666 246.476 275.467 253.932C267.265 261.39 255.42 265.616 243.273 262.361C230.978 259.066 220.756 248.78 214.29 232.1L232.006 225.233C237.046 238.234 243.529 242.759 248.191 244.008C253.001 245.297 258.367 243.8 262.684 239.875C267.003 235.947 269.459 230.278 268.89 224.584C268.348 219.171 264.871 211.982 253.812 205.35L263.583 189.055ZM231.295 233.552L216.969 257.442L200.674 247.671L215.001 223.781L231.295 233.552ZM266.655 139.019C273.151 143.009 281.992 151.338 284.204 163.588C286.569 176.679 280.822 190.74 264.883 204.413L252.512 189.992C265.358 178.972 266.265 171.16 265.507 166.965C264.597 161.929 260.539 157.56 256.71 155.208L266.655 139.019ZM214.018 181.487C202.96 174.855 194.98 175.174 189.95 177.246C184.659 179.425 180.814 184.262 179.384 189.922C177.955 195.579 179.162 201.018 182.565 204.654C185.863 208.178 192.907 211.766 206.75 210.088L209.037 228.95C191.277 231.102 177.389 226.93 168.692 217.636C160.099 208.454 158.247 196.015 160.963 185.267C163.678 174.522 171.184 164.427 182.714 159.678C194.505 154.821 208.818 156.214 223.79 165.192L214.018 181.487ZM216.041 224.404L201.715 248.294L185.42 238.523L199.746 214.633L216.041 224.404ZM256.884 155.313C253.007 153.043 247.241 151.521 242.37 153.09C238.313 154.398 231.849 158.878 228.178 175.4L209.63 171.28C214.184 150.78 223.881 139.086 236.543 135.006C248.391 131.188 259.902 135.064 266.481 138.915L256.884 155.313ZM203.936 260.704L188.682 251.556L198.453 235.261L213.708 244.409L203.936 260.704Z"
          fill="#974533"/>
    <path d="M223.148 228.666C246.16 288.03 310.759 228.423 258.697 197.203C287.482 172.509 272.007 153.455 261.683 147.114C251.226 140.994 227.129 136.317 218.904 173.34C166.842 142.12 144.688 227.18 207.894 219.519L193.567 243.409L208.822 252.556L223.148 228.666Z"
          fill="#974533"/>
    <path d="M258.697 197.203L257.669 198.918L255.29 197.491L257.395 195.685L258.697 197.203ZM223.148 228.666L221.433 227.638L223.535 224.132L225.013 227.943L223.148 228.666ZM208.822 252.556L210.537 253.585L209.508 255.3L207.793 254.272L208.822 252.556ZM261.683 147.114L262.693 145.388C262.705 145.395 262.717 145.402 262.73 145.409L261.683 147.114ZM218.904 173.34L220.856 173.774L220.255 176.482L217.876 175.055L218.904 173.34ZM207.894 219.519L207.653 217.533L211.711 217.041L209.609 220.547L207.894 219.519ZM193.567 243.409L192.539 245.124L190.824 244.095L191.852 242.38L193.567 243.409ZM259.726 195.488C273.153 203.54 279.351 213.622 280.333 223.439C281.309 233.197 277.089 242.32 270.421 248.383C263.753 254.447 254.465 257.595 245.214 255.116C235.932 252.629 227.186 244.617 221.283 229.389L225.013 227.943C230.616 242.397 238.574 249.196 246.25 251.253C253.956 253.318 261.88 250.744 267.73 245.424C273.581 240.103 277.187 232.181 276.353 223.837C275.524 215.552 270.272 206.476 257.669 198.918L259.726 195.488ZM224.863 229.695L210.537 253.585L207.107 251.528L221.433 227.638L224.863 229.695ZM262.73 145.409C268.172 148.753 275.125 155.519 276.824 164.921C278.554 174.5 274.717 186.095 260 198.721L257.395 195.685C271.462 183.617 274.28 173.338 272.888 165.632C271.463 157.748 265.517 151.816 260.636 148.818L262.73 145.409ZM217.876 175.055C205.272 167.497 194.792 167.14 187.094 170.311C179.34 173.505 174.05 180.417 172.113 188.085C170.175 195.751 171.637 203.953 177.088 209.778C182.518 215.58 192.264 219.399 207.653 217.533L208.134 221.504C191.921 223.469 180.734 219.528 174.168 212.512C167.624 205.519 166.026 195.843 168.235 187.105C170.443 178.367 176.503 170.347 185.57 166.612C194.692 162.855 206.505 163.573 219.933 171.625L217.876 175.055ZM209.609 220.547L195.283 244.437L191.852 242.38L206.178 218.49L209.609 220.547ZM260.673 148.84C255.729 145.946 247.695 143.495 240.07 145.952C232.616 148.354 224.876 155.681 220.856 173.774L216.952 172.906C221.157 153.976 229.578 145.13 238.843 142.145C247.937 139.214 257.18 142.161 262.693 145.388L260.673 148.84ZM207.793 254.272L192.539 245.124L194.596 241.693L209.85 250.841L207.793 254.272Z"
          fill="white"/>
    <path d="M101.329 79.5031L97.5997 84.2035L91.0785 79.0299L98.0487 74.4791L101.329 79.5031ZM65.8649 103.447L61.1645 99.7182L68.7846 90.1133L71.6936 102.024L65.8649 103.447ZM50.2604 123.116L54.9609 126.845L51.2318 131.546L46.5314 127.817L50.2604 123.116ZM109.863 35.0847L113.542 30.3449C113.576 30.371 113.609 30.3975 113.642 30.4243L109.863 35.0847ZM68.5504 53.4982L74.1887 55.5498L71.3425 63.3723L64.8213 58.1986L68.5504 53.4982ZM53.2996 93.4785L53.3602 87.4789L65.6201 87.6027L58 97.2076L53.2996 93.4785ZM37.6952 113.148L33.9661 117.848L29.2657 114.119L32.9947 109.418L37.6952 113.148ZM105.058 74.8027C116.907 84.2032 122.113 95.1181 121.792 105.622C121.476 115.949 115.833 124.774 108.21 130.072C100.585 135.37 90.4169 137.503 80.8879 133.559C71.2699 129.578 63.7368 120.022 60.0362 104.871L71.6936 102.024C74.8029 114.754 80.4682 120.398 85.4772 122.471C90.5752 124.581 96.4623 123.622 101.362 120.218C106.263 116.811 109.612 111.322 109.797 105.256C109.977 99.3682 107.193 91.8142 97.5997 84.2035L105.058 74.8027ZM70.5653 107.176L54.9609 126.845L45.56 119.387L61.1645 99.7182L70.5653 107.176ZM113.642 30.4243C118.653 34.4869 125.01 42.3555 125.505 52.5757C126.027 63.3366 119.999 74.4792 104.609 84.5271L98.0487 74.4791C111.282 65.8389 113.764 58.2129 113.519 53.1569C113.248 47.5602 109.56 42.5637 106.084 39.7452L113.642 30.4243ZM64.8213 58.1986C55.2282 50.5879 47.2388 49.5944 41.5464 51.1087C35.6817 52.6689 31.0976 57.1787 28.8955 62.7262C26.6942 68.2717 27.0992 74.2227 30.3135 78.7071C33.4716 83.1133 40.2563 87.3464 53.3602 87.4789L53.239 99.4782C37.6434 99.3206 26.6242 94.1584 20.5601 85.6979C14.552 77.3157 14.3164 66.9287 17.7421 58.2988C21.167 49.6709 28.4775 42.168 38.4614 39.5121C48.6174 36.8103 60.4304 39.3973 72.2795 48.7978L64.8213 58.1986ZM58 97.2076L42.3956 116.877L32.9947 109.418L48.5992 89.7495L58 97.2076ZM106.185 39.8246C102.649 37.0807 96.9451 34.6264 91.4334 35.635C86.4542 36.5462 79.5926 40.6979 74.1887 55.5498L62.912 51.4467C69.1963 34.1749 78.6758 25.7704 89.2733 23.831C99.3383 21.9891 108.447 26.3899 113.542 30.3449L106.185 39.8246ZM46.5314 127.817L33.9661 117.848L41.4242 108.447L53.9895 118.416L46.5314 127.817Z"
          fill="#974533"/>
    <circle cx="10" cy="10" r="10" transform="matrix(-1 0 0 1 153.05 132.292)" fill="#974533"/>
    <circle cx="10" cy="10" r="10" transform="matrix(-1 0 0 1 340.05 229.292)" fill="#974533"/>
    <path d="M613.809 119.229C628.085 135.487 634.403 161.364 622.792 200.52C655.615 201.996 677.996 214.238 690.926 231.55C704.64 249.912 707.148 273.236 701.063 293.365C694.976 313.496 680.118 330.951 658.544 337.096C638.846 342.706 614.577 338.61 587.699 320.267V375.097V380.097H582.699H541.274H536.274V375.097V320.267C509.396 338.61 485.127 342.706 465.429 337.096C443.855 330.951 428.996 313.496 422.91 293.365C416.825 273.236 419.333 249.912 433.047 231.55C445.977 214.238 468.358 201.996 501.181 200.52C489.57 161.364 495.888 135.487 510.164 119.229C524.906 102.439 547.006 97.2562 561.933 97.0977L561.986 97.0971L562.039 97.0977C576.966 97.2562 599.067 102.439 613.809 119.229Z"
          fill="#B75838" stroke="#974533" stroke-width="10"/>
    <path d="M606.209 215.995H600.737L602.397 210.782C613.599 175.606 608.108 155.038 598.248 143.25C588.215 131.257 572.754 127.229 561.899 127.098C551.044 127.229 535.583 131.257 525.55 143.25C515.689 155.038 510.199 175.606 521.4 210.782L523.061 215.995H517.589C489.634 215.995 472.186 226.1 462.704 239.426C453.132 252.879 451.243 270.209 455.615 285.389C459.99 300.577 470.451 313.069 484.984 317.414C499.427 321.731 519.033 318.331 542.389 299.336L548.913 294.031V302.44V354.097H574.885V302.44V294.031L581.408 299.336C604.764 318.331 624.371 321.731 638.814 317.414C653.347 313.069 663.808 300.577 668.182 285.389C672.554 270.209 670.666 252.879 661.094 239.426C651.612 226.1 634.164 215.995 606.209 215.995Z"
          stroke="white" stroke-width="8"/>
</svg>
