<svg width="1122" height="386" viewBox="0 0 1122 386" fill="none" xmlns="http://www.w3.org/2000/svg">
    <mask id="path-1-outside-1_465_1003" maskUnits="userSpaceOnUse" x="414.188" y="91.2922" width="295" height="294"
          fill="black">
        <rect fill="white" x="414.188" y="91.2922" width="295" height="294"/>
        <path d="M582.699 310.634C699.766 401.335 757.399 205.565 616.018 205.565C643.934 122.049 590.202 102.592 561.986 102.292C533.77 102.592 480.039 122.049 507.955 205.565C366.574 205.565 424.207 401.335 541.274 310.634V375.292H582.699V310.634Z"/>
    </mask>
    <path d="M582.699 310.634C699.766 401.335 757.399 205.565 616.018 205.565C643.934 122.049 590.202 102.592 561.986 102.292C533.77 102.592 480.039 122.049 507.955 205.565C366.574 205.565 424.207 401.335 541.274 310.634V375.292H582.699V310.634Z"
          fill="#B75838"/>
    <path d="M616.018 205.565V215.565C612.802 215.565 609.783 214.019 607.904 211.409C606.024 208.799 605.515 205.445 606.534 202.395L616.018 205.565ZM582.699 310.634H572.699C572.699 306.819 574.871 303.335 578.297 301.655C581.723 299.976 585.807 300.392 588.824 302.729L582.699 310.634ZM582.699 375.292H592.699C592.699 380.815 588.222 385.292 582.699 385.292V375.292ZM561.986 102.292L561.88 92.2928L561.986 92.2917L562.092 92.2928L561.986 102.292ZM507.955 205.565L517.439 202.395C518.458 205.445 517.949 208.799 516.069 211.409C514.19 214.019 511.17 215.565 507.955 215.565V205.565ZM541.274 310.634L535.149 302.729C538.166 300.392 542.249 299.976 545.676 301.655C549.102 303.335 551.274 306.819 551.274 310.634H541.274ZM541.274 375.292V385.292C535.751 385.292 531.274 380.815 531.274 375.292H541.274ZM616.018 195.565C653.753 195.565 679.979 208.733 694.932 228.753C709.71 248.54 712.335 273.551 705.849 295.007C699.361 316.466 683.405 335.409 659.914 342.099C636.272 348.833 607.482 342.486 576.574 318.539L588.824 302.729C616.449 324.133 638.763 327.328 654.435 322.864C670.257 318.358 681.823 305.364 686.704 289.219C691.587 273.069 689.428 254.807 678.908 240.721C668.562 226.869 648.975 215.565 616.018 215.565V195.565ZM592.699 310.634V375.292H572.699V310.634H592.699ZM562.092 92.2928C577.838 92.46 601.552 97.8867 617.566 116.124C634.183 135.049 640.144 164.934 625.503 208.735L606.534 202.395C619.809 162.68 612.862 141.079 602.537 129.321C591.61 116.876 574.35 112.424 561.88 112.292L562.092 92.2928ZM507.955 215.565C474.998 215.565 455.411 226.869 445.065 240.721C434.545 254.807 432.386 273.069 437.268 289.219C442.15 305.364 453.716 318.358 469.538 322.864C485.209 327.328 507.524 324.133 535.149 302.729L547.398 318.539C516.491 342.486 487.701 348.833 464.059 342.099C440.568 335.409 424.612 316.466 418.124 295.007C411.638 273.551 414.263 248.54 429.041 228.753C443.994 208.733 470.22 195.565 507.955 195.565V215.565ZM551.274 310.634V375.292H531.274V310.634H551.274ZM562.092 112.292C549.622 112.424 532.362 116.876 521.435 129.32C511.111 141.079 504.164 162.68 517.439 202.395L498.47 208.735C483.829 164.934 489.79 135.049 506.406 116.124C522.42 97.8867 546.134 92.46 561.88 92.2928L562.092 112.292ZM582.699 385.292H541.274V365.292H582.699V385.292Z"
          fill="#974533" mask="url(#path-1-outside-1_465_1003)"/>
    <mask id="path-3-inside-2_465_1003" fill="white">
        <path d="M578.885 302.634C674.888 380.71 722.151 212.19 606.209 212.19C629.102 140.299 585.038 123.55 561.899 123.292C538.76 123.55 494.696 140.299 517.589 212.19C401.647 212.19 448.91 380.71 544.913 302.634V358.292H578.885V302.634Z"/>
    </mask>
    <path d="M606.209 212.19V220.19C603.656 220.19 601.257 218.972 599.751 216.912C598.244 214.851 597.811 212.195 598.586 209.763L606.209 212.19ZM578.885 302.634H570.885C570.885 299.548 572.661 296.736 575.448 295.41C578.236 294.084 581.537 294.48 583.932 296.428L578.885 302.634ZM578.885 358.292H586.885C586.885 362.711 583.303 366.292 578.885 366.292V358.292ZM561.899 123.292L561.81 115.293L561.899 115.292L561.988 115.293L561.899 123.292ZM517.589 212.19L525.212 209.763C525.986 212.195 525.554 214.851 524.047 216.912C522.541 218.972 520.142 220.19 517.589 220.19V212.19ZM544.913 302.634L539.866 296.428C542.26 294.48 545.562 294.084 548.35 295.41C551.137 296.736 552.913 299.548 552.913 302.634H544.913ZM544.913 358.292V366.292C540.495 366.292 536.913 362.711 536.913 358.292H544.913ZM606.209 204.19C637.255 204.19 658.715 215.579 670.871 232.664C682.847 249.494 684.955 270.708 679.714 288.905C674.477 307.085 661.545 323.337 642.251 329.106C622.777 334.928 599.127 329.409 573.837 308.841L583.932 296.428C606.643 314.898 624.903 317.592 637.668 313.776C650.614 309.906 660.251 298.667 664.339 284.477C668.421 270.303 666.606 254.267 657.835 241.94C649.244 229.867 633.134 220.19 606.209 220.19V204.19ZM586.885 302.634V358.292H570.885V302.634H586.885ZM561.988 115.293C574.982 115.438 594.405 120.148 607.452 135.746C620.871 151.787 625.768 177.132 613.832 214.618L598.586 209.763C609.542 175.357 603.854 156.382 595.18 146.012C586.133 135.197 571.954 131.405 561.81 131.292L561.988 115.293ZM517.589 220.19C490.664 220.19 474.554 229.867 465.963 241.94C457.192 254.267 455.377 270.303 459.459 284.477C463.546 298.667 473.184 309.906 486.13 313.776C498.895 317.592 517.155 314.898 539.866 296.428L549.961 308.841C524.67 329.409 501.021 334.928 481.547 329.106C462.253 323.337 449.321 307.085 444.084 288.905C438.843 270.708 440.951 249.494 452.927 232.664C465.083 215.579 486.543 204.19 517.589 204.19V220.19ZM552.913 302.634V358.292H536.913V302.634H552.913ZM561.988 131.292C551.843 131.405 537.664 135.197 528.618 146.012C519.944 156.382 514.256 175.357 525.212 209.763L509.966 214.618C498.029 177.133 502.927 151.787 516.346 135.746C529.393 120.148 548.815 115.438 561.81 115.293L561.988 131.292ZM578.885 366.292H544.913V350.292H578.885V366.292Z"
          fill="white" mask="url(#path-3-inside-2_465_1003)"/>
</svg>
