<svg width="1122" height="386" viewBox="0 0 1122 386" fill="none" xmlns="http://www.w3.org/2000/svg">
    <path d="M897.566 228.764C874.554 288.127 809.955 228.52 862.017 197.3C833.232 172.607 848.708 153.553 859.032 147.211C869.488 141.091 893.585 136.415 901.81 173.437C953.872 142.217 976.026 227.277 912.821 219.616L927.147 243.506L911.893 252.654L897.566 228.764Z"
          fill="white"/>
    <path d="M862.017 197.3L866.903 205.448L878.204 198.67L868.202 190.09L862.017 197.3ZM897.566 228.764L905.714 223.878L895.727 207.225L888.709 225.33L897.566 228.764ZM911.893 252.654L903.745 257.539L908.631 265.687L916.778 260.801L911.893 252.654ZM859.032 147.211L854.233 139.012C854.175 139.046 854.117 139.081 854.059 139.116L859.032 147.211ZM901.81 173.437L892.536 175.498L895.394 188.362L906.696 181.585L901.81 173.437ZM912.821 219.616L913.964 210.185L894.687 207.849L904.673 224.502L912.821 219.616ZM927.147 243.506L932.033 251.653L940.18 246.768L935.294 238.62L927.147 243.506ZM857.131 189.153C842.159 198.131 834.188 210.1 832.919 222.79C831.678 235.197 837.048 246.573 845.247 254.029C853.449 261.488 865.294 265.713 877.441 262.458C889.737 259.163 899.958 248.878 906.424 232.197L888.709 225.33C883.669 238.332 877.186 242.856 872.523 244.106C867.713 245.395 862.347 243.898 858.03 239.972C853.711 236.045 851.255 230.375 851.825 224.681C852.366 219.269 855.844 212.079 866.903 205.448L857.131 189.153ZM889.419 233.65L903.745 257.539L920.04 247.768L905.714 223.878L889.419 233.65ZM854.059 139.116C847.564 143.106 838.723 151.435 836.51 163.685C834.145 176.776 839.893 190.837 855.831 204.511L868.202 190.09C855.357 179.07 854.45 171.257 855.207 167.062C856.117 162.026 860.176 157.657 864.004 155.306L854.059 139.116ZM906.696 181.585C917.755 174.953 925.735 175.271 930.764 177.343C936.056 179.523 939.9 184.359 941.33 190.02C942.76 195.677 941.553 201.115 938.15 204.751C934.852 208.275 927.807 211.863 913.964 210.185L911.678 229.047C929.437 231.2 943.325 227.028 952.023 217.734C960.616 208.551 962.467 196.112 959.751 185.365C957.036 174.62 949.53 164.524 938.001 159.775C926.209 154.918 911.897 156.311 896.925 165.29L906.696 181.585ZM904.673 224.502L919 248.392L935.294 238.62L920.968 214.73L904.673 224.502ZM863.83 155.41C867.708 153.141 873.473 151.618 878.344 153.188C882.401 154.495 888.866 158.975 892.536 175.498L911.084 171.377C906.53 150.877 896.834 139.184 884.172 135.104C872.324 131.286 860.812 135.162 854.233 139.012L863.83 155.41ZM916.778 260.801L932.033 251.653L922.261 235.359L907.007 244.506L916.778 260.801Z"
          fill="#974533"/>
    <path d="M897.566 228.764C874.554 288.127 809.955 228.52 862.017 197.3C833.232 172.607 848.708 153.553 859.032 147.211C869.488 141.091 893.585 136.415 901.81 173.437C953.872 142.217 976.026 227.277 912.821 219.616L927.147 243.506L911.893 252.654L897.566 228.764Z"
          fill="#974533"/>
    <path d="M862.017 197.3L863.045 199.015L865.425 197.589L863.319 195.782L862.017 197.3ZM897.566 228.764L899.282 227.735L897.179 224.229L895.702 228.041L897.566 228.764ZM911.893 252.654L910.177 253.682L911.206 255.398L912.921 254.369L911.893 252.654ZM859.032 147.211L858.021 145.485C858.009 145.492 857.997 145.499 857.985 145.507L859.032 147.211ZM901.81 173.437L899.858 173.871L900.46 176.579L902.839 175.152L901.81 173.437ZM912.821 219.616L913.062 217.631L909.003 217.139L911.106 220.645L912.821 219.616ZM927.147 243.506L928.176 245.221L929.891 244.193L928.862 242.477L927.147 243.506ZM860.988 195.585C847.561 203.637 841.364 213.719 840.382 223.536C839.406 233.294 843.626 242.417 850.293 248.481C856.962 254.544 866.249 257.693 875.5 255.214C884.782 252.726 893.528 244.715 899.431 229.487L895.702 228.041C890.099 242.495 882.14 249.293 874.465 251.35C866.758 253.415 858.835 250.841 852.984 245.521C847.134 240.201 843.527 232.279 844.362 223.935C845.191 215.65 850.442 206.574 863.045 199.015L860.988 195.585ZM895.851 229.792L910.177 253.682L913.608 251.625L899.282 227.735L895.851 229.792ZM857.985 145.507C852.542 148.85 845.589 155.616 843.891 165.018C842.16 174.598 845.997 186.192 860.715 198.818L863.319 195.782C849.252 183.715 846.435 173.436 847.827 165.729C849.251 157.846 855.197 151.914 860.078 148.915L857.985 145.507ZM902.839 175.152C915.442 167.594 925.922 167.237 933.621 170.408C941.375 173.602 946.664 180.515 948.602 188.182C950.539 195.849 949.077 204.05 943.626 209.876C938.197 215.678 928.45 219.496 913.062 217.631L912.58 221.602C928.794 223.567 939.98 219.626 946.547 212.609C953.091 205.616 954.688 195.94 952.48 187.202C950.272 178.464 944.211 170.445 935.144 166.71C926.022 162.952 914.209 163.67 900.782 171.722L902.839 175.152ZM911.106 220.645L925.432 244.535L928.862 242.477L914.536 218.588L911.106 220.645ZM860.042 148.937C864.986 146.044 873.019 143.592 880.644 146.049C888.098 148.451 895.838 155.778 899.858 173.871L903.763 173.003C899.557 154.074 891.137 145.228 881.871 142.242C872.777 139.312 863.534 142.259 858.021 145.485L860.042 148.937ZM912.921 254.369L928.176 245.221L926.118 241.791L910.864 250.938L912.921 254.369Z"
          fill="white"/>
    <path d="M1053.93 101.499C1041.38 152.967 981.626 110.788 1021.2 79.392C994.773 62.1378 1005.48 44.7416 1013.31 38.3916C1021.27 32.2099 1040.64 25.7418 1051.44 55.3945C1091.01 23.9983 1118.5 91.7737 1065.53 92.2996L1079.93 110.457L1068.34 119.656L1053.93 101.499Z"
          fill="white"/>
    <path d="M1021.2 79.392L1027.1 86.834L1037.42 78.6431L1026.39 71.4378L1021.2 79.392ZM1053.93 101.499L1061.37 95.594L1049.3 80.3824L1044.7 99.2474L1053.93 101.499ZM1068.34 119.656L1060.9 125.561L1066.8 133.003L1074.24 127.098L1068.34 119.656ZM1013.31 38.3916L1007.48 30.8871C1007.43 30.9285 1007.38 30.9704 1007.32 31.0129L1013.31 38.3916ZM1051.44 55.3945L1042.51 58.6445L1047.02 71.0274L1057.34 62.8365L1051.44 55.3945ZM1065.53 92.2996L1065.43 82.8L1046.01 82.9928L1058.08 98.2044L1065.53 92.2996ZM1079.93 110.457L1085.84 117.899L1093.28 111.994L1087.37 104.552L1079.93 110.457ZM1015.29 71.95C1003.61 81.2171 998.01 92.4021 998.356 103.622C998.693 114.559 1004.66 123.806 1012.59 129.32C1020.53 134.836 1031.33 137.196 1041.59 132.951C1051.99 128.647 1059.55 118.534 1063.16 103.75L1044.7 99.2474C1042.03 110.198 1037.42 114.113 1034.32 115.395C1031.08 116.735 1027.06 116.238 1023.44 113.719C1019.81 111.197 1017.48 107.229 1017.35 103.036C1017.23 99.1259 1018.99 93.2649 1027.1 86.834L1015.29 71.95ZM1046.49 107.404L1060.9 125.561L1075.78 113.751L1061.37 95.594L1046.49 107.404ZM1007.32 31.0129C1002.19 35.1737 995.445 43.3851 994.917 54.3454C994.348 66.1601 1001.08 77.6052 1016 87.3462L1026.39 71.4378C1014.88 63.9246 1013.76 58.0445 1013.9 55.2601C1014.07 51.6212 1016.59 47.9595 1019.29 45.7703L1007.32 31.0129ZM1057.34 62.8365C1065.45 56.4055 1071.56 56.0155 1075.34 57.0219C1079.39 58.1012 1082.73 61.2775 1084.36 65.3829C1085.99 69.4854 1085.56 73.5132 1083.52 76.3632C1081.56 79.0887 1076.7 82.6881 1065.43 82.8L1065.62 101.799C1080.84 101.648 1092.41 96.5784 1098.96 87.4292C1105.43 78.4045 1105.58 67.3521 1102.02 58.3695C1098.45 49.3899 1090.8 41.4763 1080.23 38.6614C1069.38 35.7737 1057.21 38.6853 1045.54 47.9525L1057.34 62.8365ZM1058.08 98.2044L1072.49 116.362L1087.37 104.552L1072.97 86.3948L1058.08 98.2044ZM1019.13 45.8961C1021.88 43.7649 1026.02 42.1432 1029.6 42.7996C1032.34 43.3019 1037.81 45.7325 1042.51 58.6445L1060.37 52.1444C1054.27 35.4037 1044.66 26.242 1033.02 24.1106C1022.23 22.1334 1012.7 26.8366 1007.48 30.8871L1019.13 45.8961ZM1074.24 127.098L1085.84 117.899L1074.03 103.015L1062.43 112.214L1074.24 127.098Z"
          fill="#974533"/>
    <path d="M1053.93 101.499C1041.38 152.967 981.626 110.788 1021.2 79.392C994.773 62.1378 1005.48 44.7416 1013.31 38.3916C1021.27 32.2099 1040.64 25.7418 1051.44 55.3945C1091.01 23.9983 1118.5 91.7737 1065.53 92.2996L1079.93 110.457L1068.34 119.656L1053.93 101.499Z"
          fill="#974533"/>
    <path d="M1021.2 79.392L1022.44 80.9587L1024.61 79.2343L1022.29 77.7174L1021.2 79.392ZM1053.93 101.499L1055.5 100.256L1052.96 97.0532L1051.99 101.025L1053.93 101.499ZM1068.34 119.656L1066.77 120.899L1068.02 122.466L1069.58 121.223L1068.34 119.656ZM1013.31 38.3916L1012.08 36.8117C1012.07 36.8204 1012.06 36.8293 1012.05 36.8382L1013.31 38.3916ZM1051.44 55.3945L1049.56 56.0787L1050.51 58.6856L1052.68 56.9612L1051.44 55.3945ZM1065.53 92.2996L1065.51 90.2997L1061.42 90.3402L1063.96 93.5427L1065.53 92.2996ZM1079.93 110.457L1081.18 112.024L1082.74 110.781L1081.5 109.214L1079.93 110.457ZM1019.95 77.8253C1009.68 85.9729 1005.6 95.0562 1005.85 103.391C1006.11 111.666 1010.64 118.829 1016.88 123.162C1023.11 127.495 1031.23 129.119 1038.72 126.021C1046.24 122.91 1052.64 115.243 1055.87 101.973L1051.99 101.025C1048.95 113.488 1043.17 119.85 1037.19 122.325C1031.18 124.812 1024.48 123.579 1019.16 119.877C1013.83 116.174 1010.06 110.123 1009.85 103.267C1009.64 96.4717 1012.92 88.5092 1022.44 80.9587L1019.95 77.8253ZM1052.37 102.742L1066.77 120.899L1069.91 118.413L1055.5 100.256L1052.37 102.742ZM1012.05 36.8382C1007.88 40.2207 1002.8 46.6362 1002.41 54.7065C1002.01 62.9566 1006.53 72.205 1020.1 81.0666L1022.29 77.7174C1009.44 69.3248 1006.1 61.248 1006.4 54.899C1006.72 48.3701 1010.91 42.9125 1014.57 39.945L1012.05 36.8382ZM1052.68 56.9612C1062.2 49.4107 1070.7 48.0253 1077.27 49.7744C1083.9 51.5387 1088.93 56.585 1091.33 62.6145C1093.72 68.6433 1093.4 75.444 1089.61 80.7314C1085.84 85.9925 1078.33 90.1723 1065.51 90.2997L1065.55 94.2995C1079.2 94.1639 1088.13 89.6745 1092.86 83.061C1097.58 76.4737 1097.85 68.1942 1095.05 61.138C1092.24 54.0824 1086.3 48.0388 1078.3 45.909C1070.24 43.7639 1060.47 45.6801 1050.2 53.8277L1052.68 56.9612ZM1063.96 93.5427L1078.37 111.7L1081.5 109.214L1067.09 91.0564L1063.96 93.5427ZM1014.53 39.9715C1018.25 37.0827 1024.52 34.2446 1030.95 35.4224C1037.2 36.5678 1044.31 41.6554 1049.56 56.0787L1053.32 54.7102C1047.77 39.4809 1039.8 32.9762 1031.67 31.4879C1023.72 30.032 1016.32 33.5188 1012.08 36.8117L1014.53 39.9715ZM1069.58 121.223L1081.18 112.024L1078.69 108.89L1067.1 118.089L1069.58 121.223Z"
          fill="white"/>
    <circle cx="978" cy="142.292" r="10" fill="#974533"/>
    <circle cx="791" cy="239.292" r="10" fill="#974533"/>
    <path d="M223.148 228.764C246.16 288.127 310.759 228.52 258.697 197.3C287.482 172.607 272.007 153.553 261.683 147.211C251.226 141.091 227.129 136.415 218.904 173.437C166.842 142.217 144.688 227.277 207.894 219.616L193.567 243.506L208.822 252.654L223.148 228.764Z"
          fill="white"/>
    <path d="M258.697 197.3L253.812 205.448L242.51 198.67L252.512 190.09L258.697 197.3ZM223.148 228.764L215.001 223.878L224.987 207.225L232.006 225.33L223.148 228.764ZM208.822 252.654L216.969 257.539L212.083 265.687L203.936 260.801L208.822 252.654ZM261.683 147.211L266.481 139.012C266.54 139.046 266.598 139.081 266.655 139.116L261.683 147.211ZM218.904 173.437L228.178 175.498L225.32 188.362L214.018 181.585L218.904 173.437ZM207.894 219.616L206.75 210.185L226.027 207.849L216.041 224.502L207.894 219.616ZM193.567 243.506L188.682 251.653L180.534 246.768L185.42 238.62L193.567 243.506ZM263.583 189.153C278.555 198.131 286.526 210.1 287.795 222.79C289.037 235.197 283.666 246.573 275.467 254.029C267.265 261.488 255.42 265.713 243.273 262.458C230.978 259.163 220.756 248.878 214.29 232.197L232.006 225.33C237.046 238.332 243.529 242.856 248.191 244.106C253.001 245.395 258.367 243.898 262.684 239.972C267.003 236.045 269.459 230.375 268.89 224.681C268.348 219.269 264.871 212.079 253.812 205.448L263.583 189.153ZM231.295 233.65L216.969 257.539L200.674 247.768L215.001 223.878L231.295 233.65ZM266.655 139.116C273.151 143.106 281.992 151.435 284.204 163.685C286.569 176.776 280.822 190.837 264.883 204.511L252.512 190.09C265.358 179.07 266.265 171.257 265.507 167.062C264.597 162.026 260.539 157.657 256.71 155.306L266.655 139.116ZM214.018 181.585C202.96 174.953 194.98 175.271 189.95 177.343C184.659 179.523 180.814 184.359 179.384 190.02C177.955 195.677 179.162 201.115 182.565 204.751C185.863 208.275 192.907 211.863 206.75 210.185L209.037 229.047C191.277 231.2 177.389 227.028 168.692 217.734C160.099 208.551 158.247 196.112 160.963 185.365C163.678 174.62 171.184 164.524 182.714 159.775C194.505 154.918 208.818 156.311 223.79 165.29L214.018 181.585ZM216.041 224.502L201.715 248.392L185.42 238.62L199.746 214.73L216.041 224.502ZM256.884 155.41C253.007 153.141 247.241 151.618 242.37 153.188C238.313 154.495 231.849 158.975 228.178 175.498L209.63 171.377C214.184 150.877 223.881 139.184 236.543 135.104C248.391 131.286 259.902 135.162 266.481 139.012L256.884 155.41ZM203.936 260.801L188.682 251.653L198.453 235.359L213.708 244.506L203.936 260.801Z"
          fill="#974533"/>
    <path d="M223.148 228.764C246.16 288.127 310.759 228.52 258.697 197.3C287.482 172.607 272.007 153.553 261.683 147.211C251.226 141.091 227.129 136.415 218.904 173.437C166.842 142.217 144.688 227.277 207.894 219.616L193.567 243.506L208.822 252.654L223.148 228.764Z"
          fill="#974533"/>
    <path d="M258.697 197.3L257.669 199.015L255.29 197.589L257.395 195.782L258.697 197.3ZM223.148 228.764L221.433 227.735L223.535 224.229L225.013 228.041L223.148 228.764ZM208.822 252.654L210.537 253.682L209.508 255.398L207.793 254.369L208.822 252.654ZM261.683 147.211L262.693 145.485C262.705 145.492 262.717 145.499 262.73 145.507L261.683 147.211ZM218.904 173.437L220.856 173.871L220.255 176.579L217.876 175.152L218.904 173.437ZM207.894 219.616L207.653 217.631L211.711 217.139L209.609 220.645L207.894 219.616ZM193.567 243.506L192.539 245.221L190.824 244.193L191.852 242.477L193.567 243.506ZM259.726 195.585C273.153 203.637 279.351 213.719 280.333 223.536C281.309 233.294 277.089 242.417 270.421 248.481C263.753 254.544 254.465 257.693 245.214 255.214C235.932 252.726 227.186 244.715 221.283 229.487L225.013 228.041C230.616 242.495 238.574 249.293 246.25 251.35C253.956 253.415 261.88 250.841 267.73 245.521C273.581 240.201 277.187 232.279 276.353 223.935C275.524 215.65 270.272 206.574 257.669 199.015L259.726 195.585ZM224.863 229.792L210.537 253.682L207.107 251.625L221.433 227.735L224.863 229.792ZM262.73 145.507C268.172 148.85 275.125 155.616 276.824 165.018C278.554 174.598 274.717 186.192 260 198.818L257.395 195.782C271.462 183.715 274.28 173.436 272.888 165.729C271.463 157.846 265.517 151.914 260.636 148.915L262.73 145.507ZM217.876 175.152C205.272 167.594 194.792 167.237 187.094 170.408C179.34 173.602 174.05 180.515 172.113 188.182C170.175 195.849 171.637 204.05 177.088 209.876C182.518 215.678 192.264 219.496 207.653 217.631L208.134 221.602C191.921 223.567 180.734 219.626 174.168 212.609C167.624 205.616 166.026 195.94 168.235 187.202C170.443 178.464 176.503 170.445 185.57 166.71C194.692 162.952 206.505 163.67 219.933 171.722L217.876 175.152ZM209.609 220.645L195.283 244.535L191.852 242.477L206.178 218.588L209.609 220.645ZM260.673 148.937C255.729 146.044 247.695 143.592 240.07 146.049C232.616 148.451 224.876 155.778 220.856 173.871L216.952 173.003C221.157 154.074 229.578 145.228 238.843 142.242C247.937 139.312 257.18 142.259 262.693 145.485L260.673 148.937ZM207.793 254.369L192.539 245.221L194.596 241.791L209.85 250.938L207.793 254.369Z"
          fill="white"/>
    <path d="M66.7825 101.499C79.3374 152.967 139.089 110.788 99.5192 79.392C125.941 62.1378 115.238 44.7416 107.408 38.3916C99.444 32.2099 80.0703 25.7418 69.2744 55.3945C29.7049 23.9983 2.21421 91.7737 55.1885 92.2996L40.7816 110.457L52.3756 119.656L66.7825 101.499Z"
          fill="white"/>
    <path d="M99.5192 79.392L93.6144 86.834L83.2912 78.6431L94.3249 71.4378L99.5192 79.392ZM66.7825 101.499L59.3405 95.594L71.4101 80.3824L76.0119 99.2474L66.7825 101.499ZM52.3756 119.656L59.8176 125.561L53.9128 133.003L46.4708 127.098L52.3756 119.656ZM107.408 38.3916L113.233 30.8871C113.286 30.9285 113.339 30.9704 113.392 31.0129L107.408 38.3916ZM69.2744 55.3945L78.2012 58.6445L73.6928 71.0274L63.3696 62.8365L69.2744 55.3945ZM55.1885 92.2996L55.2828 82.8L74.7 82.9928L62.6305 98.2044L55.1885 92.2996ZM40.7816 110.457L34.8768 117.899L27.4348 111.994L33.3396 104.552L40.7816 110.457ZM105.424 71.95C117.104 81.2171 122.705 92.4021 122.359 103.622C122.021 114.559 116.053 123.806 108.12 129.32C100.183 134.836 89.3844 137.196 79.1261 132.951C68.7263 128.647 61.1594 118.534 57.5532 103.75L76.0119 99.2474C78.6831 110.198 83.2932 114.113 86.3912 115.395C89.6308 116.735 93.6508 116.238 97.2755 113.719C100.903 111.197 103.238 107.229 103.368 103.036C103.488 99.1259 101.72 93.2649 93.6144 86.834L105.424 71.95ZM74.2245 107.404L59.8176 125.561L44.9336 113.751L59.3405 95.594L74.2245 107.404ZM113.392 31.0129C118.522 35.1737 125.269 43.3851 125.797 54.3454C126.367 66.1601 119.63 77.6052 104.713 87.3462L94.3249 71.4378C105.83 63.9246 106.953 58.0445 106.819 55.2601C106.644 51.6212 104.124 47.9595 101.424 45.7703L113.392 31.0129ZM63.3696 62.8365C55.2645 56.4055 49.1549 56.0155 45.3745 57.0219C41.3204 58.1012 37.9872 61.2775 36.3566 65.3829C34.7272 69.4854 35.1569 73.5132 37.1989 76.3632C39.1516 79.0887 44.0119 82.6881 55.2828 82.8L55.0942 101.799C39.878 101.648 28.3092 96.5784 21.754 87.4292C15.288 78.4045 15.1307 67.3521 18.6984 58.3695C22.2649 49.3899 29.9127 41.4763 40.4867 38.6614C51.3342 35.7737 63.4995 38.6853 75.1792 47.9525L63.3696 62.8365ZM62.6305 98.2044L48.2236 116.362L33.3396 104.552L47.7465 86.3948L62.6305 98.2044ZM101.583 45.8961C98.837 43.7649 94.6983 42.1432 91.1149 42.7996C88.3729 43.3019 82.9021 45.7325 78.2012 58.6445L60.3476 52.1444C66.4425 35.4037 76.0566 26.242 87.6913 24.1106C98.4847 22.1334 108.015 26.8366 113.233 30.8871L101.583 45.8961ZM46.4708 127.098L34.8768 117.899L46.6864 103.015L58.2804 112.214L46.4708 127.098Z"
          fill="#974533"/>
    <path d="M66.7825 101.499C79.3374 152.967 139.089 110.788 99.5192 79.392C125.941 62.1378 115.238 44.7416 107.408 38.3916C99.444 32.2099 80.0703 25.7418 69.2744 55.3945C29.7049 23.9983 2.21421 91.7737 55.1885 92.2996L40.7816 110.457L52.3756 119.656L66.7825 101.499Z"
          fill="#974533"/>
    <path d="M99.5192 79.392L98.2761 80.9587L96.1028 79.2343L98.4257 77.7174L99.5192 79.392ZM66.7825 101.499L65.2158 100.256L67.7568 97.0532L68.7256 101.025L66.7825 101.499ZM52.3756 119.656L53.9424 120.899L52.6993 122.466L51.1325 121.223L52.3756 119.656ZM107.408 38.3916L108.634 36.8117C108.645 36.8204 108.657 36.8293 108.668 36.8382L107.408 38.3916ZM69.2744 55.3945L71.1537 56.0787L70.2046 58.6856L68.0313 56.9612L69.2744 55.3945ZM55.1885 92.2996L55.2083 90.2997L59.2962 90.3402L56.7552 93.5427L55.1885 92.2996ZM40.7816 110.457L39.5385 112.024L37.9717 110.781L39.2149 109.214L40.7816 110.457ZM100.762 77.8253C111.031 85.9729 115.119 95.0562 114.862 103.391C114.607 111.666 110.073 118.829 103.839 123.162C97.6046 127.495 89.4817 129.119 81.9939 126.021C74.4764 122.91 68.0766 115.243 64.8395 101.973L68.7256 101.025C71.7658 113.488 77.5431 119.85 83.5234 122.325C89.5335 124.812 96.2294 123.579 101.556 119.877C106.883 116.174 110.652 110.123 110.864 103.267C111.074 96.4717 107.792 88.5092 98.2761 80.9587L100.762 77.8253ZM68.3493 102.742L53.9424 120.899L50.8089 118.413L65.2158 100.256L68.3493 102.742ZM108.668 36.8382C112.839 40.2207 117.917 46.6362 118.306 54.7065C118.703 62.9566 114.183 72.205 100.613 81.0666L98.4257 77.7174C111.278 69.3248 114.616 61.248 114.31 54.899C113.996 48.3701 109.807 42.9125 106.148 39.945L108.668 36.8382ZM68.0313 56.9612C58.5152 49.4107 50.0152 48.0253 43.4451 49.7744C36.8174 51.5387 31.781 56.585 29.3863 62.6145C26.9918 68.6433 27.3139 75.444 31.1022 80.7314C34.8717 85.9925 42.3801 90.1723 55.2083 90.2997L55.1686 94.2995C41.5098 94.1639 32.5891 89.6745 27.8506 83.061C23.131 76.4737 22.8662 68.1942 25.6688 61.138C28.4711 54.0824 34.4158 48.0388 42.4161 45.909C50.474 43.7639 60.2489 45.6801 70.5175 53.8277L68.0313 56.9612ZM56.7552 93.5427L42.3483 111.7L39.2149 109.214L53.6218 91.0564L56.7552 93.5427ZM106.181 39.9715C102.46 37.0827 96.1929 34.2446 89.7635 35.4224C83.5112 36.5678 76.4049 41.6554 71.1537 56.0787L67.3951 54.7102C72.9397 39.4809 80.9183 32.9762 89.0427 31.4879C96.9901 30.032 104.392 33.5188 108.634 36.8117L106.181 39.9715ZM51.1325 121.223L39.5385 112.024L42.0247 108.89L53.6188 118.089L51.1325 121.223Z"
          fill="white"/>
    <circle cx="10" cy="10" r="10" transform="matrix(-1 0 0 1 153.05 132.39)" fill="#974533"/>
    <circle cx="10" cy="10" r="10" transform="matrix(-1 0 0 1 340.05 229.39)" fill="#974533"/>
    <path d="M613.809 119.326C628.085 135.584 634.403 161.461 622.792 200.618C655.615 202.094 677.996 214.335 690.926 231.648C704.64 250.009 707.148 273.333 701.063 293.462C694.976 313.593 680.118 331.048 658.544 337.193C638.846 342.803 614.577 338.707 587.699 320.364V375.195V380.195H582.699H541.274H536.274V375.195V320.364C509.396 338.707 485.127 342.803 465.429 337.193C443.855 331.048 428.996 313.593 422.91 293.462C416.825 273.333 419.333 250.009 433.047 231.648C445.977 214.335 468.358 202.094 501.181 200.618C489.57 161.461 495.888 135.584 510.164 119.326C524.906 102.537 547.006 97.3536 561.933 97.1951L561.986 97.1945L562.039 97.1951C576.966 97.3536 599.067 102.537 613.809 119.326Z"
          fill="#B75838" stroke="#974533" stroke-width="10"/>
    <path d="M606.209 216.093H600.737L602.397 210.879C613.599 175.703 608.108 155.136 598.248 143.348C588.215 131.354 572.754 127.327 561.899 127.195C551.044 127.327 535.583 131.354 525.55 143.348C515.689 155.136 510.199 175.703 521.4 210.879L523.061 216.093H517.589C489.634 216.093 472.186 226.197 462.704 239.523C453.132 252.976 451.243 270.307 455.615 285.486C459.99 300.674 470.451 313.166 484.984 317.511C499.427 321.829 519.033 318.428 542.389 299.434L548.913 294.128V302.537V354.195H574.885V302.537V294.128L581.408 299.434C604.764 318.428 624.371 321.829 638.814 317.511C653.347 313.166 663.808 300.674 668.182 285.486C672.554 270.307 670.666 252.976 661.094 239.523C651.612 226.197 634.164 216.093 606.209 216.093Z"
          stroke="white" stroke-width="8"/>
</svg>
