<svg width="1122" height="385" viewBox="0 0 1122 385" fill="none" xmlns="http://www.w3.org/2000/svg">
    <path d="M860.24 196.945L863.326 202.09L870.465 197.81L864.147 192.39L860.24 196.945ZM897.887 230.256L903.033 227.171L896.727 216.656L892.293 228.086L897.887 230.256ZM913.055 255.552L907.909 258.637L910.995 263.783L916.141 260.698L913.055 255.552ZM857.091 143.903L854.06 138.724C854.023 138.746 853.987 138.768 853.951 138.79L857.091 143.903ZM902.396 171.667L896.538 172.967L898.342 181.093L905.481 176.812L902.396 171.667ZM914.047 220.566L914.767 214.61L902.596 213.137L908.901 223.652L914.047 220.566ZM929.215 245.862L932.301 251.007L937.446 247.922L934.361 242.776L929.215 245.862ZM857.155 191.799C842.132 200.807 834.647 212.461 833.456 224.344C832.282 236.049 837.345 246.876 845.199 254.017C853.056 261.16 864.216 265.048 875.513 262.02C886.904 258.966 896.933 249.305 903.481 232.426L892.293 228.086C886.646 242.642 878.978 248.667 872.406 250.429C865.741 252.216 858.672 250.048 853.272 245.138C847.869 240.227 844.647 233.005 845.396 225.541C846.127 218.254 850.773 209.618 863.326 202.09L857.155 191.799ZM892.741 233.342L907.909 258.637L918.201 252.466L903.033 227.171L892.741 233.342ZM853.951 138.79C847.641 142.666 839.297 150.64 837.229 162.071C835.065 174.034 840.116 187.589 856.334 201.499L864.147 192.39C849.883 180.157 847.89 170.55 849.038 164.207C850.281 157.332 855.604 151.857 860.231 149.015L853.951 138.79ZM905.481 176.812C918.034 169.285 927.841 169.255 934.613 172.042C941.55 174.898 946.402 181.142 948.19 188.221C949.977 195.298 948.56 202.554 943.844 207.592C939.194 212.559 930.267 216.485 914.767 214.61L913.326 226.523C931.299 228.697 944.546 224.402 952.605 215.792C960.598 207.254 962.425 195.577 959.825 185.283C957.226 174.991 950.06 165.424 939.181 160.946C928.138 156.4 914.333 157.512 899.31 166.521L905.481 176.812ZM908.901 223.652L924.069 248.947L934.361 242.776L919.192 217.48L908.901 223.652ZM860.121 149.081C864.808 146.338 872.144 144.222 878.795 146.363C884.93 148.339 892.466 154.622 896.538 172.967L908.253 170.366C903.623 149.508 894.045 138.667 882.473 134.941C871.416 131.381 860.451 134.984 854.06 138.724L860.121 149.081ZM916.141 260.698L932.301 251.007L926.129 240.716L909.969 250.406L916.141 260.698Z"
          fill="black"/>
    <path d="M1019.72 79.3084L1023.45 84.0088L1029.97 78.8352L1023 74.2844L1019.72 79.3084ZM1055.19 103.253L1059.89 99.5235L1052.27 89.9186L1049.36 101.829L1055.19 103.253ZM1070.79 122.922L1066.09 126.651L1069.82 131.351L1074.52 127.622L1070.79 122.922ZM1011.19 34.89L1007.51 30.1502C1007.47 30.1763 1007.44 30.2028 1007.41 30.2296L1011.19 34.89ZM1052.5 53.3035L1046.86 55.355L1049.71 63.1776L1056.23 58.0039L1052.5 53.3035ZM1067.75 93.2838L1067.69 87.2841L1055.43 87.408L1063.05 97.0129L1067.75 93.2838ZM1083.35 112.953L1087.08 117.653L1091.78 113.924L1088.06 109.224L1083.35 112.953ZM1015.99 74.608C1004.14 84.0085 998.937 94.9234 999.258 105.428C999.574 115.754 1005.22 124.579 1012.84 129.877C1020.46 135.176 1030.63 137.309 1040.16 133.364C1049.78 129.383 1057.31 119.827 1061.01 104.676L1049.36 101.829C1046.25 114.559 1040.58 120.203 1035.57 122.277C1030.47 124.387 1024.59 123.428 1019.69 120.023C1014.79 116.617 1011.44 111.127 1011.25 105.061C1011.07 99.1735 1013.86 91.6195 1023.45 84.0088L1015.99 74.608ZM1050.48 106.982L1066.09 126.651L1075.49 119.192L1059.89 99.5235L1050.48 106.982ZM1007.41 30.2296C1002.4 34.2922 996.04 42.1608 995.545 52.381C995.023 63.1419 1001.05 74.2845 1016.44 84.3324L1023 74.2844C1009.77 65.6442 1007.29 58.0182 1007.53 52.9622C1007.8 47.3655 1011.49 42.369 1014.97 39.5505L1007.41 30.2296ZM1056.23 58.0039C1065.82 50.3932 1073.81 49.3997 1079.5 50.914C1085.37 52.4742 1089.95 56.984 1092.15 62.5315C1094.36 68.077 1093.95 74.028 1090.74 78.5124C1087.58 82.9186 1080.79 87.1517 1067.69 87.2841L1067.81 99.2835C1083.41 99.1259 1094.43 93.9637 1100.49 85.5032C1106.5 77.121 1106.73 66.734 1103.31 58.1041C1099.88 49.4762 1092.57 41.9733 1082.59 39.3174C1072.43 36.6156 1060.62 39.2026 1048.77 48.6031L1056.23 58.0039ZM1063.05 97.0129L1078.65 116.682L1088.06 109.224L1072.45 89.5548L1063.05 97.0129ZM1014.87 39.6299C1018.4 36.886 1024.1 34.4317 1029.62 35.4403C1034.6 36.3515 1041.46 40.5032 1046.86 55.355L1058.14 51.252C1051.85 33.9802 1042.37 25.5757 1031.78 23.6363C1021.71 21.7944 1012.6 26.1952 1007.51 30.1502L1014.87 39.6299ZM1074.52 127.622L1087.08 117.653L1079.63 108.252L1067.06 118.221L1074.52 127.622Z"
          fill="black"/>
    <circle cx="978" cy="142.097" r="10" fill="black"/>
    <circle cx="791" cy="239.097" r="10" fill="black"/>
    <path d="M260.81 197.042L257.724 202.188L250.585 197.907L256.904 192.488L260.81 197.042ZM223.164 230.354L218.018 227.268L224.323 216.753L228.757 228.183L223.164 230.354ZM207.995 255.649L213.141 258.735L210.055 263.881L204.91 260.795L207.995 255.649ZM263.959 144L266.99 138.822C267.027 138.843 267.063 138.865 267.1 138.888L263.959 144ZM218.655 171.764L224.512 173.064L222.708 181.191L215.569 176.91L218.655 171.764ZM207.004 220.663L206.283 214.707L218.455 213.234L212.15 223.749L207.004 220.663ZM191.835 245.959L188.75 251.105L183.604 248.019L186.69 242.873L191.835 245.959ZM263.896 191.896C278.918 200.905 286.403 212.558 287.595 224.441C288.769 236.146 283.705 246.974 275.851 254.115C267.995 261.257 256.835 265.146 245.537 262.117C234.147 259.064 224.118 249.402 217.57 232.524L228.757 228.183C234.404 242.739 242.072 248.765 248.644 250.527C255.31 252.313 262.378 250.146 267.779 245.236C273.181 240.324 276.403 233.103 275.655 225.639C274.924 218.352 270.277 209.715 257.724 202.188L263.896 191.896ZM228.309 233.439L213.141 258.735L202.849 252.564L218.018 227.268L228.309 233.439ZM267.1 138.888C273.41 142.763 281.753 150.738 283.821 162.168C285.985 174.131 280.935 187.686 264.716 201.596L256.904 192.488C271.168 180.254 273.16 170.647 272.013 164.304C270.769 157.429 265.446 151.955 260.819 149.113L267.1 138.888ZM215.569 176.91C203.016 169.382 193.209 169.352 186.437 172.14C179.5 174.995 174.648 181.24 172.86 188.319C171.073 195.395 172.49 202.651 177.206 207.689C181.856 212.657 190.784 216.582 206.283 214.707L207.724 226.62C189.751 228.795 176.505 224.499 168.446 215.89C160.453 207.351 158.626 195.675 161.225 185.38C163.825 175.088 170.99 165.522 181.869 161.043C192.912 156.497 206.717 157.61 221.74 166.618L215.569 176.91ZM212.15 223.749L196.981 249.045L186.69 242.873L201.858 217.578L212.15 223.749ZM260.929 149.178C256.243 146.436 248.906 144.319 242.256 146.461C236.12 148.436 228.584 154.719 224.512 173.064L212.797 170.464C217.428 149.605 227.006 138.765 238.578 135.038C249.634 131.478 260.599 135.081 266.99 138.822L260.929 149.178ZM204.91 260.795L188.75 251.105L194.921 240.813L211.081 250.503L204.91 260.795Z"
          fill="black"/>
    <path d="M101.329 79.4058L97.5997 84.1062L91.0785 78.9326L98.0487 74.3818L101.329 79.4058ZM65.8649 103.35L61.1645 99.6209L68.7846 90.016L71.6936 101.926L65.8649 103.35ZM50.2604 123.019L54.9609 126.748L51.2318 131.448L46.5314 127.719L50.2604 123.019ZM109.863 34.9874L113.542 30.2476C113.576 30.2737 113.609 30.3002 113.642 30.327L109.863 34.9874ZM68.5504 53.4009L74.1887 55.4525L71.3425 63.275L64.8213 58.1014L68.5504 53.4009ZM53.2996 93.3813L53.3602 87.3816L65.6201 87.5055L58 97.1103L53.2996 93.3813ZM37.6952 113.05L33.9661 117.751L29.2657 114.022L32.9947 109.321L37.6952 113.05ZM105.058 74.7054C116.907 84.1059 122.113 95.0208 121.792 105.525C121.476 115.851 115.833 124.677 108.21 129.974C100.585 135.273 90.4169 137.406 80.8879 133.462C71.2699 129.481 63.7368 119.925 60.0362 104.774L71.6936 101.926C74.8029 114.657 80.4682 120.301 85.4772 122.374C90.5752 124.484 96.4623 123.525 101.362 120.12C106.263 116.714 109.612 111.224 109.797 105.159C109.977 99.2709 107.193 91.7169 97.5997 84.1062L105.058 74.7054ZM70.5653 107.079L54.9609 126.748L45.56 119.29L61.1645 99.6209L70.5653 107.079ZM113.642 30.327C118.653 34.3896 125.01 42.2582 125.505 52.4784C126.027 63.2393 119.999 74.3819 104.609 84.4298L98.0487 74.3818C111.282 65.7417 113.764 58.1156 113.519 53.0596C113.248 47.4629 109.56 42.4664 106.084 39.6479L113.642 30.327ZM64.8213 58.1014C55.2282 50.4907 47.2388 49.4971 41.5464 51.0114C35.6817 52.5716 31.0976 57.0814 28.8955 62.6289C26.6942 68.1744 27.0992 74.1254 30.3135 78.6098C33.4716 83.016 40.2563 87.2491 53.3602 87.3816L53.239 99.3809C37.6434 99.2233 26.6242 94.0612 20.5601 85.6006C14.552 77.2184 14.3164 66.8314 17.7421 58.2015C21.167 49.5736 28.4775 42.0707 38.4614 39.4148C48.6174 36.713 60.4304 39.3 72.2795 48.7005L64.8213 58.1014ZM58 97.1103L42.3956 116.779L32.9947 109.321L48.5992 89.6522L58 97.1103ZM106.185 39.7273C102.649 36.9834 96.9451 34.5291 91.4334 35.5377C86.4542 36.4489 79.5926 40.6006 74.1887 55.4525L62.912 51.3494C69.1963 34.0776 78.6758 25.6731 89.2733 23.7338C99.3383 21.8919 108.447 26.2926 113.542 30.2476L106.185 39.7273ZM46.5314 127.719L33.9661 117.751L41.4242 108.35L53.9895 118.319L46.5314 127.719Z"
          fill="black"/>
    <circle cx="10" cy="10" r="10" transform="matrix(-1 0 0 1 153.05 132.195)" fill="black"/>
    <circle cx="10" cy="10" r="10" transform="matrix(-1 0 0 1 340.05 229.195)" fill="black"/>
    <path d="M613.809 119.131C628.085 135.389 634.403 161.266 622.792 200.423C655.615 201.899 677.996 214.141 690.926 231.453C704.64 249.815 707.148 273.139 701.063 293.267C694.976 313.398 680.118 330.854 658.544 336.998C638.846 342.609 614.577 338.512 587.699 320.17V375V380H582.699H541.274H536.274V375V320.17C509.396 338.512 485.127 342.609 465.429 336.998C443.855 330.854 428.996 313.398 422.91 293.267C416.825 273.139 419.333 249.815 433.047 231.453C445.977 214.141 468.358 201.899 501.181 200.423C489.57 161.266 495.888 135.389 510.164 119.131C524.906 102.342 547.006 97.1588 561.933 97.0003L561.986 96.9997L562.039 97.0003C576.966 97.1588 599.067 102.342 613.809 119.131Z"
          fill="white" stroke="black" stroke-width="10"/>
    <path d="M606.209 215.898H600.737L602.397 210.684C613.599 175.508 608.108 154.941 598.248 143.153C588.215 131.159 572.754 127.132 561.899 127C551.044 127.132 535.583 131.159 525.55 143.153C515.689 154.941 510.199 175.508 521.4 210.684L523.061 215.898H517.589C489.634 215.898 472.186 226.003 462.704 239.328C453.132 252.781 451.243 270.112 455.615 285.291C459.99 300.479 470.451 312.971 484.984 317.316C499.427 321.634 519.033 318.233 542.389 299.239L548.913 293.933V302.342V354H574.885V302.342V293.933L581.408 299.239C604.764 318.233 624.371 321.634 638.814 317.316C653.347 312.971 663.808 300.479 668.182 285.291C672.554 270.112 670.666 252.781 661.094 239.328C651.612 226.003 634.164 215.898 606.209 215.898Z"
          stroke="black" stroke-width="8"/>
</svg>
