<svg width="752" height="190" viewBox="0 0 752 190" fill="none" xmlns="http://www.w3.org/2000/svg">
    <path d="M384.229 92.6759C384.229 91.8474 385.23 91.4097 385.903 91.8929C432.577 125.402 455.105 49.2356 399.388 47.9478C398.704 47.932 398.184 47.2354 398.392 46.5832C408.854 13.7639 387.163 6.06137 375.7 5.94117C364.237 6.06137 342.547 13.7639 353.009 46.5832C353.217 47.2354 352.697 47.932 352.012 47.9478C296.296 49.2356 318.823 125.402 365.498 91.8929C366.171 91.4097 367.172 91.8474 367.172 92.6759L367.172 115.941C367.172 116.493 367.619 116.941 368.172 116.941L383.229 116.941C383.781 116.941 384.229 116.493 384.229 115.941L384.229 92.6759Z"
          stroke="black" stroke-width="10" stroke-linejoin="round"/>
    <circle cx="9" cy="9" r="9" transform="matrix(-1 0 0 1 479.999 66.8813)" fill="black"/>
    <circle cx="8" cy="8" r="8" transform="matrix(-1 0 0 1 639.999 109.881)" fill="black"/>
    <path d="M692.62 158.559C693.021 157.835 694.103 157.92 694.469 158.662C711.195 192.54 748.526 155.816 716.9 136.838C716.313 136.486 716.197 135.634 716.691 135.16C733.126 119.416 722.91 107.899 716.218 104.097C709.447 100.436 694.267 97.8757 689.624 120.156C689.484 120.827 688.7 121.18 688.09 120.869C655.236 104.105 643.876 155.224 681.469 151.456C682.293 151.373 682.938 152.246 682.537 152.969L675.417 165.815C675.149 166.298 675.323 166.906 675.806 167.174L684.14 171.794C684.624 172.061 685.232 171.887 685.5 171.404L692.62 158.559Z"
          stroke="black" stroke-width="10" stroke-linejoin="round"/>
    <path d="M557.209 107.813C557.438 107.017 558.517 106.869 559.033 107.516C591.948 148.819 631.16 87.3415 582.189 71.9568C581.536 71.7515 581.229 70.9393 581.608 70.3692C599.14 44.0406 581.853 31.7159 571.71 28.6906C561.507 25.8779 540.315 27.1618 541.219 58.7803C541.239 59.4649 540.548 59.9908 539.885 59.8184C490.207 46.8973 490.857 119.813 540.664 102.246C541.445 101.97 542.282 102.669 542.053 103.464L536.207 123.839C536.055 124.37 536.362 124.924 536.893 125.076L550.126 128.873C550.657 129.026 551.211 128.719 551.363 128.188L557.209 107.813Z"
          stroke="black" stroke-width="10" stroke-linejoin="round"/>
    <circle cx="280.273" cy="71.3523" r="9" fill="black"/>
    <circle cx="119.273" cy="113.352" r="8" fill="black"/>
    <path d="M58.6523 154.03C58.251 153.306 57.1695 153.391 56.8031 154.133C40.0769 188.01 2.74587 151.287 34.372 132.309C34.9593 131.957 35.0755 131.105 34.5809 130.631C18.1461 114.887 28.362 103.37 35.0546 99.5681C41.8252 95.9071 57.0056 93.3466 61.6481 115.627C61.7879 116.298 62.5722 116.651 63.1823 116.34C96.0358 99.5758 107.396 150.695 69.8029 146.927C68.9793 146.844 68.3343 147.716 68.7356 148.44L75.8557 161.285C76.1235 161.768 75.949 162.377 75.4659 162.645L67.1318 167.265C66.6488 167.532 66.0401 167.358 65.7724 166.875L58.6523 154.03Z"
          stroke="black" stroke-width="10" stroke-linejoin="round"/>
    <path d="M194.063 103.284C193.835 102.488 192.755 102.34 192.239 102.987C159.324 144.29 120.112 82.8125 169.083 67.4277C169.737 67.2224 170.044 66.4103 169.664 65.8401C152.133 39.5116 169.419 27.1868 179.562 24.1615C189.766 21.3488 210.957 22.6328 210.053 54.2512C210.033 54.9359 210.724 55.4617 211.387 55.2893C261.065 42.3682 260.415 115.284 210.608 97.7167C209.828 97.4413 208.991 98.1395 209.219 98.935L215.065 119.31C215.217 119.841 214.911 120.395 214.38 120.547L201.146 124.344C200.616 124.497 200.062 124.19 199.909 123.659L194.063 103.284Z"
          stroke="black" stroke-width="10" stroke-linejoin="round"/>
</svg>
