<svg width="752" height="191" viewBox="0 0 752 191" fill="none" xmlns="http://www.w3.org/2000/svg">
    <path d="M367.064 93.1843C320.481 129.398 297.547 51.2336 353.806 51.2336C342.697 17.8882 364.079 10.1196 375.307 10C386.534 10.1196 407.915 17.8882 396.807 51.2336C453.066 51.2336 430.132 129.398 383.548 93.1843V119H367.064V93.1843Z"
          fill="white"/>
    <path d="M353.806 51.2336V60.7336H366.984L362.819 48.231L353.806 51.2336ZM367.064 93.1843H376.564V73.7661L361.234 85.684L367.064 93.1843ZM367.064 119H357.564V128.5H367.064V119ZM375.307 10L375.408 0.500539C375.34 0.49982 375.273 0.49982 375.205 0.500539L375.307 10ZM396.807 51.2336L387.794 48.231L383.629 60.7336H396.807V51.2336ZM383.548 93.1843L389.379 85.684L374.048 73.7661V93.1843H383.548ZM383.548 119V128.5H393.048V119H383.548ZM353.806 41.7336C337.46 41.7336 325.189 47.5132 317.972 57.2084C310.924 66.6766 309.755 78.5119 312.773 88.5299C315.793 98.5509 323.345 107.762 334.818 111.041C346.439 114.363 359.692 110.949 372.895 100.685L361.234 85.684C351.145 93.5267 344.062 93.9225 340.039 92.7729C335.869 91.5811 332.47 88.0417 330.965 83.0483C329.46 78.0519 330.194 72.6095 333.213 68.5534C336.063 64.7245 342.023 60.7336 353.806 60.7336V41.7336ZM357.564 93.1843V119H376.564V93.1843H357.564ZM375.205 0.500539C368.026 0.577031 356.805 3.0176 349.031 11.9009C340.694 21.4279 338.595 35.6305 344.793 54.2361L362.819 48.231C357.909 33.4912 360.946 27.1369 363.329 24.4133C366.276 21.0461 371.359 19.5426 375.408 19.4995L375.205 0.500539ZM396.807 60.7336C408.59 60.7336 414.55 64.7245 417.4 68.5534C420.419 72.6095 421.153 78.0519 419.648 83.0483C418.143 88.0417 414.744 91.5811 410.574 92.7729C406.551 93.9225 399.468 93.5267 389.379 85.684L377.718 100.685C390.921 110.949 404.174 114.363 415.794 111.041C427.268 107.762 434.82 98.5509 437.84 88.5299C440.858 78.5119 439.689 66.6766 432.641 57.2084C425.424 47.5132 413.153 41.7336 396.807 41.7336V60.7336ZM374.048 93.1843V119H393.048V93.1843H374.048ZM375.205 19.4995C379.254 19.5426 384.337 21.0461 387.284 24.4133C389.667 27.1368 392.704 33.4912 387.794 48.231L405.82 54.2361C412.018 35.6305 409.919 21.4279 401.582 11.9009C393.808 3.0176 382.587 0.577031 375.408 0.500539L375.205 19.4995ZM367.064 128.5H383.548V109.5H367.064V128.5Z"
          fill="#974533"/>
    <path d="M367.064 93.1843C320.481 129.398 297.547 51.2336 353.806 51.2336C342.697 17.8882 364.079 10.1196 375.307 10C386.534 10.1196 407.915 17.8882 396.807 51.2336C453.066 51.2336 430.132 129.398 383.548 93.1843V119H367.064V93.1843Z"
          fill="#974533"/>
    <path d="M353.806 51.2336V53.2336H356.58L355.703 50.6015L353.806 51.2336ZM367.064 93.1843H369.064V89.0962L365.837 91.6053L367.064 93.1843ZM367.064 119H365.064V121H367.064V119ZM375.307 10L375.328 8.00011C375.314 7.99996 375.299 7.99996 375.285 8.00011L375.307 10ZM396.807 51.2336L394.91 50.6015L394.033 53.2336H396.807V51.2336ZM383.548 93.1843L384.776 91.6053L381.548 89.0962V93.1843H383.548ZM383.548 119V121H385.548V119H383.548ZM353.806 49.2336C339.261 49.2336 329.481 54.3071 323.988 61.6867C318.531 69.0185 317.533 78.3303 319.954 86.3661C322.376 94.4025 328.289 101.375 336.879 103.83C345.501 106.294 356.318 104.072 368.292 94.7633L365.837 91.6053C354.519 100.404 345 101.991 337.978 99.9842C330.925 97.9685 325.887 92.1901 323.784 85.2121C321.681 78.2335 322.587 70.2675 327.197 64.0752C331.771 57.9306 340.221 53.2336 353.806 53.2336V49.2336ZM365.064 93.1843V119H369.064V93.1843H365.064ZM375.285 8.00011C369.342 8.06344 360.543 10.1341 354.675 16.84C348.688 23.6814 346.219 34.7861 351.908 51.8657L355.703 50.6015C350.285 34.3357 352.952 24.8833 357.685 19.4742C362.537 13.9296 370.043 12.0562 375.328 11.9999L375.285 8.00011ZM396.807 53.2336C410.391 53.2336 418.842 57.9306 423.416 64.0752C428.025 70.2675 428.931 78.2335 426.829 85.2121C424.726 92.1901 419.687 97.9685 412.634 99.9842C405.612 101.991 396.094 100.404 384.776 91.6053L382.321 94.7633C394.295 104.072 405.112 106.294 413.734 103.83C422.324 101.375 428.237 94.4025 430.659 86.3661C433.08 78.3303 432.082 69.0185 426.625 61.6867C421.132 54.3071 411.352 49.2336 396.807 49.2336V53.2336ZM381.548 93.1843V119H385.548V93.1843H381.548ZM375.285 11.9999C380.57 12.0562 388.076 13.9296 392.928 19.4742C397.661 24.8833 400.328 34.3357 394.91 50.6015L398.704 51.8657C404.394 34.7861 401.925 23.6814 395.938 16.84C390.07 10.1341 381.271 8.06344 375.328 8.00011L375.285 11.9999ZM367.064 121H383.548V117H367.064V121Z"
          fill="white"/>
    <circle cx="9" cy="9" r="9" transform="matrix(-1 0 0 1 479.999 67.9399)" fill="#974533"/>
    <circle cx="8" cy="8" r="8" transform="matrix(-1 0 0 1 639.999 110.94)" fill="#974533"/>
    <path d="M715.659 137.181L713.235 141.554L707.131 138.171L712.298 133.48L715.659 137.181ZM693.599 157.851L689.226 155.427L694.122 146.594L698.178 155.843L693.599 157.851ZM685.015 173.337L689.388 175.761L686.964 180.134L682.591 177.71L685.015 173.337ZM716.218 105.156L718.596 100.758C718.627 100.774 718.657 100.791 718.687 100.808L716.218 105.156ZM689.355 122.601L694.275 123.489L693.035 130.357L686.931 126.974L689.355 122.601ZM683.516 152.262L682.792 147.314L692.785 145.853L687.889 154.686L683.516 152.262ZM674.932 167.748L672.508 172.121L668.135 169.697L670.559 165.324L674.932 167.748ZM718.083 132.808C727.705 138.142 732.888 145.354 733.993 153.022C735.08 160.562 732.07 167.624 727.173 172.341C722.272 177.06 715.115 179.762 707.673 177.997C700.165 176.216 693.55 170.188 689.02 159.859L698.178 155.843C701.875 164.273 706.432 167.426 709.981 168.267C713.595 169.124 717.377 167.891 720.236 165.138C723.098 162.381 724.67 158.433 724.095 154.448C723.539 150.589 720.82 145.759 713.235 141.554L718.083 132.808ZM697.972 160.275L689.388 175.761L680.642 170.913L689.226 155.427L697.972 160.275ZM718.687 100.808C722.794 103.141 728.416 108.068 730.082 115.431C731.855 123.273 728.776 132.025 719.02 140.883L712.298 133.48C720.424 126.101 721.039 120.78 720.328 117.637C719.509 114.017 716.47 111.05 713.748 109.504L718.687 100.808ZM686.931 126.974C679.346 122.77 673.809 123.023 670.242 124.596C666.558 126.221 664.042 129.646 663.221 133.534C662.401 137.417 663.359 141.278 666.002 143.889C668.596 146.452 673.684 148.646 682.792 147.314L684.24 157.209C673.08 158.841 664.462 156.425 658.973 151.002C653.533 145.627 652.031 138.126 653.437 131.468C654.841 124.816 659.235 118.521 666.206 115.447C673.294 112.321 682.157 112.894 691.779 118.228L686.931 126.974ZM687.889 154.686L679.305 170.172L670.559 165.324L679.143 149.838L687.889 154.686ZM713.84 109.554C711.086 108.065 706.959 107.06 703.455 108.284C700.413 109.347 696.226 112.688 694.275 123.489L684.435 121.712C686.777 108.744 692.568 101.495 700.157 98.8438C707.284 96.354 714.442 98.5115 718.596 100.758L713.84 109.554ZM682.591 177.71L672.508 172.121L677.356 163.375L687.439 168.964L682.591 177.71Z"
          fill="#974533"/>
    <path d="M580.81 72.6013L579.431 77.4074L572.723 75.4825L576.703 69.7498L580.81 72.6013ZM557.766 106.93L552.96 105.551L555.746 95.8433L561.777 103.944L557.766 106.93ZM551.087 130.208L555.893 131.587L554.514 136.393L549.708 135.014L551.087 130.208ZM571.71 29.7493L573.039 24.9291C573.072 24.9383 573.106 24.9479 573.139 24.9579L571.71 29.7493ZM541.274 61.257L546.268 61.017L546.603 67.9879L539.895 66.0631L541.274 61.257ZM542.61 102.581L540.793 97.9232L550.202 94.2526L547.417 103.96L542.61 102.581ZM535.931 125.859L534.552 130.665L529.746 129.286L531.125 124.48L535.931 125.859ZM582.189 67.7952C596.24 71.8269 604.825 79.5206 608.399 88.7395C611.926 97.8393 610.215 107.559 605.422 114.915C600.626 122.275 592.463 127.674 582.726 127.614C572.922 127.553 562.74 121.983 553.756 109.916L561.777 103.944C569.523 114.348 577.052 117.578 582.788 117.614C588.591 117.649 593.796 114.44 597.044 109.455C600.295 104.466 601.304 98.1044 599.075 92.3539C596.892 86.7223 591.243 80.7966 579.431 77.4074L582.189 67.7952ZM562.572 108.309L555.893 131.587L546.281 128.829L552.96 105.551L562.572 108.309ZM573.139 24.9579C579.048 26.7204 587.512 31.3135 591.689 39.9794C596.078 49.0861 594.965 60.9805 584.917 75.4529L576.703 69.7498C585.496 57.0855 584.979 49.0888 582.681 44.3212C580.17 39.1127 574.664 35.8481 570.281 34.5407L573.139 24.9579ZM539.895 66.0631C528.083 62.6739 520.152 64.7031 515.315 68.3204C510.376 72.0141 507.858 77.9431 507.969 83.8968C508.08 89.8454 510.792 95.3263 515.731 98.3728C520.613 101.384 528.709 102.638 540.793 97.9232L544.428 107.239C530.412 112.707 518.826 112.031 510.481 106.884C502.194 101.772 498.135 92.8665 497.971 84.0833C497.807 75.3052 501.51 66.1572 509.326 60.3121C517.244 54.3906 528.602 52.4193 542.653 56.451L539.895 66.0631ZM547.417 103.96L540.737 127.238L531.125 124.48L537.804 101.202L547.417 103.96ZM570.381 34.5695C565.972 33.354 559.572 33.2024 554.682 36.2875C550.206 39.1114 545.528 45.6174 546.268 61.017L536.28 61.4971C535.434 43.8989 540.797 33.2239 549.347 27.8299C557.483 22.697 567.094 23.2904 573.039 24.9291L570.381 34.5695ZM549.708 135.014L534.552 130.665L537.31 121.053L552.466 125.402L549.708 135.014Z"
          fill="#974533"/>
    <circle cx="280.273" cy="72.411" r="9" fill="#974533"/>
    <circle cx="119.273" cy="114.411" r="8" fill="#974533"/>
    <path d="M35.6133 132.652L38.0374 137.025L44.1414 133.642L38.9743 128.95L35.6133 132.652ZM57.6729 153.322L62.046 150.898L57.1499 142.065L53.0939 151.314L57.6729 153.322ZM66.2571 168.808L61.884 171.232L64.308 175.605L68.6811 173.181L66.2571 168.808ZM35.0545 100.627L32.6762 96.2288C32.6456 96.2453 32.6151 96.2622 32.5848 96.2794L35.0545 100.627ZM61.9172 118.072L56.9968 118.96L58.2372 125.828L64.3413 122.445L61.9172 118.072ZM67.7562 147.733L68.4798 142.785L58.487 141.324L63.3831 150.157L67.7562 147.733ZM76.3404 163.219L78.7645 167.592L83.1376 165.168L80.7135 160.795L76.3404 163.219ZM33.1893 128.279C23.5673 133.613 18.3841 140.825 17.2792 148.492C16.1925 156.033 19.2022 163.095 24.0996 167.812C29.0007 172.531 36.1577 175.233 43.5993 173.468C51.1067 171.687 57.7222 165.659 62.2519 155.33L53.0939 151.314C49.3968 159.744 44.8397 162.896 41.2913 163.738C37.6772 164.595 33.8951 163.362 31.0362 160.609C28.1737 157.852 26.6027 153.904 27.177 149.919C27.7331 146.06 30.4525 141.23 38.0374 137.025L33.1893 128.279ZM53.2998 155.746L61.884 171.232L70.6302 166.384L62.046 150.898L53.2998 155.746ZM32.5848 96.2794C28.4785 98.612 22.8558 103.539 21.1903 110.902C19.4169 118.743 22.4959 127.496 32.2523 136.354L38.9743 128.95C30.8478 121.572 30.2332 116.251 30.944 113.108C31.7628 109.488 34.8022 106.521 37.5241 104.974L32.5848 96.2794ZM64.3413 122.445C71.9261 118.241 77.4632 118.494 81.0306 120.067C84.7147 121.692 87.2302 125.117 88.051 129.005C88.8708 132.888 87.9129 136.749 85.2706 139.36C82.6765 141.923 77.5884 144.117 68.4798 142.785L67.0327 152.68C78.1926 154.312 86.8106 151.896 92.2991 146.473C97.7395 141.098 99.2408 133.597 97.8354 126.939C96.431 120.287 92.0369 113.992 85.066 110.918C77.9784 107.792 69.1151 108.365 59.4932 113.699L64.3413 122.445ZM63.3831 150.157L71.9673 165.643L80.7135 160.795L72.1293 145.309L63.3831 150.157ZM37.4327 105.025C40.1863 103.536 44.3136 102.531 47.8175 103.755C50.8594 104.818 55.046 108.159 56.9968 118.96L66.8376 117.183C64.4955 104.215 58.7047 96.9659 51.1154 94.3147C43.9881 91.8249 36.8305 93.9824 32.6762 96.2288L37.4327 105.025ZM68.6811 173.181L78.7645 167.592L73.9164 158.846L63.833 164.435L68.6811 173.181Z"
          fill="#974533"/>
    <path d="M170.462 68.0724L171.841 72.8785L178.549 70.9536L174.569 65.2208L170.462 68.0724ZM193.506 102.401L198.312 101.022L195.527 91.3144L189.495 99.4152L193.506 102.401ZM200.185 125.679L195.379 127.058L196.758 131.864L201.564 130.485L200.185 125.679ZM179.562 25.2204L178.233 20.4001C178.2 20.4094 178.166 20.419 178.133 20.429L179.562 25.2204ZM209.998 56.7281L205.004 56.488L204.669 63.459L211.377 61.5342L209.998 56.7281ZM208.662 98.0523L210.479 93.3943L201.07 89.7237L203.856 99.4314L208.662 98.0523ZM215.341 121.33L216.72 126.136L221.526 124.757L220.147 119.951L215.341 121.33ZM169.083 63.2663C155.032 67.298 146.447 74.9917 142.874 84.2105C139.346 93.3104 141.057 103.03 145.85 110.386C150.646 117.746 158.809 123.145 168.546 123.085C178.35 123.024 188.532 117.454 197.516 105.387L189.495 99.4152C181.749 109.819 174.22 113.049 168.484 113.085C162.681 113.121 157.476 109.911 154.228 104.926C150.977 99.9373 149.968 93.5755 152.197 87.825C154.381 82.1934 160.029 76.2677 171.841 72.8785L169.083 63.2663ZM188.7 103.78L195.379 127.058L204.991 124.3L198.312 101.022L188.7 103.78ZM178.133 20.429C172.224 22.1915 163.76 26.7845 159.583 35.4505C155.194 44.5572 156.307 56.4515 166.355 70.9239L174.569 65.2208C165.777 52.5566 166.293 44.5599 168.591 39.7922C171.102 34.5838 176.608 31.3191 180.991 30.0117L178.133 20.429ZM211.377 61.5342C223.189 58.1449 231.12 60.1741 235.957 63.7914C240.896 67.4852 243.414 73.4142 243.303 79.3678C243.192 85.3165 240.48 90.7973 235.541 93.8439C230.66 96.8549 222.563 98.1086 210.479 93.3943L206.845 102.71C220.86 108.178 232.446 107.502 240.791 102.355C249.078 97.2434 253.137 88.3376 253.301 79.5544C253.465 70.7762 249.762 61.6283 241.946 55.7832C234.028 49.8617 222.67 47.8903 208.619 51.922L211.377 61.5342ZM203.856 99.4314L210.535 122.709L220.147 119.951L213.468 96.6733L203.856 99.4314ZM180.891 30.0406C185.3 28.8251 191.7 28.6735 196.59 31.7585C201.066 34.5825 205.744 41.0885 205.004 56.488L214.992 56.9681C215.838 39.3699 210.475 28.695 201.926 23.301C193.789 18.168 184.178 18.7615 178.233 20.4001L180.891 30.0406ZM201.564 130.485L216.72 126.136L213.962 116.524L198.806 120.873L201.564 130.485Z"
          fill="#974533"/>
</svg>
