<svg width="752" height="189" viewBox="0 0 752 189" fill="none" xmlns="http://www.w3.org/2000/svg">
    <path d="M397.949 47.1784L397.949 52.1784L390.978 52.1784L393.213 45.5752L397.949 47.1784ZM384.229 89.8988L379.229 89.8988L379.229 79.7781L387.267 85.9277L384.229 89.8988ZM384.229 116.188L389.229 116.188L389.229 121.188L384.229 121.188L384.229 116.188ZM375.7 5.18824L375.648 0.188512C375.683 0.188146 375.718 0.188146 375.753 0.188512L375.7 5.18824ZM353.452 47.1784L358.188 45.5752L360.423 52.1784L353.452 52.1784L353.452 47.1784ZM367.172 89.8988L364.134 85.9277L372.172 79.7781L372.172 89.8988L367.172 89.8988ZM367.172 116.188L367.172 121.188L362.172 121.188L362.172 116.188L367.172 116.188ZM397.949 42.1784C413.674 42.1784 424.762 47.6026 431.131 56.0232C437.421 64.3389 438.53 74.8418 435.777 83.8318C433.023 92.8261 426.242 100.785 416.249 103.595C406.189 106.424 394.066 103.72 381.191 93.8699L387.267 85.9277C398.495 94.5172 407.414 95.6919 413.542 93.9685C419.737 92.2262 424.288 87.1997 426.215 80.9042C428.144 74.6042 427.283 67.5123 423.156 62.0557C419.108 56.704 411.332 52.1784 397.949 52.1784L397.949 42.1784ZM389.229 89.8988L389.229 116.188L379.229 116.188L379.229 89.8988L389.229 89.8988ZM375.753 0.188512C382.363 0.257825 392.405 2.49941 399.228 10.1725C406.372 18.206 408.783 30.7653 402.685 48.7816L393.213 45.5752C398.609 29.6343 395.705 21.2593 391.756 16.8176C387.485 12.0153 380.656 10.2405 375.648 10.188L375.753 0.188512ZM353.452 52.1784C340.069 52.1784 332.293 56.704 328.245 62.0557C324.118 67.5123 323.256 74.6043 325.185 80.9042C327.113 87.1997 331.664 92.2262 337.859 93.9685C343.987 95.6919 352.906 94.5172 364.134 85.9277L370.21 93.8699C357.335 103.72 345.212 106.424 335.152 103.595C325.159 100.785 318.377 92.8261 315.623 83.8318C312.871 74.8418 313.98 64.3389 320.269 56.0232C326.639 47.6026 337.727 42.1784 353.452 42.1784L353.452 52.1784ZM372.172 89.8988L372.172 116.188L362.172 116.188L362.172 89.8988L372.172 89.8988ZM375.753 10.188C370.744 10.2405 363.915 12.0153 359.645 16.8175C355.695 21.2593 352.792 29.6342 358.188 45.5752L348.716 48.7816C342.617 30.7653 345.029 18.206 352.172 10.1725C358.995 2.49942 369.038 0.257827 375.648 0.188512L375.753 10.188ZM384.229 121.188L367.172 121.188L367.172 111.188L384.229 111.188L384.229 121.188Z"
          fill="#974533"/>
    <circle cx="9" cy="9" r="9" transform="matrix(-1 0 0 1 479.999 66.1282)" fill="#974533"/>
    <circle cx="8" cy="8" r="8" transform="matrix(-1 0 0 1 639.999 109.128)" fill="#974533"/>
    <path d="M715.659 135.37L713.235 139.743L707.131 136.359L712.298 131.668L715.659 135.37ZM693.599 156.039L689.226 153.615L694.122 144.782L698.178 154.031L693.599 156.039ZM685.015 171.525L689.388 173.95L686.964 178.323L682.591 175.899L685.015 171.525ZM716.218 103.344L718.596 98.946C718.627 98.9626 718.657 98.9795 718.687 98.9967L716.218 103.344ZM689.355 120.789L694.275 121.678L693.035 128.546L686.931 125.162L689.355 120.789ZM683.516 150.45L682.792 145.503L692.785 144.041L687.889 152.874L683.516 150.45ZM674.932 165.936L672.508 170.309L668.135 167.885L670.559 163.512L674.932 165.936ZM718.083 130.996C727.705 136.33 732.888 143.543 733.993 151.21C735.08 158.751 732.07 165.813 727.173 170.529C722.272 175.249 715.115 177.951 707.673 176.185C700.165 174.405 693.55 168.376 689.02 158.047L698.178 154.031C701.875 162.462 706.432 165.614 709.981 166.455C713.595 167.313 717.377 166.079 720.236 163.326C723.098 160.569 724.67 156.621 724.095 152.636C723.539 148.777 720.82 143.947 713.235 139.743L718.083 130.996ZM697.972 158.463L689.388 173.95L680.642 169.101L689.226 153.615L697.972 158.463ZM718.687 98.9967C722.794 101.329 728.416 106.256 730.082 113.62C731.855 121.461 728.776 130.213 719.02 139.071L712.298 131.668C720.424 124.289 721.039 118.969 720.328 115.826C719.509 112.206 716.47 109.238 713.748 107.692L718.687 98.9967ZM686.931 125.162C679.346 120.958 673.809 121.211 670.242 122.785C666.558 124.409 664.042 127.834 663.221 131.722C662.401 135.605 663.359 139.467 666.002 142.077C668.596 144.641 673.684 146.835 682.792 145.503L684.24 155.397C673.08 157.029 664.462 154.614 658.973 149.191C653.533 143.815 652.031 136.314 653.437 129.657C654.841 123.004 659.235 116.709 666.206 113.635C673.294 110.509 682.157 111.082 691.779 116.416L686.931 125.162ZM687.889 152.874L679.305 168.36L670.559 163.512L679.143 148.026L687.889 152.874ZM713.84 107.742C711.086 106.253 706.959 105.249 703.455 106.473C700.413 107.535 696.226 110.876 694.275 121.678L684.435 119.9C686.777 106.932 692.568 99.6832 700.157 97.032C707.284 94.5422 714.442 96.6997 718.596 98.946L713.84 107.742ZM682.591 175.899L672.508 170.309L677.356 161.563L687.439 167.152L682.591 175.899Z"
          fill="#974533"/>
    <path d="M543.475 98.6718C496.651 116.738 495.736 48.4814 542.2 61.8135C540.715 32.3808 560.165 31.204 569.466 33.7686C578.711 36.5254 594.578 47.8359 577.714 72.0037C624.178 85.3358 587.211 142.723 557.089 102.578L551.136 123.327L537.522 119.42L543.475 98.6718Z"
          fill="white"/>
    <path d="M542.2 61.8135L539.579 70.945L552.357 74.6114L551.687 61.3349L542.2 61.8135ZM543.475 98.6718L552.607 101.292L557.874 82.9336L540.056 89.8087L543.475 98.6718ZM537.522 119.42L528.39 116.8L525.77 125.932L534.902 128.552L537.522 119.42ZM569.466 33.7686L572.18 24.6647C572.118 24.6459 572.054 24.6278 571.991 24.6103L569.466 33.7686ZM577.714 72.0037L569.923 66.5674L562.316 77.4689L575.094 81.1353L577.714 72.0037ZM557.089 102.578L564.688 96.8766L553.225 81.5996L547.958 99.958L557.089 102.578ZM551.136 123.327L548.516 132.458L557.647 135.078L560.267 125.947L551.136 123.327ZM544.82 52.6819C531.102 48.746 519.202 50.4404 510.551 56.8597C502.082 63.1444 498.163 72.9383 498.356 82.216C498.55 91.505 502.909 101.162 512.017 106.755C521.227 112.411 533.353 112.76 546.895 107.535L540.056 89.8087C530.185 93.6169 524.638 92.209 521.959 90.5641C519.178 88.8566 517.433 85.6704 517.352 81.8201C517.272 77.9584 518.91 74.317 521.873 72.1177C524.656 70.0531 530.065 68.2149 539.579 70.945L544.82 52.6819ZM534.344 96.0517L528.39 116.8L546.653 122.041L552.607 101.292L534.344 96.0517ZM571.991 24.6103C565.902 22.9314 555.674 22.1557 546.75 27.7379C537.013 33.8289 531.863 45.4653 532.712 62.292L551.687 61.3349C551.052 48.7289 554.885 45.0606 556.826 43.8462C559.581 42.1229 563.729 42.0412 566.94 42.9268L571.991 24.6103ZM575.094 81.1353C584.608 83.8653 588.22 88.2918 589.484 91.5176C590.831 94.9536 590.289 98.9095 588.173 102.141C586.064 105.363 582.894 107.139 579.631 107.112C576.488 107.086 571.038 105.339 564.688 96.8766L549.49 108.28C558.202 119.89 568.668 126.023 579.476 126.112C590.164 126.199 598.98 120.322 604.069 112.549C609.152 104.785 611.022 94.4032 607.174 84.5841C603.243 74.5546 594.051 66.8081 580.334 62.8722L575.094 81.1353ZM547.958 99.958L542.004 120.707L560.267 125.947L566.221 105.198L547.958 99.958ZM566.751 42.8724C569.944 43.8244 573.417 46.0928 574.839 49.0146C575.841 51.0736 577.146 56.2163 569.923 66.5674L585.505 77.4401C595.146 63.6234 596.949 51.0269 591.923 40.6995C587.316 31.2348 578.233 26.4696 572.18 24.6647L566.751 42.8724ZM534.902 128.552L548.516 132.458L553.756 114.195L540.142 110.289L534.902 128.552Z"
          fill="#974533"/>
    <path d="M543.475 98.6718C496.651 116.738 495.736 48.4814 542.2 61.8135C540.715 32.3808 560.165 31.204 569.466 33.7686C578.711 36.5254 594.578 47.8359 577.714 72.0037C624.178 85.3358 587.211 142.723 557.089 102.578L551.136 123.327L537.522 119.42L543.475 98.6718Z"
          fill="#974533"/>
    <path d="M542.2 61.8135L541.648 63.7359L544.338 64.5078L544.197 61.7127L542.2 61.8135ZM543.475 98.6718L545.398 99.2235L546.507 95.3585L542.755 96.8059L543.475 98.6718ZM537.522 119.42L535.599 118.869L535.048 120.791L536.97 121.343L537.522 119.42ZM569.466 33.7686L570.037 31.852C570.024 31.848 570.011 31.8442 569.997 31.8405L569.466 33.7686ZM577.714 72.0037L576.074 70.8592L574.472 73.1543L577.162 73.9262L577.714 72.0037ZM557.089 102.578L558.689 101.378L556.276 98.1616L555.167 102.027L557.089 102.578ZM551.136 123.327L550.584 125.249L552.507 125.801L553.058 123.878L551.136 123.327ZM542.751 59.891C530.693 56.4311 521.355 58.1823 515.02 62.8826C508.724 67.5546 505.706 74.9199 505.855 82.0597C506.004 89.2019 509.331 96.3048 515.941 100.364C522.573 104.436 532.103 105.203 544.195 100.538L542.755 96.8059C531.436 101.173 523.291 100.183 518.034 96.9553C512.756 93.7141 509.979 87.9736 509.854 81.9764C509.729 75.9768 512.267 69.9068 517.404 66.0948C522.503 62.3112 530.474 60.5298 541.648 63.7359L542.751 59.891ZM541.553 98.1202L535.599 118.869L539.444 119.972L545.398 99.2235L541.553 98.1202ZM569.997 31.8405C565.044 30.4747 557.217 30.0375 550.728 34.0964C544.067 38.2625 539.437 46.7536 540.202 61.9142L544.197 61.7127C543.477 47.4407 547.83 40.627 552.849 37.4876C558.039 34.2411 564.587 34.4978 568.934 35.6966L569.997 31.8405ZM577.162 73.9262C588.336 77.1322 594.15 82.8692 596.467 88.7807C598.801 94.7364 597.735 101.229 594.448 106.249C591.162 111.268 585.764 114.663 579.57 114.612C573.401 114.562 565.971 111.083 558.689 101.378L555.49 103.779C563.269 114.146 571.755 118.548 579.537 118.612C587.294 118.675 593.881 114.417 597.794 108.44C601.706 102.466 603.052 94.6205 600.191 87.321C597.313 79.9772 590.324 73.5412 578.265 70.0813L577.162 73.9262ZM555.167 102.027L549.213 122.775L553.058 123.878L559.012 103.13L555.167 102.027ZM568.894 35.6852C573.216 36.9738 578.903 40.2278 581.583 45.7323C584.173 51.0552 584.251 59.1401 576.074 70.8592L579.354 73.1482C588.041 60.6995 588.617 51.0453 585.179 43.9818C581.83 37.0998 574.961 33.3202 570.037 31.852L568.894 35.6852ZM536.97 121.343L550.584 125.249L551.687 121.404L538.073 117.498L536.97 121.343Z"
          fill="white"/>
    <circle cx="280.273" cy="70.5994" r="9" fill="#974533"/>
    <circle cx="119.273" cy="112.599" r="8" fill="#974533"/>
    <path d="M35.6133 130.841L38.0374 135.214L44.1414 131.83L38.9743 127.139L35.6133 130.841ZM57.6729 151.51L62.046 149.086L57.1499 140.253L53.0939 149.502L57.6729 151.51ZM66.2571 166.996L61.884 169.42L64.308 173.794L68.6811 171.37L66.2571 166.996ZM35.0545 98.8152L32.6762 94.417C32.6456 94.4335 32.6151 94.4504 32.5848 94.4676L35.0545 98.8152ZM61.9172 116.26L56.9968 117.149L58.2372 124.017L64.3413 120.633L61.9172 116.26ZM67.7562 145.921L68.4798 140.974L58.487 139.512L63.3831 148.345L67.7562 145.921ZM76.3404 161.407L78.7645 165.78L83.1376 163.356L80.7135 158.983L76.3404 161.407ZM33.1893 126.467C23.5673 131.801 18.3841 139.014 17.2792 146.681C16.1925 154.222 19.2022 161.284 24.0996 166C29.0007 170.72 36.1577 173.422 43.5993 171.656C51.1067 169.876 57.7222 163.847 62.2519 153.518L53.0939 149.502C49.3968 157.933 44.8397 161.085 41.2913 161.926C37.6772 162.784 33.8951 161.55 31.0362 158.797C28.1737 156.04 26.6027 152.092 27.177 148.107C27.7331 144.248 30.4525 139.418 38.0374 135.214L33.1893 126.467ZM53.2998 153.934L61.884 169.42L70.6302 164.572L62.046 149.086L53.2998 153.934ZM32.5848 94.4676C28.4785 96.8003 22.8558 101.727 21.1903 109.091C19.4169 116.932 22.4959 125.684 32.2523 134.542L38.9743 127.139C30.8478 119.76 30.2332 114.439 30.944 111.297C31.7628 107.677 34.8022 104.709 37.5241 103.163L32.5848 94.4676ZM64.3413 120.633C71.9261 116.429 77.4632 116.682 81.0306 118.255C84.7147 119.88 87.2302 123.305 88.051 127.193C88.8708 131.076 87.9129 134.938 85.2706 137.548C82.6765 140.111 77.5884 142.306 68.4798 140.974L67.0327 150.868C78.1926 152.5 86.8106 150.085 92.2991 144.662C97.7395 139.286 99.2408 131.785 97.8354 125.128C96.431 118.475 92.0369 112.18 85.066 109.106C77.9784 105.98 69.1151 106.553 59.4932 111.887L64.3413 120.633ZM63.3831 148.345L71.9673 163.831L80.7135 158.983L72.1293 143.497L63.3831 148.345ZM37.4327 103.213C40.1863 101.724 44.3136 100.719 47.8175 101.944C50.8594 103.006 55.046 106.347 56.9968 117.149L66.8376 115.371C64.4955 102.403 58.7047 95.1542 51.1154 92.503C43.9881 90.0132 36.8305 92.1707 32.6762 94.417L37.4327 103.213ZM68.6811 171.37L78.7645 165.78L73.9164 157.034L63.833 162.623L68.6811 171.37Z"
          fill="#974533"/>
    <path d="M207.785 94.1884C254.673 112.48 255.448 43.7379 208.986 57.0694C210.41 27.4296 190.947 26.2043 181.647 28.768C172.402 31.5256 156.55 42.8841 173.473 67.2593C127.011 80.5908 164.116 138.464 194.172 98.0946L200.171 119.004L213.785 115.097L207.785 94.1884Z"
          fill="white"/>
    <path d="M208.986 57.0694L211.606 66.2009L198.86 69.8581L199.497 56.6133L208.986 57.0694ZM207.785 94.1884L198.654 96.8085L193.361 78.3639L211.238 85.338L207.785 94.1884ZM213.785 115.097L222.916 112.477L225.536 121.609L216.405 124.229L213.785 115.097ZM181.647 28.768L178.931 19.6644C178.995 19.6455 179.058 19.6272 179.122 19.6096L181.647 28.768ZM173.473 67.2593L181.276 61.8413L188.839 72.7336L176.093 76.3908L173.473 67.2593ZM194.172 98.0946L186.552 92.4214L198.011 77.0298L203.303 95.4744L194.172 98.0946ZM200.171 119.004L202.791 128.135L193.66 130.755L191.04 121.624L200.171 119.004ZM206.366 47.9379C220.108 43.9947 232.027 45.7365 240.682 52.2095C249.144 58.5373 253.063 68.3667 252.89 77.6663C252.716 86.9754 248.395 96.6904 239.275 102.316C230.044 108.01 217.889 108.327 204.333 103.039L211.238 85.338C221.125 89.1952 226.65 87.7797 229.3 86.1451C232.059 84.443 233.82 81.2353 233.893 77.3118C233.967 73.3787 232.299 69.6654 229.303 67.4251C226.502 65.3301 221.094 63.4784 211.606 66.2009L206.366 47.9379ZM216.917 91.5682L222.916 112.477L204.653 117.717L198.654 96.8085L216.917 91.5682ZM179.122 19.6096C185.231 17.9258 195.473 17.1714 204.407 22.8077C214.127 28.9401 219.288 40.6168 218.475 57.5255L199.497 56.6133C200.109 43.8822 196.249 40.1263 194.269 38.8771C191.503 37.1318 187.363 37.0466 184.171 37.9265L179.122 19.6096ZM176.093 76.3908C166.605 79.1133 163.002 83.5505 161.737 86.8122C160.385 90.2999 160.94 94.3326 163.088 97.6283C165.23 100.916 168.423 102.702 171.666 102.682C174.779 102.663 180.214 100.934 186.552 92.4214L201.792 103.768C193.102 115.44 182.628 121.615 171.783 121.682C161.067 121.748 152.252 115.802 147.169 108.001C142.091 100.208 140.203 89.7962 144.022 79.9448C147.928 69.8673 157.11 62.0709 170.853 58.1277L176.093 76.3908ZM203.303 95.4744L209.303 116.383L191.04 121.624L185.04 100.715L203.303 95.4744ZM184.362 37.8717C181.189 38.8181 177.725 41.0851 176.305 44.0317C175.288 46.1408 174.007 51.3715 181.276 61.8413L165.669 72.6772C156.015 58.7719 154.199 46.1357 159.189 35.7824C163.775 26.2665 172.859 21.4755 178.931 19.6644L184.362 37.8717ZM216.405 124.229L202.791 128.135L197.551 109.872L211.165 105.966L216.405 124.229Z"
          fill="#974533"/>
    <path d="M207.785 94.1884C254.673 112.48 255.448 43.7379 208.986 57.0694C210.41 27.4296 190.947 26.2043 181.647 28.768C172.402 31.5256 156.55 42.8841 173.473 67.2593C127.011 80.5908 164.116 138.464 194.172 98.0946L200.171 119.004L213.785 115.097L207.785 94.1884Z"
          fill="#974533"/>
    <path d="M208.986 57.0694L209.537 58.9918L206.854 59.7618L206.988 56.9734L208.986 57.0694ZM207.785 94.1884L205.863 94.74L204.749 90.8569L208.512 92.3251L207.785 94.1884ZM213.785 115.097L215.707 114.546L216.259 116.468L214.336 117.02L213.785 115.097ZM181.647 28.768L181.075 26.8515C181.088 26.8475 181.102 26.8437 181.115 26.84L181.647 28.768ZM173.473 67.2593L175.116 66.1187L176.708 68.4118L174.025 69.1817L173.473 67.2593ZM194.172 98.0946L192.568 96.9002L194.98 93.6599L196.094 97.5429L194.172 98.0946ZM200.171 119.004L200.723 120.926L198.8 121.478L198.249 119.555L200.171 119.004ZM208.434 55.147C220.497 51.6856 229.846 53.4708 236.191 58.2157C242.494 62.93 245.525 70.3451 245.391 77.5263C245.257 84.7096 241.947 91.8559 235.337 95.9329C228.704 100.024 219.167 100.775 207.058 96.0516L208.512 92.3251C219.848 96.7474 227.99 95.7652 233.237 92.5284C238.508 89.2775 241.279 83.5012 241.392 77.4517C241.505 71.4003 238.948 65.2727 233.795 61.419C228.683 57.5958 220.705 55.7874 209.537 58.9918L208.434 55.147ZM209.708 93.6368L215.707 114.546L211.862 115.649L205.863 94.74L209.708 93.6368ZM181.115 26.84C186.072 25.4735 193.906 25.0505 200.405 29.1509C207.07 33.3557 211.717 41.9058 210.984 57.1654L206.988 56.9734C207.679 42.5932 203.307 35.7107 198.271 32.5339C193.07 29.2527 186.521 29.4989 182.178 30.6961L181.115 26.84ZM174.025 69.1817C162.857 72.3861 157.052 78.1492 154.744 84.1014C152.418 90.1011 153.5 96.652 156.804 101.723C160.107 106.792 165.519 110.22 171.712 110.182C177.877 110.144 185.301 106.66 192.568 96.9002L195.776 99.2889C188.015 109.714 179.53 114.134 171.737 114.182C163.971 114.23 157.375 109.926 153.453 103.907C149.531 97.889 148.17 89.995 151.015 82.6556C153.878 75.2685 160.858 68.7982 172.921 65.3368L174.025 69.1817ZM196.094 97.5429L202.094 118.452L198.249 119.555L192.249 98.6462L196.094 97.5429ZM182.218 30.6846C177.901 31.9723 172.218 35.2357 169.548 40.7754C166.963 46.1388 166.905 54.2927 175.116 66.1187L171.83 68.3999C163.117 55.8507 162.524 46.1377 165.945 39.0387C169.282 32.116 176.147 28.3213 181.075 26.8515L182.218 30.6846ZM214.336 117.02L200.723 120.926L199.62 117.081L213.233 113.175L214.336 117.02Z"
          fill="white"/>
</svg>
