<svg width="752" height="191" viewBox="0 0 752 191" fill="none" xmlns="http://www.w3.org/2000/svg">
    <path d="M367.064 93.5607C320.481 129.775 297.547 51.61 353.806 51.61C342.697 18.2646 364.079 10.4961 375.307 10.3765C386.534 10.4961 407.915 18.2646 396.807 51.61C453.066 51.61 430.132 129.775 383.548 93.5607V119.376H367.064V93.5607Z"
          fill="white"/>
    <path d="M353.806 51.61V61.11H366.984L362.819 48.6075L353.806 51.61ZM367.064 93.5607H376.564V74.1425L361.234 86.0605L367.064 93.5607ZM367.064 119.376H357.564V128.876H367.064V119.376ZM375.307 10.3765L375.408 0.877004C375.34 0.876285 375.273 0.876285 375.205 0.877004L375.307 10.3765ZM396.807 51.61L387.794 48.6075L383.629 61.11H396.807V51.61ZM383.548 93.5607L389.379 86.0605L374.048 74.1425V93.5607H383.548ZM383.548 119.376V128.876H393.048V119.376H383.548ZM353.806 42.11C337.46 42.11 325.189 47.8896 317.972 57.5849C310.924 67.0531 309.755 78.8883 312.773 88.9063C315.793 98.9274 323.345 108.139 334.818 111.418C346.439 114.739 359.692 111.325 372.895 101.061L361.234 86.0605C351.145 93.9032 344.062 94.299 340.039 93.1493C335.869 91.9576 332.47 88.4182 330.965 83.4248C329.46 78.4284 330.194 72.9859 333.213 68.9299C336.063 65.101 342.023 61.11 353.806 61.11V42.11ZM357.564 93.5607V119.376H376.564V93.5607H357.564ZM375.205 0.877004C368.026 0.953496 356.805 3.39406 349.031 12.2774C340.694 21.8044 338.595 36.007 344.793 54.6126L362.819 48.6075C357.909 33.8677 360.946 27.5133 363.329 24.7898C366.276 21.4226 371.359 19.9191 375.408 19.8759L375.205 0.877004ZM396.807 61.11C408.59 61.11 414.55 65.101 417.4 68.9299C420.419 72.9859 421.153 78.4284 419.648 83.4248C418.143 88.4182 414.744 91.9576 410.574 93.1493C406.551 94.299 399.468 93.9032 389.379 86.0605L377.718 101.061C390.921 111.325 404.174 114.739 415.794 111.418C427.268 108.139 434.82 98.9274 437.84 88.9063C440.858 78.8883 439.689 67.0531 432.641 57.5849C425.424 47.8896 413.153 42.11 396.807 42.11V61.11ZM374.048 93.5607V119.376H393.048V93.5607H374.048ZM375.205 19.8759C379.254 19.9191 384.337 21.4226 387.284 24.7898C389.667 27.5133 392.704 33.8677 387.794 48.6075L405.82 54.6126C412.018 36.007 409.919 21.8044 401.582 12.2774C393.808 3.39407 382.587 0.953496 375.408 0.877004L375.205 19.8759ZM367.064 128.876H383.548V109.876H367.064V128.876Z"
          fill="white"/>
    <path d="M367.064 93.5607C320.481 129.775 297.547 51.61 353.806 51.61C342.697 18.2646 364.079 10.4961 375.307 10.3765C386.534 10.4961 407.915 18.2646 396.807 51.61C453.066 51.61 430.132 129.775 383.548 93.5607V119.376H367.064V93.5607Z"
          fill="white"/>
    <path d="M353.806 51.61V53.61H356.58L355.703 50.9779L353.806 51.61ZM367.064 93.5607H369.064V89.4727L365.837 91.9817L367.064 93.5607ZM367.064 119.376H365.064V121.376H367.064V119.376ZM375.307 10.3765L375.328 8.37658C375.314 8.37643 375.299 8.37643 375.285 8.37658L375.307 10.3765ZM396.807 51.61L394.91 50.9779L394.033 53.61H396.807V51.61ZM383.548 93.5607L384.776 91.9817L381.548 89.4727V93.5607H383.548ZM383.548 119.376V121.376H385.548V119.376H383.548ZM353.806 49.61C339.261 49.61 329.481 54.6836 323.988 62.0632C318.531 69.395 317.533 78.7068 319.954 86.7426C322.376 94.779 328.289 101.752 336.879 104.207C345.501 106.671 356.318 104.448 368.292 95.1397L365.837 91.9817C354.519 100.78 345 102.367 337.978 100.361C330.925 98.345 325.887 92.5665 323.784 85.5886C321.681 78.61 322.587 70.644 327.197 64.4516C331.771 58.307 340.221 53.61 353.806 53.61V49.61ZM365.064 93.5607V119.376H369.064V93.5607H365.064ZM375.285 8.37658C369.342 8.43991 360.543 10.5106 354.675 17.2165C348.688 24.0579 346.219 35.1625 351.908 52.2422L355.703 50.9779C350.285 34.7121 352.952 25.2598 357.685 19.8507C362.537 14.3061 370.043 12.4327 375.328 12.3764L375.285 8.37658ZM396.807 53.61C410.391 53.61 418.842 58.307 423.416 64.4516C428.025 70.644 428.931 78.61 426.829 85.5886C424.726 92.5665 419.687 98.345 412.634 100.361C405.612 102.367 396.094 100.78 384.776 91.9817L382.321 95.1397C394.295 104.448 405.112 106.671 413.734 104.207C422.324 101.752 428.237 94.779 430.659 86.7426C433.08 78.7068 432.082 69.395 426.625 62.0632C421.132 54.6836 411.352 49.61 396.807 49.61V53.61ZM381.548 93.5607V119.376H385.548V93.5607H381.548ZM375.285 12.3764C380.57 12.4327 388.076 14.3061 392.928 19.8507C397.661 25.2598 400.328 34.7121 394.91 50.9779L398.704 52.2422C404.394 35.1625 401.925 24.0579 395.938 17.2165C390.07 10.5106 381.271 8.43991 375.328 8.37658L375.285 12.3764ZM367.064 121.376H383.548V117.376H367.064V121.376Z"
          fill="white"/>
    <circle cx="9" cy="9" r="9" transform="matrix(-1 0 0 1 479.999 68.3164)" fill="black"/>
    <circle cx="8" cy="8" r="8" transform="matrix(-1 0 0 1 639.999 111.316)" fill="black"/>
    <path d="M715.659 137.558L713.235 141.931L707.131 138.547L712.298 133.856L715.659 137.558ZM693.599 158.227L689.226 155.803L694.122 146.971L698.178 156.219L693.599 158.227ZM685.015 173.714L689.388 176.138L686.964 180.511L682.591 178.087L685.015 173.714ZM716.218 105.532L718.596 101.134C718.627 101.151 718.657 101.168 718.687 101.185L716.218 105.532ZM689.355 122.977L694.275 123.866L693.035 130.734L686.931 127.35L689.355 122.977ZM683.516 152.638L682.792 147.691L692.785 146.229L687.889 155.062L683.516 152.638ZM674.932 168.124L672.508 172.498L668.135 170.073L670.559 165.7L674.932 168.124ZM718.083 133.185C727.705 138.518 732.888 145.731 733.993 153.398C735.08 160.939 732.07 168.001 727.173 172.717C722.272 177.437 715.115 180.139 707.673 178.374C700.165 176.593 693.55 170.565 689.02 160.236L698.178 156.219C701.875 164.65 706.432 167.802 709.981 168.644C713.595 169.501 717.377 168.267 720.236 165.514C723.098 162.758 724.67 158.81 724.095 154.824C723.539 150.965 720.82 146.135 713.235 141.931L718.083 133.185ZM697.972 160.651L689.388 176.138L680.642 171.29L689.226 155.803L697.972 160.651ZM718.687 101.185C722.794 103.518 728.416 108.444 730.082 115.808C731.855 123.649 728.776 132.401 719.02 141.26L712.298 133.856C720.424 126.478 721.039 121.157 720.328 118.014C719.509 114.394 716.47 111.426 713.748 109.88L718.687 101.185ZM686.931 127.35C679.346 123.146 673.809 123.399 670.242 124.973C666.557 126.598 664.042 130.022 663.221 133.91C662.401 137.794 663.359 141.655 666.002 144.266C668.596 146.829 673.684 149.023 682.792 147.691L684.24 157.586C673.08 159.218 664.462 156.802 658.973 151.379C653.533 146.003 652.031 138.502 653.437 131.845C654.841 125.192 659.235 118.898 666.206 115.823C673.294 112.697 682.157 113.271 691.779 118.604L686.931 127.35ZM687.889 155.062L679.305 170.548L670.559 165.7L679.143 150.214L687.889 155.062ZM713.839 109.931C711.086 108.442 706.959 107.437 703.455 108.661C700.413 109.723 696.226 113.064 694.275 123.866L684.435 122.089C686.777 109.121 692.567 101.871 700.157 99.2203C707.284 96.7305 714.442 98.888 718.596 101.134L713.839 109.931ZM682.591 178.087L672.508 172.498L677.356 163.751L687.439 169.341L682.591 178.087Z"
          fill="black"/>
    <path d="M543.475 100.86C496.651 118.926 495.736 50.6697 542.2 64.0017C540.715 34.569 560.165 33.3922 569.466 35.9568C578.711 38.7137 594.578 50.0242 577.714 74.192C624.178 87.524 587.211 144.911 557.089 104.766L551.136 125.515L537.522 121.609L543.475 100.86Z"
          fill="white"/>
    <path d="M542.2 64.0017L539.579 73.1332L552.357 76.7996L551.688 63.5232L542.2 64.0017ZM543.475 100.86L552.607 103.48L557.875 85.1218L540.056 91.9969L543.475 100.86ZM537.522 121.609L528.39 118.988L525.77 128.12L534.902 130.74L537.522 121.609ZM569.466 35.9568L572.181 26.8529C572.118 26.8342 572.054 26.816 571.991 26.7986L569.466 35.9568ZM577.714 74.192L569.923 68.7556L562.316 79.6571L575.094 83.3235L577.714 74.192ZM557.089 104.766L564.688 99.0648L553.226 83.7879L547.958 102.146L557.089 104.766ZM551.136 125.515L548.516 134.646L557.647 137.267L560.267 128.135L551.136 125.515ZM544.82 54.8702C531.103 50.9342 519.202 52.6286 510.551 59.0479C502.082 65.3326 498.163 75.1265 498.356 84.4042C498.55 93.6933 502.909 103.351 512.017 108.943C521.227 114.599 533.353 114.948 546.895 109.723L540.056 91.9969C530.185 95.8052 524.638 94.3972 521.959 92.7523C519.178 91.0448 517.433 87.8587 517.352 84.0083C517.272 80.1467 518.91 76.5052 521.873 74.306C524.656 72.2413 530.065 70.4031 539.579 73.1332L544.82 54.8702ZM534.344 98.2399L528.39 118.988L546.653 124.229L552.607 103.48L534.344 98.2399ZM571.991 26.7986C565.902 25.1196 555.675 24.344 546.75 29.9261C537.013 36.0172 531.863 47.6535 532.712 64.4802L551.688 63.5232C551.052 50.9172 554.885 47.2488 556.826 46.0344C559.581 44.3111 563.729 44.2294 566.941 45.115L571.991 26.7986ZM575.094 83.3235C584.608 86.0536 588.22 90.48 589.484 93.7058C590.831 97.1419 590.289 101.098 588.173 104.329C586.064 107.551 582.894 109.327 579.631 109.3C576.488 109.275 571.038 107.527 564.688 99.0648L549.491 110.468C558.202 122.078 568.668 128.211 579.476 128.3C590.164 128.387 598.98 122.51 604.069 114.737C609.152 106.973 611.023 96.5914 607.174 86.7723C603.243 76.7428 594.051 68.9964 580.334 65.0604L575.094 83.3235ZM547.958 102.146L542.004 122.895L560.267 128.135L566.221 107.387L547.958 102.146ZM566.751 45.0607C569.944 46.0126 573.417 48.2811 574.839 51.2028C575.841 53.2618 577.146 58.4045 569.923 68.7556L585.505 79.6283C595.146 65.8116 596.95 53.2151 591.923 42.8877C587.316 33.4231 578.233 28.6578 572.181 26.8529L566.751 45.0607ZM534.902 130.74L548.516 134.646L553.756 116.383L540.142 112.477L534.902 130.74Z"
          fill="white"/>
    <path d="M543.475 100.86C496.651 118.926 495.736 50.6697 542.2 64.0017C540.715 34.569 560.165 33.3922 569.466 35.9568C578.711 38.7137 594.578 50.0242 577.714 74.192C624.178 87.524 587.211 144.911 557.089 104.766L551.136 125.515L537.522 121.609L543.475 100.86Z"
          fill="white"/>
    <path d="M542.2 64.0017L541.648 65.9241L544.338 66.696L544.197 63.9009L542.2 64.0017ZM543.475 100.86L545.398 101.412L546.507 97.5468L542.755 98.9942L543.475 100.86ZM537.522 121.609L535.599 121.057L535.048 122.979L536.97 123.531L537.522 121.609ZM569.466 35.9568L570.037 34.0402C570.024 34.0362 570.011 34.0324 569.998 34.0287L569.466 35.9568ZM577.714 74.192L576.074 73.0475L574.472 75.3425L577.162 76.1144L577.714 74.192ZM557.089 104.766L558.689 103.566L556.276 100.35L555.167 104.215L557.089 104.766ZM551.136 125.515L550.584 127.437L552.507 127.989L553.058 126.067L551.136 125.515ZM542.751 62.0793C530.693 58.6193 521.355 60.3705 515.021 65.0708C508.724 69.7429 505.706 77.1081 505.855 84.2479C506.004 91.3901 509.331 98.4931 515.941 102.552C522.573 106.625 532.103 107.392 544.195 102.726L542.755 98.9942C531.436 103.362 523.291 102.372 518.034 99.1436C512.756 95.9024 509.979 90.1618 509.854 84.1646C509.729 78.165 512.267 72.095 517.404 68.2831C522.503 64.4995 530.474 62.718 541.648 65.9241L542.751 62.0793ZM541.553 100.308L535.599 121.057L539.444 122.16L545.398 101.412L541.553 100.308ZM569.998 34.0287C565.044 32.6629 557.217 32.2258 550.728 36.2847C544.068 40.4507 539.437 48.9418 540.202 64.1024L544.197 63.9009C543.477 49.6289 547.83 42.8153 552.849 39.6759C558.039 36.4294 564.587 36.6861 568.934 37.8848L569.998 34.0287ZM577.162 76.1144C588.336 79.3205 594.15 85.0575 596.467 90.9689C598.801 96.9246 597.735 103.417 594.448 108.437C591.162 113.456 585.764 116.851 579.57 116.8C573.401 116.75 565.971 113.271 558.689 103.566L555.49 105.967C563.269 116.334 571.755 120.736 579.537 120.8C587.294 120.863 593.881 116.605 597.794 110.629C601.706 104.654 603.052 96.8087 600.191 89.5092C597.313 82.1654 590.324 75.7295 578.266 72.2695L577.162 76.1144ZM555.167 104.215L549.213 124.963L553.058 126.067L559.012 105.318L555.167 104.215ZM568.894 37.8734C573.216 39.1621 578.904 42.4161 581.583 47.9206C584.173 53.2434 584.251 61.3284 576.074 73.0475L579.354 75.3365C588.041 62.8878 588.617 53.2336 585.179 46.17C581.83 39.2881 574.961 35.5084 570.037 34.0402L568.894 37.8734ZM536.97 123.531L550.584 127.437L551.688 123.593L538.073 119.686L536.97 123.531Z"
          fill="white"/>
    <circle cx="280.273" cy="72.7876" r="9" fill="black"/>
    <circle cx="119.273" cy="114.788" r="8" fill="black"/>
    <path d="M35.6134 133.029L38.0374 137.402L44.1415 134.018L38.9744 129.327L35.6134 133.029ZM57.673 153.698L62.0461 151.274L57.1499 142.441L53.0939 151.69L57.673 153.698ZM66.2571 169.185L61.884 171.609L64.3081 175.982L68.6812 173.558L66.2571 169.185ZM35.0545 101.003L32.6763 96.6052C32.6457 96.6218 32.6152 96.6387 32.5849 96.6559L35.0545 101.003ZM61.9173 118.448L56.9969 119.337L58.2372 126.205L64.3413 122.821L61.9173 118.448ZM67.7563 148.109L68.4799 143.162L58.4871 141.7L63.3832 150.533L67.7563 148.109ZM76.3405 163.595L78.7645 167.968L83.1376 165.544L80.7136 161.171L76.3405 163.595ZM33.1893 128.656C23.5673 133.989 18.3841 141.202 17.2793 148.869C16.1926 156.41 19.2023 163.472 24.0997 168.188C29.0007 172.908 36.1577 175.61 43.5994 173.845C51.1068 172.064 57.7223 166.036 62.252 155.706L53.0939 151.69C49.3968 160.121 44.8398 163.273 41.2914 164.115C37.6772 164.972 33.8951 163.738 31.0363 160.985C28.1738 158.229 26.6027 154.281 27.177 150.295C27.7332 146.436 30.4526 141.606 38.0374 137.402L33.1893 128.656ZM53.2999 156.122L61.884 171.609L70.6302 166.761L62.0461 151.274L53.2999 156.122ZM32.5849 96.6559C28.4785 98.9885 22.8559 103.915 21.1904 111.279C19.417 119.12 22.496 127.872 32.2524 136.731L38.9744 129.327C30.8478 121.949 30.2332 116.628 30.944 113.485C31.7628 109.865 34.8022 106.897 37.5241 105.351L32.5849 96.6559ZM64.3413 122.821C71.9261 118.617 77.4632 118.87 81.0306 120.444C84.7148 122.069 87.2303 125.493 88.0511 129.381C88.8709 133.265 87.9129 137.126 85.2707 139.737C82.6765 142.3 77.5885 144.494 68.4799 143.162L67.0327 153.056C78.1926 154.689 86.8107 152.273 92.2992 146.85C97.7396 141.474 99.2408 133.973 97.8354 127.316C96.4311 120.663 92.037 114.369 85.0661 111.294C77.9785 108.168 69.1152 108.742 59.4932 114.075L64.3413 122.821ZM63.3832 150.533L71.9674 166.019L80.7136 161.171L72.1294 145.685L63.3832 150.533ZM37.4327 105.402C40.1864 103.913 44.3137 102.908 47.8176 104.132C50.8595 105.194 55.046 108.535 56.9969 119.337L66.8377 117.56C64.4956 104.592 58.7048 97.3424 51.1155 94.6912C43.9882 92.2014 36.8305 94.3589 32.6763 96.6052L37.4327 105.402ZM68.6812 173.558L78.7645 167.968L73.9164 159.222L63.8331 164.812L68.6812 173.558Z"
          fill="black"/>
    <path d="M207.785 96.3766C254.673 114.668 255.448 45.9261 208.986 59.2576C210.41 29.6178 190.947 28.3925 181.647 30.9563C172.402 33.7138 156.549 45.0724 173.473 69.4475C127.011 82.779 164.116 140.652 194.172 100.283L200.171 121.192L213.785 117.286L207.785 96.3766Z"
          fill="white"/>
    <path d="M208.986 59.2576L211.606 68.3892L198.86 72.0464L199.497 58.8015L208.986 59.2576ZM207.785 96.3766L198.654 98.9968L193.361 80.5522L211.238 87.5263L207.785 96.3766ZM213.785 117.286L222.916 114.665L225.536 123.797L216.405 126.417L213.785 117.286ZM181.647 30.9563L178.931 21.8526C178.995 21.8337 179.058 21.8155 179.122 21.7979L181.647 30.9563ZM173.473 69.4475L181.276 64.0296L188.839 74.9218L176.093 78.579L173.473 69.4475ZM194.172 100.283L186.552 94.6096L198.011 79.2181L203.303 97.6626L194.172 100.283ZM200.171 121.192L202.791 130.323L193.66 132.943L191.04 123.812L200.171 121.192ZM206.366 50.1261C220.108 46.1829 232.027 47.9247 240.682 54.3977C249.144 60.7255 253.063 70.5549 252.89 79.8545C252.716 89.1636 248.395 98.8786 239.274 104.505C230.044 110.198 217.889 110.516 204.333 105.227L211.238 87.5263C221.125 91.3834 226.65 89.9679 229.3 88.3333C232.059 86.6312 233.82 83.4236 233.893 79.5C233.967 75.567 232.299 71.8536 229.303 69.6134C226.502 67.5183 221.094 65.6666 211.606 68.3892L206.366 50.1261ZM216.917 93.7565L222.916 114.665L204.653 119.906L198.654 98.9968L216.917 93.7565ZM179.122 21.7979C185.231 20.114 195.473 19.3596 204.407 24.9959C214.127 31.1283 219.288 42.8051 218.475 59.7137L199.497 58.8015C200.109 46.0704 196.249 42.3146 194.269 41.0653C191.503 39.32 187.363 39.2348 184.171 40.1147L179.122 21.7979ZM176.093 78.579C166.605 81.3016 163.002 85.7387 161.737 89.0004C160.385 92.4882 160.94 96.5208 163.088 99.8166C165.23 103.104 168.423 104.891 171.666 104.871C174.779 104.851 180.214 103.122 186.552 94.6096L201.792 105.956C193.102 117.628 182.628 123.803 171.783 123.87C161.066 123.936 152.252 117.99 147.169 110.189C142.091 102.397 140.203 91.9844 144.022 82.133C147.928 72.0555 157.11 64.2592 170.853 60.316L176.093 78.579ZM203.303 97.6626L209.303 118.572L191.04 123.812L185.04 102.903L203.303 97.6626ZM184.362 40.0599C181.189 41.0063 177.725 43.2733 176.305 46.2199C175.288 48.3291 174.007 53.5597 181.276 64.0296L165.669 74.8654C156.015 60.9602 154.199 48.324 159.189 37.9706C163.775 28.4548 172.859 23.6638 178.931 21.8526L184.362 40.0599ZM216.405 126.417L202.791 130.323L197.551 112.06L211.165 108.154L216.405 126.417Z"
          fill="white"/>
    <path d="M207.785 96.3766C254.673 114.668 255.448 45.9261 208.986 59.2576C210.41 29.6178 190.947 28.3925 181.647 30.9563C172.402 33.7138 156.549 45.0724 173.473 69.4475C127.011 82.779 164.116 140.652 194.172 100.283L200.171 121.192L213.785 117.286L207.785 96.3766Z"
          fill="white"/>
    <path d="M208.986 59.2576L209.537 61.1801L206.854 61.95L206.988 59.1616L208.986 59.2576ZM207.785 96.3766L205.863 96.9282L204.749 93.0451L208.512 94.5134L207.785 96.3766ZM213.785 117.286L215.707 116.734L216.259 118.656L214.336 119.208L213.785 117.286ZM181.647 30.9563L181.075 29.0397C181.088 29.0357 181.102 29.0319 181.115 29.0282L181.647 30.9563ZM173.473 69.4475L175.116 68.3069L176.708 70.6L174.024 71.3699L173.473 69.4475ZM194.172 100.283L192.568 99.0884L194.98 95.8481L196.094 99.7312L194.172 100.283ZM200.171 121.192L200.723 123.114L198.8 123.666L198.249 121.743L200.171 121.192ZM208.434 57.3352C220.497 53.8738 229.846 55.659 236.191 60.4039C242.494 65.1182 245.525 72.5333 245.391 79.7146C245.257 86.8978 241.947 94.0441 235.337 98.1211C228.704 102.212 219.167 102.964 207.058 98.2398L208.512 94.5134C219.848 98.9357 227.99 97.9534 233.237 94.7167C238.508 91.4657 241.279 85.6894 241.392 79.64C241.505 73.5885 238.948 67.461 233.795 63.6072C228.683 59.784 220.705 57.9757 209.537 61.1801L208.434 57.3352ZM209.708 95.825L215.707 116.734L211.862 117.837L205.863 96.9282L209.708 95.825ZM181.115 29.0282C186.072 27.6617 193.906 27.2387 200.405 31.3391C207.07 35.544 211.717 44.094 210.983 59.3537L206.988 59.1616C207.679 44.7815 203.306 37.899 198.271 34.7221C193.07 31.4409 186.521 31.6871 182.178 32.8844L181.115 29.0282ZM174.024 71.3699C162.857 74.5743 157.052 80.3375 154.744 86.2896C152.418 92.2893 153.5 98.8402 156.804 103.911C160.107 108.98 165.519 112.409 171.712 112.37C177.877 112.332 185.301 108.848 192.568 99.0884L195.776 101.477C188.014 111.902 179.53 116.322 171.736 116.37C163.971 116.418 157.375 112.114 153.453 106.095C149.531 100.077 148.169 92.1833 151.015 84.8438C153.878 77.4568 160.858 70.9864 172.921 67.5251L174.024 71.3699ZM196.094 99.7312L202.094 120.64L198.249 121.743L192.249 100.834L196.094 99.7312ZM182.218 32.8728C177.901 34.1606 172.218 37.4239 169.548 42.9636C166.963 48.327 166.905 56.4809 175.116 68.3069L171.83 70.5881C163.117 58.0389 162.524 48.326 165.945 41.2269C169.282 34.3042 176.147 30.5095 181.075 29.0397L182.218 32.8728ZM214.336 119.208L200.723 123.114L199.62 119.269L213.233 115.363L214.336 119.208Z"
          fill="white"/>
</svg>
