<svg width="750" height="189" viewBox="0 0 750 189" fill="none" xmlns="http://www.w3.org/2000/svg">
    <path d="M396.949 47.5549L396.949 52.5549L389.978 52.5549L392.213 45.9517L396.949 47.5549ZM383.229 90.2753L378.229 90.2753L378.229 80.1546L386.267 86.3041L383.229 90.2753ZM383.229 116.565L388.229 116.565L388.229 121.565L383.229 121.565L383.229 116.565ZM374.7 5.5647L374.648 0.564977C374.683 0.564611 374.718 0.564611 374.753 0.564977L374.7 5.5647ZM352.452 47.5549L357.188 45.9517L359.423 52.5549L352.452 52.5549L352.452 47.5549ZM366.172 90.2753L363.134 86.3041L371.172 80.1546L371.172 90.2753L366.172 90.2753ZM366.172 116.565L366.172 121.565L361.172 121.565L361.172 116.565L366.172 116.565ZM396.949 42.5549C412.674 42.5549 423.762 47.9791 430.131 56.3997C436.421 64.7154 437.53 75.2182 434.777 84.2082C432.023 93.2025 425.242 101.161 415.249 103.972C405.189 106.801 393.066 104.096 380.191 94.2464L386.267 86.3041C397.495 94.8937 406.414 96.0684 412.542 94.345C418.737 92.6027 423.288 87.5762 425.215 81.2806C427.144 74.9807 426.283 67.8888 422.156 62.4322C418.108 57.0805 410.332 52.5549 396.949 52.5549L396.949 42.5549ZM388.229 90.2753L388.229 116.565L378.229 116.565L378.229 90.2753L388.229 90.2753ZM374.753 0.564977C381.363 0.63429 391.405 2.87588 398.228 10.549C405.372 18.5825 407.783 31.1417 401.685 49.158L392.213 45.9517C397.609 30.0107 394.705 21.6358 390.756 17.194C386.485 12.3918 379.656 10.6169 374.648 10.5644L374.753 0.564977ZM352.452 52.5549C339.069 52.5549 331.293 57.0805 327.245 62.4322C323.118 67.8888 322.256 74.9807 324.185 81.2806C326.113 87.5762 330.664 92.6027 336.859 94.345C342.987 96.0684 351.906 94.8937 363.134 86.3041L369.21 94.2464C356.335 104.096 344.212 106.801 334.152 103.972C324.159 101.161 317.377 93.2025 314.623 84.2082C311.871 75.2183 312.98 64.7154 319.269 56.3997C325.639 47.9791 336.727 42.5549 352.452 42.5549L352.452 52.5549ZM371.172 90.2753L371.172 116.565L361.172 116.565L361.172 90.2753L371.172 90.2753ZM374.753 10.5644C369.744 10.6169 362.915 12.3918 358.645 17.194C354.695 21.6358 351.792 30.0107 357.188 45.9517L347.716 49.158C341.617 31.1418 344.029 18.5825 351.172 10.549C357.995 2.87588 368.038 0.634291 374.648 0.564977L374.753 10.5644ZM383.229 121.565L366.172 121.565L366.172 111.565L383.229 111.565L383.229 121.565Z"
          fill="#974533"/>
    <circle cx="9" cy="9" r="9" transform="matrix(-1 0 0 1 478.999 66.5046)" fill="#974533"/>
    <circle cx="8" cy="8" r="8" transform="matrix(-1 0 0 1 638.999 109.505)" fill="#974533"/>
    <path d="M684.189 148.782C649.331 153.881 659.62 106.872 689.211 123.275C692.903 102.835 706.371 105.061 712.311 108.273C718.182 111.608 727.207 121.85 711.829 135.813C741.421 152.216 707.007 185.851 692.86 153.588L685.478 166.905L676.807 162.099L684.189 148.782Z"
          fill="white"/>
    <path d="M689.211 123.275L684.605 131.584L696.203 138.013L698.56 124.964L689.211 123.275ZM684.189 148.782L692.498 153.387L701.801 136.604L682.814 139.382L684.189 148.782ZM676.807 162.099L668.498 157.494L663.893 165.802L672.202 170.408L676.807 162.099ZM712.311 108.273L717.003 100.013C716.946 99.98 716.888 99.9479 716.83 99.9165L712.311 108.273ZM711.829 135.813L705.443 128.779L695.626 137.693L707.224 144.122L711.829 135.813ZM692.86 153.588L701.56 149.773L693.854 132.199L684.551 148.982L692.86 153.588ZM685.478 166.905L680.872 175.214L689.181 179.82L693.787 171.511L685.478 166.905ZM693.817 114.966C684.483 109.793 675.132 108.87 667.207 112.366C659.503 115.764 654.748 122.669 653.237 129.827C651.723 136.995 653.296 145.338 659.43 151.399C665.655 157.55 674.901 159.742 685.564 158.182L682.814 139.382C676.048 140.372 673.509 138.6 672.784 137.884C671.968 137.077 671.426 135.649 671.827 133.752C672.229 131.846 673.416 130.393 674.875 129.75C676.112 129.204 679.143 128.556 684.605 131.584L693.817 114.966ZM675.88 144.176L668.498 157.494L685.116 166.705L692.498 153.387L675.88 144.176ZM716.83 99.9165C712.529 97.591 704.798 95.1365 696.785 97.9361C687.894 101.042 682.08 109.309 679.862 121.587L698.56 124.964C700.034 116.801 702.8 115.961 703.051 115.873C704.18 115.479 706.153 115.743 707.792 116.63L716.83 99.9165ZM707.224 144.122C712.686 147.149 713.743 150.063 713.936 151.402C714.163 152.98 713.56 154.756 712.157 156.107C710.76 157.452 709.263 157.75 708.146 157.485C707.154 157.249 704.306 156.035 701.56 149.773L684.159 157.403C688.487 167.272 695.246 173.952 703.761 175.972C712.151 177.962 720.06 174.874 725.336 169.793C730.606 164.718 733.942 157.026 732.742 148.692C731.506 140.119 725.768 132.677 716.435 127.504L707.224 144.122ZM684.551 148.982L677.169 162.3L693.787 171.511L701.169 158.194L684.551 148.982ZM707.619 116.533C709.239 117.454 710.509 118.987 710.773 120.153C710.831 120.412 711.584 123.204 705.443 128.779L718.215 142.846C727.453 134.459 731.382 125.148 729.305 115.962C727.433 107.683 721.254 102.428 717.003 100.013L707.619 116.533ZM672.202 170.408L680.872 175.214L690.083 158.596L681.413 153.79L672.202 170.408Z"
          fill="#974533"/>
    <path d="M684.189 148.782C649.331 153.881 659.62 106.872 689.211 123.275C692.903 102.835 706.371 105.061 712.311 108.273C718.182 111.608 727.207 121.85 711.829 135.813C741.421 152.216 707.007 185.851 692.86 153.588L685.478 166.905L676.807 162.099L684.189 148.782Z"
          fill="#974533"/>
    <path d="M689.211 123.275L688.242 125.024L690.683 126.378L691.179 123.631L689.211 123.275ZM684.189 148.782L685.939 149.751L687.897 146.218L683.9 146.803L684.189 148.782ZM676.807 162.099L675.058 161.13L674.088 162.879L675.838 163.848L676.807 162.099ZM712.311 108.273L713.299 106.534C713.287 106.527 713.275 106.52 713.262 106.514L712.311 108.273ZM711.829 135.813L710.485 134.332L708.418 136.209L710.86 137.562L711.829 135.813ZM692.86 153.588L694.691 152.785L693.069 149.085L691.11 152.618L692.86 153.588ZM685.478 166.905L684.508 168.655L686.257 169.624L687.227 167.875L685.478 166.905ZM690.181 121.526C682.375 117.199 675.519 116.897 670.234 119.228C664.995 121.539 661.648 126.292 660.575 131.377C659.501 136.464 660.667 142.077 664.701 146.064C668.755 150.069 675.354 152.096 684.479 150.761L683.9 146.803C675.596 148.018 670.409 146.08 667.513 143.218C664.597 140.338 663.649 136.18 664.489 132.203C665.329 128.223 667.924 124.619 671.848 122.888C675.725 121.177 681.251 121.15 688.242 125.024L690.181 121.526ZM682.44 147.812L675.058 161.13L678.557 163.069L685.939 149.751L682.44 147.812ZM713.262 106.514C710.012 104.756 704.554 103.166 699.259 105.016C693.778 106.931 689.167 112.266 687.243 122.92L691.179 123.631C692.947 113.844 696.916 110.072 700.578 108.793C704.424 107.449 708.67 108.578 711.36 110.032L713.262 106.514ZM710.86 137.562C717.85 141.437 720.755 146.138 721.359 150.332C721.971 154.577 720.289 158.688 717.359 161.51C714.431 164.329 710.403 165.728 706.415 164.782C702.453 163.843 698.062 160.471 694.691 152.785L691.028 154.391C694.731 162.837 699.947 167.359 705.492 168.674C711.011 169.983 716.389 167.997 720.134 164.391C723.877 160.786 726.135 155.429 725.318 149.762C724.495 144.044 720.604 138.39 712.799 134.063L710.86 137.562ZM691.11 152.618L683.728 165.936L687.227 167.875L694.609 154.558L691.11 152.618ZM711.323 110.012C713.982 111.522 717.189 114.525 718.088 118.499C718.943 122.282 717.848 127.646 710.485 134.332L713.174 137.293C721.189 130.016 723.27 123.279 721.989 117.616C720.752 112.145 716.511 108.359 713.299 106.534L711.323 110.012ZM675.838 163.848L684.508 168.655L686.447 165.156L677.777 160.35L675.838 163.848Z"
          fill="white"/>
    <path d="M542.475 99.0483C495.651 117.115 494.736 48.8579 541.2 62.1899C539.715 32.7573 559.165 31.5804 568.466 34.145C577.711 36.9019 593.578 48.2124 576.714 72.3802C623.178 85.7122 586.211 143.1 556.089 102.955L550.136 123.703L536.522 119.797L542.475 99.0483Z"
          fill="white"/>
    <path d="M541.2 62.1899L538.579 71.3215L551.357 74.9878L550.687 61.7114L541.2 62.1899ZM542.475 99.0483L551.607 101.668L556.874 83.3101L539.056 90.1851L542.475 99.0483ZM536.522 119.797L527.39 117.177L524.77 126.308L533.902 128.928L536.522 119.797ZM568.466 34.145L571.18 25.0411C571.118 25.0224 571.054 25.0043 570.991 24.9868L568.466 34.145ZM576.714 72.3802L568.923 66.9438L561.316 77.8454L574.094 81.5117L576.714 72.3802ZM556.089 102.955L563.688 97.2531L552.225 81.9761L546.958 100.335L556.089 102.955ZM550.136 123.703L547.516 132.835L556.647 135.455L559.267 126.323L550.136 123.703ZM543.82 53.0584C530.102 49.1225 518.202 50.8169 509.551 57.2362C501.082 63.5209 497.163 73.3147 497.356 82.5924C497.55 91.8815 501.909 101.539 511.017 107.132C520.227 112.787 532.353 113.136 545.895 107.911L539.056 90.1851C529.185 93.9934 523.638 92.5854 520.959 90.9405C518.178 89.233 516.433 86.0469 516.352 82.1966C516.272 78.3349 517.91 74.6934 520.873 72.4942C523.656 70.4296 529.065 68.5914 538.579 71.3215L543.82 53.0584ZM533.344 96.4282L527.39 117.177L545.653 122.417L551.607 101.668L533.344 96.4282ZM570.991 24.9868C564.902 23.3078 554.674 22.5322 545.75 28.1144C536.013 34.2054 530.863 45.8418 531.712 62.6685L550.687 61.7114C550.052 49.1054 553.885 45.437 555.826 44.2226C558.581 42.4994 562.729 42.4176 565.94 43.3032L570.991 24.9868ZM574.094 81.5117C583.608 84.2418 587.22 88.6682 588.484 91.894C589.831 95.3301 589.289 99.286 587.173 102.517C585.064 105.739 581.894 107.515 578.631 107.489C575.488 107.463 570.038 105.715 563.688 97.2531L548.49 108.656C557.202 120.266 567.668 126.4 578.476 126.488C589.164 126.575 597.98 120.698 603.069 112.925C608.152 105.161 610.022 94.7797 606.174 84.9605C602.243 74.9311 593.051 67.1846 579.334 63.2487L574.094 81.5117ZM546.958 100.335L541.004 121.083L559.267 126.323L565.221 105.575L546.958 100.335ZM565.751 43.2489C568.944 44.2009 572.417 46.4693 573.839 49.3911C574.841 51.4501 576.146 56.5927 568.923 66.9438L584.505 77.8166C594.146 63.9999 595.949 51.4034 590.923 41.076C586.316 31.6113 577.233 26.846 571.18 25.0411L565.751 43.2489ZM533.902 128.928L547.516 132.835L552.756 114.572L539.142 110.665L533.902 128.928Z"
          fill="#974533"/>
    <path d="M542.475 99.0483C495.651 117.115 494.736 48.8579 541.2 62.1899C539.715 32.7573 559.165 31.5804 568.466 34.145C577.711 36.9019 593.578 48.2124 576.714 72.3802C623.178 85.7122 586.211 143.1 556.089 102.955L550.136 123.703L536.522 119.797L542.475 99.0483Z"
          fill="#974533"/>
    <path d="M541.2 62.1899L540.648 64.1124L543.338 64.8842L543.197 62.0892L541.2 62.1899ZM542.475 99.0483L544.398 99.5999L545.507 95.735L541.755 97.1824L542.475 99.0483ZM536.522 119.797L534.599 119.245L534.048 121.168L535.97 121.719L536.522 119.797ZM568.466 34.145L569.037 32.2284C569.024 32.2245 569.011 32.2207 568.997 32.217L568.466 34.145ZM576.714 72.3802L575.074 71.2357L573.472 73.5308L576.162 74.3026L576.714 72.3802ZM556.089 102.955L557.689 101.754L555.276 98.5381L554.167 102.403L556.089 102.955ZM550.136 123.703L549.584 125.626L551.507 126.177L552.058 124.255L550.136 123.703ZM541.751 60.2675C529.693 56.8076 520.355 58.5587 514.02 63.2591C507.724 67.9311 504.706 75.2964 504.855 82.4362C505.004 89.5784 508.331 96.6813 514.941 100.74C521.573 104.813 531.103 105.58 543.195 100.914L541.755 97.1824C530.436 101.55 522.291 100.56 517.034 97.3318C511.756 94.0906 508.979 88.35 508.854 82.3528C508.729 76.3532 511.267 70.2832 516.404 66.4713C521.503 62.6877 529.474 60.9063 540.648 64.1124L541.751 60.2675ZM540.553 98.4967L534.599 119.245L538.444 120.348L544.398 99.5999L540.553 98.4967ZM568.997 32.217C564.044 30.8512 556.217 30.414 549.728 34.4729C543.067 38.6389 538.437 47.1301 539.202 62.2907L543.197 62.0892C542.477 47.8171 546.83 41.0035 551.849 37.8641C557.039 34.6176 563.587 34.8743 567.934 36.0731L568.997 32.217ZM576.162 74.3026C587.336 77.5087 593.15 83.2457 595.467 89.1571C597.801 95.1128 596.735 101.605 593.448 106.626C590.162 111.644 584.764 115.039 578.57 114.988C572.401 114.938 564.971 111.459 557.689 101.754L554.49 104.155C562.269 114.523 570.755 118.925 578.537 118.988C586.294 119.052 592.881 114.793 596.794 108.817C600.706 102.842 602.052 94.9969 599.191 87.6974C596.313 80.3536 589.324 73.9177 577.265 70.4578L576.162 74.3026ZM554.167 102.403L548.213 123.152L552.058 124.255L558.012 103.506L554.167 102.403ZM567.894 36.0616C572.216 37.3503 577.903 40.6043 580.583 46.1088C583.173 51.4316 583.251 59.5166 575.074 71.2357L578.354 73.5247C587.041 61.076 587.617 51.4218 584.179 44.3582C580.83 37.4763 573.961 33.6966 569.037 32.2284L567.894 36.0616ZM535.97 121.719L549.584 125.626L550.687 121.781L537.073 117.874L535.97 121.719Z"
          fill="white"/>
    <circle cx="279.273" cy="70.9758" r="9" fill="#974533"/>
    <circle cx="118.273" cy="112.976" r="8" fill="#974533"/>
    <path d="M64.4699 143.782C99.3292 148.88 89.0422 101.872 59.4486 118.276C55.757 97.8351 42.2885 100.062 36.3482 103.274C30.4763 106.61 21.4507 116.851 36.8289 130.814C7.23535 147.218 41.6497 180.853 55.7988 148.589L63.1807 161.906L71.8517 157.099L64.4699 143.782Z"
          fill="white"/>
    <path d="M59.4486 118.276L64.0543 126.584L52.4566 133.013L50.0999 119.964L59.4486 118.276ZM64.4699 143.782L56.161 148.388L46.8583 131.605L65.8446 134.382L64.4699 143.782ZM71.8517 157.099L80.1606 152.494L84.7663 160.803L76.4574 165.408L71.8517 157.099ZM36.3482 103.274L31.656 95.0138C31.7135 94.9811 31.7714 94.9491 31.8296 94.9176L36.3482 103.274ZM36.8289 130.814L43.2149 123.78L53.0323 132.694L41.4346 139.123L36.8289 130.814ZM55.7988 148.589L47.0986 144.773L54.805 127.2L64.1077 143.983L55.7988 148.589ZM63.1807 161.906L67.7864 170.215L59.4775 174.82L54.8718 166.511L63.1807 161.906ZM54.8429 109.967C64.1766 104.793 73.5282 103.87 81.4538 107.365C89.1575 110.763 93.9131 117.669 95.4242 124.827C96.9373 131.994 95.3638 140.338 89.2302 146.398C83.0053 152.549 73.7586 154.742 63.0951 153.182L65.8446 134.382C72.6107 135.372 75.1505 133.6 75.8761 132.883C76.6931 132.076 77.2344 130.648 76.8339 128.751C76.4315 126.845 75.2453 125.393 73.7864 124.75C72.5493 124.204 69.5174 123.556 64.0543 126.584L54.8429 109.967ZM72.7787 139.176L80.1606 152.494L63.5428 161.705L56.161 148.388L72.7787 139.176ZM31.8296 94.9176C36.1303 92.5921 43.8613 90.1373 51.8746 92.9366C60.7658 96.0425 66.5799 104.309 68.7974 116.587L50.0999 119.964C48.6258 111.802 45.8598 110.961 45.6087 110.874C44.4798 110.479 42.5064 110.744 40.8668 111.631L31.8296 94.9176ZM41.4346 139.123C35.9715 142.151 34.9142 145.065 34.7213 146.404C34.4939 147.982 35.0968 149.757 36.5001 151.109C37.8966 152.454 39.3939 152.751 40.5115 152.486C41.504 152.25 44.3523 151.036 47.0986 144.773L64.499 152.404C60.1707 162.274 53.4114 168.953 44.8966 170.973C36.5069 172.963 28.5972 169.876 23.3206 164.795C18.0509 159.72 14.7147 152.027 15.9156 143.694C17.1511 135.12 22.8895 127.679 32.2232 122.505L41.4346 139.123ZM64.1077 143.983L71.4896 157.3L54.8718 166.511L47.4899 153.194L64.1077 143.983ZM41.0405 111.534C39.4198 112.455 38.1495 113.988 37.8857 115.155C37.8271 115.414 37.074 118.205 43.2149 123.78L30.443 137.847C21.2055 129.46 17.2762 120.149 19.3538 110.963C21.2262 102.684 27.4048 97.4287 31.656 95.0138L41.0405 111.534ZM76.4574 165.408L67.7864 170.215L58.575 153.597L67.246 148.79L76.4574 165.408Z"
          fill="#974533"/>
    <path d="M64.4699 143.782C99.3292 148.88 89.0422 101.872 59.4486 118.276C55.757 97.8351 42.2885 100.062 36.3482 103.274C30.4763 106.61 21.4507 116.851 36.8289 130.814C7.23535 147.218 41.6497 180.853 55.7988 148.589L63.1807 161.906L71.8517 157.099L64.4699 143.782Z"
          fill="#974533"/>
    <path d="M59.4486 118.276L60.4183 120.025L57.9766 121.378L57.4805 118.631L59.4486 118.276ZM64.4699 143.782L62.7206 144.752L60.7622 141.219L64.7593 141.803L64.4699 143.782ZM71.8517 157.099L73.601 156.13L74.5706 157.879L72.8213 158.849L71.8517 157.099ZM36.3482 103.274L35.3604 101.535C35.3725 101.528 35.3847 101.521 35.3969 101.515L36.3482 103.274ZM36.8289 130.814L38.1733 129.333L40.2402 131.21L37.7985 132.563L36.8289 130.814ZM55.7988 148.589L53.9672 147.785L55.5896 144.086L57.5481 147.619L55.7988 148.589ZM63.1807 161.906L64.1503 163.655L62.4011 164.625L61.4314 162.875L63.1807 161.906ZM58.479 116.526C66.2848 112.2 73.1418 111.896 78.4272 114.228C83.6658 116.538 87.0125 121.291 88.086 126.376C89.1598 131.463 87.9938 137.077 83.9589 141.063C79.9047 145.069 73.3055 147.096 64.1804 145.761L64.7593 141.803C73.0639 143.018 78.2511 141.08 81.1475 138.218C84.0631 135.337 85.0119 131.18 84.1722 127.202C83.3322 123.223 80.737 119.618 76.813 117.887C72.9357 116.177 67.4092 116.15 60.4183 120.025L58.479 116.526ZM66.2191 142.812L73.601 156.13L70.1025 158.069L62.7206 144.752L66.2191 142.812ZM35.3969 101.515C38.6472 99.7573 44.1055 98.1671 49.4013 100.017C54.8819 101.932 59.4927 107.267 61.4168 117.92L57.4805 118.631C55.7129 108.844 51.7438 105.072 48.0821 103.793C44.2357 102.45 39.9895 103.579 37.2995 105.033L35.3969 101.515ZM37.7985 132.563C30.8076 136.438 27.9024 141.14 27.298 145.334C26.6863 149.579 28.3682 153.69 31.2977 156.511C34.2258 159.331 38.2543 160.729 42.2424 159.783C46.2043 158.844 50.5964 155.472 53.9672 147.785L57.6304 149.392C53.9266 157.837 48.7111 162.36 43.1656 163.675C37.6465 164.985 32.268 162.999 28.5231 159.392C24.7796 155.787 22.5223 150.431 23.3389 144.763C24.1628 139.046 28.0535 133.391 35.8593 129.065L37.7985 132.563ZM57.5481 147.619L64.9299 160.936L61.4314 162.875L54.0496 149.558L57.5481 147.619ZM37.3361 105.013C34.677 106.524 31.4693 109.526 30.5705 113.5C29.7149 117.283 30.8102 122.648 38.1733 129.333L35.4845 132.295C27.4694 125.017 25.3884 118.28 26.669 112.618C27.9065 107.146 32.1475 103.36 35.3604 101.535L37.3361 105.013ZM72.8213 158.849L64.1503 163.655L62.2111 160.157L70.8821 155.35L72.8213 158.849Z"
          fill="white"/>
    <path d="M206.785 94.5648C253.673 112.857 254.448 44.1144 207.986 57.4459C209.41 27.8061 189.947 26.5808 180.647 29.1445C171.402 31.902 155.55 43.2606 172.473 67.6357C126.011 80.9672 163.116 138.841 193.172 98.471L199.171 119.38L212.785 115.474L206.785 94.5648Z"
          fill="white"/>
    <path d="M207.986 57.4459L210.606 66.5774L197.86 70.2346L198.497 56.9898L207.986 57.4459ZM206.785 94.5648L197.654 97.185L192.361 78.7404L210.238 85.7145L206.785 94.5648ZM212.785 115.474L221.916 112.854L224.536 121.985L215.405 124.605L212.785 115.474ZM180.647 29.1445L177.931 20.0409C177.995 20.0219 178.058 20.0037 178.122 19.9861L180.647 29.1445ZM172.473 67.6357L180.276 62.2178L187.839 73.1101L175.093 76.7673L172.473 67.6357ZM193.172 98.471L185.552 92.7978L197.011 77.4063L202.303 95.8509L193.172 98.471ZM199.171 119.38L201.791 128.512L192.66 131.132L190.04 122L199.171 119.38ZM205.366 48.3143C219.108 44.3711 231.027 46.1129 239.682 52.586C248.144 58.9138 252.063 68.7431 251.89 78.0427C251.716 87.3519 247.395 97.0669 238.275 102.693C229.044 108.386 216.889 108.704 203.333 103.415L210.238 85.7145C220.125 89.5717 225.65 88.1562 228.3 86.5215C231.059 84.8194 232.82 81.6118 232.893 77.6883C232.967 73.7552 231.299 70.0419 228.303 67.8016C225.502 65.7065 220.094 63.8549 210.606 66.5774L205.366 48.3143ZM215.917 91.9447L221.916 112.854L203.653 118.094L197.654 97.185L215.917 91.9447ZM178.122 19.9861C184.231 18.3022 194.473 17.5478 203.407 23.1842C213.127 29.3166 218.288 40.9933 217.475 57.902L198.497 56.9898C199.109 44.2586 195.249 40.5028 193.269 39.2536C190.503 37.5082 186.363 37.4231 183.171 38.3029L178.122 19.9861ZM175.093 76.7673C165.605 79.4898 162.002 83.927 160.737 87.1886C159.385 90.6764 159.94 94.709 162.088 98.0048C164.23 101.293 167.423 103.079 170.666 103.059C173.779 103.04 179.214 101.31 185.552 92.7978L200.792 104.144C192.102 115.816 181.628 121.992 170.783 122.058C160.067 122.125 151.252 116.178 146.169 108.378C141.091 100.585 139.203 90.1727 143.022 80.3212C146.928 70.2437 156.11 62.4474 169.853 58.5042L175.093 76.7673ZM202.303 95.8509L208.303 116.76L190.04 122L184.04 101.091L202.303 95.8509ZM183.362 38.2482C180.189 39.1945 176.725 41.4616 175.305 44.4082C174.288 46.5173 173.007 51.748 180.276 62.2178L164.669 73.0537C155.015 59.1484 153.199 46.5122 158.189 36.1589C162.775 26.643 171.859 21.852 177.931 20.0409L183.362 38.2482ZM215.405 124.605L201.791 128.512L196.551 110.248L210.165 106.342L215.405 124.605Z"
          fill="#974533"/>
    <path d="M206.785 94.5648C253.673 112.857 254.448 44.1144 207.986 57.4459C209.41 27.8061 189.947 26.5808 180.647 29.1445C171.402 31.902 155.55 43.2606 172.473 67.6357C126.011 80.9672 163.116 138.841 193.172 98.471L199.171 119.38L212.785 115.474L206.785 94.5648Z"
          fill="#974533"/>
    <path d="M207.986 57.4459L208.537 59.3683L205.854 60.1382L205.988 57.3498L207.986 57.4459ZM206.785 94.5648L204.863 95.1164L203.749 91.2334L207.512 92.7016L206.785 94.5648ZM212.785 115.474L214.707 114.922L215.259 116.845L213.336 117.396L212.785 115.474ZM180.647 29.1445L180.075 27.2279C180.088 27.224 180.102 27.2201 180.115 27.2164L180.647 29.1445ZM172.473 67.6357L174.116 66.4951L175.708 68.7882L173.025 69.5582L172.473 67.6357ZM193.172 98.471L191.568 97.2767L193.98 94.0363L195.094 97.9194L193.172 98.471ZM199.171 119.38L199.723 121.302L197.8 121.854L197.249 119.932L199.171 119.38ZM207.434 55.5234C219.497 52.0621 228.846 53.8473 235.191 58.5921C241.494 63.3064 244.525 70.7216 244.391 77.9028C244.257 85.086 240.947 92.2324 234.337 96.3094C227.704 100.401 218.167 101.152 206.058 96.4281L207.512 92.7016C218.848 97.1239 226.99 96.1417 232.237 92.9049C237.508 89.6539 240.279 83.8776 240.392 77.8282C240.505 71.7768 237.948 65.6492 232.795 61.7954C227.683 57.9722 219.705 56.1639 208.537 59.3683L207.434 55.5234ZM208.708 94.0132L214.707 114.922L210.862 116.025L204.863 95.1164L208.708 94.0132ZM180.115 27.2164C185.072 25.8499 192.906 25.4269 199.405 29.5274C206.07 33.7322 210.717 42.2822 209.984 57.5419L205.988 57.3498C206.679 42.9697 202.307 36.0872 197.271 32.9104C192.07 29.6291 185.521 29.8754 181.178 31.0726L180.115 27.2164ZM173.025 69.5582C161.857 72.7625 156.052 78.5257 153.744 84.4778C151.418 90.4775 152.5 97.0284 155.804 102.099C159.107 107.169 164.519 110.597 170.712 110.559C176.877 110.521 184.301 107.036 191.568 97.2767L194.776 99.6654C187.015 110.09 178.53 114.511 170.737 114.559C162.971 114.606 156.375 110.302 152.453 104.283C148.531 98.2655 147.17 90.3715 150.015 83.032C152.878 75.645 159.858 69.1747 171.921 65.7133L173.025 69.5582ZM195.094 97.9194L201.094 118.828L197.249 119.932L191.249 99.0226L195.094 97.9194ZM181.218 31.0611C176.901 32.3488 171.218 35.6121 168.548 41.1519C165.963 46.5153 165.905 54.6692 174.116 66.4951L170.83 68.7764C162.117 56.2272 161.524 46.5142 164.945 39.4152C168.282 32.4924 175.147 28.6977 180.075 27.2279L181.218 31.0611ZM213.336 117.396L199.723 121.302L198.62 117.458L212.233 113.551L213.336 117.396Z"
          fill="white"/>
</svg>
