<svg width="750" height="190" viewBox="0 0 750 190" fill="none" xmlns="http://www.w3.org/2000/svg">
    <path d="M366.064 92.9372C319.481 129.151 296.547 50.9865 352.806 50.9865C341.697 17.6411 363.079 9.87256 374.307 9.75293C385.534 9.87256 406.915 17.6411 395.807 50.9865C452.066 50.9865 429.132 129.151 382.548 92.9372V118.753H366.064V92.9372Z"
          fill="white"/>
    <path d="M352.806 50.9865V60.4865H365.984L361.819 47.984L352.806 50.9865ZM366.064 92.9372H375.564V73.519L360.234 85.4369L366.064 92.9372ZM366.064 118.753H356.564V128.253H366.064V118.753ZM374.307 9.75293L374.408 0.253469C374.34 0.25275 374.273 0.25275 374.205 0.253469L374.307 9.75293ZM395.807 50.9865L386.794 47.984L382.629 60.4865H395.807V50.9865ZM382.548 92.9372L388.379 85.4369L373.048 73.519V92.9372H382.548ZM382.548 118.753V128.253H392.048V118.753H382.548ZM352.806 41.4865C336.46 41.4865 324.189 47.2661 316.972 56.9614C309.924 66.4295 308.755 78.2648 311.773 88.2828C314.793 98.3038 322.345 107.515 333.818 110.794C345.439 114.115 358.692 110.702 371.895 100.437L360.234 85.4369C350.145 93.2796 343.062 93.6754 339.039 92.5258C334.869 91.3341 331.47 87.7946 329.965 82.8013C328.46 77.8049 329.194 72.3624 332.213 68.3064C335.063 64.4775 341.023 60.4865 352.806 60.4865V41.4865ZM356.564 92.9372V118.753H375.564V92.9372H356.564ZM374.205 0.253469C367.026 0.329961 355.805 2.77053 348.031 11.6538C339.694 21.1808 337.595 35.3834 343.793 53.989L361.819 47.984C356.909 33.2442 359.946 26.8898 362.329 24.1663C365.276 20.799 370.359 19.2955 374.408 19.2524L374.205 0.253469ZM395.807 60.4865C407.59 60.4865 413.55 64.4775 416.4 68.3064C419.419 72.3624 420.153 77.8049 418.648 82.8013C417.143 87.7946 413.744 91.3341 409.574 92.5258C405.551 93.6754 398.468 93.2796 388.379 85.4369L376.718 100.437C389.921 110.702 403.174 114.115 414.794 110.794C426.268 107.515 433.82 98.3038 436.84 88.2828C439.858 78.2648 438.689 66.4295 431.641 56.9614C424.424 47.2661 412.153 41.4865 395.807 41.4865V60.4865ZM373.048 92.9372V118.753H392.048V92.9372H373.048ZM374.205 19.2524C378.254 19.2955 383.337 20.799 386.284 24.1662C388.667 26.8898 391.704 33.2441 386.794 47.984L404.82 53.989C411.018 35.3835 408.919 21.1809 400.582 11.6539C392.808 2.77053 381.587 0.329961 374.408 0.253469L374.205 19.2524ZM366.064 128.253H382.548V109.253H366.064V128.253Z"
          fill="white"/>
    <path d="M366.064 92.9372C319.481 129.151 296.547 50.9865 352.806 50.9865C341.697 17.6411 363.079 9.87256 374.307 9.75293C385.534 9.87256 406.915 17.6411 395.807 50.9865C452.066 50.9865 429.132 129.151 382.548 92.9372V118.753H366.064V92.9372Z"
          fill="white"/>
    <path d="M352.806 50.9865V52.9865H355.58L354.703 50.3544L352.806 50.9865ZM366.064 92.9372H368.064V88.8492L364.837 91.3582L366.064 92.9372ZM366.064 118.753H364.064V120.753H366.064V118.753ZM374.307 9.75293L374.328 7.75304C374.314 7.75289 374.299 7.75289 374.285 7.75304L374.307 9.75293ZM395.807 50.9865L393.91 50.3544L393.033 52.9865H395.807V50.9865ZM382.548 92.9372L383.776 91.3582L380.548 88.8492V92.9372H382.548ZM382.548 118.753V120.753H384.548V118.753H382.548ZM352.806 48.9865C338.261 48.9865 328.481 54.0601 322.988 61.4397C317.531 68.7714 316.533 78.0832 318.954 86.119C321.376 94.1555 327.289 101.128 335.879 103.583C344.501 106.047 355.318 103.825 367.292 94.5162L364.837 91.3582C353.519 100.157 344 101.744 336.978 99.7371C329.925 97.7215 324.887 91.943 322.784 84.965C320.681 77.9864 321.587 70.0205 326.197 63.8281C330.771 57.6835 339.221 52.9865 352.806 52.9865V48.9865ZM364.064 92.9372V118.753H368.064V92.9372H364.064ZM374.285 7.75304C368.342 7.81637 359.543 9.88705 353.675 16.5929C347.688 23.4344 345.219 34.539 350.908 51.6186L354.703 50.3544C349.285 34.0886 351.952 24.6363 356.685 19.2271C361.537 13.6825 369.043 11.8091 374.328 11.7528L374.285 7.75304ZM395.807 52.9865C409.391 52.9865 417.842 57.6835 422.416 63.8281C427.025 70.0205 427.931 77.9864 425.829 84.965C423.726 91.943 418.687 97.7215 411.634 99.7371C404.612 101.744 395.094 100.157 383.776 91.3582L381.321 94.5162C393.295 103.825 404.112 106.047 412.734 103.583C421.324 101.128 427.237 94.1555 429.659 86.119C432.08 78.0832 431.082 68.7714 425.625 61.4397C420.132 54.0601 410.352 48.9865 395.807 48.9865V52.9865ZM380.548 92.9372V118.753H384.548V92.9372H380.548ZM374.285 11.7528C379.57 11.8091 387.076 13.6825 391.928 19.2271C396.661 24.6362 399.328 34.0886 393.91 50.3544L397.704 51.6186C403.394 34.539 400.925 23.4344 394.938 16.593C389.07 9.88705 380.271 7.81637 374.328 7.75304L374.285 11.7528ZM366.064 120.753H382.548V116.753H366.064V120.753Z"
          fill="white"/>
    <circle cx="9" cy="9" r="9" transform="matrix(-1 0 0 1 478.999 67.6929)" fill="black"/>
    <circle cx="8" cy="8" r="8" transform="matrix(-1 0 0 1 638.999 110.693)" fill="black"/>
    <path d="M684.189 149.97C649.331 155.07 659.62 108.061 689.211 124.463C692.903 104.023 706.371 106.249 712.311 109.461C718.182 112.797 727.207 123.038 711.829 137.001C741.421 153.404 707.007 187.04 692.86 154.776L685.478 168.094L676.807 163.287L684.189 149.97Z"
          fill="white"/>
    <path d="M689.211 124.463L684.605 132.772L696.203 139.201L698.56 126.152L689.211 124.463ZM684.189 149.97L692.498 154.576L701.801 137.792L682.814 140.57L684.189 149.97ZM676.807 163.287L668.498 158.682L663.893 166.991L672.202 171.596L676.807 163.287ZM712.311 109.461L717.003 101.201C716.946 101.168 716.888 101.136 716.83 101.105L712.311 109.461ZM711.829 137.001L705.443 129.968L695.626 138.881L707.224 145.31L711.829 137.001ZM692.86 154.776L701.56 150.961L693.854 133.387L684.551 150.17L692.86 154.776ZM685.478 168.094L680.872 176.402L689.181 181.008L693.787 172.699L685.478 168.094ZM693.817 116.155C684.483 110.981 675.132 110.058 667.207 113.554C659.503 116.952 654.748 123.858 653.237 131.016C651.723 138.183 653.296 146.526 659.43 152.587C665.655 158.738 674.901 160.93 685.564 159.37L682.814 140.57C676.048 141.56 673.509 139.788 672.784 139.072C671.968 138.265 671.426 136.838 671.827 134.94C672.229 133.034 673.416 131.582 674.875 130.938C676.112 130.392 679.143 129.745 684.605 132.772L693.817 116.155ZM675.88 145.364L668.498 158.682L685.116 167.893L692.498 154.576L675.88 145.364ZM716.83 101.105C712.529 98.7792 704.798 96.3247 696.785 99.1243C687.894 102.231 682.08 110.497 679.862 122.775L698.56 126.152C700.034 117.99 702.8 117.149 703.051 117.061C704.18 116.667 706.153 116.931 707.792 117.818L716.83 101.105ZM707.224 145.31C712.686 148.338 713.743 151.252 713.936 152.59C714.163 154.168 713.56 155.944 712.157 157.296C710.76 158.641 709.263 158.938 708.146 158.673C707.154 158.438 704.306 157.223 701.56 150.961L684.159 158.591C688.487 168.461 695.246 175.141 703.761 177.16C712.151 179.15 720.06 176.062 725.336 170.981C730.606 165.906 733.942 158.214 732.742 149.881C731.506 141.307 725.768 133.866 716.435 128.692L707.224 145.31ZM684.551 150.17L677.169 163.488L693.787 172.699L701.169 159.382L684.551 150.17ZM707.619 117.722C709.239 118.642 710.509 120.175 710.773 121.341C710.831 121.6 711.584 124.392 705.443 129.968L718.215 144.034C727.453 135.647 731.382 126.336 729.305 117.15C727.433 108.871 721.254 103.616 717.003 101.201L707.619 117.722ZM672.202 171.596L680.872 176.402L690.083 159.785L681.413 154.979L672.202 171.596Z"
          fill="white"/>
    <path d="M684.189 149.97C649.331 155.07 659.62 108.061 689.211 124.463C692.903 104.023 706.371 106.249 712.311 109.461C718.182 112.797 727.207 123.038 711.829 137.001C741.421 153.404 707.007 187.04 692.86 154.776L685.478 168.094L676.807 163.287L684.189 149.97Z"
          fill="white"/>
    <path d="M689.211 124.463L688.242 126.213L690.683 127.566L691.179 124.819L689.211 124.463ZM684.189 149.97L685.939 150.94L687.897 147.406L683.9 147.991L684.189 149.97ZM676.807 163.287L675.058 162.318L674.088 164.067L675.838 165.037L676.807 163.287ZM712.311 109.461L713.299 107.722C713.287 107.715 713.275 107.709 713.262 107.702L712.311 109.461ZM711.829 137.001L710.485 135.52L708.418 137.397L710.86 138.75L711.829 137.001ZM692.86 154.776L694.691 153.973L693.069 150.273L691.11 153.807L692.86 154.776ZM685.478 168.094L684.508 169.843L686.257 170.812L687.227 169.063L685.478 168.094ZM690.181 122.714C682.375 118.388 675.519 118.085 670.234 120.416C664.995 122.727 661.648 127.48 660.575 132.565C659.501 137.652 660.667 143.265 664.701 147.252C668.755 151.258 675.354 153.284 684.479 151.949L683.9 147.991C675.596 149.206 670.409 147.268 667.513 144.407C664.597 141.526 663.649 137.369 664.489 133.391C665.329 129.412 667.924 125.807 671.848 124.076C675.725 122.366 681.251 122.338 688.242 126.213L690.181 122.714ZM682.44 149L675.058 162.318L678.557 164.257L685.939 150.94L682.44 149ZM713.262 107.702C710.012 105.945 704.554 104.354 699.259 106.205C693.778 108.119 689.167 113.454 687.243 124.108L691.179 124.819C692.947 115.032 696.916 111.26 700.578 109.981C704.424 108.637 708.67 109.766 711.36 111.221L713.262 107.702ZM710.86 138.75C717.85 142.625 720.755 147.326 721.359 151.52C721.971 155.765 720.289 159.877 717.359 162.698C714.431 165.518 710.403 166.916 706.415 165.971C702.453 165.031 698.062 161.659 694.691 153.973L691.028 155.579C694.731 164.025 699.947 168.547 705.492 169.863C711.011 171.172 716.389 169.185 720.134 165.579C723.877 161.974 726.135 156.617 725.318 150.95C724.495 145.233 720.604 139.578 712.799 135.252L710.86 138.75ZM691.11 153.807L683.728 167.124L687.227 169.063L694.609 155.746L691.11 153.807ZM711.323 111.2C713.982 112.711 717.189 115.713 718.088 119.687C718.943 123.47 717.848 128.835 710.485 135.52L713.174 138.482C721.189 131.204 723.27 124.467 721.989 118.805C720.752 113.333 716.511 109.547 713.299 107.722L711.323 111.2ZM675.838 165.037L684.508 169.843L686.447 166.344L677.777 161.538L675.838 165.037Z"
          fill="white"/>
    <path d="M542.475 100.237C495.651 118.303 494.736 50.0461 541.2 63.3782C539.715 33.9455 559.165 32.7687 568.466 35.3333C577.711 38.0901 593.578 49.4006 576.714 73.5684C623.178 86.9005 586.211 144.288 556.089 104.143L550.136 124.891L536.522 120.985L542.475 100.237Z"
          fill="white"/>
    <path d="M541.2 63.3782L538.579 72.5097L551.357 76.176L550.688 62.8996L541.2 63.3782ZM542.475 100.237L551.607 102.857L556.875 84.4983L539.056 91.3734L542.475 100.237ZM536.522 120.985L527.39 118.365L524.77 127.496L533.902 130.117L536.522 120.985ZM568.466 35.3333L571.181 26.2294C571.118 26.2106 571.054 26.1925 570.991 26.175L568.466 35.3333ZM576.714 73.5684L568.923 68.1321L561.316 79.0336L574.094 82.7L576.714 73.5684ZM556.089 104.143L563.688 98.4413L552.226 83.1643L546.958 101.523L556.089 104.143ZM550.136 124.891L547.516 134.023L556.647 136.643L559.267 127.512L550.136 124.891ZM543.82 54.2466C530.103 50.3107 518.202 52.0051 509.551 58.4244C501.082 64.7091 497.163 74.503 497.356 83.7807C497.55 93.0697 501.909 102.727 511.017 108.32C520.227 113.975 532.353 114.325 545.895 109.1L539.056 91.3734C529.185 95.1816 523.638 93.7737 520.959 92.1288C518.178 90.4213 516.433 87.2351 516.352 83.3848C516.272 79.5231 517.91 75.8817 520.873 73.6824C523.656 71.6178 529.065 69.7796 538.579 72.5097L543.82 54.2466ZM533.344 97.6164L527.39 118.365L545.653 123.605L551.607 102.857L533.344 97.6164ZM570.991 26.175C564.902 24.4961 554.675 23.7204 545.75 29.3026C536.013 35.3936 530.863 47.03 531.712 63.8567L550.688 62.8996C550.052 50.2936 553.885 46.6253 555.826 45.4109C558.581 43.6876 562.729 43.6059 565.941 44.4915L570.991 26.175ZM574.094 82.7C583.608 85.43 587.22 89.8565 588.484 93.0823C589.831 96.5183 589.289 100.474 587.173 103.706C585.064 106.928 581.894 108.704 578.631 108.677C575.488 108.651 570.038 106.904 563.688 98.4413L548.491 109.844C557.202 121.455 567.668 127.588 578.476 127.676C589.164 127.764 597.98 121.886 603.069 114.113C608.152 106.35 610.023 95.9679 606.174 86.1488C602.243 76.1193 593.051 68.3728 579.334 64.4369L574.094 82.7ZM546.958 101.523L541.004 122.271L559.267 127.512L565.221 106.763L546.958 101.523ZM565.751 44.4371C568.944 45.3891 572.417 47.6575 573.839 50.5793C574.841 52.6383 576.146 57.781 568.923 68.1321L584.505 79.0048C594.146 65.1881 595.95 52.5916 590.923 42.2642C586.316 32.7995 577.233 28.0343 571.181 26.2294L565.751 44.4371ZM533.902 130.117L547.516 134.023L552.756 115.76L539.142 111.854L533.902 130.117Z"
          fill="white"/>
    <path d="M542.475 100.237C495.651 118.303 494.736 50.0461 541.2 63.3782C539.715 33.9455 559.165 32.7687 568.466 35.3333C577.711 38.0901 593.578 49.4006 576.714 73.5684C623.178 86.9005 586.211 144.288 556.089 104.143L550.136 124.891L536.522 120.985L542.475 100.237Z"
          fill="white"/>
    <path d="M541.2 63.3782L540.648 65.3006L543.338 66.0725L543.197 63.2774L541.2 63.3782ZM542.475 100.237L544.398 100.788L545.507 96.9232L541.755 98.3706L542.475 100.237ZM536.522 120.985L534.599 120.433L534.048 122.356L535.97 122.907L536.522 120.985ZM568.466 35.3333L569.037 33.4166C569.024 33.4127 569.011 33.4089 568.998 33.4052L568.466 35.3333ZM576.714 73.5684L575.074 72.4239L573.472 74.719L576.162 75.4909L576.714 73.5684ZM556.089 104.143L557.689 102.943L555.276 99.7263L554.167 103.591L556.089 104.143ZM550.136 124.891L549.584 126.814L551.507 127.365L552.058 125.443L550.136 124.891ZM541.751 61.4557C529.693 57.9958 520.355 59.747 514.021 64.4473C507.724 69.1193 504.706 76.4846 504.855 83.6244C505.004 90.7666 508.331 97.8695 514.941 101.929C521.573 106.001 531.103 106.768 543.195 102.102L541.755 98.3706C530.436 102.738 522.291 101.748 517.034 98.52C511.756 95.2788 508.979 89.5383 508.854 83.5411C508.729 77.5415 511.267 71.4714 516.404 67.6595C521.503 63.8759 529.474 62.0945 540.648 65.3006L541.751 61.4557ZM540.553 99.6849L534.599 120.433L538.444 121.537L544.398 100.788L540.553 99.6849ZM568.998 33.4052C564.044 32.0394 556.217 31.6022 549.728 35.6611C543.068 39.8272 538.437 48.3183 539.202 63.4789L543.197 63.2774C542.477 49.0054 546.83 42.1917 551.849 39.0523C557.039 35.8058 563.587 36.0625 567.934 37.2613L568.998 33.4052ZM576.162 75.4909C587.336 78.6969 593.15 84.4339 595.467 90.3453C597.801 96.3011 596.735 102.793 593.448 107.814C590.162 112.832 584.764 116.227 578.57 116.177C572.401 116.126 564.971 112.647 557.689 102.943L554.49 105.343C562.269 115.711 570.755 120.113 578.537 120.176C586.294 120.24 592.881 115.982 596.794 110.005C600.706 104.03 602.052 96.1852 599.191 88.8857C596.313 81.5419 589.324 75.1059 577.266 71.646L576.162 75.4909ZM554.167 103.591L548.213 124.34L552.058 125.443L558.012 104.694L554.167 103.591ZM567.894 37.2499C572.216 38.5385 577.904 41.7925 580.583 47.297C583.173 52.6199 583.251 60.7048 575.074 72.4239L578.354 74.7129C587.041 62.2642 587.617 52.61 584.179 45.5465C580.83 38.6645 573.961 34.8849 569.037 33.4166L567.894 37.2499ZM535.97 122.907L549.584 126.814L550.688 122.969L537.073 119.063L535.97 122.907Z"
          fill="white"/>
    <circle cx="279.273" cy="72.1641" r="9" fill="black"/>
    <circle cx="118.273" cy="114.164" r="8" fill="black"/>
    <path d="M64.4699 144.97C99.3293 150.069 89.0423 103.06 59.4487 119.464C55.7571 99.0233 42.2886 101.25 36.3483 104.462C30.4764 107.798 21.4507 118.04 36.829 132.002C7.23541 148.406 41.6498 182.041 55.7989 149.777L63.1807 163.094L71.8518 158.288L64.4699 144.97Z"
          fill="white"/>
    <path d="M59.4487 119.464L64.0544 127.773L52.4567 134.201L50.0999 121.152L59.4487 119.464ZM64.4699 144.97L56.161 149.576L46.8583 132.794L65.8447 135.57L64.4699 144.97ZM71.8518 158.288L80.1607 153.682L84.7664 161.991L76.4575 166.596L71.8518 158.288ZM36.3483 104.462L31.656 96.2021C31.7136 96.1694 31.7714 96.1373 31.8297 96.1058L36.3483 104.462ZM36.829 132.002L43.2149 124.969L53.0324 133.882L41.4347 140.311L36.829 132.002ZM55.7989 149.777L47.0987 145.961L54.8051 128.389L64.1078 145.171L55.7989 149.777ZM63.1807 163.094L67.7864 171.403L59.4775 176.009L54.8718 167.7L63.1807 163.094ZM54.843 111.155C64.1767 105.981 73.5283 105.058 81.4538 108.554C89.1576 111.951 93.9132 118.857 95.4243 126.015C96.9374 133.183 95.3638 141.526 89.2303 147.587C83.0054 153.737 73.7587 155.93 63.0951 154.37L65.8447 135.57C72.6108 136.56 75.1505 134.788 75.8762 134.071C76.6932 133.264 77.2344 131.837 76.834 129.94C76.4316 128.033 75.2454 126.581 73.7865 125.938C72.5493 125.392 69.5175 124.744 64.0544 127.773L54.843 111.155ZM72.7788 140.365L80.1607 153.682L63.5429 162.893L56.161 149.576L72.7788 140.365ZM31.8297 96.1058C36.1304 93.7803 43.8614 91.3256 51.8747 94.1248C60.7659 97.2308 66.58 105.497 68.7975 117.775L50.0999 121.152C48.6258 112.99 45.8599 112.15 45.6088 112.062C44.4799 111.668 42.5065 111.932 40.8669 112.819L31.8297 96.1058ZM41.4347 140.311C35.9716 143.339 34.9143 146.254 34.7214 147.592C34.494 149.17 35.0969 150.946 36.5002 152.297C37.8966 153.642 39.3939 153.939 40.5115 153.674C41.5041 153.439 44.3524 152.224 47.0987 145.961L64.499 153.592C60.1708 163.462 53.4114 170.141 44.8967 172.161C36.5069 174.151 28.5973 171.064 23.3207 165.983C18.051 160.908 14.7147 153.216 15.9156 144.882C17.1511 136.308 22.8896 128.867 32.2233 123.693L41.4347 140.311ZM64.1078 145.171L71.4896 158.488L54.8718 167.7L47.49 154.382L64.1078 145.171ZM41.0405 112.723C39.4198 113.643 38.1496 115.176 37.8858 116.343C37.8271 116.602 37.0741 119.393 43.2149 124.969L30.443 139.036C21.2056 130.649 17.2763 121.337 19.3538 112.151C21.2263 103.872 27.4048 98.6169 31.656 96.2021L41.0405 112.723ZM76.4575 166.596L67.7864 171.403L58.575 154.785L67.2461 149.979L76.4575 166.596Z"
          fill="white"/>
    <path d="M64.4699 144.97C99.3293 150.069 89.0423 103.06 59.4487 119.464C55.7571 99.0233 42.2886 101.25 36.3483 104.462C30.4764 107.798 21.4507 118.04 36.829 132.002C7.23541 148.406 41.6498 182.041 55.7989 149.777L63.1807 163.094L71.8518 158.288L64.4699 144.97Z"
          fill="white"/>
    <path d="M59.4487 119.464L60.4183 121.213L57.9767 122.566L57.4805 119.819L59.4487 119.464ZM64.4699 144.97L62.7207 145.94L60.7622 142.407L64.7593 142.991L64.4699 144.97ZM71.8518 158.288L73.601 157.318L74.5706 159.067L72.8214 160.037L71.8518 158.288ZM36.3483 104.462L35.3604 102.723C35.3725 102.716 35.3847 102.71 35.397 102.703L36.3483 104.462ZM36.829 132.002L38.1734 130.521L40.2402 132.398L37.7986 133.751L36.829 132.002ZM55.7989 149.777L53.9673 148.974L55.5897 145.274L57.5481 148.807L55.7989 149.777ZM63.1807 163.094L64.1504 164.843L62.4011 165.813L61.4315 164.064L63.1807 163.094ZM58.4791 117.715C66.2849 113.388 73.1419 113.085 78.4272 115.416C83.6659 117.726 87.0125 122.479 88.086 127.564C89.1599 132.651 87.9938 138.265 83.9589 142.252C79.9048 146.257 73.3056 148.284 64.1805 146.949L64.7593 142.991C73.0639 144.206 78.2511 142.268 81.1475 139.406C84.0632 136.525 85.0119 132.368 84.1723 128.391C83.3322 124.411 80.737 120.806 76.8131 119.076C72.9358 117.366 67.4093 117.338 60.4183 121.213L58.4791 117.715ZM66.2192 144.001L73.601 157.318L70.1025 159.257L62.7207 145.94L66.2192 144.001ZM35.397 102.703C38.6473 100.946 44.1055 99.3553 49.4013 101.205C54.8819 103.12 59.4928 108.455 61.4169 119.108L57.4805 119.819C55.713 110.032 51.7438 106.261 48.0822 104.981C44.2357 103.638 39.9896 104.767 37.2996 106.222L35.397 102.703ZM37.7986 133.751C30.8076 137.627 27.9025 142.328 27.2981 146.522C26.6864 150.767 28.3682 154.878 31.2978 157.699C34.2258 160.519 38.2543 161.918 42.2425 160.972C46.2044 160.032 50.5965 156.66 53.9673 148.974L57.6305 150.58C53.9267 159.026 48.7112 163.548 43.1657 164.864C37.6465 166.173 32.2681 164.187 28.5231 160.581C24.7796 156.976 22.5223 151.619 23.339 145.952C24.1629 140.234 28.0535 134.58 35.8594 130.253L37.7986 133.751ZM57.5481 148.807L64.93 162.124L61.4315 164.064L54.0496 150.746L57.5481 148.807ZM37.3361 106.201C34.6771 107.712 31.4693 110.714 30.5706 114.688C29.7149 118.471 30.8102 123.836 38.1734 130.521L35.4846 133.483C27.4695 126.206 25.3885 119.468 26.6691 113.806C27.9065 108.335 32.1476 104.548 35.3604 102.723L37.3361 106.201ZM72.8214 160.037L64.1504 164.843L62.2111 161.345L70.8822 156.538L72.8214 160.037Z"
          fill="white"/>
    <path d="M206.785 95.7531C253.673 114.045 254.448 45.3026 207.986 58.6341C209.41 28.9943 189.947 27.769 180.647 30.3327C171.402 33.0903 155.549 44.4488 172.473 68.824C126.011 82.1555 163.116 140.029 193.172 99.6593L199.171 120.568L212.785 116.662L206.785 95.7531Z"
          fill="white"/>
    <path d="M207.986 58.6341L210.606 67.7656L197.86 71.4228L198.497 58.178L207.986 58.6341ZM206.785 95.7531L197.654 98.3732L192.361 79.9286L210.238 86.9027L206.785 95.7531ZM212.785 116.662L221.916 114.042L224.536 123.173L215.405 125.794L212.785 116.662ZM180.647 30.3327L177.931 21.2291C177.995 21.2102 178.058 21.1919 178.122 21.1743L180.647 30.3327ZM172.473 68.824L180.276 63.406L187.839 74.2983L175.093 77.9555L172.473 68.824ZM193.172 99.6593L185.552 93.9861L197.011 78.5945L202.303 97.0391L193.172 99.6593ZM199.171 120.568L201.791 129.7L192.66 132.32L190.04 123.188L199.171 120.568ZM205.366 49.5026C219.108 45.5594 231.027 47.3012 239.682 53.7742C248.144 60.102 252.063 69.9314 251.89 79.231C251.716 88.5401 247.395 98.2551 238.274 103.881C229.044 109.574 216.889 109.892 203.333 104.603L210.238 86.9027C220.125 90.7599 225.65 89.3444 228.3 87.7098C231.059 86.0077 232.82 82.8 232.893 78.8765C232.967 74.9434 231.299 71.2301 228.303 68.9898C225.502 66.8948 220.094 65.0431 210.606 67.7656L205.366 49.5026ZM215.917 93.1329L221.916 114.042L203.653 119.282L197.654 98.3732L215.917 93.1329ZM178.122 21.1743C184.231 19.4905 194.473 18.7361 203.407 24.3724C213.127 30.5048 218.288 42.1815 217.475 59.0902L198.497 58.178C199.109 45.4469 195.249 41.691 193.269 40.4418C190.503 38.6965 186.363 38.6113 183.171 39.4911L178.122 21.1743ZM175.093 77.9555C165.605 80.678 162.002 85.1152 160.737 88.3769C159.385 91.8646 159.94 95.8972 162.088 99.193C164.23 102.481 167.423 104.267 170.666 104.247C173.779 104.228 179.214 102.499 185.552 93.9861L200.792 105.332C192.102 117.005 181.628 123.18 170.783 123.247C160.066 123.313 151.252 117.367 146.169 109.566C141.091 101.773 139.203 91.3609 143.022 81.5095C146.928 71.432 156.11 63.6356 169.853 59.6924L175.093 77.9555ZM202.303 97.0391L208.303 117.948L190.04 123.188L184.04 102.279L202.303 97.0391ZM183.362 39.4364C180.189 40.3828 176.725 42.6498 175.305 45.5964C174.288 47.7055 173.007 52.9362 180.276 63.406L164.669 74.2419C155.015 60.3366 153.199 47.7004 158.189 37.3471C162.775 27.8312 171.859 23.0402 177.931 21.2291L183.362 39.4364ZM215.405 125.794L201.791 129.7L196.551 111.437L210.165 107.53L215.405 125.794Z"
          fill="white"/>
    <path d="M206.785 95.7531C253.673 114.045 254.448 45.3026 207.986 58.6341C209.41 28.9943 189.947 27.769 180.647 30.3327C171.402 33.0903 155.549 44.4488 172.473 68.824C126.011 82.1555 163.116 140.029 193.172 99.6593L199.171 120.568L212.785 116.662L206.785 95.7531Z"
          fill="white"/>
    <path d="M207.986 58.6341L208.537 60.5565L205.854 61.3265L205.988 58.5381L207.986 58.6341ZM206.785 95.7531L204.863 96.3047L203.749 92.4216L207.512 93.8898L206.785 95.7531ZM212.785 116.662L214.707 116.11L215.259 118.033L213.336 118.584L212.785 116.662ZM180.647 30.3327L180.075 28.4162C180.088 28.4122 180.102 28.4084 180.115 28.4047L180.647 30.3327ZM172.473 68.824L174.116 67.6833L175.708 69.9765L173.024 70.7464L172.473 68.824ZM193.172 99.6593L191.568 98.4649L193.98 95.2246L195.094 99.1076L193.172 99.6593ZM199.171 120.568L199.723 122.491L197.8 123.042L197.249 121.12L199.171 120.568ZM207.434 56.7117C219.497 53.2503 228.846 55.0355 235.191 59.7804C241.494 64.4947 244.525 71.9098 244.391 79.091C244.257 86.2743 240.947 93.4206 234.337 97.4976C227.704 101.589 218.167 102.34 206.058 97.6163L207.512 93.8898C218.848 98.3121 226.99 97.3299 232.237 94.0931C237.508 90.8422 240.279 85.0658 240.392 79.0164C240.505 72.965 237.948 66.8374 232.795 62.9837C227.683 59.1605 219.705 57.3521 208.537 60.5565L207.434 56.7117ZM208.708 95.2015L214.707 116.11L210.862 117.214L204.863 96.3047L208.708 95.2015ZM180.115 28.4047C185.072 27.0382 192.906 26.6152 199.405 30.7156C206.07 34.9204 210.717 43.4705 209.983 58.7301L205.988 58.5381C206.679 44.1579 202.306 37.2754 197.271 34.0986C192.07 30.8174 185.521 31.0636 181.178 32.2608L180.115 28.4047ZM173.024 70.7464C161.857 73.9508 156.052 79.7139 153.744 85.666C151.418 91.6658 152.5 98.2167 155.804 103.288C159.107 108.357 164.519 111.785 170.712 111.747C176.877 111.709 184.301 108.225 191.568 98.4649L194.776 100.854C187.014 111.279 178.53 115.699 170.736 115.747C162.971 115.795 156.375 111.491 152.453 105.471C148.531 99.4537 147.169 91.5597 150.015 84.2203C152.878 76.8332 159.858 70.3629 171.921 66.9015L173.024 70.7464ZM195.094 99.1076L201.094 120.017L197.249 121.12L191.249 100.211L195.094 99.1076ZM181.218 32.2493C176.901 33.537 171.218 36.8004 168.548 42.3401C165.963 47.7035 165.905 55.8574 174.116 67.6833L170.83 69.9646C162.117 57.4154 161.524 47.7024 164.945 40.6034C168.282 33.6807 175.147 29.886 180.075 28.4162L181.218 32.2493ZM213.336 118.584L199.723 122.491L198.62 118.646L212.233 114.74L213.336 118.584Z"
          fill="white"/>
</svg>
