<svg width="1122" height="386" viewBox="0 0 1122 386" fill="none" xmlns="http://www.w3.org/2000/svg">
    <path d="M557.51 99.2787C558.455 98.0276 559.932 97.2922 561.5 97.2922C563.068 97.2922 564.545 98.0276 565.49 99.2787C572.51 108.573 584.058 118.757 598.05 129.944C604.053 134.744 610.647 139.835 617.447 145.085C626.031 151.713 634.946 158.595 643.422 165.471C658.882 178.012 673.958 191.359 685.883 205.448C697.785 219.511 706.84 234.651 709.764 250.805L704.846 251.695L709.764 250.805C710.575 255.285 711.563 265.063 710.606 276.476C709.651 287.865 706.723 301.331 699.336 312.805C691.834 324.458 679.878 333.803 661.58 336.847C645.025 339.601 623.589 337.151 595.856 327.19L601.623 374.69C601.796 376.11 601.351 377.537 600.402 378.608C599.453 379.679 598.091 380.292 596.66 380.292H526.34C524.909 380.292 523.547 379.679 522.598 378.608C521.649 377.537 521.204 376.11 521.377 374.69L527.144 327.19C499.411 337.151 477.975 339.601 461.42 336.847C443.122 333.803 431.166 324.458 423.664 312.805C416.277 301.331 413.349 287.865 412.394 276.476C411.437 265.063 412.425 255.285 413.236 250.805C416.16 234.651 425.215 219.511 437.117 205.448C449.042 191.359 464.118 178.012 479.578 165.471C488.054 158.595 496.968 151.713 505.553 145.085C512.353 139.835 518.947 134.744 524.95 129.944C538.942 118.757 550.49 108.573 557.51 99.2787Z"
          fill="#B75838" stroke="#974533" stroke-width="10" stroke-linejoin="round"/>
    <path d="M580.815 310.817C580.652 309.409 581.246 308.021 582.376 307.166C583.506 306.312 585.004 306.119 586.314 306.659C611.456 317.031 629.44 319.242 642.212 317.012C654.793 314.815 662.666 308.252 667.678 300.081C672.778 291.766 674.977 281.65 675.704 272.552C676.429 263.479 675.662 255.776 675.11 252.579C673.053 240.651 666.567 228.925 657.259 217.381C647.963 205.852 636.057 194.753 623.505 184.065C617.238 178.728 610.843 173.522 604.558 168.428C603.861 167.863 603.165 167.299 602.471 166.737C596.918 162.239 591.469 157.824 586.341 153.521C576.647 145.385 567.864 137.453 561.5 129.805C555.136 137.453 546.353 145.385 536.659 153.521C531.531 157.824 526.081 162.239 520.528 166.737C519.834 167.3 519.139 167.863 518.442 168.428C512.157 173.522 505.762 178.728 499.495 184.065C486.943 194.753 475.037 205.852 465.741 217.381C456.433 228.925 449.947 240.651 447.89 252.579C447.338 255.776 446.571 263.479 447.296 272.552C448.022 281.65 450.222 291.766 455.322 300.081C460.334 308.252 468.207 314.815 480.788 317.012C493.56 319.242 511.544 317.031 536.686 306.659C537.996 306.119 539.494 306.312 540.624 307.166C541.754 308.021 542.348 309.409 542.185 310.817L537.156 354.292H585.844L580.815 310.817Z"
          stroke="white" stroke-width="8" stroke-linejoin="round"/>
</svg>
