<svg width="1122" height="385" viewBox="0 0 1122 385" fill="none" xmlns="http://www.w3.org/2000/svg">
    <path d="M836.412 235.77C826.612 209.859 854.915 166.158 857.28 143.789C878.126 152.239 930.007 147.859 948.247 168.708C953.222 174.394 979.342 212.191 919.339 222.164L935.04 242.368L907.609 258.817L897.183 235.45C860.121 283.681 839.084 242.836 836.412 235.77Z"
          stroke="black" stroke-width="12" stroke-linejoin="round"/>
    <path d="M1003.91 114.717C992.77 93.9337 1011.82 53.9143 1011.33 34.773C1029.86 39.5957 1073.17 30.1508 1090.87 45.7269C1095.7 49.975 1121.93 78.9816 1072.39 94.0463L1087.88 109.359L1066.56 126.281L1055.17 107.714C1029.23 152.527 1006.95 120.385 1003.91 114.717Z"
          stroke="black" stroke-width="12" stroke-linejoin="round"/>
    <circle cx="978" cy="142.097" r="10" fill="black"/>
    <circle cx="791" cy="239.097" r="10" fill="black"/>
    <path d="M284.639 235.867C294.438 209.956 266.135 166.255 263.77 143.886C242.924 152.337 191.043 147.956 172.803 168.805C167.829 174.492 141.708 212.288 201.711 222.262L186.01 242.466L213.441 258.915L223.867 235.547C260.929 283.778 281.966 242.934 284.639 235.867Z"
          stroke="black" stroke-width="12" stroke-linejoin="round"/>
    <path d="M117.139 114.814C128.28 94.0311 109.234 54.0117 109.716 34.8704C91.186 39.6931 47.8835 30.2482 30.1793 45.8243C25.3509 50.0724 -0.881815 79.079 48.6557 94.1437L33.1655 109.457L54.4951 126.379L65.8836 107.811C91.8203 152.624 114.1 120.482 117.139 114.814Z"
          stroke="black" stroke-width="12" stroke-linejoin="round"/>
    <circle cx="10" cy="10" r="10" transform="matrix(-1 0 0 1 153.05 132.195)" fill="black"/>
    <circle cx="10" cy="10" r="10" transform="matrix(-1 0 0 1 340.05 229.195)" fill="black"/>
    <path d="M557.51 98.9864C558.455 97.7354 559.932 97 561.5 97C563.068 97 564.545 97.7354 565.49 98.9864C572.51 108.28 584.058 118.465 598.05 129.652C604.053 134.452 610.647 139.543 617.447 144.793C626.031 151.42 634.946 158.303 643.422 165.179C658.882 177.72 673.958 191.067 685.883 205.156C697.785 219.219 706.84 234.359 709.764 250.512L704.846 251.403L709.764 250.512C710.575 254.992 711.563 264.77 710.606 276.184C709.651 287.572 706.723 301.039 699.336 312.513C691.834 324.166 679.878 333.51 661.58 336.554C645.025 339.309 623.589 336.859 595.856 326.897L601.623 374.397C601.796 375.818 601.351 377.244 600.402 378.316C599.453 379.387 598.091 380 596.66 380H526.34C524.909 380 523.547 379.387 522.598 378.316C521.649 377.244 521.204 375.818 521.377 374.397L527.144 326.897C499.411 336.859 477.975 339.309 461.42 336.554C443.122 333.51 431.166 324.166 423.664 312.513C416.277 301.039 413.349 287.572 412.394 276.184C411.437 264.77 412.425 254.992 413.236 250.512C416.16 234.359 425.215 219.219 437.117 205.156C449.042 191.067 464.118 177.72 479.578 165.179C488.054 158.303 496.968 151.421 505.553 144.793C512.353 139.543 518.947 134.452 524.95 129.652C538.942 118.465 550.49 108.28 557.51 98.9864Z"
          fill="white" stroke="black" stroke-width="10" stroke-linejoin="round"/>
    <path d="M580.815 310.524C580.652 309.117 581.246 307.728 582.376 306.874C583.506 306.019 585.004 305.827 586.314 306.367C611.456 316.739 629.44 318.95 642.212 316.72C654.793 314.523 662.666 307.96 667.678 299.789C672.778 291.474 674.977 281.358 675.704 272.26C676.429 263.186 675.662 255.484 675.11 252.287C673.053 240.359 666.567 228.632 657.259 217.088C647.963 205.56 636.057 194.461 623.505 183.772C617.238 178.436 610.843 173.229 604.558 168.135C603.861 167.571 603.165 167.007 602.471 166.445C596.918 161.946 591.469 157.532 586.341 153.228C576.647 145.092 567.864 137.161 561.5 129.513C555.136 137.161 546.353 145.092 536.659 153.228C531.531 157.532 526.081 161.947 520.528 166.445C519.834 167.007 519.139 167.571 518.442 168.135C512.157 173.229 505.762 178.436 499.495 183.772C486.943 194.461 475.037 205.56 465.741 217.088C456.433 228.632 449.947 240.359 447.89 252.287C447.338 255.484 446.571 263.186 447.296 272.26C448.022 281.358 450.222 291.474 455.322 299.789C460.334 307.96 468.207 314.523 480.788 316.72C493.56 318.95 511.544 316.739 536.686 306.367C537.996 305.827 539.494 306.019 540.624 306.874C541.754 307.728 542.348 309.117 542.185 310.524L537.156 354H585.844L580.815 310.524Z"
          stroke="black" stroke-width="8" stroke-linejoin="round"/>
</svg>
