<svg width="1122" height="386" viewBox="0 0 1122 386" fill="none" xmlns="http://www.w3.org/2000/svg">
    <path d="M839.529 233.959C830.271 209.49 856.982 168.227 859.211 147.104C878.893 155.087 927.874 150.96 945.099 170.652C949.796 176.022 974.465 211.719 917.818 221.126L932.646 240.208L906.752 255.737L896.903 233.668C861.924 279.207 842.054 240.633 839.529 233.959Z"
          fill="white" stroke="white" stroke-width="19" stroke-linejoin="round"/>
    <path d="M839.529 233.959C830.271 209.49 856.982 168.227 859.211 147.104C878.893 155.087 927.874 150.96 945.099 170.652C949.796 176.022 974.465 211.719 917.818 221.126L932.646 240.208L906.752 255.737L896.903 233.668C861.924 279.207 842.054 240.633 839.529 233.959Z"
          fill="white" stroke="white" stroke-width="4" stroke-linejoin="round"/>
    <path d="M1006.61 112.072C996.325 92.887 1013.89 55.9515 1013.44 38.2837C1030.55 42.7382 1070.51 34.0276 1086.85 48.4075C1091.31 52.3294 1115.53 79.1074 1069.81 93.0042L1084.11 107.141L1064.43 122.757L1053.92 105.617C1029.99 146.976 1009.42 117.304 1006.61 112.072Z"
          fill="white" stroke="white" stroke-width="19" stroke-linejoin="round"/>
    <path d="M1006.61 112.072C996.325 92.887 1013.89 55.9515 1013.44 38.2837C1030.55 42.7382 1070.51 34.0276 1086.85 48.4075C1091.31 52.3294 1115.53 79.1074 1069.81 93.0042L1084.11 107.141L1064.43 122.757L1053.92 105.617C1029.99 146.976 1009.42 117.304 1006.61 112.072Z"
          fill="white" stroke="white" stroke-width="4" stroke-linejoin="round"/>
    <circle cx="978" cy="142.292" r="10" fill="black"/>
    <circle cx="791" cy="239.292" r="10" fill="black"/>
    <path d="M281.186 233.959C290.443 209.49 263.732 168.227 261.504 147.104C241.821 155.087 192.841 150.96 175.616 170.652C170.918 176.022 146.249 211.719 202.896 221.126L188.068 240.208L213.963 255.737L223.811 233.668C258.791 279.207 278.661 240.633 281.186 233.959Z"
          fill="white" stroke="white" stroke-width="19" stroke-linejoin="round"/>
    <path d="M281.186 233.959C290.443 209.49 263.732 168.227 261.504 147.104C241.821 155.087 192.841 150.96 175.616 170.652C170.918 176.022 146.249 211.719 202.896 221.126L188.068 240.208L213.963 255.737L223.811 233.668C258.791 279.207 278.661 240.633 281.186 233.959Z"
          fill="white" stroke="white" stroke-width="4" stroke-linejoin="round"/>
    <path d="M114.101 112.072C124.389 92.887 106.822 55.9515 107.272 38.2837C90.1689 42.7382 50.2069 34.0276 33.8632 48.4075C29.4058 52.3294 5.18739 79.1074 50.9024 93.0042L36.6021 107.141L56.283 122.757L66.7986 105.617C90.724 146.976 111.295 117.304 114.101 112.072Z"
          fill="white" stroke="white" stroke-width="19" stroke-linejoin="round"/>
    <path d="M114.101 112.072C124.389 92.887 106.822 55.9515 107.272 38.2837C90.1689 42.7382 50.2069 34.0276 33.8632 48.4075C29.4058 52.3294 5.18739 79.1074 50.9024 93.0042L36.6021 107.141L56.283 122.757L66.7986 105.617C90.724 146.976 111.295 117.304 114.101 112.072Z"
          fill="white" stroke="white" stroke-width="4" stroke-linejoin="round"/>
    <circle cx="10" cy="10" r="10" transform="matrix(-1 0 0 1 153.05 132.39)" fill="black"/>
    <circle cx="10" cy="10" r="10" transform="matrix(-1 0 0 1 340.05 229.39)" fill="black"/>
    <path d="M557.51 99.1813C558.455 97.9302 559.932 97.1948 561.5 97.1948C563.068 97.1948 564.545 97.9302 565.49 99.1813C572.51 108.475 584.058 118.659 598.05 129.847C604.053 134.647 610.647 139.737 617.447 144.988C626.031 151.615 634.946 158.498 643.422 165.373C658.882 177.915 673.958 191.262 685.883 205.351C697.785 219.414 706.84 234.554 709.764 250.707L704.846 251.597L709.764 250.707C710.575 255.187 711.563 264.965 710.606 276.378C709.651 287.767 706.723 301.233 699.336 312.707C691.834 324.36 679.878 333.705 661.58 336.749C645.025 339.503 623.589 337.054 595.856 327.092L601.623 374.592C601.796 376.013 601.351 377.439 600.402 378.51C599.453 379.582 598.091 380.195 596.66 380.195H526.34C524.909 380.195 523.547 379.582 522.598 378.51C521.649 377.439 521.204 376.013 521.377 374.592L527.144 327.092C499.411 337.054 477.975 339.503 461.42 336.749C443.122 333.705 431.166 324.36 423.664 312.707C416.277 301.233 413.349 287.767 412.394 276.378C411.437 264.965 412.425 255.187 413.236 250.707C416.16 234.554 425.215 219.414 437.117 205.351C449.042 191.262 464.118 177.915 479.578 165.373C488.054 158.498 496.968 151.615 505.553 144.988C512.353 139.737 518.947 134.647 524.95 129.847C538.942 118.659 550.49 108.475 557.51 99.1813Z"
          fill="white" stroke="black" stroke-width="10" stroke-linejoin="round"/>
    <path d="M580.815 310.719C580.652 309.312 581.246 307.923 582.376 307.069C583.506 306.214 585.004 306.021 586.314 306.562C611.456 316.934 629.44 319.145 642.212 316.915C654.793 314.718 662.666 308.154 667.678 299.984C672.778 291.668 674.977 281.553 675.704 272.455C676.429 263.381 675.662 255.679 675.11 252.482C673.053 240.553 666.567 228.827 657.259 217.283C647.963 205.755 636.057 194.655 623.505 183.967C617.238 178.631 610.843 173.424 604.558 168.33C603.861 167.765 603.165 167.202 602.471 166.64C596.918 162.141 591.469 157.727 586.341 153.423C576.647 145.287 567.864 137.356 561.5 129.708C555.136 137.356 546.353 145.287 536.659 153.423C531.531 157.727 526.081 162.142 520.528 166.64C519.834 167.202 519.139 167.766 518.442 168.33C512.157 173.424 505.762 178.631 499.495 183.967C486.943 194.655 475.037 205.755 465.741 217.283C456.433 228.827 449.947 240.553 447.89 252.482C447.338 255.679 446.571 263.381 447.296 272.455C448.022 281.553 450.222 291.668 455.322 299.984C460.334 308.154 468.207 314.718 480.788 316.915C493.56 319.145 511.544 316.934 536.686 306.562C537.996 306.021 539.494 306.214 540.624 307.069C541.754 307.923 542.348 309.312 542.185 310.719L537.156 354.195H585.844L580.815 310.719Z"
          stroke="black" stroke-width="8" stroke-linejoin="round"/>
</svg>
