<svg width="1122" height="386" viewBox="0 0 1122 386" fill="none" xmlns="http://www.w3.org/2000/svg">
    <path d="M839.529 233.862C830.271 209.392 856.982 168.129 859.211 147.006C878.893 154.99 927.874 150.863 945.099 170.554C949.796 175.925 974.465 211.622 917.818 221.029L932.646 240.111L906.752 255.639L896.903 233.571C861.924 279.11 842.054 240.535 839.529 233.862Z"
          fill="white" stroke="white" stroke-width="19" stroke-linejoin="round"/>
    <path d="M839.529 233.862C830.271 209.392 856.982 168.129 859.211 147.006C878.893 154.99 927.874 150.863 945.099 170.554C949.796 175.925 974.465 211.622 917.818 221.029L932.646 240.111L906.752 255.639L896.903 233.571C861.924 279.11 842.054 240.535 839.529 233.862Z"
          fill="white" stroke="white" stroke-width="4" stroke-linejoin="round"/>
    <path d="M1003.91 114.814C992.77 94.031 1011.82 54.0116 1011.33 34.8703C1029.86 39.693 1073.17 30.2481 1090.87 45.8242C1095.7 50.0722 1121.93 79.0789 1072.39 94.1436L1087.88 109.456L1066.56 126.378L1055.17 107.811C1029.23 152.624 1006.95 120.482 1003.91 114.814Z"
          stroke="black" stroke-width="12" stroke-linejoin="round"/>
    <circle cx="978" cy="142.195" r="10" fill="black"/>
    <circle cx="791" cy="239.195" r="10" fill="black"/>
    <path d="M281.186 233.862C290.443 209.392 263.732 168.129 261.504 147.006C241.821 154.99 192.841 150.863 175.616 170.554C170.918 175.925 146.249 211.622 202.896 221.029L188.068 240.111L213.963 255.639L223.811 233.571C258.791 279.11 278.661 240.535 281.186 233.862Z"
          fill="white" stroke="white" stroke-width="19" stroke-linejoin="round"/>
    <path d="M281.186 233.862C290.443 209.392 263.732 168.129 261.504 147.006C241.821 154.99 192.841 150.863 175.616 170.554C170.918 175.925 146.249 211.622 202.896 221.029L188.068 240.111L213.963 255.639L223.811 233.571C258.791 279.11 278.661 240.535 281.186 233.862Z"
          fill="white" stroke="white" stroke-width="4" stroke-linejoin="round"/>
    <path d="M117.139 114.911C128.28 94.1284 109.234 54.109 109.716 34.9677C91.186 39.7904 47.8835 30.3455 30.1793 45.9216C25.3509 50.1697 -0.881815 79.1763 48.6557 94.241L33.1655 109.554L54.4951 126.476L65.8836 107.909C91.8203 152.722 114.1 120.579 117.139 114.911Z"
          stroke="black" stroke-width="12" stroke-linejoin="round"/>
    <circle cx="10" cy="10" r="10" transform="matrix(-1 0 0 1 153.05 132.292)" fill="black"/>
    <circle cx="10" cy="10" r="10" transform="matrix(-1 0 0 1 340.05 229.292)" fill="black"/>
    <path d="M557.51 99.0838C558.455 97.8328 559.932 97.0974 561.5 97.0974C563.068 97.0974 564.545 97.8328 565.49 99.0838C572.51 108.378 584.058 118.562 598.05 129.749C604.053 134.55 610.647 139.64 617.447 144.891C626.031 151.518 634.946 158.4 643.422 165.276C658.882 177.817 673.958 191.164 685.883 205.253C697.785 219.316 706.84 234.456 709.764 250.61L704.846 251.5L709.764 250.61C710.575 255.09 711.563 264.868 710.606 276.281C709.651 287.67 706.723 301.136 699.336 312.61C691.834 324.263 679.878 333.608 661.58 336.652C645.025 339.406 623.589 336.956 595.856 326.995L601.623 374.495C601.796 375.915 601.351 377.342 600.402 378.413C599.453 379.484 598.091 380.097 596.66 380.097H526.34C524.909 380.097 523.547 379.484 522.598 378.413C521.649 377.342 521.204 375.915 521.377 374.495L527.144 326.995C499.411 336.956 477.975 339.406 461.42 336.652C443.122 333.608 431.166 324.263 423.664 312.61C416.277 301.136 413.349 287.67 412.394 276.281C411.437 264.868 412.425 255.09 413.236 250.61C416.16 234.456 425.215 219.316 437.117 205.253C449.042 191.164 464.118 177.817 479.578 165.276C488.054 158.4 496.968 151.518 505.553 144.891C512.353 139.64 518.947 134.55 524.95 129.749C538.942 118.562 550.49 108.378 557.51 99.0838Z"
          fill="white" stroke="black" stroke-width="10" stroke-linejoin="round"/>
    <path d="M580.815 310.622C580.652 309.214 581.246 307.826 582.376 306.971C583.506 306.117 585.004 305.924 586.314 306.464C611.456 316.836 629.44 319.047 642.212 316.817C654.793 314.62 662.666 308.057 667.678 299.887C672.778 291.571 674.977 281.455 675.704 272.358C676.429 263.284 675.662 255.582 675.11 252.384C673.053 240.456 666.567 228.73 657.259 217.186C647.963 205.657 636.057 194.558 623.505 183.87C617.238 178.534 610.843 173.327 604.558 168.233C603.861 167.668 603.165 167.105 602.471 166.542C596.918 162.044 591.469 157.629 586.341 153.326C576.647 145.19 567.864 137.258 561.5 129.611C555.136 137.258 546.353 145.19 536.659 153.326C531.531 157.629 526.081 162.044 520.528 166.543C519.834 167.105 519.139 167.668 518.442 168.233C512.157 173.327 505.762 178.534 499.495 183.87C486.943 194.558 475.037 205.657 465.741 217.186C456.433 228.73 449.947 240.456 447.89 252.384C447.338 255.582 446.571 263.284 447.296 272.358C448.022 281.455 450.222 291.571 455.322 299.887C460.334 308.057 468.207 314.62 480.788 316.817C493.56 319.047 511.544 316.836 536.686 306.464C537.996 305.924 539.494 306.117 540.624 306.971C541.754 307.826 542.348 309.214 542.185 310.622L537.156 354.097H585.844L580.815 310.622Z"
          stroke="black" stroke-width="8" stroke-linejoin="round"/>
</svg>
