<svg width="752" height="190" viewBox="0 0 752 190" fill="none" xmlns="http://www.w3.org/2000/svg">
    <path d="M434.524 66.6874C430.069 42.3889 387.75 21.9561 375.5 5.94117C363.25 21.9561 320.931 42.3889 316.476 66.6874C315.261 73.3143 312.578 114.18 363.807 94.2994L361.022 116.941L389.978 116.941L387.193 94.2994C438.422 114.18 435.739 73.3143 434.524 66.6874Z"
          stroke="black" stroke-width="10" stroke-linejoin="round"/>
    <circle cx="9" cy="9" r="9" transform="matrix(-1 0 0 1 479.999 66.8813)" fill="black"/>
    <circle cx="8" cy="8" r="8" transform="matrix(-1 0 0 1 639.999 109.881)" fill="black"/>
    <path d="M731.156 159.156C736.456 143.383 718.112 117.479 716.099 104.031C703.628 109.451 671.94 107.621 661.373 120.474C658.491 123.98 643.561 147.174 680.336 152.249L671.297 164.674L688.413 174.162L694.161 159.912C717.952 188.409 729.71 163.458 731.156 159.156Z"
          stroke="black" stroke-width="10" stroke-linejoin="round"/>
    <path d="M608.543 97.4748C610.758 74.8242 578.348 45.943 571.532 28.6396C556.579 39.6967 513.786 46.9997 503.655 67.3789C500.892 72.9369 488.126 108.437 538.694 103.894L530.468 123.233L556.195 130.615L559.474 109.857C599.94 140.52 607.938 103.652 608.543 97.4748Z"
          stroke="black" stroke-width="10" stroke-linejoin="round"/>
    <circle cx="280.273" cy="71.3523" r="9" fill="black"/>
    <circle cx="119.273" cy="113.352" r="8" fill="black"/>
    <path d="M20.1166 154.627C14.8159 138.854 33.1606 112.95 35.1729 99.5024C47.6438 104.922 79.3322 103.092 89.8996 115.945C92.7816 119.451 107.711 142.645 70.9366 147.72L79.9755 160.145L62.859 169.633L57.1117 155.383C33.3201 183.88 21.5624 158.929 20.1166 154.627Z"
          stroke="black" stroke-width="10" stroke-linejoin="round"/>
    <path d="M142.73 92.9458C140.514 70.2951 172.924 41.414 179.74 24.1105C194.693 35.1676 237.486 42.4707 247.617 62.8499C250.38 68.4079 263.147 103.908 212.578 99.3654L220.805 118.704L195.077 126.086L191.799 105.328C151.332 135.991 143.334 99.1232 142.73 92.9458Z"
          stroke="black" stroke-width="10" stroke-linejoin="round"/>
</svg>
