<svg width="752" height="191" viewBox="0 0 752 191" fill="none" xmlns="http://www.w3.org/2000/svg">
    <path d="M318.46 69.6517C322.765 45.791 363.662 25.7264 375.5 10C387.338 25.7264 428.235 45.791 432.54 69.6517C433.714 76.1592 436.307 116.289 386.8 96.7662L389.491 119H361.509L364.2 96.7662C314.693 116.289 317.286 76.1592 318.46 69.6517Z"
          fill="white" stroke="white" stroke-width="19" stroke-linejoin="round"/>
    <path d="M318.46 69.6517C322.765 45.791 363.662 25.7264 375.5 10C387.338 25.7264 428.235 45.791 432.54 69.6517C433.714 76.1592 436.307 116.289 386.8 96.7662L389.491 119H361.509L364.2 96.7662C314.693 116.289 317.286 76.1592 318.46 69.6517Z"
          fill="white" stroke="white" stroke-width="4" stroke-linejoin="round"/>
    <circle cx="9" cy="9" r="9" transform="matrix(-1 0 0 1 479.999 67.9399)" fill="black"/>
    <circle cx="8" cy="8" r="8" transform="matrix(-1 0 0 1 639.999 110.94)" fill="black"/>
    <path d="M731.156 160.215C736.456 144.441 718.112 118.538 716.099 105.09C703.628 110.51 671.94 108.68 661.373 121.533C658.491 125.039 643.561 148.232 680.336 153.308L671.297 165.733L688.413 175.221L694.161 160.971C717.952 189.468 729.71 164.516 731.156 160.215Z"
          stroke="black" stroke-width="10" stroke-linejoin="round"/>
    <path d="M608.543 98.5335C610.758 75.8829 578.348 47.0017 571.532 29.6983C556.579 40.7554 513.786 48.0584 503.655 68.4377C500.892 73.9956 488.126 109.496 538.694 104.953L530.468 124.291L556.195 131.673L559.474 110.916C599.94 141.579 607.938 104.711 608.543 98.5335Z"
          stroke="black" stroke-width="10" stroke-linejoin="round"/>
    <circle cx="280.273" cy="72.411" r="9" fill="black"/>
    <circle cx="119.273" cy="114.411" r="8" fill="black"/>
    <path d="M20.1166 155.686C14.8159 139.912 33.1606 114.009 35.1729 100.561C47.6438 105.981 79.3322 104.15 89.8996 117.004C92.7816 120.51 107.711 143.703 70.9366 148.779L79.9755 161.204L62.859 170.692L57.1117 156.442C33.3201 184.939 21.5624 159.987 20.1166 155.686Z"
          stroke="black" stroke-width="10" stroke-linejoin="round"/>
    <path d="M142.73 94.0046C140.514 71.354 172.924 42.4728 179.74 25.1693C194.693 36.2265 237.486 43.5295 247.617 63.9087C250.38 69.4667 263.147 104.967 212.578 100.424L220.805 119.762L195.077 127.144L191.799 106.387C151.332 137.05 143.334 100.182 142.73 94.0046Z"
          stroke="black" stroke-width="10" stroke-linejoin="round"/>
</svg>
