<svg width="752" height="189" viewBox="0 0 752 189" fill="none" xmlns="http://www.w3.org/2000/svg">
    <path d="M434.524 65.9345C430.069 41.636 387.75 21.2032 375.5 5.18824C363.25 21.2032 320.931 41.636 316.476 65.9345C315.261 72.5614 312.578 113.427 363.807 93.5464L361.022 116.188L389.978 116.188L387.193 93.5464C438.422 113.427 435.739 72.5614 434.524 65.9345Z"
          stroke="black" stroke-width="10" stroke-linejoin="round"/>
    <circle cx="9" cy="9" r="9" transform="matrix(-1 0 0 1 479.999 66.1282)" fill="black"/>
    <circle cx="8" cy="8" r="8" transform="matrix(-1 0 0 1 639.999 109.128)" fill="black"/>
    <path d="M731.156 158.403C736.456 142.63 718.112 116.727 716.099 103.279C703.628 108.698 671.94 106.868 661.373 119.722C658.491 123.227 643.561 146.421 680.336 151.496L671.297 163.921L688.413 173.409L694.161 159.159C717.952 187.656 729.71 162.705 731.156 158.403Z"
          stroke="black" stroke-width="10" stroke-linejoin="round"/>
    <path d="M508.76 68.2403C517.818 50.0832 556.222 43.6485 569.626 33.8144C575.776 49.2594 604.925 75.0772 602.978 95.2746C602.447 100.783 595.334 133.65 558.949 106.228L556.044 124.735L532.934 118.104L540.283 100.872C494.894 104.83 506.29 73.1922 508.76 68.2403Z"
          fill="white" stroke="white" stroke-width="19" stroke-linejoin="round"/>
    <path d="M508.76 68.2403C517.818 50.0832 556.222 43.6485 569.626 33.8144C575.776 49.2594 604.925 75.0772 602.978 95.2746C602.447 100.783 595.334 133.65 558.949 106.228L556.044 124.735L532.934 118.104L540.283 100.872C494.894 104.83 506.29 73.1922 508.76 68.2403Z"
          fill="white" stroke="white" stroke-width="4" stroke-linejoin="round"/>
    <circle cx="280.273" cy="70.5994" r="9" fill="black"/>
    <circle cx="119.273" cy="112.599" r="8" fill="black"/>
    <path d="M20.1166 153.874C14.8159 138.101 33.1606 112.197 35.1729 98.7495C47.6438 104.169 79.3322 102.339 89.8996 115.193C92.7816 118.698 107.711 141.892 70.9366 146.967L79.9755 159.392L62.859 168.88L57.1117 154.63C33.3201 183.127 21.5624 158.176 20.1166 153.874Z"
          stroke="black" stroke-width="10" stroke-linejoin="round"/>
    <path d="M242.457 63.611C233.356 45.3056 194.919 38.7458 181.487 28.8138C175.365 44.3564 146.253 70.2986 148.243 90.6442C148.786 96.193 155.97 129.309 192.319 101.766L195.264 120.412L218.373 113.781L210.984 96.4106C256.406 100.491 244.939 68.6034 242.457 63.611Z"
          fill="white" stroke="white" stroke-width="19" stroke-linejoin="round"/>
    <path d="M242.457 63.611C233.356 45.3056 194.919 38.7458 181.487 28.8138C175.365 44.3564 146.253 70.2986 148.243 90.6442C148.786 96.193 155.97 129.309 192.319 101.766L195.264 120.412L218.373 113.781L210.984 96.4106C256.406 100.491 244.939 68.6034 242.457 63.611Z"
          fill="white" stroke="white" stroke-width="4" stroke-linejoin="round"/>
</svg>
