<svg width="752" height="191" viewBox="0 0 752 191" fill="none" xmlns="http://www.w3.org/2000/svg">
    <path d="M318.46 70.0282C322.765 46.1675 363.662 26.1028 375.5 10.3765C387.338 26.1028 428.235 46.1675 432.54 70.0282C433.714 76.5357 436.307 116.665 386.8 97.1426L389.491 119.376H361.509L364.2 97.1426C314.693 116.665 317.286 76.5357 318.46 70.0282Z"
          fill="white" stroke="white" stroke-width="19" stroke-linejoin="round"/>
    <path d="M318.46 70.0282C322.765 46.1675 363.662 26.1028 375.5 10.3765C387.338 26.1028 428.235 46.1675 432.54 70.0282C433.714 76.5357 436.307 116.665 386.8 97.1426L389.491 119.376H361.509L364.2 97.1426C314.693 116.665 317.286 76.5357 318.46 70.0282Z"
          fill="white" stroke="white" stroke-width="4" stroke-linejoin="round"/>
    <circle cx="9" cy="9" r="9" transform="matrix(-1 0 0 1 479.999 68.3164)" fill="black"/>
    <circle cx="8" cy="8" r="8" transform="matrix(-1 0 0 1 639.999 111.316)" fill="black"/>
    <path d="M731.156 160.591C736.456 144.818 718.112 118.915 716.099 105.467C703.628 110.887 671.94 109.056 661.373 121.91C658.491 125.415 643.561 148.609 680.336 153.684L671.297 166.109L688.413 175.597L694.161 161.347C717.952 189.845 729.71 164.893 731.156 160.591Z"
          stroke="black" stroke-width="10" stroke-linejoin="round"/>
    <path d="M508.76 70.4285C517.818 52.2715 556.222 45.8367 569.626 36.0026C575.776 51.4476 604.925 77.2654 602.978 97.4628C602.447 102.971 595.334 135.838 558.949 108.416L556.044 126.923L532.934 120.292L540.283 103.06C494.894 107.019 506.29 75.3804 508.76 70.4285Z"
          fill="white" stroke="white" stroke-width="19" stroke-linejoin="round"/>
    <path d="M508.76 70.4285C517.818 52.2715 556.222 45.8367 569.626 36.0026C575.776 51.4476 604.925 77.2654 602.978 97.4628C602.447 102.971 595.334 135.838 558.949 108.416L556.044 126.923L532.934 120.292L540.283 103.06C494.894 107.019 506.29 75.3804 508.76 70.4285Z"
          fill="white" stroke="white" stroke-width="4" stroke-linejoin="round"/>
    <circle cx="280.273" cy="72.7876" r="9" fill="black"/>
    <circle cx="119.273" cy="114.788" r="8" fill="black"/>
    <path d="M20.1166 156.062C14.8159 140.289 33.1606 114.386 35.1729 100.938C47.6438 106.357 79.3322 104.527 89.8996 117.381C92.7816 120.886 107.711 144.08 70.9366 149.155L79.9755 161.58L62.859 171.068L57.1117 156.818C33.3201 185.316 21.5624 160.364 20.1166 156.062Z"
          stroke="black" stroke-width="10" stroke-linejoin="round"/>
    <path d="M242.457 65.7992C233.356 47.4938 194.919 40.934 181.487 31.0021C175.365 46.5447 146.253 72.4868 148.243 92.8324C148.786 98.3812 155.97 131.498 192.319 103.954L195.264 122.6L218.373 115.969L210.984 98.5988C256.406 102.679 244.939 70.7916 242.457 65.7992Z"
          fill="white" stroke="white" stroke-width="19" stroke-linejoin="round"/>
    <path d="M242.457 65.7992C233.356 47.4938 194.919 40.934 181.487 31.0021C175.365 46.5447 146.253 72.4868 148.243 92.8324C148.786 98.3812 155.97 131.498 192.319 103.954L195.264 122.6L218.373 115.969L210.984 98.5988C256.406 102.679 244.939 70.7916 242.457 65.7992Z"
          fill="white" stroke="white" stroke-width="4" stroke-linejoin="round"/>
</svg>
