<svg width="750" height="189" viewBox="0 0 750 189" fill="none" xmlns="http://www.w3.org/2000/svg">
    <path d="M433.524 66.311C429.069 42.0125 386.75 21.5796 374.5 5.5647C362.25 21.5796 319.931 42.0125 315.476 66.311C314.261 72.9378 311.578 113.804 362.807 93.9229L360.022 116.565L388.978 116.565L386.193 93.9229C437.422 113.803 434.739 72.9378 433.524 66.311Z"
          stroke="black" stroke-width="10" stroke-linejoin="round"/>
    <circle cx="9" cy="9" r="9" transform="matrix(-1 0 0 1 478.999 66.5046)" fill="black"/>
    <circle cx="8" cy="8" r="8" transform="matrix(-1 0 0 1 638.999 109.505)" fill="black"/>
    <path d="M665.353 122.471C674.44 111.417 701.689 112.99 712.413 108.329C714.143 119.894 729.916 142.168 725.358 155.732C724.115 159.432 714.003 180.889 693.546 156.384L688.603 168.638L673.885 160.48L681.658 149.794C650.036 145.431 662.875 125.486 665.353 122.471Z"
          fill="white" stroke="white" stroke-width="19" stroke-linejoin="round"/>
    <path d="M665.353 122.471C674.44 111.417 701.689 112.99 712.413 108.329C714.143 119.894 729.916 142.168 725.358 155.732C724.115 159.432 714.003 180.889 693.546 156.384L688.603 168.638L673.885 160.48L681.658 149.794C650.036 145.431 662.875 125.486 665.353 122.471Z"
          fill="white" stroke="white" stroke-width="4" stroke-linejoin="round"/>
    <path d="M507.76 68.6167C516.818 50.4597 555.222 44.0249 568.626 34.1908C574.776 49.6358 603.925 75.4537 601.978 95.651C601.447 101.159 594.334 134.026 557.949 106.604L555.044 125.111L531.934 118.48L539.283 101.248C493.894 105.207 505.29 73.5687 507.76 68.6167Z"
          fill="white" stroke="white" stroke-width="19" stroke-linejoin="round"/>
    <path d="M507.76 68.6167C516.818 50.4597 555.222 44.0249 568.626 34.1908C574.776 49.6358 603.925 75.4537 601.978 95.651C601.447 101.159 594.334 134.026 557.949 106.604L555.044 125.111L531.934 118.48L539.283 101.248C493.894 105.207 505.29 73.5687 507.76 68.6167Z"
          fill="white" stroke="white" stroke-width="4" stroke-linejoin="round"/>
    <circle cx="279.273" cy="70.9758" r="9" fill="black"/>
    <circle cx="118.273" cy="112.976" r="8" fill="black"/>
    <path d="M83.3081 117.471C74.2208 106.417 46.9707 107.991 36.2465 103.331C34.516 114.895 18.7407 137.17 23.2991 150.734C24.5423 154.433 34.6532 175.89 55.1125 151.384L60.0549 163.638L74.774 155.48L67.0011 144.795C98.625 140.43 85.7864 120.485 83.3081 117.471Z"
          fill="white" stroke="white" stroke-width="19" stroke-linejoin="round"/>
    <path d="M83.3081 117.471C74.2208 106.417 46.9707 107.991 36.2465 103.331C34.516 114.895 18.7407 137.17 23.2991 150.734C24.5423 154.433 34.6532 175.89 55.1125 151.384L60.0549 163.638L74.774 155.48L67.0011 144.795C98.625 140.43 85.7864 120.485 83.3081 117.471Z"
          fill="white" stroke="white" stroke-width="4" stroke-linejoin="round"/>
    <path d="M241.457 63.9874C232.356 45.6821 193.919 39.1222 180.487 29.1903C174.365 44.7329 145.253 70.6751 147.243 91.0207C147.786 96.5695 154.97 129.686 191.319 102.143L194.264 120.788L217.373 114.157L209.984 96.787C255.406 100.867 243.939 68.9798 241.457 63.9874Z"
          fill="white" stroke="white" stroke-width="19" stroke-linejoin="round"/>
    <path d="M241.457 63.9874C232.356 45.6821 193.919 39.1222 180.487 29.1903C174.365 44.7329 145.253 70.6751 147.243 91.0207C147.786 96.5695 154.97 129.686 191.319 102.143L194.264 120.788L217.373 114.157L209.984 96.787C255.406 100.867 243.939 68.9798 241.457 63.9874Z"
          fill="white" stroke="white" stroke-width="4" stroke-linejoin="round"/>
</svg>
