<svg width="750" height="190" viewBox="0 0 750 190" fill="none" xmlns="http://www.w3.org/2000/svg">
    <path d="M317.46 69.4047C321.765 45.544 362.662 25.4793 374.5 9.75293C386.338 25.4793 427.235 45.544 431.54 69.4047C432.714 75.9121 435.307 116.041 385.8 96.5191L388.491 118.753H360.509L363.2 96.5191C313.693 116.041 316.286 75.9121 317.46 69.4047Z"
          fill="white" stroke="white" stroke-width="19" stroke-linejoin="round"/>
    <path d="M317.46 69.4047C321.765 45.544 362.662 25.4793 374.5 9.75293C386.338 25.4793 427.235 45.544 431.54 69.4047C432.714 75.9121 435.307 116.041 385.8 96.5191L388.491 118.753H360.509L363.2 96.5191C313.693 116.041 316.286 75.9121 317.46 69.4047Z"
          fill="white" stroke="white" stroke-width="4" stroke-linejoin="round"/>
    <circle cx="9" cy="9" r="9" transform="matrix(-1 0 0 1 478.999 67.6929)" fill="black"/>
    <circle cx="8" cy="8" r="8" transform="matrix(-1 0 0 1 638.999 110.693)" fill="black"/>
    <path d="M665.353 123.659C674.44 112.606 701.689 114.179 712.413 109.518C714.143 121.082 729.916 143.356 725.358 156.921C724.115 160.62 714.003 182.077 693.546 157.572L688.603 169.826L673.885 161.668L681.658 150.983C650.036 146.619 662.875 126.674 665.353 123.659Z"
          fill="white" stroke="white" stroke-width="19" stroke-linejoin="round"/>
    <path d="M665.353 123.659C674.44 112.606 701.689 114.179 712.413 109.518C714.143 121.082 729.916 143.356 725.358 156.921C724.115 160.62 714.003 182.077 693.546 157.572L688.603 169.826L673.885 161.668L681.658 150.983C650.036 146.619 662.875 126.674 665.353 123.659Z"
          fill="white" stroke="white" stroke-width="4" stroke-linejoin="round"/>
    <path d="M507.76 69.805C516.818 51.6479 555.222 45.2132 568.626 35.3791C574.776 50.8241 603.925 76.6419 601.978 96.8393C601.447 102.348 594.334 135.215 557.949 107.792L555.044 126.3L531.934 119.669L539.283 102.436C493.894 106.395 505.29 74.7569 507.76 69.805Z"
          fill="white" stroke="white" stroke-width="19" stroke-linejoin="round"/>
    <path d="M507.76 69.805C516.818 51.6479 555.222 45.2132 568.626 35.3791C574.776 50.8241 603.925 76.6419 601.978 96.8393C601.447 102.348 594.334 135.215 557.949 107.792L555.044 126.3L531.934 119.669L539.283 102.436C493.894 106.395 505.29 74.7569 507.76 69.805Z"
          fill="white" stroke="white" stroke-width="4" stroke-linejoin="round"/>
    <circle cx="279.273" cy="72.1641" r="9" fill="black"/>
    <circle cx="118.273" cy="114.164" r="8" fill="black"/>
    <path d="M83.3081 118.659C74.2208 107.605 46.9707 109.18 36.2465 104.519C34.516 116.083 18.7407 138.358 23.2991 151.922C24.5423 155.622 34.6532 177.079 55.1125 152.573L60.0549 164.827L74.774 156.668L67.0011 145.983C98.625 141.618 85.7864 121.673 83.3081 118.659Z"
          fill="white" stroke="white" stroke-width="19" stroke-linejoin="round"/>
    <path d="M83.3081 118.659C74.2208 107.605 46.9707 109.18 36.2465 104.519C34.516 116.083 18.7407 138.358 23.2991 151.922C24.5423 155.622 34.6532 177.079 55.1125 152.573L60.0549 164.827L74.774 156.668L67.0011 145.983C98.625 141.618 85.7864 121.673 83.3081 118.659Z"
          fill="white" stroke="white" stroke-width="4" stroke-linejoin="round"/>
    <path d="M241.457 65.1757C232.356 46.8703 193.919 40.3105 180.487 30.3785C174.365 45.9211 145.253 71.8633 147.243 92.2089C147.786 97.7577 154.97 130.874 191.319 103.331L194.264 121.976L217.373 115.346L209.984 97.9753C255.406 102.056 243.939 70.1681 241.457 65.1757Z"
          fill="white" stroke="white" stroke-width="19" stroke-linejoin="round"/>
    <path d="M241.457 65.1757C232.356 46.8703 193.919 40.3105 180.487 30.3785C174.365 45.9211 145.253 71.8633 147.243 92.2089C147.786 97.7577 154.97 130.874 191.319 103.331L194.264 121.976L217.373 115.346L209.984 97.9753C255.406 102.056 243.939 70.1681 241.457 65.1757Z"
          fill="white" stroke="white" stroke-width="4" stroke-linejoin="round"/>
</svg>
